<?xml version="1.0" encoding="UTF-8" standalone="no"?>
<!-- Created with Inkscape (http://www.inkscape.org/) -->
<svg
   xmlns:dc="http://purl.org/dc/elements/1.1/"
   xmlns:cc="http://creativecommons.org/ns#"
   xmlns:rdf="http://www.w3.org/1999/02/22-rdf-syntax-ns#"
   xmlns:svg="http://www.w3.org/2000/svg"
   xmlns="http://www.w3.org/2000/svg"
   xmlns:xlink="http://www.w3.org/1999/xlink"
   xmlns:sodipodi="http://sodipodi.sourceforge.net/DTD/sodipodi-0.dtd"
   xmlns:inkscape="http://www.inkscape.org/namespaces/inkscape"
   width="700"
   height="200"
   id="svg2591"
   sodipodi:version="0.32"
   inkscape:version="0.46"
   sodipodi:docname="canorus.svg"
   inkscape:output_extension="org.inkscape.output.svg.inkscape"
   version="1.0"
   inkscape:export-filename="/home/matevz/canorus/trunk/doc/usersguide/images/canorus.png"
   inkscape:export-xdpi="90"
   inkscape:export-ydpi="90">
  <defs
     id="defs2593">
    <linearGradient
       inkscape:collect="always"
       xlink:href="#linearGradient4452"
       id="linearGradient2839"
       gradientUnits="userSpaceOnUse"
       x1="-5.2941122"
       y1="0"
       x2="435.93253"
       y2="0" />
    <linearGradient
       id="linearGradient4452">
      <stop
         id="stop4454"
         offset="0"
         style="stop-color:#ffbf1d;stop-opacity:1;" />
      <stop
         id="stop4456"
         offset="1"
         style="stop-color:#ffffb7;stop-opacity:1;" />
    </linearGradient>
    <linearGradient
       inkscape:collect="always"
       xlink:href="#linearGradient4452"
       id="linearGradient3663"
       gradientUnits="userSpaceOnUse"
       gradientTransform="matrix(1.9584652,0,0,1.9584652,118.4348,85.990177)"
       x1="35.100529"
       y1="2.6243386"
       x2="34.116402"
       y2="-20.994709" />
    <inkscape:perspective
       sodipodi:type="inkscape:persp3d"
       inkscape:vp_x="0 : 526.18109 : 1"
       inkscape:vp_y="0 : 1000 : 0"
       inkscape:vp_z="744.09448 : 526.18109 : 1"
       inkscape:persp3d-origin="372.04724 : 350.78739 : 1"
       id="perspective2599" />
    <linearGradient
       inkscape:collect="always"
       xlink:href="#linearGradient4452"
       id="linearGradient2502"
       gradientUnits="userSpaceOnUse"
       x1="280.34512"
       y1="-188.93166"
       x2="280.34512"
       y2="63.946518" />
    <linearGradient
       inkscape:collect="always"
       xlink:href="#linearGradient4452"
       id="linearGradient2504"
       gradientUnits="userSpaceOnUse"
       x1="-5.2941122"
       y1="0"
       x2="435.93253"
       y2="0" />
    <linearGradient
       inkscape:collect="always"
       xlink:href="#linearGradient4452"
       id="linearGradient2506"
       gradientUnits="userSpaceOnUse"
       gradientTransform="matrix(1.9584652,0,0,1.9584652,118.4348,85.990177)"
       x1="35.100529"
       y1="2.6243386"
       x2="34.116402"
       y2="-20.994709" />
  </defs>
  <sodipodi:namedview
     id="base"
     pagecolor="#ffffff"
     bordercolor="#666666"
     borderopacity="1.0"
     gridtolerance="10000"
     guidetolerance="10"
     objecttolerance="10"
     inkscape:pageopacity="0.0"
     inkscape:pageshadow="2"
     inkscape:zoom="0.64"
     inkscape:cx="634.899"
     inkscape:cy="-78.98971"
     inkscape:document-units="px"
     inkscape:current-layer="layer1"
     showgrid="false"
     inkscape:window-width="1400"
     inkscape:window-height="974"
     inkscape:window-x="-5"
     inkscape:window-y="-3" />
  <metadata
     id="metadata2596">
    <rdf:RDF>
      <cc:Work
         rdf:about="">
        <dc:format>image/svg+xml</dc:format>
        <dc:type
           rdf:resource="http://purl.org/dc/dcmitype/StillImage" />
      </cc:Work>
    </rdf:RDF>
  </metadata>
  <g
     inkscape:label="Layer 1"
     inkscape:groupmode="layer"
     id="layer1">
    <g
       id="g2491"
       transform="matrix(2.0312262,0,0,2.0312262,2.6149079,-16.027429)">
      <g
         inkscape:export-ydpi="90"
         inkscape:export-xdpi="90"
         inkscape:export-filename="/home/matevz/canorus/trunk/doc/usersguide/images/canorus.png"
         style="opacity:0.48999999;fill:#000000;fill-opacity:1;stroke:none"
         transform="matrix(2.1599842,0,0,2.1599842,238.69996,333.9195)"
         id="g13764">
        <g
           transform="matrix(5.9719617e-2,0,0,-5.9719617e-2,-104.66142,-127.40771)"
           id="g6420"
           style="fill:#000000;fill-opacity:1;stroke:none;stroke-width:13.78757095;stroke-miterlimit:4;stroke-dasharray:none;stroke-opacity:0.51867221"
           inkscape:export-filename="/home/matevz/apps/canorus/branches/matevz/src/fonts/timesigC|.png"
           inkscape:export-xdpi="90"
           inkscape:export-ydpi="90">
          <path
             d="M 199,348 C 202,350 204,350 215,350 C 225,350 227,350 230,348 C 236,344 236,344 236,303 L 236,265 L 253,265 C 277,264 294,260 315,252 C 366,230 406,180 419,122 C 425,97 421,76 409,58 C 392,34 364,24 336,34 C 295,48 276,87 290,129 C 299,157 322,175 352,177 L 362,177 L 360,180 C 353,190 337,205 324,213 C 301,228 275,235 248,235 L 236,235 L 236,0 L 236,-235 L 252,-235 C 270,-234 280,-232 294,-227 C 338,-211 376,-167 394,-110 C 397,-101 400,-91 401,-87 C 404,-78 406,-76 414,-75 C 420,-75 424,-77 428,-82 C 431,-86 431,-89 427,-104 C 422,-122 417,-134 408,-152 C 395,-179 382,-197 364,-215 C 330,-249 292,-265 247,-265 L 236,-265 L 236,-303 C 236,-338 236,-341 234,-344 C 231,-349 228,-350 215,-350 C 201,-350 198,-349 195,-344 C 193,-341 193,-338 193,-300 L 193,-260 L 181,-258 C 135,-247 100,-228 70,-199 C 33,-161 10,-110 2,-44 C 0,-24 0,24 2,44 C 10,110 33,161 70,199 C 102,230 137,248 191,260 L 193,260 L 193,300 C 193,344 193,344 199,348 z M 193,0 L 193,224 C 193,224 190,222 186,220 C 160,205 145,174 140,124 C 136,84 136,-84 140,-123 C 142,-139 145,-159 149,-170 C 157,-194 171,-212 188,-221 L 193,-224 L 193,0 z"
             id="path6422"
             style="fill:#000000;fill-opacity:1;stroke:none;stroke-width:13.78757095;stroke-miterlimit:4;stroke-dasharray:none;stroke-opacity:0.51867221" />
        </g>
        <text
           xml:space="preserve"
           style="font-size:41.97792816px;font-style:normal;font-weight:bold;text-align:justify;text-anchor:start;fill:#000000;fill-opacity:1;stroke:none;stroke-width:0.84969485;stroke-linecap:butt;stroke-linejoin:miter;stroke-miterlimit:4;stroke-dasharray:none;stroke-opacity:0.51867221;font-family:FreeSerif"
           x="-78.583633"
           y="-112.51923"
           id="text6424"><tspan
             sodipodi:role="line"
             id="tspan6426"
             x="-78.583633"
             y="-112.51923"
             style="font-weight:bold;fill:#000000;fill-opacity:1;stroke:none;stroke-width:0.84969485;stroke-miterlimit:4;stroke-dasharray:none;stroke-opacity:0.51867221;font-family:FreeSerif">anorus</tspan></text>
      </g>
      <g
         inkscape:export-ydpi="90"
         inkscape:export-xdpi="90"
         inkscape:export-filename="/home/matevz/canorus/trunk/doc/usersguide/images/canorus.png"
         style="fill:url(#linearGradient2504);fill-opacity:1;stroke:#e95d00;stroke-width:13.78757095;stroke-miterlimit:4;stroke-dasharray:none;stroke-opacity:1"
         id="g63430"
         transform="matrix(0.1289934,0,0,-0.1289934,10.145677,56.321327)">
        <path
           style="fill:url(#linearGradient2502);fill-opacity:1;stroke:#e95d00;stroke-width:13.78757095;stroke-miterlimit:4;stroke-dasharray:none;stroke-opacity:1"
           id="path63432"
           d="M 199,348 C 202,350 204,350 215,350 C 225,350 227,350 230,348 C 236,344 236,344 236,303 L 236,265 L 253,265 C 277,264 294,260 315,252 C 366,230 406,180 419,122 C 425,97 421,76 409,58 C 392,34 364,24 336,34 C 295,48 276,87 290,129 C 299,157 322,175 352,177 L 362,177 L 360,180 C 353,190 337,205 324,213 C 301,228 275,235 248,235 L 236,235 L 236,0 L 236,-235 L 252,-235 C 270,-234 280,-232 294,-227 C 338,-211 376,-167 394,-110 C 397,-101 400,-91 401,-87 C 404,-78 406,-76 414,-75 C 420,-75 424,-77 428,-82 C 431,-86 431,-89 427,-104 C 422,-122 417,-134 408,-152 C 395,-179 382,-197 364,-215 C 330,-249 292,-265 247,-265 L 236,-265 L 236,-303 C 236,-338 236,-341 234,-344 C 231,-349 228,-350 215,-350 C 201,-350 198,-349 195,-344 C 193,-341 193,-338 193,-300 L 193,-260 L 181,-258 C 135,-247 100,-228 70,-199 C 33,-161 10,-110 2,-44 C 0,-24 0,24 2,44 C 10,110 33,161 70,199 C 102,230 137,248 191,260 L 193,260 L 193,300 C 193,344 193,344 199,348 z M 193,0 L 193,224 C 193,224 190,222 186,220 C 160,205 145,174 140,124 C 136,84 136,-84 140,-123 C 142,-139 145,-159 149,-170 C 157,-194 171,-212 188,-221 L 193,-224 L 193,0 z" />
      </g>
      <text
         inkscape:export-ydpi="90"
         inkscape:export-xdpi="90"
         inkscape:export-filename="/home/matevz/canorus/trunk/doc/usersguide/images/canorus.png"
         id="text3469"
         y="88.480202"
         x="66.473297"
         style="font-size:90.67166138px;font-style:normal;font-weight:bold;text-align:justify;text-anchor:start;fill:url(#linearGradient2506);fill-opacity:1;stroke:#e95d00;stroke-width:1.83532751;stroke-linecap:butt;stroke-linejoin:miter;stroke-miterlimit:4;stroke-dasharray:none;stroke-opacity:1;font-family:FreeSerif"
         xml:space="preserve"><tspan
           style="font-weight:bold;fill:url(#linearGradient2506);fill-opacity:1;stroke:#e95d00;stroke-width:1.83532751;stroke-miterlimit:4;stroke-dasharray:none;stroke-opacity:1;font-family:FreeSerif"
           y="88.480202"
           x="66.473297"
           id="tspan3471"
           sodipodi:role="line">anorus</tspan></text>
    </g>
  </g>
</svg>
