<?xml version="1.0" encoding="UTF-8" standalone="no"?>
<!-- Created with Inkscape (http://www.inkscape.org/) -->

<svg
   xmlns:dc="http://purl.org/dc/elements/1.1/"
   xmlns:cc="http://creativecommons.org/ns#"
   xmlns:rdf="http://www.w3.org/1999/02/22-rdf-syntax-ns#"
   xmlns:svg="http://www.w3.org/2000/svg"
   xmlns="http://www.w3.org/2000/svg"
   xmlns:xlink="http://www.w3.org/1999/xlink"
   xmlns:sodipodi="http://sodipodi.sourceforge.net/DTD/sodipodi-0.dtd"
   xmlns:inkscape="http://www.inkscape.org/namespaces/inkscape"
   width="744.09448819"
   height="1052.3622047"
   id="svg13788"
   sodipodi:version="0.32"
   inkscape:version="0.91 r13725"
   sodipodi:modified="true"
   sodipodi:docname="canoruslogo.svg"
   inkscape:output_extension="org.inkscape.output.svg.inkscape"
   version="1.1">
  <defs
     id="defs13790">
    <filter
       inkscape:collect="always"
       id="filter3748"
       x="-0.04390922"
       width="1.0878184"
       y="-0.15643561"
       height="1.3128712">
      <feGaussianBlur
         inkscape:collect="always"
         stdDeviation="2.7248302"
         id="feGaussianBlur3750" />
    </filter>
    <linearGradient
       inkscape:collect="always"
       xlink:href="#linearGradient4452"
       id="linearGradient2839"
       gradientUnits="userSpaceOnUse"
       x1="-5.2941122"
       y1="0"
       x2="435.93254"
       y2="0" />
    <linearGradient
       inkscape:collect="always"
       xlink:href="#linearGradient4452"
       id="linearGradient3663"
       gradientUnits="userSpaceOnUse"
       gradientTransform="matrix(1.9584652,0,0,1.9584652,310.74781,233.26299)"
       x1="35.100529"
       y1="2.6243386"
       x2="34.116402"
       y2="-20.994709" />
    <inkscape:perspective
       sodipodi:type="inkscape:persp3d"
       inkscape:vp_x="0 : 526.18109 : 1"
       inkscape:vp_y="0 : 1000 : 0"
       inkscape:vp_z="744.09448 : 526.18109 : 1"
       inkscape:persp3d-origin="372.04724 : 350.78739 : 1"
       id="perspective67" />
    <radialGradient
       inkscape:collect="always"
       xlink:href="#linearGradient10409"
       id="radialGradient13677"
       gradientUnits="userSpaceOnUse"
       gradientTransform="matrix(0.8556933,-0.8801896,1.95933,1.5072639,97.642002,110.59994)"
       cx="94.313072"
       cy="-44.233707"
       fx="94.313072"
       fy="-44.233707"
       r="55.865286" />
    <radialGradient
       inkscape:collect="always"
       xlink:href="#linearGradient10512"
       id="radialGradient13675"
       gradientUnits="userSpaceOnUse"
       gradientTransform="matrix(1.1051903,-1.535471e-3,3.2741564e-3,1.8298715,-4.7477763,44.759166)"
       cx="100.70083"
       cy="-45.231964"
       fx="100.70083"
       fy="-45.231964"
       r="55.365349" />
    <radialGradient
       inkscape:collect="always"
       xlink:href="#linearGradient10409"
       id="radialGradient13673"
       gradientUnits="userSpaceOnUse"
       gradientTransform="matrix(0.8556933,-0.8801896,1.95933,1.5072639,97.642002,110.59994)"
       cx="94.313072"
       cy="-44.233707"
       fx="94.313072"
       fy="-44.233707"
       r="55.865286" />
    <radialGradient
       inkscape:collect="always"
       xlink:href="#linearGradient10512"
       id="radialGradient13671"
       gradientUnits="userSpaceOnUse"
       gradientTransform="matrix(1.1051903,-1.535471e-3,3.2741564e-3,1.8298715,-4.7477763,44.759166)"
       cx="100.70083"
       cy="-45.231964"
       fx="100.70083"
       fy="-45.231964"
       r="55.365349" />
    <radialGradient
       inkscape:collect="always"
       xlink:href="#linearGradient10409"
       id="radialGradient13669"
       gradientUnits="userSpaceOnUse"
       gradientTransform="matrix(0.8556933,-0.8801896,1.95933,1.5072639,97.642002,110.59994)"
       cx="94.313072"
       cy="-44.233707"
       fx="94.313072"
       fy="-44.233707"
       r="55.865286" />
    <radialGradient
       inkscape:collect="always"
       xlink:href="#linearGradient10512"
       id="radialGradient13667"
       gradientUnits="userSpaceOnUse"
       gradientTransform="matrix(1.1051903,-1.535471e-3,3.2741564e-3,1.8298715,-4.7477763,44.759166)"
       cx="100.70083"
       cy="-45.231964"
       fx="100.70083"
       fy="-45.231964"
       r="55.365349" />
    <radialGradient
       inkscape:collect="always"
       xlink:href="#linearGradient10409"
       id="radialGradient13665"
       gradientUnits="userSpaceOnUse"
       gradientTransform="matrix(0.8556933,-0.8801896,1.95933,1.5072639,97.642002,110.59994)"
       cx="94.313072"
       cy="-44.233707"
       fx="94.313072"
       fy="-44.233707"
       r="55.865286" />
    <radialGradient
       inkscape:collect="always"
       xlink:href="#linearGradient10512"
       id="radialGradient13663"
       gradientUnits="userSpaceOnUse"
       gradientTransform="matrix(1.1051903,-1.535471e-3,3.2741564e-3,1.8298715,-4.7477763,44.759166)"
       cx="100.70083"
       cy="-45.231964"
       fx="100.70083"
       fy="-45.231964"
       r="55.365349" />
    <linearGradient
       id="linearGradient10409">
      <stop
         style="stop-color:#ffffba;stop-opacity:1;"
         offset="0"
         id="stop10411" />
      <stop
         id="stop10417"
         offset="0.79411763"
         style="stop-color:#f05e00;stop-opacity:1;" />
      <stop
         style="stop-color:#8a2800;stop-opacity:0;"
         offset="1"
         id="stop10413" />
    </linearGradient>
    <radialGradient
       inkscape:collect="always"
       xlink:href="#linearGradient10409"
       id="radialGradient13661"
       gradientUnits="userSpaceOnUse"
       gradientTransform="matrix(0.8556933,-0.8801896,1.95933,1.5072639,97.642002,110.59994)"
       cx="94.313072"
       cy="-44.233707"
       fx="94.313072"
       fy="-44.233707"
       r="55.865286" />
    <linearGradient
       id="linearGradient10512">
      <stop
         style="stop-color:#000000;stop-opacity:1;"
         offset="0"
         id="stop10514" />
      <stop
         id="stop10522"
         offset="0.93000001"
         style="stop-color:#000000;stop-opacity:0.62576687;" />
      <stop
         style="stop-color:#000000;stop-opacity:0;"
         offset="1"
         id="stop10516" />
    </linearGradient>
    <radialGradient
       inkscape:collect="always"
       xlink:href="#linearGradient10512"
       id="radialGradient13659"
       gradientUnits="userSpaceOnUse"
       gradientTransform="matrix(1.1051903,-1.535471e-3,3.2741564e-3,1.8298715,-4.7477763,44.759166)"
       cx="100.70083"
       cy="-45.231964"
       fx="100.70083"
       fy="-45.231964"
       r="55.365349" />
    <linearGradient
       inkscape:collect="always"
       xlink:href="#linearGradient4452"
       id="linearGradient13762"
       gradientUnits="userSpaceOnUse"
       x1="280.34512"
       y1="-188.93166"
       x2="280.34512"
       y2="63.946518" />
    <linearGradient
       inkscape:collect="always"
       xlink:href="#linearGradient4452"
       id="linearGradient13760"
       gradientUnits="userSpaceOnUse"
       x1="-5.2941122"
       y1="0"
       x2="435.93254"
       y2="0" />
    <linearGradient
       inkscape:collect="always"
       xlink:href="#linearGradient4452"
       id="linearGradient13736"
       gradientUnits="userSpaceOnUse"
       gradientTransform="matrix(0.9067035,0,0,0.9067035,-55.240698,-114.3449)"
       x1="35.100529"
       y1="2.6243386"
       x2="34.116402"
       y2="-20.994709" />
    <linearGradient
       inkscape:collect="always"
       xlink:href="#linearGradient4452"
       id="linearGradient13730"
       gradientUnits="userSpaceOnUse"
       x1="280.34512"
       y1="-188.93166"
       x2="280.34512"
       y2="63.946518" />
    <linearGradient
       id="linearGradient4452">
      <stop
         style="stop-color:#ffb61d;stop-opacity:1;"
         offset="0"
         id="stop4454" />
      <stop
         style="stop-color:#ffee85;stop-opacity:1;"
         offset="1"
         id="stop4456" />
    </linearGradient>
    <linearGradient
       inkscape:collect="always"
       xlink:href="#linearGradient4452"
       id="linearGradient13728"
       gradientUnits="userSpaceOnUse"
       x1="-5.2941122"
       y1="0"
       x2="435.93254"
       y2="0" />
    <linearGradient
       inkscape:collect="always"
       xlink:href="#linearGradient4452"
       id="linearGradient13859"
       gradientUnits="userSpaceOnUse"
       x1="-5.2941122"
       y1="0"
       x2="435.93254"
       y2="0" />
    <linearGradient
       inkscape:collect="always"
       xlink:href="#linearGradient4452"
       id="linearGradient13861"
       gradientUnits="userSpaceOnUse"
       x1="280.34512"
       y1="-188.93166"
       x2="280.34512"
       y2="63.946518" />
    <linearGradient
       inkscape:collect="always"
       xlink:href="#linearGradient4452"
       id="linearGradient2699"
       gradientUnits="userSpaceOnUse"
       x1="280.34512"
       y1="-188.93166"
       x2="280.34512"
       y2="63.946518" />
    <linearGradient
       inkscape:collect="always"
       xlink:href="#linearGradient4452"
       id="linearGradient2701"
       gradientUnits="userSpaceOnUse"
       x1="-5.2941122"
       y1="0"
       x2="435.93254"
       y2="0" />
    <linearGradient
       inkscape:collect="always"
       xlink:href="#linearGradient4452"
       id="linearGradient2703"
       gradientUnits="userSpaceOnUse"
       gradientTransform="matrix(1.9584652,0,0,1.9584652,310.74781,233.26299)"
       x1="35.100529"
       y1="2.6243386"
       x2="34.116402"
       y2="-20.994709" />
    <radialGradient
       inkscape:collect="always"
       xlink:href="#linearGradient10512"
       id="radialGradient3490"
       gradientUnits="userSpaceOnUse"
       gradientTransform="matrix(1.1051903,-1.535471e-3,3.2741564e-3,1.8298715,-4.7477763,44.759166)"
       cx="100.70083"
       cy="-45.231964"
       fx="100.70083"
       fy="-45.231964"
       r="55.365349" />
    <radialGradient
       inkscape:collect="always"
       xlink:href="#linearGradient10409"
       id="radialGradient3492"
       gradientUnits="userSpaceOnUse"
       gradientTransform="matrix(0.8556933,-0.8801896,1.95933,1.5072639,97.642002,110.59994)"
       cx="94.313072"
       cy="-44.233707"
       fx="94.313072"
       fy="-44.233707"
       r="55.865286" />
    <radialGradient
       inkscape:collect="always"
       xlink:href="#linearGradient10409"
       id="radialGradient3495"
       gradientUnits="userSpaceOnUse"
       gradientTransform="matrix(0.6535036,-0.7354034,1.4963646,1.2593276,135.8184,217.64681)"
       cx="94.313072"
       cy="-44.233707"
       fx="94.313072"
       fy="-44.233707"
       r="55.865286" />
    <radialGradient
       inkscape:collect="always"
       xlink:href="#linearGradient10512"
       id="radialGradient3498"
       gradientUnits="userSpaceOnUse"
       gradientTransform="matrix(0.8440475,-1.2828948e-3,2.5005138e-3,1.5288681,57.622052,162.63647)"
       cx="100.70083"
       cy="-45.231964"
       fx="100.70083"
       fy="-45.231964"
       r="55.365349" />
    <radialGradient
       inkscape:collect="always"
       xlink:href="#linearGradient10512"
       id="radialGradient3542"
       gradientUnits="userSpaceOnUse"
       gradientTransform="matrix(1.1051903,-1.535471e-3,3.2741564e-3,1.8298715,-4.7477763,44.759166)"
       cx="100.70083"
       cy="-45.231964"
       fx="100.70083"
       fy="-45.231964"
       r="55.365349" />
    <radialGradient
       inkscape:collect="always"
       xlink:href="#linearGradient10409"
       id="radialGradient3544"
       gradientUnits="userSpaceOnUse"
       gradientTransform="matrix(0.8556933,-0.8801896,1.95933,1.5072639,97.642002,110.59994)"
       cx="94.313072"
       cy="-44.233707"
       fx="94.313072"
       fy="-44.233707"
       r="55.865286" />
    <radialGradient
       inkscape:collect="always"
       xlink:href="#linearGradient10512"
       id="radialGradient3546"
       gradientUnits="userSpaceOnUse"
       gradientTransform="matrix(0.8440475,-1.2828948e-3,2.5005138e-3,1.5288681,57.622052,162.63647)"
       cx="100.70083"
       cy="-45.231964"
       fx="100.70083"
       fy="-45.231964"
       r="55.365349" />
    <radialGradient
       inkscape:collect="always"
       xlink:href="#linearGradient10409"
       id="radialGradient3548"
       gradientUnits="userSpaceOnUse"
       gradientTransform="matrix(0.6535036,-0.7354034,1.4963646,1.2593276,135.8184,217.64681)"
       cx="94.313072"
       cy="-44.233707"
       fx="94.313072"
       fy="-44.233707"
       r="55.865286" />
    <radialGradient
       inkscape:collect="always"
       xlink:href="#linearGradient10512"
       id="radialGradient3550"
       gradientUnits="userSpaceOnUse"
       gradientTransform="matrix(1.1051903,-1.535471e-3,3.2741564e-3,1.8298715,-4.7477763,44.759166)"
       cx="100.70083"
       cy="-45.231964"
       fx="100.70083"
       fy="-45.231964"
       r="55.365349" />
    <radialGradient
       inkscape:collect="always"
       xlink:href="#linearGradient10409"
       id="radialGradient3552"
       gradientUnits="userSpaceOnUse"
       gradientTransform="matrix(0.8556933,-0.8801896,1.95933,1.5072639,97.642002,110.59994)"
       cx="94.313072"
       cy="-44.233707"
       fx="94.313072"
       fy="-44.233707"
       r="55.865286" />
    <radialGradient
       inkscape:collect="always"
       xlink:href="#linearGradient10512"
       id="radialGradient3554"
       gradientUnits="userSpaceOnUse"
       gradientTransform="matrix(1.1051903,-1.535471e-3,3.2741564e-3,1.8298715,-4.7477763,44.759166)"
       cx="100.70083"
       cy="-45.231964"
       fx="100.70083"
       fy="-45.231964"
       r="55.365349" />
    <radialGradient
       inkscape:collect="always"
       xlink:href="#linearGradient10409"
       id="radialGradient3556"
       gradientUnits="userSpaceOnUse"
       gradientTransform="matrix(0.8556933,-0.8801896,1.95933,1.5072639,97.642002,110.59994)"
       cx="94.313072"
       cy="-44.233707"
       fx="94.313072"
       fy="-44.233707"
       r="55.865286" />
    <radialGradient
       inkscape:collect="always"
       xlink:href="#linearGradient10512"
       id="radialGradient3558"
       gradientUnits="userSpaceOnUse"
       gradientTransform="matrix(1.1051903,-1.535471e-3,3.2741564e-3,1.8298715,-4.7477763,44.759166)"
       cx="100.70083"
       cy="-45.231964"
       fx="100.70083"
       fy="-45.231964"
       r="55.365349" />
    <radialGradient
       inkscape:collect="always"
       xlink:href="#linearGradient10409"
       id="radialGradient3560"
       gradientUnits="userSpaceOnUse"
       gradientTransform="matrix(0.8556933,-0.8801896,1.95933,1.5072639,97.642002,110.59994)"
       cx="94.313072"
       cy="-44.233707"
       fx="94.313072"
       fy="-44.233707"
       r="55.865286" />
  </defs>
  <sodipodi:namedview
     id="base"
     pagecolor="#ffffff"
     bordercolor="#666666"
     borderopacity="1.0"
     gridtolerance="10000"
     guidetolerance="10"
     objecttolerance="10"
     inkscape:pageopacity="0.0"
     inkscape:pageshadow="2"
     inkscape:zoom="7.9195959"
     inkscape:cx="271.60294"
     inkscape:cy="991.60203"
     inkscape:document-units="px"
     inkscape:current-layer="layer1"
     inkscape:window-width="1588"
     inkscape:window-height="1126"
     inkscape:window-x="0"
     inkscape:window-y="0"
     showgrid="false"
     inkscape:window-maximized="0" />
  <metadata
     id="metadata13793">
    <rdf:RDF>
      <cc:Work
         rdf:about="">
        <dc:format>image/svg+xml</dc:format>
        <dc:type
           rdf:resource="http://purl.org/dc/dcmitype/StillImage" />
      </cc:Work>
    </rdf:RDF>
  </metadata>
  <g
     inkscape:label="Layer 1"
     inkscape:groupmode="layer"
     id="layer1">
    <rect
       style="opacity:1;fill:none;fill-opacity:1;fill-rule:nonzero;stroke:none;stroke-width:0.57602584;stroke-miterlimit:4;stroke-dasharray:none;stroke-dashoffset:0;stroke-opacity:1"
       id="rect3414"
       width="44.515137"
       height="44.515137"
       x="250.24243"
       y="34.033188"
       inkscape:export-xdpi="517.57678"
       inkscape:export-ydpi="517.57678" />
    <g
       id="g3526"
       inkscape:export-filename="/home/matevz/canorus/artwork/icons/wiki_logo.png"
       inkscape:export-xdpi="109.957"
       inkscape:export-ydpi="109.957"
       transform="translate(11.071429,32.142857)">
      <g
         id="g13559"
         transform="matrix(0.7637124,0,0,0.8355057,55.138289,125.23993)">
        <path
           sodipodi:nodetypes="ccs"
           id="path13561"
           d="M 37.700563,-136.78502 C 90.600277,-105.13679 123.31138,-58.373246 110.71638,-32.402065 C 98.121426,-6.4309125 44.966326,-11.038364 -7.9333917,-42.686565"
           style="fill:none;fill-opacity:0.44398343;fill-rule:evenodd;stroke:url(#radialGradient3542);stroke-width:1.10000002;stroke-linecap:round;stroke-linejoin:round;stroke-miterlimit:4;stroke-dasharray:none;stroke-dashoffset:8;stroke-opacity:0.49792528" />
        <path
           style="fill:none;fill-opacity:0.44398343;fill-rule:evenodd;stroke:url(#radialGradient3544);stroke-width:1.10000002;stroke-linecap:round;stroke-linejoin:round;stroke-miterlimit:4;stroke-dasharray:none;stroke-dashoffset:8;stroke-opacity:1"
           d="M 36.757128,-137.02462 C 89.656842,-105.37639 122.36795,-58.612849 109.77295,-32.641668 C 97.177992,-6.6705151 44.022891,-11.277967 -8.8768263,-42.926168"
           id="path13563"
           sodipodi:nodetypes="ccs" />
      </g>
      <path
         style="fill:none;fill-opacity:0.44398343;fill-rule:evenodd;stroke:url(#radialGradient3546);stroke-width:0.87868321;stroke-linecap:round;stroke-linejoin:round;stroke-miterlimit:4;stroke-dasharray:none;stroke-dashoffset:8;stroke-opacity:0.49792528"
         d="M 90.040375,10.955266 C 130.44054,37.397543 155.42242,76.46875 145.80346,98.16782 C 136.18454,119.86687 95.589329,116.01731 55.189158,89.575062"
         id="path13581"
         sodipodi:nodetypes="ccs" />
      <path
         sodipodi:nodetypes="ccs"
         id="path13583"
         d="M 89.319862,10.755079 C 129.72003,37.197356 154.70191,76.268561 145.08295,97.96763 C 135.46403,119.66668 94.868816,115.81712 54.468646,89.374872"
         style="fill:none;fill-opacity:0.44398343;fill-rule:evenodd;stroke:url(#radialGradient3548);stroke-width:0.87868321;stroke-linecap:round;stroke-linejoin:round;stroke-miterlimit:4;stroke-dasharray:none;stroke-dashoffset:8;stroke-opacity:1" />
      <g
         transform="matrix(0.7637124,0,0,0.8355057,58.193139,125.23993)"
         id="g13569">
        <path
           style="fill:none;fill-opacity:0.44398343;fill-rule:evenodd;stroke:url(#radialGradient3550);stroke-width:1.10000002;stroke-linecap:round;stroke-linejoin:round;stroke-miterlimit:4;stroke-dasharray:none;stroke-dashoffset:8;stroke-opacity:0.49792528"
           d="M 37.700563,-136.78502 C 90.600277,-105.13679 123.31138,-58.373246 110.71638,-32.402065 C 98.121426,-6.4309125 44.966326,-11.038364 -7.9333917,-42.686565"
           id="path13571"
           sodipodi:nodetypes="ccs" />
        <path
           sodipodi:nodetypes="ccs"
           id="path13573"
           d="M 36.757128,-137.02462 C 89.656842,-105.37639 122.36795,-58.612849 109.77295,-32.641668 C 97.177992,-6.6705151 44.022891,-11.277967 -8.8768263,-42.926168"
           style="fill:none;fill-opacity:0.44398343;fill-rule:evenodd;stroke:url(#radialGradient3552);stroke-width:1.10000002;stroke-linecap:round;stroke-linejoin:round;stroke-miterlimit:4;stroke-dasharray:none;stroke-dashoffset:8;stroke-opacity:1" />
      </g>
      <g
         transform="matrix(0.7637124,0,0,0.8355057,52.08344,125.23993)"
         id="g13549">
        <path
           style="fill:none;fill-opacity:0.44398343;fill-rule:evenodd;stroke:url(#radialGradient3554);stroke-width:1.10000002;stroke-linecap:round;stroke-linejoin:round;stroke-miterlimit:4;stroke-dasharray:none;stroke-dashoffset:8;stroke-opacity:0.49792528"
           d="M 37.700563,-136.78502 C 90.600277,-105.13679 123.31138,-58.373246 110.71638,-32.402065 C 98.121426,-6.4309125 44.966326,-11.038364 -7.9333917,-42.686565"
           id="path13551"
           sodipodi:nodetypes="ccs" />
        <path
           sodipodi:nodetypes="ccs"
           id="path13553"
           d="M 36.757128,-137.02462 C 89.656842,-105.37639 122.36795,-58.612849 109.77295,-32.641668 C 97.177992,-6.6705151 44.022891,-11.277967 -8.8768263,-42.926168"
           style="fill:none;fill-opacity:0.44398343;fill-rule:evenodd;stroke:url(#radialGradient3556);stroke-width:1.10000002;stroke-linecap:round;stroke-linejoin:round;stroke-miterlimit:4;stroke-dasharray:none;stroke-dashoffset:8;stroke-opacity:1" />
      </g>
      <g
         transform="matrix(0.7637124,0,0,0.8355057,49.02859,125.23993)"
         id="g13545">
        <path
           sodipodi:nodetypes="ccs"
           id="path10423"
           d="M 37.700563,-136.78502 C 90.600277,-105.13679 123.31138,-58.373246 110.71638,-32.402065 C 98.121426,-6.4309125 44.966326,-11.038364 -7.9333917,-42.686565"
           style="fill:none;fill-opacity:0.44398343;fill-rule:evenodd;stroke:url(#radialGradient3558);stroke-width:1.10000002;stroke-linecap:round;stroke-linejoin:round;stroke-miterlimit:4;stroke-dasharray:none;stroke-dashoffset:8;stroke-opacity:0.49792528" />
        <path
           style="fill:none;fill-opacity:0.44398343;fill-rule:evenodd;stroke:url(#radialGradient3560);stroke-width:1.10000002;stroke-linecap:round;stroke-linejoin:round;stroke-miterlimit:4;stroke-dasharray:none;stroke-dashoffset:8;stroke-opacity:1"
           d="M 36.757128,-137.02462 C 89.656842,-105.37639 122.36795,-58.612849 109.77295,-32.641668 C 97.177992,-6.6705151 44.022891,-11.277967 -8.8768263,-42.926168"
           id="path8468"
           sodipodi:nodetypes="ccs" />
      </g>
    </g>
    <g
       id="g13853"
       transform="translate(51.321971,12.649057)"
       inkscape:export-xdpi="517.57678"
       inkscape:export-ydpi="517.57678">
      <g
         transform="matrix(0.05971962,0,0,-0.05971962,208.67761,43.978179)"
         id="g13756"
         style="fill:#000000;fill-opacity:0.44398343;stroke:#000000;stroke-width:13.78757095;stroke-miterlimit:4;stroke-dasharray:none;stroke-opacity:0.51867221"
         inkscape:export-filename="/home/matevz/apps/canorus/branches/matevz/src/fonts/timesigC|.png"
         inkscape:export-xdpi="90"
         inkscape:export-ydpi="90">
        <path
           d="m 199,348 c 3,2 5,2 16,2 10,0 12,0 15,-2 6,-4 6,-4 6,-45 l 0,-38 17,0 c 24,-1 41,-5 62,-13 51,-22 91,-72 104,-130 6,-25 2,-46 -10,-64 -17,-24 -45,-34 -73,-24 -41,14 -60,53 -46,95 9,28 32,46 62,48 l 10,0 -2,3 c -7,10 -23,25 -36,33 -23,15 -49,22 -76,22 l -12,0 0,-235 0,-235 16,0 c 18,1 28,3 42,8 44,16 82,60 100,117 3,9 6,19 7,23 3,9 5,11 13,12 6,0 10,-2 14,-7 3,-4 3,-7 -1,-22 -5,-18 -10,-30 -19,-48 -13,-27 -26,-45 -44,-63 -34,-34 -72,-50 -117,-50 l -11,0 0,-38 c 0,-35 0,-38 -2,-41 -3,-5 -6,-6 -19,-6 -14,0 -17,1 -20,6 -2,3 -2,6 -2,44 l 0,40 -12,2 c -46,11 -81,30 -111,59 -37,38 -60,89 -68,155 -2,20 -2,68 0,88 8,66 31,117 68,155 32,31 67,49 121,61 l 2,0 0,40 c 0,44 0,44 6,48 z m -6,-348 0,224 c 0,0 -3,-2 -7,-4 -26,-15 -41,-46 -46,-96 -4,-40 -4,-208 0,-247 2,-16 5,-36 9,-47 8,-24 22,-42 39,-51 l 5,-3 0,224 z"
           id="path13758"
           style="fill:#000000;fill-opacity:0.44398343;stroke:#000000;stroke-width:13.78757095;stroke-miterlimit:4;stroke-dasharray:none;stroke-opacity:0.51867221"
           inkscape:connector-curvature="0" />
      </g>
      <g
         transform="matrix(0.05971962,0,0,-0.05971962,207.96411,43.305309)"
         id="g13752"
         style="fill:url(#linearGradient13859);fill-opacity:1;stroke:#e95d00;stroke-width:13.78757095;stroke-miterlimit:4;stroke-dasharray:none;stroke-opacity:1"
         inkscape:export-filename="/home/matevz/apps/canorus/branches/matevz/src/fonts/timesigC|.png"
         inkscape:export-xdpi="90"
         inkscape:export-ydpi="90">
        <path
           d="m 199,348 c 3,2 5,2 16,2 10,0 12,0 15,-2 6,-4 6,-4 6,-45 l 0,-38 17,0 c 24,-1 41,-5 62,-13 51,-22 91,-72 104,-130 6,-25 2,-46 -10,-64 -17,-24 -45,-34 -73,-24 -41,14 -60,53 -46,95 9,28 32,46 62,48 l 10,0 -2,3 c -7,10 -23,25 -36,33 -23,15 -49,22 -76,22 l -12,0 0,-235 0,-235 16,0 c 18,1 28,3 42,8 44,16 82,60 100,117 3,9 6,19 7,23 3,9 5,11 13,12 6,0 10,-2 14,-7 3,-4 3,-7 -1,-22 -5,-18 -10,-30 -19,-48 -13,-27 -26,-45 -44,-63 -34,-34 -72,-50 -117,-50 l -11,0 0,-38 c 0,-35 0,-38 -2,-41 -3,-5 -6,-6 -19,-6 -14,0 -17,1 -20,6 -2,3 -2,6 -2,44 l 0,40 -12,2 c -46,11 -81,30 -111,59 -37,38 -60,89 -68,155 -2,20 -2,68 0,88 8,66 31,117 68,155 32,31 67,49 121,61 l 2,0 0,40 c 0,44 0,44 6,48 z m -6,-348 0,224 c 0,0 -3,-2 -7,-4 -26,-15 -41,-46 -46,-96 -4,-40 -4,-208 0,-247 2,-16 5,-36 9,-47 8,-24 22,-42 39,-51 l 5,-3 0,224 z"
           id="path13754"
           style="fill:url(#linearGradient13861);fill-opacity:1;stroke:#e95d00;stroke-width:13.78757095;stroke-miterlimit:4;stroke-dasharray:none;stroke-opacity:1"
           inkscape:connector-curvature="0" />
      </g>
    </g>
    <g
       id="g2688"
       transform="matrix(0.3553399,0,0,0.3553399,-19.917516,23.894978)"
       inkscape:export-filename="/home/matevz/canorus/artwork/icons/wiki_logo.png"
       inkscape:export-xdpi="102.03174"
       inkscape:export-ydpi="102.03174">
      <g
         style="fill:#000000;fill-opacity:1;stroke:none;filter:url(#filter3748)"
         transform="matrix(2.1599842,0,0,2.1599842,433.01297,483.19231)"
         id="g2653">
        <g
           transform="matrix(5.9719617e-2,0,0,-5.9719617e-2,-104.66142,-127.40771)"
           id="g2655"
           style="fill:#000000;fill-opacity:1;stroke:none;stroke-width:13.78757095;stroke-miterlimit:4;stroke-dasharray:none;stroke-opacity:0.51867221"
           inkscape:export-filename="/home/matevz/apps/canorus/branches/matevz/src/fonts/timesigC|.png"
           inkscape:export-xdpi="90"
           inkscape:export-ydpi="90">
          <path
             d="M 199,348 C 202,350 204,350 215,350 C 225,350 227,350 230,348 C 236,344 236,344 236,303 L 236,265 L 253,265 C 277,264 294,260 315,252 C 366,230 406,180 419,122 C 425,97 421,76 409,58 C 392,34 364,24 336,34 C 295,48 276,87 290,129 C 299,157 322,175 352,177 L 362,177 L 360,180 C 353,190 337,205 324,213 C 301,228 275,235 248,235 L 236,235 L 236,0 L 236,-235 L 252,-235 C 270,-234 280,-232 294,-227 C 338,-211 376,-167 394,-110 C 397,-101 400,-91 401,-87 C 404,-78 406,-76 414,-75 C 420,-75 424,-77 428,-82 C 431,-86 431,-89 427,-104 C 422,-122 417,-134 408,-152 C 395,-179 382,-197 364,-215 C 330,-249 292,-265 247,-265 L 236,-265 L 236,-303 C 236,-338 236,-341 234,-344 C 231,-349 228,-350 215,-350 C 201,-350 198,-349 195,-344 C 193,-341 193,-338 193,-300 L 193,-260 L 181,-258 C 135,-247 100,-228 70,-199 C 33,-161 10,-110 2,-44 C 0,-24 0,24 2,44 C 10,110 33,161 70,199 C 102,230 137,248 191,260 L 193,260 L 193,300 C 193,344 193,344 199,348 z M 193,0 L 193,224 C 193,224 190,222 186,220 C 160,205 145,174 140,124 C 136,84 136,-84 140,-123 C 142,-139 145,-159 149,-170 C 157,-194 171,-212 188,-221 L 193,-224 L 193,0 z"
             id="path2657"
             style="fill:#000000;fill-opacity:1;stroke:none;stroke-width:13.78757095;stroke-miterlimit:4;stroke-dasharray:none;stroke-opacity:0.51867221" />
        </g>
        <text
           xml:space="preserve"
           style="font-size:41.97792816px;font-style:normal;font-weight:bold;text-align:justify;text-anchor:start;fill:#000000;fill-opacity:1;stroke:none;stroke-width:0.84969485;stroke-linecap:butt;stroke-linejoin:miter;stroke-miterlimit:4;stroke-dasharray:none;stroke-opacity:0.51867221;font-family:FreeSerif"
           x="-78.583633"
           y="-112.51923"
           id="text2659"><tspan
             sodipodi:role="line"
             id="tspan2661"
             x="-78.583633"
             y="-112.51923"
             style="font-weight:bold;fill:#000000;fill-opacity:1;stroke:none;stroke-width:0.84969485;stroke-miterlimit:4;stroke-dasharray:none;stroke-opacity:0.51867221;font-family:FreeSerif">anorus</tspan></text>
      </g>
      <g
         inkscape:export-ydpi="90"
         inkscape:export-xdpi="90"
         inkscape:export-filename="/home/matevz/apps/canorus/branches/matevz/src/fonts/timesigC|.png"
         style="fill:url(#linearGradient2701);fill-opacity:1;stroke:#e95d00;stroke-width:13.78757095;stroke-miterlimit:4;stroke-dasharray:none;stroke-opacity:1"
         id="g2663"
         transform="matrix(0.1289934,0,0,-0.1289934,202.45868,203.59414)">
        <path
           style="fill:url(#linearGradient2699);fill-opacity:1;stroke:#e95d00;stroke-width:13.78757095;stroke-miterlimit:4;stroke-dasharray:none;stroke-opacity:1"
           id="path2665"
           d="M 199,348 C 202,350 204,350 215,350 C 225,350 227,350 230,348 C 236,344 236,344 236,303 L 236,265 L 253,265 C 277,264 294,260 315,252 C 366,230 406,180 419,122 C 425,97 421,76 409,58 C 392,34 364,24 336,34 C 295,48 276,87 290,129 C 299,157 322,175 352,177 L 362,177 L 360,180 C 353,190 337,205 324,213 C 301,228 275,235 248,235 L 236,235 L 236,0 L 236,-235 L 252,-235 C 270,-234 280,-232 294,-227 C 338,-211 376,-167 394,-110 C 397,-101 400,-91 401,-87 C 404,-78 406,-76 414,-75 C 420,-75 424,-77 428,-82 C 431,-86 431,-89 427,-104 C 422,-122 417,-134 408,-152 C 395,-179 382,-197 364,-215 C 330,-249 292,-265 247,-265 L 236,-265 L 236,-303 C 236,-338 236,-341 234,-344 C 231,-349 228,-350 215,-350 C 201,-350 198,-349 195,-344 C 193,-341 193,-338 193,-300 L 193,-260 L 181,-258 C 135,-247 100,-228 70,-199 C 33,-161 10,-110 2,-44 C 0,-24 0,24 2,44 C 10,110 33,161 70,199 C 102,230 137,248 191,260 L 193,260 L 193,300 C 193,344 193,344 199,348 z M 193,0 L 193,224 C 193,224 190,222 186,220 C 160,205 145,174 140,124 C 136,84 136,-84 140,-123 C 142,-139 145,-159 149,-170 C 157,-194 171,-212 188,-221 L 193,-224 L 193,0 z" />
      </g>
      <text
         id="text2667"
         y="235.75302"
         x="258.78632"
         style="font-size:90.67166138px;font-style:normal;font-weight:bold;text-align:justify;text-anchor:start;fill:url(#linearGradient2703);fill-opacity:1;stroke:#e95d00;stroke-width:1.83532751;stroke-linecap:butt;stroke-linejoin:miter;stroke-miterlimit:4;stroke-dasharray:none;stroke-opacity:1;font-family:FreeSerif"
         xml:space="preserve"><tspan
           style="font-weight:bold;fill:url(#linearGradient2703);fill-opacity:1;stroke:#e95d00;stroke-width:1.83532751;stroke-miterlimit:4;stroke-dasharray:none;stroke-opacity:1;font-family:FreeSerif"
           y="235.75302"
           x="258.78632"
           id="tspan2669"
           sodipodi:role="line">anorus</tspan></text>
    </g>
    <rect
       style="opacity:1;fill:none;fill-opacity:1;stroke:none;stroke-width:1.02482593;stroke-miterlimit:4;stroke-dasharray:none;stroke-opacity:1"
       id="rect3524"
       width="123.02925"
       height="102.32113"
       x="48.425488"
       y="43.268723"
       inkscape:export-filename="/home/matevz/canorus/artwork/icons/wiki_logo.png"
       inkscape:export-xdpi="102.03174"
       inkscape:export-ydpi="102.03174" />
  </g>
</svg>
