<?xml version="1.0" encoding="UTF-8" standalone="no"?>
<svg
   xmlns:dc="http://purl.org/dc/elements/1.1/"
   xmlns:cc="http://web.resource.org/cc/"
   xmlns:rdf="http://www.w3.org/1999/02/22-rdf-syntax-ns#"
   xmlns:svg="http://www.w3.org/2000/svg"
   xmlns="http://www.w3.org/2000/svg"
   xmlns:xlink="http://www.w3.org/1999/xlink"
   xmlns:sodipodi="http://sodipodi.sourceforge.net/DTD/sodipodi-0.dtd"
   xmlns:inkscape="http://www.inkscape.org/namespaces/inkscape"
   viewBox="-30 -200 1000 1000"
   id="svg12873"
   sodipodi:version="0.32"
   inkscape:version="0.45"
   width="128"
   height="128"
   sodipodi:docname="doubleflat.svg"
   sodipodi:docbase="/home/matevz/canorus/artwork/images"
   inkscape:export-filename="/home/matevz/apps/canorus/branches/matevz/src/fonts/doubleflat.png"
   inkscape:export-xdpi="120.95"
   inkscape:export-ydpi="120.95"
   inkscape:output_extension="org.inkscape.output.svg.inkscape"
   sodipodi:modified="true"
   version="1.0">
  <metadata
     id="metadata12882">
    <rdf:RDF>
      <cc:Work
         rdf:about="">
        <dc:format>image/svg+xml</dc:format>
        <dc:type
           rdf:resource="http://purl.org/dc/dcmitype/StillImage" />
      </cc:Work>
    </rdf:RDF>
  </metadata>
  <defs
     id="defs12880">
    <linearGradient
       id="linearGradient15509">
      <stop
         style="stop-color:#000000;stop-opacity:1;"
         offset="0"
         id="stop15511" />
      <stop
         style="stop-color:#646464;stop-opacity:1;"
         offset="1"
         id="stop15513" />
    </linearGradient>
    <linearGradient
       inkscape:collect="always"
       xlink:href="#linearGradient15509"
       id="linearGradient15515"
       x1="-30"
       y1="144.5"
       x2="361.59317"
       y2="144.5"
       gradientUnits="userSpaceOnUse" />
    <linearGradient
       inkscape:collect="always"
       xlink:href="#linearGradient15509"
       id="linearGradient15517"
       gradientUnits="userSpaceOnUse"
       x1="-30"
       y1="144.5"
       x2="361.59317"
       y2="144.5" />
    <linearGradient
       inkscape:collect="always"
       xlink:href="#linearGradient15509"
       id="linearGradient4911"
       gradientUnits="userSpaceOnUse"
       x1="-30"
       y1="144.5"
       x2="361.59317"
       y2="144.5" />
    <linearGradient
       inkscape:collect="always"
       xlink:href="#linearGradient15509"
       id="linearGradient4913"
       gradientUnits="userSpaceOnUse"
       x1="-30"
       y1="144.5"
       x2="361.59317"
       y2="144.5" />
  </defs>
  <sodipodi:namedview
     inkscape:window-height="978"
     inkscape:window-width="1400"
     inkscape:pageshadow="2"
     inkscape:pageopacity="0.0"
     borderopacity="1.0"
     bordercolor="#666666"
     pagecolor="#ffffff"
     id="base"
     inkscape:zoom="2.8431276"
     inkscape:cx="89.732845"
     inkscape:cy="64.054117"
     inkscape:window-x="192"
     inkscape:window-y="0"
     inkscape:current-layer="svg12873"
     width="128px"
     height="128px" />
  <g
     id="g4905"
     transform="matrix(5.9292562,0,0,5.9292562,140.90443,-5165.5062)">
    <g
       inkscape:export-ydpi="90"
       inkscape:export-xdpi="90"
       inkscape:export-filename="/home/matevz/apps/canorus/branches/matevz/src/fonts/doubleflat.png"
       style="fill:#000000;fill-opacity:0.39215686"
       id="g13759"
       transform="matrix(0.255071,0,0,-0.255071,21.1568,960.472)">
      <path
         style="fill:#000000;fill-opacity:0.39215686"
         id="path13761"
         d="M -15,456 C -11,457 -4,458 0,458 C 12,458 30,452 30,448 C 30,447 28,377 27,291 C 25,205 23,130 23,123 L 23,111 L 28,117 C 44,135 66,146 90,148 C 106,149 120,145 133,136 C 136,134 139,133 139,133 C 139,134 137,205 136,291 C 134,377 132,448 132,449 C 132,452 151,458 162,458 C 174,458 192,452 192,448 C 192,447 190,377 189,291 C 187,205 185,130 185,123 L 185,111 L 192,117 C 217,138 250,150 280,148 C 315,146 344,121 356,82 C 365,53 363,23 351,-2 C 337,-29 318,-48 268,-88 C 223,-123 220,-126 206,-144 C 190,-164 185,-168 172,-168 C 165,-168 164,-168 159,-165 C 153,-162 148,-155 147,-149 C 145,-145 145,-132 144,-99 C 143,-74 143,-50 143,-45 L 143,-36 L 138,-42 C 127,-55 117,-65 89,-91 C 73,-106 57,-121 54,-124 C 50,-128 44,-136 40,-143 C 30,-159 26,-163 19,-167 C 15,-169 13,-169 8,-169 C -3,-168 -12,-160 -15,-149 C -17,-144 -18,-95 -23,132 C -26,283 -29,416 -30,428 L -30,450 L -26,452 C -24,453 -19,455 -15,456 z M 72,99 C 67,102 56,103 51,101 C 42,98 33,88 28,76 C 23,62 22,56 21,17 C 20,-25 20,-65 22,-86 C 23,-95 24,-102 24,-102 C 24,-105 41,-85 53,-70 C 81,-32 93,5 92,46 C 90,75 84,93 72,99 z M 255,99 C 245,104 230,103 220,95 C 207,86 197,68 195,46 C 194,33 192,-38 192,-54 C 193,-70 196,-96 197,-98 C 198,-99 225,-73 237,-59 C 259,-34 270,-14 277,11 C 279,20 279,22 279,39 C 279,55 279,58 277,66 C 272,84 265,94 255,99 z " />
    </g>
    <g
       inkscape:export-ydpi="90"
       inkscape:export-xdpi="90"
       inkscape:export-filename="/home/matevz/apps/canorus/branches/matevz/src/fonts/doubleflat.png"
       style="fill:url(#linearGradient4911);fill-opacity:1"
       id="g12875"
       transform="matrix(0.255071,0,0,-0.255071,16.41262,956.8158)">
      <path
         style="fill:url(#linearGradient4913);fill-opacity:1"
         id="path12877"
         d="M -15,456 C -11,457 -4,458 0,458 C 12,458 30,452 30,448 C 30,447 28,377 27,291 C 25,205 23,130 23,123 L 23,111 L 28,117 C 44,135 66,146 90,148 C 106,149 120,145 133,136 C 136,134 139,133 139,133 C 139,134 137,205 136,291 C 134,377 132,448 132,449 C 132,452 151,458 162,458 C 174,458 192,452 192,448 C 192,447 190,377 189,291 C 187,205 185,130 185,123 L 185,111 L 192,117 C 217,138 250,150 280,148 C 315,146 344,121 356,82 C 365,53 363,23 351,-2 C 337,-29 318,-48 268,-88 C 223,-123 220,-126 206,-144 C 190,-164 185,-168 172,-168 C 165,-168 164,-168 159,-165 C 153,-162 148,-155 147,-149 C 145,-145 145,-132 144,-99 C 143,-74 143,-50 143,-45 L 143,-36 L 138,-42 C 127,-55 117,-65 89,-91 C 73,-106 57,-121 54,-124 C 50,-128 44,-136 40,-143 C 30,-159 26,-163 19,-167 C 15,-169 13,-169 8,-169 C -3,-168 -12,-160 -15,-149 C -17,-144 -18,-95 -23,132 C -26,283 -29,416 -30,428 L -30,450 L -26,452 C -24,453 -19,455 -15,456 z M 72,99 C 67,102 56,103 51,101 C 42,98 33,88 28,76 C 23,62 22,56 21,17 C 20,-25 20,-65 22,-86 C 23,-95 24,-102 24,-102 C 24,-105 41,-85 53,-70 C 81,-32 93,5 92,46 C 90,75 84,93 72,99 z M 255,99 C 245,104 230,103 220,95 C 207,86 197,68 195,46 C 194,33 192,-38 192,-54 C 193,-70 196,-96 197,-98 C 198,-99 225,-73 237,-59 C 259,-34 270,-14 277,11 C 279,20 279,22 279,39 C 279,55 279,58 277,66 C 272,84 265,94 255,99 z " />
    </g>
  </g>
</svg>
