<?xml version="1.0" standalone="no"?>
<!DOCTYPE svg PUBLIC "-//W3C//DTD SVG 1.1//EN" "http://www.w3.org/Graphics/SVG/1.1/DTD/svg11.dtd" >
<svg viewBox="-19 -1074 1000 1000">
  <g transform="matrix(1 0 0 -1 0 800)">
   <path fill="currentColor"
d="M-19 -375v375h9h10v-12c2 -40 14 -80 36 -124c14 -28 26 -49 64 -107c48 -74 65 -106 79 -147c10 -31 13 -53 13 -83c0 -29 -3 -45 -13 -71l-4 -12l5 -12c11 -25 19 -55 22 -80c4 -35 -2 -74 -17 -111c-3 -6 -5 -12 -5 -13c0 0 2 -6 5 -13c11 -24 18 -45 22 -68
c2 -17 2 -56 -1 -78c-4 -31 -11 -58 -21 -87c-7 -20 -17 -43 -20 -47c-11 -13 -34 -11 -42 4c-1 3 -2 7 -3 10c0 5 0 6 4 15c26 50 40 108 38 155s-26 95 -75 151c-13 14 -46 47 -67 66l-19 17l-1 -51v-52h-10h-9v375zM19 -234c-9 10 -16 18 -17 20c-2 1 -2 1 -2 -12
c2 -36 12 -71 31 -108c14 -29 31 -54 72 -110c14 -20 29 -41 33 -47c7 -11 7 -11 9 1c4 27 -2 60 -17 95c-18 46 -53 96 -109 161zM29 -457l-25 24l-4 3v-8c0 -4 1 -13 1 -20c4 -31 13 -58 30 -91c15 -31 30 -53 75 -113c16 -21 32 -43 35 -48c5 -6 7 -9 7 -8c1 1 2 6 3 12
c10 39 4 76 -16 116c-21 42 -53 82 -106 133z" />
  </g>

</svg>
