<?xml version="1.0" standalone="no"?>
<!DOCTYPE svg PUBLIC "-//W3C//DTD SVG 1.1//EN" "http://www.w3.org/Graphics/SVG/1.1/DTD/svg11.dtd" >
<svg viewBox="-19 -1325 1000 1000">
  <g transform="matrix(1 0 0 -1 0 800)">
   <path fill="currentColor"
d="M-19 -500v500h9h10v-12c3 -50 20 -99 54 -159c10 -18 19 -33 44 -73c50 -78 70 -116 82 -158c18 -58 17 -108 -3 -160l-2 -8l5 -11c10 -23 17 -47 21 -70c2 -16 2 -50 0 -64c-4 -25 -10 -43 -20 -66l-6 -14l3 -8c12 -25 20 -52 23 -76c2 -15 2 -44 0 -54
c-4 -19 -13 -39 -25 -55l-7 -10l8 -16c14 -27 23 -53 28 -77c9 -48 2 -114 -19 -176c-8 -22 -17 -45 -21 -49c-11 -13 -34 -11 -42 4c-1 3 -2 7 -3 10c0 5 0 6 6 18c20 42 32 84 35 128c3 38 -3 67 -20 104c-19 36 -45 71 -89 116c-13 12 -29 28 -37 35l-14 13l-1 -56v-56
h-10h-9v500zM17 -233c-7 9 -14 17 -15 18c-2 2 -2 2 -2 -15c2 -39 10 -71 30 -111c16 -33 30 -56 73 -115l30 -43l9 -14l2 6c2 10 2 30 1 42c-7 66 -46 137 -128 232zM35 -472l-26 26l-9 9v-18c1 -21 3 -34 7 -53c5 -18 12 -36 21 -56c16 -32 33 -58 74 -115l33 -48
c11 -17 10 -17 15 -1c16 57 0 116 -52 185c-17 23 -34 42 -63 71zM34 -696c-10 11 -22 22 -26 26l-8 7v-11c0 -45 14 -90 42 -139c14 -24 28 -44 64 -94c12 -16 25 -33 29 -39c3 -5 7 -10 7 -10c2 0 9 16 11 25c9 32 -2 79 -29 124c-20 35 -46 67 -90 111z" />
  </g>

</svg>
