<?xml version="1.0" encoding="UTF-8" standalone="no"?>
<svg
   xmlns:dc="http://purl.org/dc/elements/1.1/"
   xmlns:cc="http://web.resource.org/cc/"
   xmlns:rdf="http://www.w3.org/1999/02/22-rdf-syntax-ns#"
   xmlns:svg="http://www.w3.org/2000/svg"
   xmlns="http://www.w3.org/2000/svg"
   xmlns:xlink="http://www.w3.org/1999/xlink"
   xmlns:sodipodi="http://sodipodi.sourceforge.net/DTD/sodipodi-0.dtd"
   xmlns:inkscape="http://www.inkscape.org/namespaces/inkscape"
   viewBox="0 -200 1000 1000"
   id="svg24498"
   sodipodi:version="0.32"
   inkscape:version="0.45"
   width="128"
   height="128"
   sodipodi:docname="n1.svg"
   sodipodi:docbase="/home/matevz/canorus/artwork/images"
   inkscape:export-filename="/home/matevz/apps/canorus/branches/matevz/src/fonts/n1.png"
   inkscape:export-xdpi="120.95"
   inkscape:export-ydpi="120.95"
   inkscape:output_extension="org.inkscape.output.svg.inkscape"
   sodipodi:modified="true"
   version="1.0">
  <metadata
     id="metadata24507">
    <rdf:RDF>
      <cc:Work
         rdf:about="">
        <dc:format>image/svg+xml</dc:format>
        <dc:type
           rdf:resource="http://purl.org/dc/dcmitype/StillImage" />
      </cc:Work>
    </rdf:RDF>
  </metadata>
  <defs
     id="defs24505">
    <linearGradient
       id="linearGradient25387">
      <stop
         style="stop-color:#000000;stop-opacity:1;"
         offset="0"
         id="stop25389" />
      <stop
         style="stop-color:#646464;stop-opacity:1;"
         offset="1"
         id="stop25391" />
    </linearGradient>
    <linearGradient
       inkscape:collect="always"
       xlink:href="#linearGradient25387"
       id="linearGradient25393"
       x1="1"
       y1="-0.27266693"
       x2="486"
       y2="-0.27266693"
       gradientUnits="userSpaceOnUse" />
    <linearGradient
       inkscape:collect="always"
       xlink:href="#linearGradient25387"
       id="linearGradient25395"
       gradientUnits="userSpaceOnUse"
       x1="1"
       y1="-0.27266693"
       x2="486"
       y2="-0.27266693" />
    <linearGradient
       inkscape:collect="always"
       xlink:href="#linearGradient25387"
       id="linearGradient8041"
       gradientUnits="userSpaceOnUse"
       x1="1"
       y1="-0.27266693"
       x2="486"
       y2="-0.27266693" />
    <linearGradient
       inkscape:collect="always"
       xlink:href="#linearGradient25387"
       id="linearGradient8043"
       gradientUnits="userSpaceOnUse"
       x1="1"
       y1="-0.27266693"
       x2="486"
       y2="-0.27266693" />
  </defs>
  <sodipodi:namedview
     inkscape:window-height="978"
     inkscape:window-width="1400"
     inkscape:pageshadow="2"
     inkscape:pageopacity="0.0"
     borderopacity="1.0"
     bordercolor="#666666"
     pagecolor="#ffffff"
     id="base"
     inkscape:zoom="2.8431276"
     inkscape:cx="97.13745"
     inkscape:cy="56.146692"
     inkscape:window-x="0"
     inkscape:window-y="140"
     inkscape:current-layer="svg24498"
     width="128px"
     height="128px" />
  <g
     id="g8035"
     transform="matrix(7.2700832,0,0,7.2700832,-136.00318,-6605.4211)">
    <g
       inkscape:export-ydpi="90"
       inkscape:export-xdpi="90"
       inkscape:export-filename="/home/matevz/apps/canorus/branches/matevz/src/fonts/n1.png"
       style="fill:#000000;fill-opacity:0.39215686"
       id="g24510"
       transform="matrix(0.244894,0,0,-0.244894,29.61083,951.2577)">
      <path
         style="fill:#000000;fill-opacity:0.39215686"
         id="path24512"
         d="M 211,139 C 259,142 311,138 351,126 C 421,106 470,68 484,23 C 486,15 486,13 486,0 C 486,-13 486,-15 484,-23 C 472,-62 433,-96 376,-118 C 297,-148 190,-148 111,-118 C 54,-96 15,-62 3,-23 C 1,-15 1,-13 1,0 C 1,13 1,15 3,23 C 13,56 42,85 86,106 C 122,125 165,136 211,139 z M 238,107 C 226,109 208,111 199,109 C 186,107 172,98 164,87 C 151,71 144,44 145,16 C 147,-28 166,-62 200,-85 C 216,-95 231,-102 250,-107 C 259,-109 263,-109 275,-109 C 287,-109 289,-109 296,-107 C 305,-104 310,-100 317,-95 C 327,-85 335,-70 339,-51 C 342,-36 342,-8 339,7 C 336,20 333,29 327,40 C 311,73 278,97 238,107 z " />
    </g>
    <g
       inkscape:export-ydpi="90"
       inkscape:export-xdpi="90"
       inkscape:export-filename="/home/matevz/apps/canorus/branches/matevz/src/fonts/n1.png"
       style="fill:url(#linearGradient8041);fill-opacity:1"
       id="g24500"
       transform="matrix(0.244894,0,0,-0.244894,26.09028,948.2902)">
      <path
         style="fill:url(#linearGradient8043);fill-opacity:1"
         id="path24502"
         d="M 211,139 C 259,142 311,138 351,126 C 421,106 470,68 484,23 C 486,15 486,13 486,0 C 486,-13 486,-15 484,-23 C 472,-62 433,-96 376,-118 C 297,-148 190,-148 111,-118 C 54,-96 15,-62 3,-23 C 1,-15 1,-13 1,0 C 1,13 1,15 3,23 C 13,56 42,85 86,106 C 122,125 165,136 211,139 z M 238,107 C 226,109 208,111 199,109 C 186,107 172,98 164,87 C 151,71 144,44 145,16 C 147,-28 166,-62 200,-85 C 216,-95 231,-102 250,-107 C 259,-109 263,-109 275,-109 C 287,-109 289,-109 296,-107 C 305,-104 310,-100 317,-95 C 327,-85 335,-70 339,-51 C 342,-36 342,-8 339,7 C 336,20 333,29 327,40 C 311,73 278,97 238,107 z " />
    </g>
  </g>
</svg>
