<?xml version="1.0" encoding="UTF-8" standalone="no"?>
<svg
   xmlns:dc="http://purl.org/dc/elements/1.1/"
   xmlns:cc="http://web.resource.org/cc/"
   xmlns:rdf="http://www.w3.org/1999/02/22-rdf-syntax-ns#"
   xmlns:svg="http://www.w3.org/2000/svg"
   xmlns="http://www.w3.org/2000/svg"
   xmlns:xlink="http://www.w3.org/1999/xlink"
   xmlns:sodipodi="http://sodipodi.sourceforge.net/DTD/sodipodi-0.dtd"
   xmlns:inkscape="http://www.inkscape.org/namespaces/inkscape"
   viewBox="-1 -200 1000 1000"
   id="svg34224"
   sodipodi:version="0.32"
   inkscape:version="0.45"
   width="128"
   height="128"
   sodipodi:docname="n32.svg"
   sodipodi:docbase="/home/matevz/canorus/artwork/images"
   inkscape:output_extension="org.inkscape.output.svg.inkscape"
   version="1.0"
   sodipodi:modified="true">
  <metadata
     id="metadata34233">
    <rdf:RDF>
      <cc:Work
         rdf:about="">
        <dc:format>image/svg+xml</dc:format>
        <dc:type
           rdf:resource="http://purl.org/dc/dcmitype/StillImage" />
      </cc:Work>
    </rdf:RDF>
  </metadata>
  <defs
     id="defs34231">
    <linearGradient
       id="linearGradient36148">
      <stop
         style="stop-color:#000000;stop-opacity:1;"
         offset="0"
         id="stop36150" />
      <stop
         style="stop-color:#646464;stop-opacity:1;"
         offset="1"
         id="stop36152" />
    </linearGradient>
    <linearGradient
       id="linearGradient36138">
      <stop
         style="stop-color:#000000;stop-opacity:1;"
         offset="0"
         id="stop36140" />
      <stop
         style="stop-color:#000000;stop-opacity:0;"
         offset="1"
         id="stop36142" />
    </linearGradient>
    <linearGradient
       inkscape:collect="always"
       xlink:href="#linearGradient36148"
       id="linearGradient42892"
       gradientUnits="userSpaceOnUse"
       gradientTransform="matrix(1.360575,0,0,1.360575,-13.88694,-426.068)"
       x1="54.073643"
       y1="922.1391"
       x2="108.13371"
       y2="922.1391" />
    <linearGradient
       inkscape:collect="always"
       xlink:href="#linearGradient36148"
       id="linearGradient8469"
       gradientUnits="userSpaceOnUse"
       gradientTransform="matrix(1.360575,0,0,1.360575,-13.88694,-426.068)"
       x1="54.073643"
       y1="922.1391"
       x2="108.13371"
       y2="922.1391" />
  </defs>
  <sodipodi:namedview
     inkscape:window-height="978"
     inkscape:window-width="1400"
     inkscape:pageshadow="2"
     inkscape:pageopacity="0.0"
     borderopacity="1.0"
     bordercolor="#666666"
     pagecolor="#ffffff"
     id="base"
     showguides="true"
     inkscape:guide-bbox="true"
     inkscape:zoom="2"
     inkscape:cx="151.03258"
     inkscape:cy="48.786347"
     inkscape:window-x="192"
     inkscape:window-y="140"
     inkscape:current-layer="svg34224"
     width="128px"
     height="128px" />
  <g
     id="g8465"
     transform="matrix(5.7784436,0,0,5.7784436,4.5153975,-5022.8936)">
    <path
       inkscape:export-ydpi="90"
       inkscape:export-xdpi="90"
       inkscape:export-filename="/home/matevz/apps/canorus/branches/matevz/src/fonts/n32.png"
       id="path42894"
       d="M 95.652995,839.83222 C 95.644065,839.8333 95.618885,839.87346 95.610475,839.87473 C 94.608255,840.14192 94.227985,840.77449 93.782205,841.23531 C 93.774045,841.24426 93.747735,841.26846 93.739685,841.27783 C 93.715835,841.30712 93.677555,841.37271 93.654645,841.40538 C 93.225445,842.04621 92.961965,843.2798 92.974365,843.95646 L 92.974365,963.09172 C 92.241565,961.44869 91.026215,960.07288 87.999755,959.09517 C 85.005075,958.26331 80.400065,957.74195 77.072645,958.07474 C 64.927545,959.40552 52.425055,968.04435 47.267555,978.52581 C 45.603835,982.0195 44.967885,984.50622 44.801505,987.66724 C 44.635135,992.82478 46.633565,997.47033 50.626465,1000.4652 C 51.957435,1001.6297 54.961485,1002.9848 56.791575,1003.484 C 70.766745,1007.6431 90.025975,997.97853 97.013563,983.67041 C 98.677273,980.34313 99.355743,977.86035 99.522133,974.69919 L 99.479613,935.79526 L 99.522133,934.73231 L 102.24328,937.19835 C 105.2542,939.92249 109.98843,944.63009 111.85234,946.63733 C 118.87783,954.6665 122.32263,961.54026 122.60937,968.27905 C 122.89613,975.0177 120.8949,983.34714 117.16707,990.51587 C 116.59356,991.80624 116.57182,991.96734 116.57182,992.68422 C 116.7152,993.11444 116.85362,993.65731 116.997,994.08739 C 118.06337,996.08689 121.02101,996.47583 122.69441,995.02278 C 122.80548,994.92305 122.93598,994.7991 123.03456,994.68263 C 123.04799,994.66467 123.06171,994.62073 123.07707,994.5976 C 123.57373,993.81418 124.92667,990.65533 125.88326,987.92221 C 127.31704,983.76429 128.32852,979.90911 128.90203,975.46451 C 129.33217,972.31016 129.35886,966.7197 129.07211,964.28223 C 128.49861,960.9846 127.46041,957.98671 125.88326,954.54568 C 125.45312,953.54198 125.16045,952.67489 125.16045,952.67489 C 125.16045,952.6704 125.20241,952.63829 125.20297,952.63244 C 125.20407,952.62522 125.20133,952.59829 125.20297,952.58985 C 125.26373,952.31733 125.50688,951.5569 125.88326,950.80409 C 128.03392,945.49909 128.92281,939.92059 128.34931,934.90238 C 127.91917,931.31794 126.7376,927.00701 125.16045,923.42253 L 124.48017,921.67929 L 125.0329,919.97858 C 126.46667,916.25076 126.90369,913.97475 126.90369,909.81678 C 126.90369,905.51546 126.46667,902.35644 125.0329,897.91175 C 123.02561,892.03328 120.60525,887.43279 113.72312,876.82285 C 108.27477,868.50694 106.54653,865.48848 104.53924,861.47386 C 101.58208,855.55953 99.873933,850.14309 99.437093,844.7643 C 99.429813,844.67465 99.443673,844.59882 99.437093,844.50918 L 99.437093,842.76595 C 99.440653,842.57189 99.388223,842.35951 99.352053,842.1707 C 99.340303,842.10934 99.325283,842.06103 99.309533,842.00063 C 99.179993,841.50356 98.953853,841.04969 98.586723,840.68257 C 98.037753,840.13365 97.322103,839.86047 96.545873,839.87473 C 96.434573,839.87639 95.920775,839.79944 95.652995,839.83222 z M 99.479613,872.61356 C 99.482133,872.61301 99.519493,872.61385 99.522133,872.61356 C 99.528043,872.61448 99.558263,872.61179 99.564643,872.61356 C 99.592083,872.62365 99.613833,872.63817 99.649683,872.65609 C 99.793063,872.94284 100.82531,874.11354 102.11571,875.54731 C 110.14486,884.86684 115.13901,892.03916 117.71981,898.63455 C 119.87047,903.65278 120.71685,908.36909 120.14334,912.2403 C 120.06716,912.69732 120.03315,913.04382 119.97326,913.26074 C 119.96259,913.29655 119.94188,913.35984 119.93074,913.38829 C 119.92318,913.40562 119.89614,913.45926 119.88822,913.47333 C 119.88406,913.47875 119.84999,913.51124 119.84571,913.51584 C 119.83659,913.5218 119.81293,913.55563 119.80319,913.55836 C 119.79815,913.55892 119.76589,913.5586 119.76067,913.55836 C 119.74985,913.55627 119.72979,913.52116 119.71815,913.51584 C 119.71212,913.51239 119.68191,913.52009 119.67564,913.51584 C 119.66913,913.5108 119.63987,913.47918 119.63312,913.47333 C 119.6261,913.46669 119.59789,913.43825 119.5906,913.43081 C 119.43181,913.25799 119.19712,912.88537 118.8678,912.36786 C 118.29428,911.5076 116.15559,908.51761 114.1483,905.65003 C 108.26981,897.62087 105.82373,894.03382 103.81644,889.87586 C 101.34765,885.06823 99.935523,880.50167 99.479613,875.84493 C 99.467713,875.72341 99.447683,875.58391 99.437093,875.46227 C 99.426683,875.34279 99.446253,875.24172 99.437093,875.12212 L 99.437093,872.74112 C 99.442153,872.71805 99.430773,872.67215 99.437093,872.65609 C 99.439023,872.6536 99.477583,872.61569 99.479613,872.61356 z M 99.479613,903.73671 L 99.947303,904.07685 L 103.51881,907.52081 C 111.11781,914.83307 115.72932,920.54704 118.74025,926.56886 C 121.60779,932.30397 122.47,937.60165 121.03621,943.19331 C 120.91076,943.94612 120.779,944.60655 120.65355,944.85159 C 120.64907,944.85934 120.61551,944.88737 120.61103,944.89404 C 120.60655,944.89975 120.61551,944.93213 120.61103,944.93662 C 120.61047,944.94002 120.56965,944.93431 120.56851,944.93662 C 120.46514,944.85798 120.15068,944.46069 119.5906,943.7887 C 119.16047,943.07168 116.86751,939.91161 114.57348,936.90072 C 108.12149,928.29806 105.9671,925.14608 103.81644,920.70138 C 101.37902,915.96991 100.09564,912.09308 99.522133,907.64837 C 99.522133,907.39745 99.493053,907.1116 99.479613,906.84052 C 99.472883,906.70498 99.488013,906.59256 99.479613,906.45786 L 99.479613,903.73671 z "
       style="fill:#000000;fill-opacity:0.39215686" />
    <path
       inkscape:export-ydpi="90"
       inkscape:export-xdpi="90"
       inkscape:export-filename="/home/matevz/apps/canorus/branches/matevz/src/fonts/n32.png"
       id="path34228"
       d="M 92.748111,837.87957 C 92.739186,837.88065 92.714,837.92081 92.705593,837.92208 C 91.703373,838.18927 91.323099,838.82184 90.877321,839.28266 C 90.869165,839.29161 90.842856,839.31581 90.834802,839.32518 C 90.810952,839.35447 90.772676,839.42006 90.749767,839.45273 C 90.320562,840.09356 90.057081,841.32715 90.069479,842.00381 L 90.069479,961.13907 C 89.336683,959.49604 88.121333,958.12023 85.094877,957.14252 C 82.100195,956.31066 77.495178,955.7893 74.167761,956.12209 C 62.022667,957.45287 49.520172,966.0917 44.362668,976.57316 C 42.698957,980.06685 42.063,982.55357 41.896627,985.71459 C 41.730255,990.87213 43.728679,995.51767 47.721587,998.51243 C 49.052554,999.67695 52.056607,1001.0321 53.886692,1001.5313 C 67.861864,1005.6904 87.121096,996.02584 94.108686,981.71776 C 95.772394,978.39048 96.450863,975.9077 96.617253,972.74654 L 96.574733,933.84261 L 96.617253,932.77966 L 99.338403,935.2457 C 102.34932,937.96984 107.08355,942.67744 108.94746,944.68468 C 115.97295,952.71385 119.41775,959.58761 119.70449,966.3264 C 119.99125,973.06505 117.99002,981.39449 114.26219,988.56322 C 113.68868,989.85359 113.66694,990.01469 113.66694,990.73157 C 113.81032,991.16179 113.94874,991.70466 114.09212,992.13474 C 115.15849,994.13424 118.11613,994.52322 119.78953,993.07013 C 119.9006,992.9704 120.0311,992.84645 120.12968,992.72998 C 120.14311,992.71202 120.15683,992.66808 120.17219,992.64495 C 120.66885,991.86153 122.02179,988.70268 122.97838,985.96956 C 124.41216,981.81164 125.42364,977.95646 125.99715,973.51186 C 126.42729,970.35751 126.45398,964.76705 126.16723,962.32958 C 125.59373,959.03195 124.55553,956.03406 122.97838,952.59303 C 122.54824,951.58933 122.25557,950.72224 122.25557,950.72224 C 122.25557,950.71775 122.29753,950.68564 122.29809,950.67979 C 122.29919,950.67257 122.29645,950.64564 122.29809,950.6372 C 122.35885,950.36468 122.602,949.60425 122.97838,948.85144 C 125.12904,943.54644 126.01793,937.96794 125.44443,932.94973 C 125.01429,929.36529 123.83272,925.05436 122.25557,921.46988 L 121.57529,919.72664 L 122.12802,918.02593 C 123.56179,914.29811 123.99881,912.0221 123.99881,907.86413 C 123.99881,903.56281 123.56179,900.40379 122.12802,895.9591 C 120.12073,890.08063 117.70037,885.48014 110.81824,874.8702 C 105.36989,866.55429 103.64165,863.53583 101.63436,859.52121 C 98.677203,853.60688 96.969053,848.19044 96.532213,842.81165 C 96.524933,842.722 96.538793,842.64617 96.532213,842.55653 L 96.532213,840.8133 C 96.535773,840.61924 96.483343,840.40686 96.447173,840.21805 C 96.435423,840.15669 96.420403,840.10838 96.404653,840.04798 C 96.27511,839.55091 96.048971,839.09704 95.681846,838.72992 C 95.132874,838.181 94.417221,837.90782 93.640988,837.92208 C 93.529694,837.92374 93.015891,837.84679 92.748111,837.87957 z M 96.574733,870.66091 C 96.577253,870.66036 96.614613,870.6612 96.617253,870.66091 C 96.623163,870.66183 96.653383,870.65914 96.659763,870.66091 C 96.687203,870.671 96.708953,870.68552 96.744803,870.70344 C 96.888183,870.99019 97.920433,872.16089 99.210833,873.59466 C 107.23998,882.91419 112.23413,890.08651 114.81493,896.6819 C 116.96559,901.70013 117.81197,906.41644 117.23846,910.28765 C 117.16228,910.74467 117.12827,911.09117 117.06838,911.30809 C 117.05771,911.3439 117.037,911.40719 117.02586,911.43564 C 117.0183,911.45297 116.99126,911.50661 116.98334,911.52068 C 116.97918,911.5261 116.94511,911.55859 116.94083,911.56319 C 116.93171,911.56915 116.90805,911.60298 116.89831,911.60571 C 116.89327,911.60627 116.86101,911.60595 116.85579,911.60571 C 116.84497,911.60362 116.82491,911.56851 116.81327,911.56319 C 116.80724,911.55974 116.77703,911.56744 116.77076,911.56319 C 116.76425,911.55815 116.73499,911.52653 116.72824,911.52068 C 116.72122,911.51404 116.69301,911.4856 116.68572,911.47816 C 116.52693,911.30534 116.29224,910.93272 115.96292,910.41521 C 115.3894,909.55495 113.25071,906.56496 111.24342,903.69738 C 105.36493,895.66822 102.91885,892.08117 100.91156,887.92321 C 98.442773,883.11558 97.030643,878.54902 96.574733,873.89228 C 96.562833,873.77076 96.542803,873.63126 96.532213,873.50962 C 96.521803,873.39014 96.541373,873.28907 96.532213,873.16947 L 96.532213,870.78847 C 96.537273,870.7654 96.525893,870.7195 96.532213,870.70344 C 96.534143,870.70095 96.572703,870.66304 96.574733,870.66091 z M 96.574733,901.78406 L 97.042423,902.1242 L 100.61393,905.56816 C 108.21293,912.88042 112.82444,918.59439 115.83537,924.61621 C 118.70291,930.35132 119.56512,935.649 118.13133,941.24066 C 118.00588,941.99347 117.87412,942.6539 117.74867,942.89894 C 117.74419,942.90669 117.71063,942.93472 117.70615,942.94139 C 117.70167,942.9471 117.71063,942.97948 117.70615,942.98397 C 117.70559,942.98737 117.66477,942.98166 117.66363,942.98397 C 117.56026,942.90533 117.2458,942.50804 116.68572,941.83605 C 116.25559,941.11903 113.96263,937.95896 111.6686,934.94807 C 105.21661,926.34541 103.06222,923.19343 100.91156,918.74873 C 98.474143,914.01726 97.190763,910.14043 96.617253,905.69572 C 96.617253,905.4448 96.588173,905.15895 96.574733,904.88787 C 96.568003,904.75233 96.583133,904.63991 96.574733,904.50521 L 96.574733,901.78406 z "
       style="fill:url(#linearGradient8469);fill-opacity:1" />
  </g>
</svg>
