<?xml version="1.0" encoding="UTF-8" standalone="no"?>
<svg
   xmlns:dc="http://purl.org/dc/elements/1.1/"
   xmlns:cc="http://web.resource.org/cc/"
   xmlns:rdf="http://www.w3.org/1999/02/22-rdf-syntax-ns#"
   xmlns:svg="http://www.w3.org/2000/svg"
   xmlns="http://www.w3.org/2000/svg"
   xmlns:xlink="http://www.w3.org/1999/xlink"
   xmlns:sodipodi="http://sodipodi.sourceforge.net/DTD/sodipodi-0.dtd"
   xmlns:inkscape="http://www.inkscape.org/namespaces/inkscape"
   viewBox="-1 -200 1000 1000"
   id="svg34224"
   sodipodi:version="0.32"
   inkscape:version="0.45"
   width="128"
   height="128"
   sodipodi:docname="n64.svg"
   sodipodi:docbase="/home/matevz/canorus/artwork/images"
   inkscape:output_extension="org.inkscape.output.svg.inkscape"
   version="1.0"
   sodipodi:modified="true">
  <metadata
     id="metadata34233">
    <rdf:RDF>
      <cc:Work
         rdf:about="">
        <dc:format>image/svg+xml</dc:format>
        <dc:type
           rdf:resource="http://purl.org/dc/dcmitype/StillImage" />
      </cc:Work>
    </rdf:RDF>
  </metadata>
  <defs
     id="defs34231">
    <linearGradient
       id="linearGradient36148">
      <stop
         style="stop-color:#000000;stop-opacity:1;"
         offset="0"
         id="stop36150" />
      <stop
         style="stop-color:#646464;stop-opacity:1;"
         offset="1"
         id="stop36152" />
    </linearGradient>
    <linearGradient
       id="linearGradient36138">
      <stop
         style="stop-color:#000000;stop-opacity:1;"
         offset="0"
         id="stop36140" />
      <stop
         style="stop-color:#000000;stop-opacity:0;"
         offset="1"
         id="stop36142" />
    </linearGradient>
    <linearGradient
       inkscape:collect="always"
       xlink:href="#linearGradient36148"
       id="linearGradient36154"
       x1="54.073643"
       y1="922.1391"
       x2="108.13371"
       y2="922.1391"
       gradientUnits="userSpaceOnUse"
       gradientTransform="translate(0,-1.418067)" />
    <linearGradient
       inkscape:collect="always"
       xlink:href="#linearGradient36148"
       id="linearGradient45629"
       gradientUnits="userSpaceOnUse"
       gradientTransform="matrix(1.368336,0,0,1.363447,-10.98218,-428.139)"
       x1="54.073643"
       y1="922.1391"
       x2="108.13371"
       y2="922.1391" />
    <linearGradient
       inkscape:collect="always"
       xlink:href="#linearGradient36148"
       id="linearGradient8554"
       gradientUnits="userSpaceOnUse"
       gradientTransform="matrix(1.368336,0,0,1.363447,-10.98218,-428.139)"
       x1="54.073643"
       y1="922.1391"
       x2="108.13371"
       y2="922.1391" />
  </defs>
  <sodipodi:namedview
     inkscape:window-height="978"
     inkscape:window-width="1400"
     inkscape:pageshadow="2"
     inkscape:pageopacity="0.0"
     borderopacity="1.0"
     bordercolor="#666666"
     pagecolor="#ffffff"
     id="base"
     showguides="true"
     inkscape:guide-bbox="true"
     inkscape:zoom="2.8431276"
     inkscape:cx="109.93341"
     inkscape:cy="18.407245"
     inkscape:window-x="192"
     inkscape:window-y="140"
     inkscape:current-layer="svg34224"
     width="128px"
     height="128px" />
  <g
     id="g8550"
     transform="matrix(5.7515473,0,0,5.7515473,2.3443574,-5001.461)">
    <path
       inkscape:export-ydpi="90"
       inkscape:export-xdpi="90"
       inkscape:export-filename="/home/matevz/apps/canorus/branches/matevz/src/fonts/n64.png"
       id="path45631"
       d="M 99.28892,840.04978 C 99.27994,840.05086 99.25461,840.09112 99.24616,840.09239 C 98.23822,840.36013 97.85578,840.99404 97.40746,841.45583 C 97.39925,841.4648 97.37279,841.48906 97.3647,841.49844 C 97.34071,841.52779 97.30221,841.59352 97.27917,841.62626 C 96.84752,842.26844 96.58254,843.50464 96.59501,844.18272 L 96.59501,963.56951 C 95.85803,961.92301 94.63575,960.54429 91.59203,959.56452 C 88.580259,958.7309 83.948979,958.20844 80.602579,958.54194 C 68.388199,959.87552 55.814389,968.53264 50.627469,979.03614 C 48.954269,982.53724 48.314679,985.02924 48.147359,988.19694 C 47.980039,993.36534 49.989859,998.02067 54.005549,1001.0218 C 55.344109,1002.1888 58.365299,1003.5467 60.205819,1004.047 C 74.260709,1008.2149 93.6298,998.52997 100.65725,984.19164 C 102.33046,980.85734 103.01278,978.36934 103.18012,975.20144 L 103.18012,948.9978 L 104.24913,950.02039 C 105.21283,950.86054 107.13024,952.75546 108.69622,954.1958 C 113.99651,959.59724 117.14036,963.80757 119.42911,968.1286 C 121.47696,972.56974 122.18507,976.05144 121.82369,980.61264 C 121.46231,985.89404 120.04238,990.95274 117.63316,995.99404 C 116.91039,997.43447 116.90624,997.52427 116.90624,998.12447 C 117.0267,998.48457 117.12787,998.95727 117.24833,999.31747 C 117.39889,999.59877 117.62057,999.88017 117.84697,1000.0845 C 117.90435,1000.1345 117.9997,1000.2098 118.06077,1000.2549 C 119.30849,1001.1476 121.29126,1001.06 122.33682,999.82877 C 122.81866,999.34857 123.896,996.58944 124.85969,993.94884 C 127.38938,986.50704 128.21016,978.57694 127.126,972.81544 C 126.5237,969.93474 125.43437,966.81043 123.74792,963.56951 L 122.80719,961.65223 L 123.6624,960.45921 C 125.10794,958.53866 126.1738,956.13558 126.65563,953.85495 C 126.89656,952.65471 126.89656,949.17914 126.65563,947.37857 C 126.29425,944.49789 125.32173,941.26133 123.8762,938.26059 L 123.53411,937.28061 L 124.26104,935.61891 C 125.46566,932.85821 126.1738,930.69467 126.65563,927.69387 C 126.89656,926.01343 126.89656,921.90238 126.65563,919.98187 C 126.1738,917.22117 125.33738,914.34884 124.13276,911.58815 L 123.53411,910.26731 L 123.74792,909.32994 C 126.15714,903.08835 126.30106,897.07567 124.13276,890.11386 C 122.68724,885.07255 120.27814,880.51584 114.25508,871.15342 C 111.24356,866.35219 110.1574,864.53677 108.95278,862.37623 C 105.95398,857.10312 104.03957,852.52544 103.09459,848.10264 C 103.09177,848.08942 103.0974,848.07324 103.09459,848.06003 L 103.09459,842.9897 C 103.10894,842.21183 102.79149,841.45207 102.2394,840.90192 C 101.68728,840.35184 100.96755,840.07809 100.18689,840.09239 C 100.07496,840.09405 99.558231,840.01693 99.28892,840.04978 z M 103.09459,868.17087 C 103.44492,868.57703 103.99084,869.173 104.50569,869.83258 C 114.38351,881.23548 119.05624,889.7334 119.89947,897.65543 C 120.01992,899.09578 120.01211,901.52546 119.77119,902.72574 L 119.55739,903.45008 L 118.44561,901.74576 L 114.85373,896.59023 C 109.67391,889.50841 107.97244,886.74636 106.04507,882.78532 C 104.59465,879.89488 103.65489,877.36231 103.09459,874.77507 C 103.08775,874.74347 103.10133,874.72147 103.09459,874.68986 L 103.09459,868.17087 z M 103.13735,894.97113 L 103.5222,895.39722 L 106.64371,898.50757 C 110.1371,901.98846 112.20726,904.26843 114.25508,907.02912 C 120.51906,915.31124 122.4255,922.386 120.49812,929.22775 C 120.32872,929.76789 120.21657,930.18712 120.11328,930.42076 C 120.07344,930.50495 120.02578,930.59658 119.985,930.6338 C 119.97908,930.63816 119.94824,930.6304 119.94223,930.6338 C 119.9392,930.63526 119.9453,930.6752 119.94223,930.67641 C 119.93913,930.67738 119.90261,930.67567 119.89947,930.67641 C 119.89622,930.67642 119.86001,930.67665 119.85671,930.67641 C 119.84973,930.67401 119.82114,930.63717 119.81396,930.6338 C 119.7991,930.62512 119.74432,930.60376 119.72843,930.59119 C 119.7202,930.58393 119.6942,930.55682 119.68567,930.54859 C 119.48221,930.33678 119.17837,929.83322 118.70218,929.09993 L 114.72545,923.34789 C 109.78654,916.50614 107.75864,913.38395 105.83126,909.54298 C 104.74711,907.14237 103.86793,904.97146 103.26563,902.81096 C 103.21757,902.58345 103.18075,902.38668 103.13735,902.17185 L 103.13735,894.97113 z M 103.13735,922.06965 L 103.39392,922.28269 C 103.87577,922.76282 105.31082,924.07274 106.51543,925.39306 C 111.81572,930.67441 114.96738,934.52824 117.37661,938.72928 C 120.62905,944.13057 121.96711,949.75847 120.88296,953.59944 C 120.67969,954.5109 120.02295,956.04724 119.68567,956.49677 C 119.67963,956.50426 119.64874,956.53249 119.64291,956.53931 C 119.63755,956.54448 119.60527,956.57748 119.60015,956.58185 C 119.59555,956.58457 119.56172,956.58007 119.55739,956.58185 C 119.50313,956.5138 119.04097,955.95152 118.70218,955.38883 C 118.22032,954.66879 116.64133,952.66521 115.19581,950.74465 C 110.85921,944.74303 109.18538,942.33436 107.49893,939.45367 C 105.39877,935.79145 103.92984,932.29265 103.13735,928.88689 C 103.13437,928.87407 103.14032,928.8571 103.13735,928.84428 L 103.13735,922.06965 z "
       style="fill:#000000;fill-opacity:0.39215686" />
    <path
       inkscape:export-ydpi="90"
       inkscape:export-xdpi="90"
       inkscape:export-filename="/home/matevz/apps/canorus/branches/matevz/src/fonts/n64.png"
       id="path34228"
       d="M 96.261156,838.4771 C 96.252179,838.47818 96.22685,838.51844 96.218395,838.51971 C 95.210458,838.78745 94.828015,839.42136 94.379694,839.88315 C 94.371492,839.89212 94.345032,839.91638 94.336933,839.92576 C 94.312946,839.95511 94.274452,840.02084 94.251412,840.05358 C 93.819759,840.69576 93.554776,841.93196 93.567244,842.61004 L 93.567244,961.99683 C 92.830268,960.35033 91.607985,958.97161 88.564265,957.99184 C 85.5525,957.15822 80.921214,956.63576 77.574816,956.96926 C 65.360442,958.30284 52.786629,966.95992 47.599704,977.4635 C 45.926503,980.96456 45.286919,983.45653 45.119595,986.62423 C 44.952275,991.79265 46.962099,996.44801 50.977784,999.44909 C 52.316343,1000.6161 55.337533,1001.974 57.178057,1002.4743 C 71.232948,1006.6422 90.602042,996.95725 97.629492,982.61897 C 99.302695,979.28466 99.985021,976.79664 100.15236,973.62881 L 100.15236,947.42512 L 101.22137,948.44771 C 102.18507,949.28786 104.10248,951.18278 105.66846,952.62312 C 110.96875,958.02456 114.1126,962.23489 116.40135,966.55592 C 118.4492,970.99708 119.15731,974.47878 118.79593,979.03992 C 118.43455,984.32137 117.01462,989.38003 114.6054,994.42138 C 113.88263,995.86173 113.87848,995.95157 113.87848,996.55176 C 113.99894,996.91185 114.10011,997.38456 114.22057,997.74478 C 114.37113,998.02606 114.59281,998.30747 114.81921,998.51172 C 114.87659,998.56176 114.97194,998.63702 115.03301,998.68215 C 116.28073,999.57491 118.2635,999.48726 119.30906,998.25608 C 119.7909,997.77587 120.86824,995.01679 121.83193,992.3762 C 124.36162,984.93437 125.1824,977.00429 124.09824,971.24277 C 123.49594,968.36209 122.40661,965.23775 120.72016,961.99683 L 119.77943,960.07955 L 120.63464,958.88653 C 122.08018,956.96598 123.14604,954.5629 123.62787,952.28227 C 123.8688,951.08203 123.8688,947.60646 123.62787,945.80589 C 123.26649,942.92521 122.29397,939.68865 120.84844,936.68791 L 120.50635,935.70793 L 121.23328,934.04623 C 122.4379,931.28553 123.14604,929.12199 123.62787,926.12119 C 123.8688,924.44075 123.8688,920.3297 123.62787,918.40919 C 123.14604,915.64849 122.30962,912.77616 121.105,910.01547 L 120.50635,908.69463 L 120.72016,907.75726 C 123.12938,901.51567 123.2733,895.50299 121.105,888.54118 C 119.65948,883.49987 117.25038,878.94316 111.22732,869.58074 C 108.2158,864.77951 107.12964,862.96409 105.92502,860.80355 C 102.92622,855.53044 101.01181,850.95276 100.06683,846.52996 C 100.06401,846.51674 100.06964,846.50056 100.06683,846.48735 L 100.06683,841.41702 C 100.08118,840.63915 99.763731,839.87939 99.211635,839.32924 C 98.659515,838.77916 97.939785,838.50541 97.159126,838.51971 C 97.047197,838.52137 96.530463,838.44425 96.261156,838.4771 z M 100.06683,866.59819 C 100.41716,867.00435 100.96308,867.60032 101.47793,868.2599 C 111.35575,879.6628 116.02848,888.16072 116.87171,896.08275 C 116.99216,897.5231 116.98435,899.95278 116.74343,901.15306 L 116.52963,901.8774 L 115.41785,900.17308 L 111.82597,895.01755 C 106.64615,887.93573 104.94468,885.17368 103.01731,881.21264 C 101.56689,878.3222 100.62713,875.78963 100.06683,873.20239 C 100.05999,873.17079 100.07357,873.14879 100.06683,873.11718 L 100.06683,866.59819 z M 100.10959,893.39845 L 100.49444,893.82454 L 103.61595,896.93489 C 107.10934,900.41578 109.1795,902.69575 111.22732,905.45644 C 117.4913,913.73856 119.39774,920.81332 117.47036,927.65507 C 117.30096,928.19521 117.18881,928.61444 117.08552,928.84808 C 117.04568,928.93227 116.99802,929.0239 116.95724,929.06112 C 116.95132,929.06548 116.92048,929.05772 116.91447,929.06112 C 116.91144,929.06258 116.91754,929.10252 116.91447,929.10373 C 116.91137,929.1047 116.87485,929.10299 116.87171,929.10373 C 116.86846,929.10374 116.83225,929.10397 116.82895,929.10373 C 116.82197,929.10133 116.79338,929.06449 116.7862,929.06112 C 116.77134,929.05244 116.71656,929.03108 116.70067,929.01851 C 116.69244,929.01125 116.66644,928.98414 116.65791,928.97591 C 116.45445,928.7641 116.15061,928.26054 115.67442,927.52725 L 111.69769,921.77521 C 106.75878,914.93346 104.73088,911.81127 102.8035,907.9703 C 101.71935,905.56969 100.84017,903.39878 100.23787,901.23828 C 100.18981,901.01077 100.15299,900.814 100.10959,900.59917 L 100.10959,893.39845 z M 100.10959,920.49697 L 100.36616,920.71001 C 100.84801,921.19014 102.28306,922.50006 103.48767,923.82038 C 108.78796,929.10173 111.93962,932.95556 114.34885,937.1566 C 117.60129,942.55789 118.93935,948.18579 117.8552,952.02676 C 117.65193,952.93822 116.99519,954.47456 116.65791,954.92409 C 116.65187,954.93158 116.62098,954.95981 116.61515,954.96663 C 116.60979,954.9718 116.57751,955.0048 116.57239,955.00917 C 116.56779,955.01189 116.53396,955.00739 116.52963,955.00917 C 116.47537,954.94112 116.01321,954.37884 115.67442,953.81615 C 115.19256,953.09611 113.61357,951.09253 112.16805,949.17197 C 107.83145,943.17035 106.15762,940.76168 104.47117,937.88099 C 102.37101,934.21877 100.90208,930.71997 100.10959,927.31421 C 100.10661,927.30139 100.11256,927.28442 100.10959,927.2716 L 100.10959,920.49697 z "
       style="fill:url(#linearGradient8554);fill-opacity:1" />
  </g>
</svg>
