<?xml version="1.0" encoding="UTF-8" standalone="no"?>
<svg
   xmlns:dc="http://purl.org/dc/elements/1.1/"
   xmlns:cc="http://web.resource.org/cc/"
   xmlns:rdf="http://www.w3.org/1999/02/22-rdf-syntax-ns#"
   xmlns:svg="http://www.w3.org/2000/svg"
   xmlns="http://www.w3.org/2000/svg"
   xmlns:xlink="http://www.w3.org/1999/xlink"
   xmlns:sodipodi="http://inkscape.sourceforge.net/DTD/sodipodi-0.dtd"
   xmlns:inkscape="http://www.inkscape.org/namespaces/inkscape"
   viewBox="-8 -382 1000 1000"
   id="svg47407"
   sodipodi:version="0.32"
   inkscape:version="0.43"
   width="210mm"
   height="297mm"
   sodipodi:docname="neutral.svg"
   sodipodi:docbase="/home/matevz/apps/canorus/branches/matevz/src/fonts">
  <metadata
     id="metadata47416">
    <rdf:RDF>
      <cc:Work
         rdf:about="">
        <dc:format>image/svg+xml</dc:format>
        <dc:type
           rdf:resource="http://purl.org/dc/dcmitype/StillImage" />
      </cc:Work>
    </rdf:RDF>
  </metadata>
  <defs
     id="defs47414">
    <linearGradient
       id="linearGradient49170">
      <stop
         style="stop-color:#000000;stop-opacity:1;"
         offset="0"
         id="stop49172" />
      <stop
         style="stop-color:#646464;stop-opacity:1;"
         offset="1"
         id="stop49174" />
    </linearGradient>
    <linearGradient
       inkscape:collect="always"
       xlink:href="#linearGradient49170"
       id="linearGradient49176"
       x1="-8"
       y1="0.21421814"
       x2="174.55556"
       y2="0.21421814"
       gradientUnits="userSpaceOnUse" />
  </defs>
  <sodipodi:namedview
     inkscape:window-height="978"
     inkscape:window-width="1400"
     inkscape:pageshadow="2"
     inkscape:pageopacity="0.0"
     borderopacity="1.0"
     bordercolor="#666666"
     pagecolor="#ffffff"
     id="base"
     inkscape:zoom="2.0103948"
     inkscape:cx="67.101551"
     inkscape:cy="17.535716"
     inkscape:window-x="0"
     inkscape:window-y="0"
     inkscape:current-layer="svg47407" />
  <g
     transform="matrix(0.215212,0,0,-0.215212,63.65439,740.2915)"
     id="g48293"
     style="fill:#000000;fill-opacity:0.39215686"
     inkscape:export-filename="/home/matevz/apps/canorus/branches/matevz/src/fonts/neutral.png"
     inkscape:export-xdpi="90"
     inkscape:export-ydpi="90">
    <path
       d="M 8,381 C 16,383 30,381 37,379 C 41,377 45,376 45,375 C 46,374 46,346 45,279 C 44,227 44,184 44,183 C 44,183 67,188 95,195 C 123,201 147,206 149,206 C 152,206 159,203 162,200 C 167,194 167,212 171,-92 C 175,-368 175,-374 174,-376 C 165,-382 143,-383 131,-379 C 127,-378 123,-376 122,-376 C 121,-374 121,-371 122,-279 C 123,-227 123,-184 123,-183 C 123,-183 100,-188 72,-195 C 44,-201 20,-206 18,-206 C 11,-206 3,-199 1,-192 C 0,-188 -8,333 -8,361 L -7,375 L -2,378 C 2,379 6,381 8,381 z M 128,83 C 128,98 128,110 127,110 C 127,110 107,105 84,100 L 42,91 L 42,82 C 42,77 41,32 40,-18 C 40,-68 39,-109 39,-110 C 39,-110 124,-91 125,-91 C 125,-91 125,-57 126,-17 C 126,23 127,69 128,83 z "
       id="path48295"
       style="fill:#000000;fill-opacity:0.39215686" />
  </g>
  <g
     transform="matrix(0.215212,0,0,-0.215212,60.23579,738.3374)"
     id="g47409"
     style="fill-opacity:1.0;fill:url(#linearGradient49176)"
     inkscape:export-filename="/home/matevz/apps/canorus/branches/matevz/src/fonts/neutral.png"
     inkscape:export-xdpi="90"
     inkscape:export-ydpi="90">
    <path
       d="M 8,381 C 16,383 30,381 37,379 C 41,377 45,376 45,375 C 46,374 46,346 45,279 C 44,227 44,184 44,183 C 44,183 67,188 95,195 C 123,201 147,206 149,206 C 152,206 159,203 162,200 C 167,194 167,212 171,-92 C 175,-368 175,-374 174,-376 C 165,-382 143,-383 131,-379 C 127,-378 123,-376 122,-376 C 121,-374 121,-371 122,-279 C 123,-227 123,-184 123,-183 C 123,-183 100,-188 72,-195 C 44,-201 20,-206 18,-206 C 11,-206 3,-199 1,-192 C 0,-188 -8,333 -8,361 L -7,375 L -2,378 C 2,379 6,381 8,381 z M 128,83 C 128,98 128,110 127,110 C 127,110 107,105 84,100 L 42,91 L 42,82 C 42,77 41,32 40,-18 C 40,-68 39,-109 39,-110 C 39,-110 124,-91 125,-91 C 125,-91 125,-57 126,-17 C 126,23 127,69 128,83 z "
       id="path47411"
       style="fill:url(#linearGradient49176);fill-opacity:1.0" />
  </g>
  <rect
     style="opacity:1;fill:none;fill-opacity:0.39215686;fill-rule:nonzero;stroke:none;stroke-width:4;stroke-linecap:round;stroke-linejoin:round;stroke-miterlimit:4;stroke-dasharray:none;stroke-dashoffset:0;stroke-opacity:1"
     id="rect47418"
     width="172.02116"
     height="172.02116"
     x="-8"
     y="653.1217"
     inkscape:export-filename="/home/matevz/apps/canorus/branches/matevz/src/fonts/neutral.png"
     inkscape:export-xdpi="90"
     inkscape:export-ydpi="90" />
</svg>
