<?xml version="1.0" encoding="UTF-8" standalone="no"?>
<svg
   xmlns:dc="http://purl.org/dc/elements/1.1/"
   xmlns:cc="http://web.resource.org/cc/"
   xmlns:rdf="http://www.w3.org/1999/02/22-rdf-syntax-ns#"
   xmlns:svg="http://www.w3.org/2000/svg"
   xmlns="http://www.w3.org/2000/svg"
   xmlns:xlink="http://www.w3.org/1999/xlink"
   xmlns:sodipodi="http://sodipodi.sourceforge.net/DTD/sodipodi-0.dtd"
   xmlns:inkscape="http://www.inkscape.org/namespaces/inkscape"
   viewBox="-5 -200 1000 1000"
   id="svg56284"
   sodipodi:version="0.32"
   inkscape:version="0.45"
   width="128"
   height="128"
   sodipodi:docname="pedal.svg"
   sodipodi:docbase="/home/matevz/canorus/artwork/images"
   inkscape:output_extension="org.inkscape.output.svg.inkscape"
   sodipodi:modified="true"
   version="1.0">
  <metadata
     id="metadata56293">
    <rdf:RDF>
      <cc:Work
         rdf:about="">
        <dc:format>image/svg+xml</dc:format>
        <dc:type
           rdf:resource="http://purl.org/dc/dcmitype/StillImage" />
      </cc:Work>
    </rdf:RDF>
  </metadata>
  <defs
     id="defs56291">
    <linearGradient
       id="linearGradient59849">
      <stop
         style="stop-color:#000000;stop-opacity:1;"
         offset="0"
         id="stop59851" />
      <stop
         style="stop-color:#646464;stop-opacity:1;"
         offset="1"
         id="stop59853" />
    </linearGradient>
    <linearGradient
       id="linearGradient59841">
      <stop
         style="stop-color:#000000;stop-opacity:1;"
         offset="0"
         id="stop59843" />
      <stop
         style="stop-color:#000000;stop-opacity:0;"
         offset="1"
         id="stop59845" />
    </linearGradient>
    <linearGradient
       inkscape:collect="always"
       xlink:href="#linearGradient59849"
       id="linearGradient59855"
       x1="-4.9640422"
       y1="250.05237"
       x2="800.11145"
       y2="250.05237"
       gradientUnits="userSpaceOnUse" />
    <linearGradient
       inkscape:collect="always"
       xlink:href="#linearGradient59849"
       id="linearGradient7115"
       gradientUnits="userSpaceOnUse"
       x1="-4.9640422"
       y1="250.05237"
       x2="800.11145"
       y2="250.05237" />
    <linearGradient
       inkscape:collect="always"
       xlink:href="#linearGradient59849"
       id="linearGradient7117"
       gradientUnits="userSpaceOnUse"
       x1="-4.9640422"
       y1="250.05237"
       x2="800.11145"
       y2="250.05237" />
  </defs>
  <sodipodi:namedview
     inkscape:window-height="978"
     inkscape:window-width="1400"
     inkscape:pageshadow="2"
     inkscape:pageopacity="0.0"
     borderopacity="1.0"
     bordercolor="#666666"
     pagecolor="#ffffff"
     id="base"
     inkscape:zoom="2.0103948"
     inkscape:cx="56.391109"
     inkscape:cy="-2.633016"
     inkscape:window-x="192"
     inkscape:window-y="140"
     inkscape:current-layer="svg56284"
     width="128px"
     height="128px" />
  <g
     id="g7109"
     transform="matrix(5.6213823,0,0,5.6213823,30.255556,-4934.9585)">
    <g
       inkscape:export-ydpi="90"
       inkscape:export-xdpi="90"
       inkscape:export-filename="/home/matevz/apps/canorus/branches/matevz/src/fonts/pedal.png"
       style="fill:#000000;fill-opacity:0.39215686"
       id="g57170"
       transform="matrix(0.203058,0,0,-0.203058,1.736151,982.2429)">
      <path
         style="fill:#000000;fill-opacity:0.39215686"
         id="path57172"
         d="M 222,499 C 267,503 300,497 333,481 C 348,473 361,464 374,451 C 395,430 408,408 415,381 C 418,371 418,368 418,355 C 418,337 417,330 411,317 C 405,305 396,296 384,290 C 375,286 374,286 365,286 C 357,286 354,286 349,288 C 340,292 332,298 322,308 C 308,323 295,342 281,369 C 273,385 273,387 279,391 C 287,396 290,395 296,386 C 302,375 314,364 324,359 C 331,356 332,356 339,356 C 346,356 348,356 353,358 C 379,373 374,413 343,444 C 320,467 289,479 255,479 L 242,480 L 237,469 C 232,456 218,420 212,401 C 207,386 207,384 207,376 C 207,369 207,366 209,361 C 215,346 225,331 255,297 C 266,284 279,269 284,262 C 307,232 313,212 304,195 C 299,185 287,166 269,142 L 252,120 C 252,119 255,119 258,119 C 273,117 305,107 325,98 C 332,95 341,90 347,86 C 361,77 363,77 389,96 C 403,107 405,109 405,111 C 404,112 403,118 402,125 C 399,141 399,169 401,186 C 408,224 425,257 446,272 C 460,282 475,288 490,289 C 530,292 555,260 543,223 C 533,196 508,164 471,133 C 465,128 460,123 460,123 C 460,122 482,86 487,78 C 496,66 503,58 508,57 C 512,56 520,56 524,58 L 567,90 L 582,102 L 580,110 C 571,147 578,181 600,215 C 616,239 637,259 661,273 L 670,278 L 668,281 C 655,300 625,331 607,347 C 566,381 524,403 481,414 C 473,415 466,417 465,417 C 461,417 459,425 461,432 C 464,437 466,438 483,434 C 578,414 673,361 732,296 C 777,246 802,188 800,138 C 797,75 758,17 709,3 C 698,0 678,0 668,2 C 639,10 610,37 593,72 L 589,81 L 580,73 C 559,54 521,22 510,13 C 498,5 485,0 471,1 C 461,2 457,3 450,7 C 437,15 425,38 415,71 C 412,79 411,83 410,83 C 409,83 404,80 399,75 C 376,56 322,14 311,7 C 304,3 298,1 292,2 C 284,4 279,13 269,41 C 259,69 254,79 248,87 C 245,92 238,98 235,98 L 220,81 C 197,53 181,36 175,30 C 157,16 129,2 114,0 C 104,-1 95,6 96,15 C 97,25 111,48 124,62 C 143,82 190,111 215,117 C 222,120 224,121 227,124 C 235,133 245,147 248,152 C 253,163 252,175 244,191 C 237,205 231,214 208,243 C 178,281 170,293 165,306 C 162,314 162,319 165,332 C 173,363 199,433 215,467 L 220,478 L 214,478 C 202,476 183,472 168,467 C 115,450 72,415 52,375 C 45,359 43,349 43,335 C 43,321 44,315 50,306 C 56,296 70,287 79,286 C 100,284 123,317 123,349 C 123,352 123,353 126,355 C 129,357 131,357 134,357 C 141,356 143,354 143,346 C 143,338 140,319 138,307 C 127,265 102,229 74,218 C 66,215 51,215 43,218 C 29,224 15,236 7,249 C -17,289 -4,353 38,405 C 80,458 148,493 222,499 z M 688,250 C 685,255 682,259 682,259 C 681,260 672,253 667,247 C 645,222 631,178 633,135 C 635,90 650,55 672,44 C 677,42 679,42 687,42 C 694,42 696,42 701,44 C 719,53 728,81 727,122 C 726,141 724,154 719,173 C 713,198 702,225 688,250 z M 490,250 C 482,253 472,254 465,252 C 438,244 428,211 440,169 C 443,160 449,143 450,143 C 451,143 456,147 461,152 C 492,179 509,205 508,224 C 507,236 500,245 490,250 z " />
    </g>
    <g
       style="fill:url(#linearGradient7115);fill-opacity:1"
       inkscape:export-ydpi="90"
       inkscape:export-xdpi="90"
       inkscape:export-filename="/home/matevz/apps/canorus/branches/matevz/src/fonts/pedal.png"
       id="g56286"
       transform="matrix(0.203058,0,0,-0.203058,-1.282125,979.5022)">
      <path
         style="fill:url(#linearGradient7117);fill-opacity:1"
         id="path56288"
         d="M 222,499 C 267,503 300,497 333,481 C 348,473 361,464 374,451 C 395,430 408,408 415,381 C 418,371 418,368 418,355 C 418,337 417,330 411,317 C 405,305 396,296 384,290 C 375,286 374,286 365,286 C 357,286 354,286 349,288 C 340,292 332,298 322,308 C 308,323 295,342 281,369 C 273,385 273,387 279,391 C 287,396 290,395 296,386 C 302,375 314,364 324,359 C 331,356 332,356 339,356 C 346,356 348,356 353,358 C 379,373 374,413 343,444 C 320,467 289,479 255,479 L 242,480 L 237,469 C 232,456 218,420 212,401 C 207,386 207,384 207,376 C 207,369 207,366 209,361 C 215,346 225,331 255,297 C 266,284 279,269 284,262 C 307,232 313,212 304,195 C 299,185 287,166 269,142 L 252,120 C 252,119 255,119 258,119 C 273,117 305,107 325,98 C 332,95 341,90 347,86 C 361,77 363,77 389,96 C 403,107 405,109 405,111 C 404,112 403,118 402,125 C 399,141 399,169 401,186 C 408,224 425,257 446,272 C 460,282 475,288 490,289 C 530,292 555,260 543,223 C 533,196 508,164 471,133 C 465,128 460,123 460,123 C 460,122 482,86 487,78 C 496,66 503,58 508,57 C 512,56 520,56 524,58 L 567,90 L 582,102 L 580,110 C 571,147 578,181 600,215 C 616,239 637,259 661,273 L 670,278 L 668,281 C 655,300 625,331 607,347 C 566,381 524,403 481,414 C 473,415 466,417 465,417 C 461,417 459,425 461,432 C 464,437 466,438 483,434 C 578,414 673,361 732,296 C 777,246 802,188 800,138 C 797,75 758,17 709,3 C 698,0 678,0 668,2 C 639,10 610,37 593,72 L 589,81 L 580,73 C 559,54 521,22 510,13 C 498,5 485,0 471,1 C 461,2 457,3 450,7 C 437,15 425,38 415,71 C 412,79 411,83 410,83 C 409,83 404,80 399,75 C 376,56 322,14 311,7 C 304,3 298,1 292,2 C 284,4 279,13 269,41 C 259,69 254,79 248,87 C 245,92 238,98 235,98 L 220,81 C 197,53 181,36 175,30 C 157,16 129,2 114,0 C 104,-1 95,6 96,15 C 97,25 111,48 124,62 C 143,82 190,111 215,117 C 222,120 224,121 227,124 C 235,133 245,147 248,152 C 253,163 252,175 244,191 C 237,205 231,214 208,243 C 178,281 170,293 165,306 C 162,314 162,319 165,332 C 173,363 199,433 215,467 L 220,478 L 214,478 C 202,476 183,472 168,467 C 115,450 72,415 52,375 C 45,359 43,349 43,335 C 43,321 44,315 50,306 C 56,296 70,287 79,286 C 100,284 123,317 123,349 C 123,352 123,353 126,355 C 129,357 131,357 134,357 C 141,356 143,354 143,346 C 143,338 140,319 138,307 C 127,265 102,229 74,218 C 66,215 51,215 43,218 C 29,224 15,236 7,249 C -17,289 -4,353 38,405 C 80,458 148,493 222,499 z M 688,250 C 685,255 682,259 682,259 C 681,260 672,253 667,247 C 645,222 631,178 633,135 C 635,90 650,55 672,44 C 677,42 679,42 687,42 C 694,42 696,42 701,44 C 719,53 728,81 727,122 C 726,141 724,154 719,173 C 713,198 702,225 688,250 z M 490,250 C 482,253 472,254 465,252 C 438,244 428,211 440,169 C 443,160 449,143 450,143 C 451,143 456,147 461,152 C 492,179 509,205 508,224 C 507,236 500,245 490,250 z " />
    </g>
  </g>
</svg>
