<?xml version="1.0" encoding="UTF-8" standalone="no"?>
<svg
   xmlns:dc="http://purl.org/dc/elements/1.1/"
   xmlns:cc="http://web.resource.org/cc/"
   xmlns:rdf="http://www.w3.org/1999/02/22-rdf-syntax-ns#"
   xmlns:svg="http://www.w3.org/2000/svg"
   xmlns="http://www.w3.org/2000/svg"
   xmlns:xlink="http://www.w3.org/1999/xlink"
   xmlns:sodipodi="http://inkscape.sourceforge.net/DTD/sodipodi-0.dtd"
   xmlns:inkscape="http://www.inkscape.org/namespaces/inkscape"
   viewBox="-27 -512 1000 1000"
   id="svg6753"
   sodipodi:version="0.32"
   inkscape:version="0.43"
   width="210mm"
   height="297mm"
   sodipodi:docname="r16.svg"
   sodipodi:docbase="/home/matevz/apps/canorus/branches/matevz/src/fonts">
  <metadata
     id="metadata6762">
    <rdf:RDF>
      <cc:Work
         rdf:about="">
        <dc:format>image/svg+xml</dc:format>
        <dc:type
           rdf:resource="http://purl.org/dc/dcmitype/StillImage" />
      </cc:Work>
    </rdf:RDF>
  </metadata>
  <defs
     id="defs6760">
    <linearGradient
       id="linearGradient9389">
      <stop
         style="stop-color:#000000;stop-opacity:1;"
         offset="0"
         id="stop9391" />
      <stop
         style="stop-color:#646464;stop-opacity:1;"
         offset="1"
         id="stop9393" />
    </linearGradient>
    <linearGradient
       inkscape:collect="always"
       xlink:href="#linearGradient9389"
       id="linearGradient9395"
       x1="-26.241436"
       y1="-153.48067"
       x2="300"
       y2="-153.48067"
       gradientUnits="userSpaceOnUse" />
  </defs>
  <sodipodi:namedview
     inkscape:window-height="978"
     inkscape:window-width="1400"
     inkscape:pageshadow="2"
     inkscape:pageopacity="0.0"
     borderopacity="1.0"
     bordercolor="#666666"
     pagecolor="#ffffff"
     id="base"
     inkscape:zoom="2.8431276"
     inkscape:cx="86.45694"
     inkscape:cy="57.513777"
     inkscape:window-x="0"
     inkscape:window-y="0"
     inkscape:current-layer="svg6753" />
  <g
     transform="matrix(0.227669,0,0,-0.227669,29.74234,575.6369)"
     id="g7639"
     style="stroke:none;stroke-opacity:0.39215687;fill:#000000;fill-opacity:0.39215687"
     inkscape:export-filename="/home/matevz/apps/canorus/branches/matevz/src/fonts/r16.png"
     inkscape:export-xdpi="90"
     inkscape:export-ydpi="90">
    <path
       d="M 110,203 C 125,207 140,205 154,198 C 167,191 177,181 182,167 C 183,163 185,154 187,145 C 192,121 195,116 203,111 C 210,108 215,108 220,111 C 229,116 250,140 262,159 C 269,170 270,171 275,173 C 280,175 285,175 291,173 C 295,171 300,165 300,163 C 299,162 260,13 212,-169 C 150,-405 124,-501 123,-502 C 116,-507 102,-512 93,-512 C 83,-512 69,-507 62,-502 C 60,-500 63,-490 110,-338 C 138,-249 160,-176 160,-175 C 160,-175 153,-177 146,-180 C 129,-185 110,-190 94,-193 C 75,-196 48,-196 37,-193 C 13,-187 -8,-171 -18,-151 C -25,-139 -27,-131 -26,-116 C -26,-105 -26,-103 -23,-95 C -19,-83 -15,-76 -6,-67 C 5,-56 17,-49 33,-46 C 64,-40 94,-56 104,-83 C 105,-87 107,-96 109,-105 C 114,-129 117,-134 125,-139 C 136,-143 142,-141 155,-129 C 164,-119 174,-106 183,-91 C 188,-84 190,-78 194,-66 C 203,-39 238,74 238,75 C 237,75 231,73 222,70 C 188,59 166,55 141,55 C 119,55 113,56 97,64 C 75,74 61,91 54,113 C 52,119 52,123 52,134 C 52,145 52,147 55,155 C 59,167 63,174 72,183 C 83,194 95,201 110,203 z "
       id="path7641"
       style="fill:#000000;stroke:none;stroke-opacity:0.39215687;fill-opacity:0.39215687" />
  </g>
  <g
     transform="matrix(0.227669,0,0,-0.227669,27.05106,572.4075)"
     id="g6755"
     style="fill-opacity:1.0;fill:url(#linearGradient9395)"
     inkscape:export-filename="/home/matevz/apps/canorus/branches/matevz/src/fonts/r16.png"
     inkscape:export-xdpi="90"
     inkscape:export-ydpi="90">
    <path
       d="M 110,203 C 125,207 140,205 154,198 C 167,191 177,181 182,167 C 183,163 185,154 187,145 C 192,121 195,116 203,111 C 210,108 215,108 220,111 C 229,116 250,140 262,159 C 269,170 270,171 275,173 C 280,175 285,175 291,173 C 295,171 300,165 300,163 C 299,162 260,13 212,-169 C 150,-405 124,-501 123,-502 C 116,-507 102,-512 93,-512 C 83,-512 69,-507 62,-502 C 60,-500 63,-490 110,-338 C 138,-249 160,-176 160,-175 C 160,-175 153,-177 146,-180 C 129,-185 110,-190 94,-193 C 75,-196 48,-196 37,-193 C 13,-187 -8,-171 -18,-151 C -25,-139 -27,-131 -26,-116 C -26,-105 -26,-103 -23,-95 C -19,-83 -15,-76 -6,-67 C 5,-56 17,-49 33,-46 C 64,-40 94,-56 104,-83 C 105,-87 107,-96 109,-105 C 114,-129 117,-134 125,-139 C 136,-143 142,-141 155,-129 C 164,-119 174,-106 183,-91 C 188,-84 190,-78 194,-66 C 203,-39 238,74 238,75 C 237,75 231,73 222,70 C 188,59 166,55 141,55 C 119,55 113,56 97,64 C 75,74 61,91 54,113 C 52,119 52,123 52,134 C 52,145 52,147 55,155 C 59,167 63,174 72,183 C 83,194 95,201 110,203 z "
       id="path6757"
       style="fill:url(#linearGradient9395);fill-opacity:1.0" />
  </g>
  <rect
     style="opacity:1;fill:none;fill-opacity:0.39215686;fill-rule:nonzero;stroke:none;stroke-width:1.99100006;stroke-linecap:round;stroke-linejoin:round;stroke-miterlimit:4;stroke-dasharray:none;stroke-dashoffset:0;stroke-opacity:1"
     id="rect6764"
     width="172.02116"
     height="172.02116"
     x="-27"
     y="523.1217"
     inkscape:export-filename="/home/matevz/apps/canorus/branches/matevz/src/fonts/r16.png"
     inkscape:export-xdpi="90"
     inkscape:export-ydpi="90" />
</svg>
