<?xml version="1.0" encoding="UTF-8" standalone="no"?>
<svg
   xmlns:dc="http://purl.org/dc/elements/1.1/"
   xmlns:cc="http://web.resource.org/cc/"
   xmlns:rdf="http://www.w3.org/1999/02/22-rdf-syntax-ns#"
   xmlns:svg="http://www.w3.org/2000/svg"
   xmlns="http://www.w3.org/2000/svg"
   xmlns:sodipodi="http://sodipodi.sourceforge.net/DTD/sodipodi-0.dtd"
   xmlns:inkscape="http://www.inkscape.org/namespaces/inkscape"
   viewBox="-1 -200 1000 1000"
   id="svg53622"
   sodipodi:version="0.32"
   inkscape:version="0.45"
   width="128"
   height="128"
   sodipodi:docname="star.svg"
   sodipodi:docbase="/home/matevz/canorus/artwork/images"
   inkscape:output_extension="org.inkscape.output.svg.inkscape"
   sodipodi:modified="true"
   version="1.0">
  <metadata
     id="metadata53631">
    <rdf:RDF>
      <cc:Work
         rdf:about="">
        <dc:format>image/svg+xml</dc:format>
        <dc:type
           rdf:resource="http://purl.org/dc/dcmitype/StillImage" />
      </cc:Work>
    </rdf:RDF>
  </metadata>
  <defs
     id="defs53629" />
  <sodipodi:namedview
     inkscape:window-height="978"
     inkscape:window-width="1400"
     inkscape:pageshadow="2"
     inkscape:pageopacity="0.0"
     borderopacity="1.0"
     bordercolor="#666666"
     pagecolor="#ffffff"
     id="base"
     showguides="true"
     inkscape:guide-bbox="true"
     inkscape:zoom="2.8431276"
     inkscape:cx="64.921161"
     inkscape:cy="78.337832"
     inkscape:window-x="0"
     inkscape:window-y="0"
     inkscape:current-layer="svg53622"
     width="128px"
     height="128px" />
  <g
     id="g4436"
     transform="matrix(6.2876159,0,0,6.2876159,-1705.2978,-1745.7279)">
    <g
       inkscape:export-ydpi="90"
       inkscape:export-xdpi="90"
       inkscape:export-filename="/home/matevz/apps/canorus/branches/matevz/src/fonts/star.png"
       style="fill:#000000;fill-opacity:0.39215686"
       id="g54508"
       transform="matrix(0.225612,0,0,-0.225612,308.57116,374.39684)">
      <path
         style="fill:#000000;fill-opacity:0.39215686"
         id="path54510"
         d="M 182,499 C 198,502 216,498 228,487 C 236,480 242,466 242,453 C 242,443 238,436 219,415 C 207,401 203,390 208,379 C 213,367 226,362 238,367 C 248,373 253,381 254,400 C 257,432 258,437 267,445 C 284,461 308,462 326,448 C 350,430 354,399 334,378 C 326,369 321,368 289,365 C 270,364 262,359 256,349 C 251,337 256,324 268,319 C 279,314 290,318 304,330 C 325,349 332,353 342,353 C 360,353 377,343 384,328 C 398,298 382,265 352,259 C 335,256 329,259 304,281 C 290,293 279,297 268,292 C 256,287 251,274 256,263 C 262,252 270,247 289,246 C 321,243 326,242 334,233 C 350,216 351,192 337,174 C 319,150 288,146 267,166 C 258,174 257,179 254,211 C 253,230 248,238 238,244 C 226,249 213,244 208,232 C 203,221 207,210 219,196 C 238,175 242,168 242,158 C 242,140 232,123 217,116 C 187,102 154,118 148,148 C 145,165 148,171 170,196 C 182,210 186,221 181,232 C 176,244 163,249 152,244 C 141,238 136,230 135,211 C 132,179 131,174 122,166 C 101,146 70,150 52,174 C 38,192 39,216 55,233 C 63,242 68,243 100,246 C 119,247 127,252 133,263 C 138,274 133,287 121,292 C 110,297 99,293 85,281 C 64,262 57,258 47,258 C 29,258 12,268 5,283 C -9,313 7,346 37,352 C 54,355 60,352 85,330 C 99,318 110,314 121,319 C 133,324 138,337 133,349 C 127,359 119,364 100,365 C 68,368 63,369 55,378 C 35,399 39,430 63,448 C 81,462 105,461 122,445 C 131,437 132,432 135,400 C 136,381 141,373 152,367 C 163,362 176,367 181,379 C 186,390 182,401 170,415 C 151,436 147,443 147,453 C 147,475 161,493 182,499 z M 205,333 C 194,337 182,334 174,326 C 162,314 162,297 174,285 C 179,280 188,276 195,276 C 210,276 224,290 224,306 C 224,317 216,329 205,333 z " />
    </g>
    <g
       inkscape:export-ydpi="90"
       inkscape:export-xdpi="90"
       inkscape:export-filename="/home/matevz/apps/canorus/branches/matevz/src/fonts/star.png"
       id="g53624"
       transform="matrix(0.225612,0,0,-0.225612,304.82115,370.71684)">
      <path
         style="fill:currentColor"
         id="path53626"
         d="M 182,499 C 198,502 216,498 228,487 C 236,480 242,466 242,453 C 242,443 238,436 219,415 C 207,401 203,390 208,379 C 213,367 226,362 238,367 C 248,373 253,381 254,400 C 257,432 258,437 267,445 C 284,461 308,462 326,448 C 350,430 354,399 334,378 C 326,369 321,368 289,365 C 270,364 262,359 256,349 C 251,337 256,324 268,319 C 279,314 290,318 304,330 C 325,349 332,353 342,353 C 360,353 377,343 384,328 C 398,298 382,265 352,259 C 335,256 329,259 304,281 C 290,293 279,297 268,292 C 256,287 251,274 256,263 C 262,252 270,247 289,246 C 321,243 326,242 334,233 C 350,216 351,192 337,174 C 319,150 288,146 267,166 C 258,174 257,179 254,211 C 253,230 248,238 238,244 C 226,249 213,244 208,232 C 203,221 207,210 219,196 C 238,175 242,168 242,158 C 242,140 232,123 217,116 C 187,102 154,118 148,148 C 145,165 148,171 170,196 C 182,210 186,221 181,232 C 176,244 163,249 152,244 C 141,238 136,230 135,211 C 132,179 131,174 122,166 C 101,146 70,150 52,174 C 38,192 39,216 55,233 C 63,242 68,243 100,246 C 119,247 127,252 133,263 C 138,274 133,287 121,292 C 110,297 99,293 85,281 C 64,262 57,258 47,258 C 29,258 12,268 5,283 C -9,313 7,346 37,352 C 54,355 60,352 85,330 C 99,318 110,314 121,319 C 133,324 138,337 133,349 C 127,359 119,364 100,365 C 68,368 63,369 55,378 C 35,399 39,430 63,448 C 81,462 105,461 122,445 C 131,437 132,432 135,400 C 136,381 141,373 152,367 C 163,362 176,367 181,379 C 186,390 182,401 170,415 C 151,436 147,443 147,453 C 147,475 161,493 182,499 z M 205,333 C 194,337 182,334 174,326 C 162,314 162,297 174,285 C 179,280 188,276 195,276 C 210,276 224,290 224,306 C 224,317 216,329 205,333 z " />
    </g>
  </g>
</svg>
