<?xml version="1.0" encoding="UTF-8" standalone="no"?>
<!-- Created with Inkscape (http://www.inkscape.org/) -->
<svg
   xmlns:dc="http://purl.org/dc/elements/1.1/"
   xmlns:cc="http://web.resource.org/cc/"
   xmlns:rdf="http://www.w3.org/1999/02/22-rdf-syntax-ns#"
   xmlns:svg="http://www.w3.org/2000/svg"
   xmlns="http://www.w3.org/2000/svg"
   xmlns:xlink="http://www.w3.org/1999/xlink"
   xmlns:sodipodi="http://sodipodi.sourceforge.net/DTD/sodipodi-0.dtd"
   xmlns:inkscape="http://www.inkscape.org/namespaces/inkscape"
   width="128"
   height="128"
   id="svg2545"
   sodipodi:version="0.32"
   inkscape:version="0.45"
   sodipodi:modified="true"
   version="1.0">
  <defs
     id="defs2547">
    <linearGradient
       id="linearGradient36148">
      <stop
         style="stop-color:#000000;stop-opacity:1;"
         offset="0"
         id="stop36150" />
      <stop
         style="stop-color:#646464;stop-opacity:1;"
         offset="1"
         id="stop36152" />
    </linearGradient>
    <linearGradient
       inkscape:collect="always"
       xlink:href="#linearGradient36148"
       id="linearGradient5087"
       gradientUnits="userSpaceOnUse"
       gradientTransform="matrix(0.3500214,0,0,0.3500214,-1.2839383,-261.93483)"
       x1="54.073642"
       y1="922.13912"
       x2="108.13371"
       y2="922.13912" />
    <linearGradient
       inkscape:collect="always"
       xlink:href="#linearGradient36148"
       id="linearGradient5095"
       gradientUnits="userSpaceOnUse"
       gradientTransform="matrix(0.3500214,0,0,0.3500214,-1.2839383,-261.93483)"
       x1="54.073642"
       y1="922.13912"
       x2="108.13371"
       y2="922.13912" />
    <linearGradient
       inkscape:collect="always"
       xlink:href="#linearGradient36148"
       id="linearGradient6074"
       x1="18.440359"
       y1="112.94498"
       x2="86.473923"
       y2="112.94498"
       gradientUnits="userSpaceOnUse" />
    <linearGradient
       inkscape:collect="always"
       xlink:href="#linearGradient36148"
       id="linearGradient6082"
       x1="18.440359"
       y1="112.94498"
       x2="86.473923"
       y2="112.94498"
       gradientUnits="userSpaceOnUse" />
    <linearGradient
       inkscape:collect="always"
       xlink:href="#linearGradient36148"
       id="linearGradient8032"
       gradientUnits="userSpaceOnUse"
       x1="18.440359"
       y1="112.94498"
       x2="86.473923"
       y2="112.94498" />
    <linearGradient
       inkscape:collect="always"
       xlink:href="#linearGradient36148"
       id="linearGradient8034"
       gradientUnits="userSpaceOnUse"
       x1="18.440359"
       y1="112.94498"
       x2="86.473923"
       y2="112.94498" />
  </defs>
  <sodipodi:namedview
     id="base"
     pagecolor="#ffffff"
     bordercolor="#666666"
     borderopacity="1.0"
     gridtolerance="10000"
     guidetolerance="10"
     objecttolerance="10"
     inkscape:pageopacity="0.0"
     inkscape:pageshadow="2"
     inkscape:zoom="2.8"
     inkscape:cx="41.976629"
     inkscape:cy="54.257804"
     inkscape:document-units="px"
     inkscape:current-layer="layer1"
     width="128px"
     height="128px"
     showguides="true"
     inkscape:guide-bbox="true"
     inkscape:window-width="1400"
     inkscape:window-height="976"
     inkscape:window-x="0"
     inkscape:window-y="0">
    <sodipodi:guide
       orientation="horizontal"
       position="118.69292"
       id="guide5097" />
  </sodipodi:namedview>
  <metadata
     id="metadata2550">
    <rdf:RDF>
      <cc:Work
         rdf:about="">
        <dc:format>image/svg+xml</dc:format>
        <dc:type
           rdf:resource="http://purl.org/dc/dcmitype/StillImage" />
      </cc:Work>
    </rdf:RDF>
  </metadata>
  <g
     inkscape:label="Layer 1"
     inkscape:groupmode="layer"
     id="layer1">
    <g
       id="g5083"
       transform="matrix(1.591541,0,0,1.591541,-20.083763,-42.134617)">
      <path
         style="fill:#000000;fill-opacity:0.39215686"
         sodipodi:nodetypes="cscccccccccccssc"
         id="path36146"
         d="M 35.810353,33.111186 C 35.46385,33.203557 35.339473,33.421655 35.185351,33.580974 C 35.002686,33.769804 34.8909,34.261738 34.895713,34.524412 L 34.895713,75.713715 C 34.64236,75.145605 34.224196,74.677135 33.177843,74.339095 C 32.142477,74.051495 30.546606,73.862075 29.396202,73.977095 C 25.197213,74.437245 20.874655,77.423985 19.091523,81.047805 C 18.516319,82.255695 18.296446,83.115395 18.238924,84.208255 C 18.181405,85.991405 18.872329,87.597585 20.252821,88.632975 C 20.712983,89.035605 21.751591,89.504115 22.384315,89.676675 C 27.216031,91.114665 33.874627,87.773225 36.290484,82.826475 C 36.865688,81.676065 37.100259,80.817685 37.157785,79.724765 L 37.128383,34.110784 C 37.133315,33.842405 37.024182,33.580285 36.834383,33.390486 C 36.644583,33.200697 36.397157,33.106254 36.128785,33.111186 C 36.087742,33.111792 35.897113,33.095229 35.810353,33.111186 z " />
      <path
         style="fill:url(#linearGradient5087);fill-opacity:1"
         sodipodi:nodetypes="cscccccccccccssc"
         id="path34228"
         d="M 35.217739,32.386201 C 34.871235,32.478572 34.746859,32.69667 34.592738,32.855989 C 34.410072,33.044819 34.298286,33.536753 34.303098,33.799426 L 34.303098,74.988735 C 34.049746,74.420625 33.631583,73.952155 32.58523,73.614105 C 31.549863,73.326505 29.953993,73.137095 28.803586,73.252105 C 24.604597,73.712255 20.282041,76.699005 18.498908,80.322815 C 17.923705,81.530705 17.703831,82.390415 17.64631,83.483285 C 17.58879,85.266425 18.279716,86.872605 19.660206,87.907995 C 20.120369,88.310615 21.158976,88.779105 21.791701,88.951665 C 26.623415,90.389665 33.282012,87.048255 35.697871,82.101495 C 36.273075,80.951075 36.507645,80.092695 36.565171,78.999775 L 36.535769,33.385799 C 36.540701,33.11742 36.431568,32.8553 36.241769,32.665501 C 36.05197,32.475712 35.804543,32.381269 35.536171,32.386201 C 35.495128,32.386807 35.304499,32.370243 35.217739,32.386201 z " />
    </g>
    <g
       id="g8028"
       transform="translate(2.5,-1.0714286)">
      <path
         sodipodi:nodetypes="cscsc"
         id="path6084"
         d="M 20.776442,105.34746 C 20.776442,105.34746 42.202911,119.6638 53.202141,119.68632 C 65.238311,119.71118 87.917541,102.62424 87.917541,102.62424 C 87.917541,102.62424 70.018031,124.43129 53.102071,124.50824 C 37.281828,124.57974 20.776442,105.60124 20.776442,105.34746 z "
         style="fill:#000000;fill-opacity:0.53526976;fill-rule:evenodd;stroke:none;stroke-width:0.89246941px;stroke-linecap:butt;stroke-linejoin:miter;stroke-opacity:0.54771788" />
      <path
         sodipodi:nodetypes="cscsc"
         id="path4112"
         d="M 18.886594,104.7261 C 18.886594,104.7261 40.313061,119.04244 51.312296,119.06496 C 63.348458,119.08982 86.027689,102.00288 86.027689,102.00288 C 86.027689,102.00288 68.12818,123.80993 51.212218,123.88688 C 35.39198,123.95838 18.886594,104.97988 18.886594,104.7261 z "
         style="fill:url(#linearGradient8032);fill-opacity:1;fill-rule:evenodd;stroke:url(#linearGradient8034);stroke-width:0.89246941px;stroke-linecap:butt;stroke-linejoin:miter;stroke-opacity:1" />
    </g>
    <g
       id="g5089"
       transform="matrix(1.591541,0,0,1.591541,56.396262,-42.22581)">
      <path
         style="fill:#000000;fill-opacity:0.39215686"
         sodipodi:nodetypes="cscccccccccccssc"
         id="path5091"
         d="M 35.810353,33.111186 C 35.46385,33.203557 35.339473,33.421655 35.185351,33.580974 C 35.002686,33.769804 34.8909,34.261738 34.895713,34.524412 L 34.895713,75.713715 C 34.64236,75.145605 34.224196,74.677135 33.177843,74.339095 C 32.142477,74.051495 30.546606,73.862075 29.396202,73.977095 C 25.197213,74.437245 20.874655,77.423985 19.091523,81.047805 C 18.516319,82.255695 18.296446,83.115395 18.238924,84.208255 C 18.181405,85.991405 18.872329,87.597585 20.252821,88.632975 C 20.712983,89.035605 21.751591,89.504115 22.384315,89.676675 C 27.216031,91.114665 33.874627,87.773225 36.290484,82.826475 C 36.865688,81.676065 37.100259,80.817685 37.157785,79.724765 L 37.128383,34.110784 C 37.133315,33.842405 37.024182,33.580285 36.834383,33.390486 C 36.644583,33.200697 36.397157,33.106254 36.128785,33.111186 C 36.087742,33.111792 35.897113,33.095229 35.810353,33.111186 z " />
      <path
         style="fill:url(#linearGradient5095);fill-opacity:1"
         sodipodi:nodetypes="cscccccccccccssc"
         id="path5093"
         d="M 35.217739,32.386201 C 34.871235,32.478572 34.746859,32.69667 34.592738,32.855989 C 34.410072,33.044819 34.298286,33.536753 34.303098,33.799426 L 34.303098,74.988735 C 34.049746,74.420625 33.631583,73.952155 32.58523,73.614105 C 31.549863,73.326505 29.953993,73.137095 28.803586,73.252105 C 24.604597,73.712255 20.282041,76.699005 18.498908,80.322815 C 17.923705,81.530705 17.703831,82.390415 17.64631,83.483285 C 17.58879,85.266425 18.279716,86.872605 19.660206,87.907995 C 20.120369,88.310615 21.158976,88.779105 21.791701,88.951665 C 26.623415,90.389665 33.282012,87.048255 35.697871,82.101495 C 36.273075,80.951075 36.507645,80.092695 36.565171,78.999775 L 36.535769,33.385799 C 36.540701,33.11742 36.431568,32.8553 36.241769,32.665501 C 36.05197,32.475712 35.804543,32.381269 35.536171,32.386201 C 35.495128,32.386807 35.304499,32.370243 35.217739,32.386201 z " />
    </g>
  </g>
</svg>
