<?xml version="1.0" encoding="UTF-8" standalone="no"?>
<svg
   xmlns:dc="http://purl.org/dc/elements/1.1/"
   xmlns:cc="http://web.resource.org/cc/"
   xmlns:rdf="http://www.w3.org/1999/02/22-rdf-syntax-ns#"
   xmlns:svg="http://www.w3.org/2000/svg"
   xmlns="http://www.w3.org/2000/svg"
   xmlns:xlink="http://www.w3.org/1999/xlink"
   xmlns:sodipodi="http://inkscape.sourceforge.net/DTD/sodipodi-0.dtd"
   xmlns:inkscape="http://www.inkscape.org/namespaces/inkscape"
   viewBox="0 -350 1000 1000"
   id="svg63428"
   sodipodi:version="0.32"
   inkscape:version="0.43"
   width="210mm"
   height="297mm"
   sodipodi:docname="timesigC|.svg"
   sodipodi:docbase="/home/matevz/apps/canorus/branches/matevz/src/fonts">
  <metadata
     id="metadata63437">
    <rdf:RDF>
      <cc:Work
         rdf:about="">
        <dc:format>image/svg+xml</dc:format>
        <dc:type
           rdf:resource="http://purl.org/dc/dcmitype/StillImage" />
      </cc:Work>
    </rdf:RDF>
  </metadata>
  <defs
     id="defs63435">
    <linearGradient
       id="linearGradient66064">
      <stop
         style="stop-color:#000000;stop-opacity:1;"
         offset="0"
         id="stop66066" />
      <stop
         style="stop-color:#646464;stop-opacity:1;"
         offset="1"
         id="stop66068" />
    </linearGradient>
    <linearGradient
       inkscape:collect="always"
       xlink:href="#linearGradient66064"
       id="linearGradient66070"
       x1="0.5"
       y1="0"
       x2="430.13843"
       y2="0"
       gradientUnits="userSpaceOnUse" />
    <linearGradient
       inkscape:collect="always"
       xlink:href="#linearGradient66064"
       id="linearGradient66072"
       gradientUnits="userSpaceOnUse"
       x1="0.5"
       y1="0"
       x2="430.13843"
       y2="0" />
  </defs>
  <sodipodi:namedview
     inkscape:window-height="978"
     inkscape:window-width="1400"
     inkscape:pageshadow="2"
     inkscape:pageopacity="0.0"
     borderopacity="1.0"
     bordercolor="#666666"
     pagecolor="#ffffff"
     id="base"
     inkscape:zoom="2.8431276"
     inkscape:cx="108.56959"
     inkscape:cy="39.694234"
     inkscape:window-x="0"
     inkscape:window-y="0"
     inkscape:current-layer="svg63428" />
  <g
     transform="matrix(0.231945,0,0,-0.231945,40.34138,772.0588)"
     id="g64314"
     style="fill:#000000;fill-opacity:0.39215686"
     inkscape:export-filename="/home/matevz/apps/canorus/branches/matevz/src/fonts/timesigC|.png"
     inkscape:export-xdpi="90"
     inkscape:export-ydpi="90">
    <path
       d="M 199,348 C 202,350 204,350 215,350 C 225,350 227,350 230,348 C 236,344 236,344 236,303 L 236,265 L 253,265 C 277,264 294,260 315,252 C 366,230 406,180 419,122 C 425,97 421,76 409,58 C 392,34 364,24 336,34 C 295,48 276,87 290,129 C 299,157 322,175 352,177 L 362,177 L 360,180 C 353,190 337,205 324,213 C 301,228 275,235 248,235 L 236,235 L 236,0 L 236,-235 L 252,-235 C 270,-234 280,-232 294,-227 C 338,-211 376,-167 394,-110 C 397,-101 400,-91 401,-87 C 404,-78 406,-76 414,-75 C 420,-75 424,-77 428,-82 C 431,-86 431,-89 427,-104 C 422,-122 417,-134 408,-152 C 395,-179 382,-197 364,-215 C 330,-249 292,-265 247,-265 L 236,-265 L 236,-303 C 236,-338 236,-341 234,-344 C 231,-349 228,-350 215,-350 C 201,-350 198,-349 195,-344 C 193,-341 193,-338 193,-300 L 193,-260 L 181,-258 C 135,-247 100,-228 70,-199 C 33,-161 10,-110 2,-44 C 0,-24 0,24 2,44 C 10,110 33,161 70,199 C 102,230 137,248 191,260 L 193,260 L 193,300 C 193,344 193,344 199,348 z M 193,0 L 193,224 C 193,224 190,222 186,220 C 160,205 145,174 140,124 C 136,84 136,-84 140,-123 C 142,-139 145,-159 149,-170 C 157,-194 171,-212 188,-221 L 193,-224 L 193,0 z "
       id="path64316"
       style="fill:#000000;fill-opacity:0.39215686" />
  </g>
  <g
     transform="matrix(0.231945,0,0,-0.231945,37.25377,770.0798)"
     id="g63430"
     style="fill:url(#linearGradient66070);fill-opacity:1"
     inkscape:export-filename="/home/matevz/apps/canorus/branches/matevz/src/fonts/timesigC|.png"
     inkscape:export-xdpi="90"
     inkscape:export-ydpi="90">
    <path
       d="M 199,348 C 202,350 204,350 215,350 C 225,350 227,350 230,348 C 236,344 236,344 236,303 L 236,265 L 253,265 C 277,264 294,260 315,252 C 366,230 406,180 419,122 C 425,97 421,76 409,58 C 392,34 364,24 336,34 C 295,48 276,87 290,129 C 299,157 322,175 352,177 L 362,177 L 360,180 C 353,190 337,205 324,213 C 301,228 275,235 248,235 L 236,235 L 236,0 L 236,-235 L 252,-235 C 270,-234 280,-232 294,-227 C 338,-211 376,-167 394,-110 C 397,-101 400,-91 401,-87 C 404,-78 406,-76 414,-75 C 420,-75 424,-77 428,-82 C 431,-86 431,-89 427,-104 C 422,-122 417,-134 408,-152 C 395,-179 382,-197 364,-215 C 330,-249 292,-265 247,-265 L 236,-265 L 236,-303 C 236,-338 236,-341 234,-344 C 231,-349 228,-350 215,-350 C 201,-350 198,-349 195,-344 C 193,-341 193,-338 193,-300 L 193,-260 L 181,-258 C 135,-247 100,-228 70,-199 C 33,-161 10,-110 2,-44 C 0,-24 0,24 2,44 C 10,110 33,161 70,199 C 102,230 137,248 191,260 L 193,260 L 193,300 C 193,344 193,344 199,348 z M 193,0 L 193,224 C 193,224 190,222 186,220 C 160,205 145,174 140,124 C 136,84 136,-84 140,-123 C 142,-139 145,-159 149,-170 C 157,-194 171,-212 188,-221 L 193,-224 L 193,0 z "
       id="path63432"
       style="fill:url(#linearGradient66072);fill-opacity:1" />
  </g>
  <rect
     style="opacity:1;fill:none;fill-opacity:0.39215686;fill-rule:nonzero;stroke:none;stroke-width:4;stroke-linecap:round;stroke-linejoin:round;stroke-miterlimit:4;stroke-dasharray:none;stroke-dashoffset:0;stroke-opacity:1"
     id="rect63439"
     width="172.02116"
     height="172.02116"
     x="0"
     y="685.1217"
     inkscape:export-filename="/home/matevz/apps/canorus/branches/matevz/src/fonts/timesigC|.png"
     inkscape:export-xdpi="90"
     inkscape:export-ydpi="90" />
</svg>
