<?xml version="1.0" encoding="UTF-8" standalone="no"?>
<svg
   xmlns:dc="http://purl.org/dc/elements/1.1/"
   xmlns:cc="http://web.resource.org/cc/"
   xmlns:rdf="http://www.w3.org/1999/02/22-rdf-syntax-ns#"
   xmlns:svg="http://www.w3.org/2000/svg"
   xmlns="http://www.w3.org/2000/svg"
   xmlns:xlink="http://www.w3.org/1999/xlink"
   xmlns:sodipodi="http://sodipodi.sourceforge.net/DTD/sodipodi-0.dtd"
   xmlns:inkscape="http://www.inkscape.org/namespaces/inkscape"
   viewBox="-336 -200 1000 1000"
   id="svg19963"
   sodipodi:version="0.32"
   inkscape:version="0.45.1"
   width="128"
   height="128"
   sodipodi:docname="fermatalong.svg"
   sodipodi:docbase="/home/matevz/canorus/trunk/src/ui/images"
   inkscape:export-filename="/home/matevz/apps/canorus/branches/matevz/src/fonts/fermata.png"
   inkscape:export-xdpi="120.95"
   inkscape:export-ydpi="120.95"
   inkscape:output_extension="org.inkscape.output.svg.inkscape"
   version="1.0">
  <metadata
     id="metadata19972">
    <rdf:RDF>
      <cc:Work
         rdf:about="">
        <dc:format>image/svg+xml</dc:format>
        <dc:type
           rdf:resource="http://purl.org/dc/dcmitype/StillImage" />
      </cc:Work>
    </rdf:RDF>
  </metadata>
  <defs
     id="defs19970">
    <linearGradient
       id="linearGradient20853">
      <stop
         style="stop-color:#000000;stop-opacity:1;"
         offset="0"
         id="stop20855" />
      <stop
         style="stop-color:#646464;stop-opacity:1;"
         offset="1"
         id="stop20857" />
    </linearGradient>
    <linearGradient
       inkscape:collect="always"
       xlink:href="#linearGradient20853"
       id="linearGradient20859"
       x1="-335.13843"
       y1="171.86571"
       x2="335"
       y2="171.86571"
       gradientUnits="userSpaceOnUse" />
    <linearGradient
       inkscape:collect="always"
       xlink:href="#linearGradient20853"
       id="linearGradient20861"
       gradientUnits="userSpaceOnUse"
       x1="-335.13843"
       y1="171.86571"
       x2="335"
       y2="171.86571" />
    <linearGradient
       inkscape:collect="always"
       xlink:href="#linearGradient20853"
       id="linearGradient5007"
       gradientUnits="userSpaceOnUse"
       x1="-335.13843"
       y1="171.86571"
       x2="335"
       y2="171.86571" />
    <linearGradient
       inkscape:collect="always"
       xlink:href="#linearGradient20853"
       id="linearGradient3525"
       x1="-313"
       y1="187.5"
       x2="313"
       y2="187.5"
       gradientUnits="userSpaceOnUse" />
    <linearGradient
       inkscape:collect="always"
       xlink:href="#linearGradient20853"
       id="linearGradient4501"
       gradientUnits="userSpaceOnUse"
       x1="-335.13843"
       y1="171.86571"
       x2="335"
       y2="171.86571" />
    <linearGradient
       inkscape:collect="always"
       xlink:href="#linearGradient20853"
       id="linearGradient6447"
       gradientUnits="userSpaceOnUse"
       x1="-313"
       y1="187.5"
       x2="313"
       y2="187.5" />
    <linearGradient
       inkscape:collect="always"
       xlink:href="#linearGradient20853"
       id="linearGradient10339"
       gradientUnits="userSpaceOnUse"
       x1="-313"
       y1="187.5"
       x2="313"
       y2="187.5" />
  </defs>
  <sodipodi:namedview
     inkscape:window-height="978"
     inkscape:window-width="1400"
     inkscape:pageshadow="2"
     inkscape:pageopacity="0.0"
     borderopacity="1.0"
     bordercolor="#666666"
     pagecolor="#ffffff"
     id="base"
     inkscape:zoom="2.8431276"
     inkscape:cx="36.029119"
     inkscape:cy="75.737193"
     inkscape:window-x="192"
     inkscape:window-y="140"
     inkscape:current-layer="svg19963"
     width="128px"
     height="128px" />
  <g
     id="g9364"
     transform="translate(17.099063,-32.616764)">
    <g
       style="fill:#000000;fill-opacity:0.39215686"
       id="g6449"
       transform="matrix(1.4148609,0,0,-1.4148609,157.18822,609.97825)">
      <path
         style="fill:#000000;fill-opacity:0.39215686"
         id="path6451"
         d="M -305,373 C -303,374.33333 -201,375 1,375 C 202.33333,375 304,374.33333 306,373 C 308,371.66667 309.66667,370 311,368 C 312.33333,366 313,307.66667 313,193 C 313,77.666667 312.66667,19.333333 312,18 C 308.66667,6 301,0 289,0 C 279.66667,0 272.33333,5 267,15 L 265,20 L 265,144 L 265,268 L 0,268 L -265,268 L -265,145 C -265,61.666667 -265.33333,19.333333 -266,18 C -269.33333,6 -277,0 -289,0 C -300.33333,0 -307.66667,5.3333333 -311,16 C -312.33333,18.666667 -313,77.666667 -313,193 L -312,366 L -310,369 C -308,371 -306.33333,372.33333 -305,373 z M -14,151 C -1.3333333,152.33333 10,152 20,150 C 32.666667,145.33333 42,140 48,134 C 60,124.66667 68.666667,111.33333 74,94 C 78.666667,74 75.666667,55 65,37 C 54.333333,19 39,7.3333333 19,2 C 6.3333333,-0.66666667 -6.3333333,-0.66666667 -19,2 C -47.666667,9.3333333 -66,28 -74,58 C -79.333333,79.333333 -76,99 -64,117 C -52,135 -35.333333,146.33333 -14,151 z " />
    </g>
    <g
       style="fill:url(#linearGradient10339);fill-opacity:1"
       id="g2539"
       transform="matrix(1.4148606,0,0,-1.4148606,136.61356,585.82801)">
      <path
         style="fill:url(#linearGradient6447);fill-opacity:1"
         id="path2541"
         d="M -305,373 C -303,374.33333 -201,375 1,375 C 202.33333,375 304,374.33333 306,373 C 308,371.66667 309.66667,370 311,368 C 312.33333,366 313,307.66667 313,193 C 313,77.666667 312.66667,19.333333 312,18 C 308.66667,6 301,0 289,0 C 279.66667,0 272.33333,5 267,15 L 265,20 L 265,144 L 265,268 L 0,268 L -265,268 L -265,145 C -265,61.666667 -265.33333,19.333333 -266,18 C -269.33333,6 -277,0 -289,0 C -300.33333,0 -307.66667,5.3333333 -311,16 C -312.33333,18.666667 -313,77.666667 -313,193 L -312,366 L -310,369 C -308,371 -306.33333,372.33333 -305,373 z M -14,151 C -1.3333333,152.33333 10,152 20,150 C 32.666667,145.33333 42,140 48,134 C 60,124.66667 68.666667,111.33333 74,94 C 78.666667,74 75.666667,55 65,37 C 54.333333,19 39,7.3333333 19,2 C 6.3333333,-0.66666667 -6.3333333,-0.66666667 -19,2 C -47.666667,9.3333333 -66,28 -74,58 C -79.333333,79.333333 -76,99 -64,117 C -52,135 -35.333333,146.33333 -14,151 z " />
    </g>
  </g>
</svg>
