<?xml version="1.0" encoding="UTF-8" standalone="no"?>
<svg
   xmlns:dc="http://purl.org/dc/elements/1.1/"
   xmlns:cc="http://web.resource.org/cc/"
   xmlns:rdf="http://www.w3.org/1999/02/22-rdf-syntax-ns#"
   xmlns:svg="http://www.w3.org/2000/svg"
   xmlns="http://www.w3.org/2000/svg"
   xmlns:xlink="http://www.w3.org/1999/xlink"
   xmlns:sodipodi="http://sodipodi.sourceforge.net/DTD/sodipodi-0.dtd"
   xmlns:inkscape="http://www.inkscape.org/namespaces/inkscape"
   viewBox="-336 -200 1000 1000"
   id="svg19963"
   sodipodi:version="0.32"
   inkscape:version="0.45.1"
   width="128"
   height="128"
   sodipodi:docname="fermataverylong.svg"
   sodipodi:docbase="/home/matevz/canorus/trunk/src/ui/images/mark/fermata"
   inkscape:export-filename="/home/matevz/apps/canorus/branches/matevz/src/fonts/fermata.png"
   inkscape:export-xdpi="120.95"
   inkscape:export-ydpi="120.95"
   inkscape:output_extension="org.inkscape.output.svg.inkscape"
   version="1.0">
  <metadata
     id="metadata19972">
    <rdf:RDF>
      <cc:Work
         rdf:about="">
        <dc:format>image/svg+xml</dc:format>
        <dc:type
           rdf:resource="http://purl.org/dc/dcmitype/StillImage" />
      </cc:Work>
    </rdf:RDF>
  </metadata>
  <defs
     id="defs19970">
    <linearGradient
       id="linearGradient20853">
      <stop
         style="stop-color:#000000;stop-opacity:1;"
         offset="0"
         id="stop20855" />
      <stop
         style="stop-color:#646464;stop-opacity:1;"
         offset="1"
         id="stop20857" />
    </linearGradient>
    <linearGradient
       inkscape:collect="always"
       xlink:href="#linearGradient20853"
       id="linearGradient20859"
       x1="-335.13843"
       y1="171.86571"
       x2="335"
       y2="171.86571"
       gradientUnits="userSpaceOnUse" />
    <linearGradient
       inkscape:collect="always"
       xlink:href="#linearGradient20853"
       id="linearGradient20861"
       gradientUnits="userSpaceOnUse"
       x1="-335.13843"
       y1="171.86571"
       x2="335"
       y2="171.86571" />
    <linearGradient
       inkscape:collect="always"
       xlink:href="#linearGradient20853"
       id="linearGradient5007"
       gradientUnits="userSpaceOnUse"
       x1="-335.13843"
       y1="171.86571"
       x2="335"
       y2="171.86571" />
    <linearGradient
       inkscape:collect="always"
       xlink:href="#linearGradient20853"
       id="linearGradient3525"
       x1="-313"
       y1="187.5"
       x2="313"
       y2="187.5"
       gradientUnits="userSpaceOnUse" />
    <linearGradient
       inkscape:collect="always"
       xlink:href="#linearGradient20853"
       id="linearGradient4501"
       gradientUnits="userSpaceOnUse"
       x1="-335.13843"
       y1="171.86571"
       x2="335"
       y2="171.86571" />
    <linearGradient
       inkscape:collect="always"
       xlink:href="#linearGradient20853"
       id="linearGradient10339"
       gradientUnits="userSpaceOnUse"
       x1="-313"
       y1="187.5"
       x2="313"
       y2="187.5" />
    <linearGradient
       inkscape:collect="always"
       xlink:href="#linearGradient20853"
       id="linearGradient11452"
       x1="-250.11765"
       y1="275"
       x2="250.22223"
       y2="275"
       gradientUnits="userSpaceOnUse" />
    <linearGradient
       inkscape:collect="always"
       xlink:href="#linearGradient20853"
       id="linearGradient13412"
       gradientUnits="userSpaceOnUse"
       x1="-250.11765"
       y1="275"
       x2="250.22223"
       y2="275" />
    <linearGradient
       inkscape:collect="always"
       xlink:href="#linearGradient20853"
       id="linearGradient13414"
       gradientUnits="userSpaceOnUse"
       x1="-250.11765"
       y1="275"
       x2="250.22223"
       y2="275" />
    <linearGradient
       inkscape:collect="always"
       xlink:href="#linearGradient20853"
       id="linearGradient15431"
       x1="-375"
       y1="200"
       x2="375"
       y2="200"
       gradientUnits="userSpaceOnUse" />
    <linearGradient
       inkscape:collect="always"
       xlink:href="#linearGradient20853"
       id="linearGradient16416"
       gradientUnits="userSpaceOnUse"
       x1="-375"
       y1="200"
       x2="375"
       y2="200" />
    <linearGradient
       inkscape:collect="always"
       xlink:href="#linearGradient20853"
       id="linearGradient16418"
       gradientUnits="userSpaceOnUse"
       x1="-375"
       y1="200"
       x2="375"
       y2="200" />
  </defs>
  <sodipodi:namedview
     inkscape:window-height="978"
     inkscape:window-width="1400"
     inkscape:pageshadow="2"
     inkscape:pageopacity="0.0"
     borderopacity="1.0"
     bordercolor="#666666"
     pagecolor="#ffffff"
     id="base"
     inkscape:zoom="2.8431276"
     inkscape:cx="36.029119"
     inkscape:cy="75.737193"
     inkscape:window-x="100"
     inkscape:window-y="78"
     inkscape:current-layer="svg19963"
     width="128px"
     height="128px" />
  <g
     id="g16410"
     transform="matrix(1.1749379,0,0,1.1749379,765.40676,641.78717)">
    <g
       style="fill:#000000;fill-opacity:0.39215686"
       id="g15433"
       transform="matrix(0.9623602,0,0,-0.9623602,-503.6191,-84.686786)">
      <path
         style="fill:#000000;fill-opacity:0.39215686"
         id="path15435"
         d="M -367,398 C -365,399.33333 -242.33333,400 1,400 C 243.66667,400 366,399.33333 368,398 C 370,396.66667 371.66667,395 373,393 C 374.33333,391 375,328.66667 375,206 C 375,82 374.66667,19.333333 374,18 C 370.66667,6 363,0 351,0 C 341.66667,0 334.33333,5 329,15 L 327,20 L 327,147 L 327,275 L 0,275 L -327,275 L -327,148 C -327,62.666667 -327.33333,19.333333 -328,18 C -331.33333,6 -339,0 -351,0 C -362.33333,0 -369.66667,5.3333333 -373,16 C -374.33333,18.666667 -375,82 -375,206 L -374,391 L -372,394 C -370,396 -368.33333,397.33333 -367,398 z M -242,223 C -240,224.33333 -159,225 1,225 C 160.33333,225 241,224.33333 243,223 C 245,221.66667 246.66667,220 248,218 C 249.33333,216 250,182.66667 250,118 C 250,52.666667 249.66667,19.333333 249,18 C 245.66667,6 238,0 226,0 C 220,0 214.33333,2.6666667 209,8 C 207.66667,8.6666667 206,11 204,15 C 202.66667,17.666667 202,41 202,85 L 202,150 L 0,150 L -202,150 L -202,86 C -202,42 -202.33333,19.333333 -203,18 C -206.33333,6 -214,0 -226,0 C -232.66667,0 -238.66667,2.6666667 -244,8 C -247.33333,12 -249.16667,18 -249.5,26 C -249.83333,34 -250,64.666667 -250,118 C -250,182 -249,215.66667 -247,219 C -245,221 -243.33333,222.33333 -242,223 z M -11,120 C -3.6666667,122 6.6666667,121.33333 20,118 C 32,113.33333 41.833333,105.83333 49.5,95.5 C 57.166667,85.166667 61,73.666667 61,61 C 61,32.333333 47.333333,13 20,3 C 15.333333,1.6666667 8.6666667,1 0,1 C -8.6666667,1 -15.333333,1.6666667 -20,3 C -34.666667,8.3333333 -45.666667,17.833333 -53,31.5 C -60.333333,45.166667 -62.333333,59.333333 -59,74 C -53.666667,99.333333 -37.666667,114.66667 -11,120 z " />
    </g>
    <g
       style="fill:url(#linearGradient16416);fill-opacity:1"
       id="g14445"
       transform="matrix(0.9623598,0,0,-0.9623598,-520.10623,-112.16544)">
      <path
         style="fill:url(#linearGradient16418);fill-opacity:1"
         id="path14447"
         d="M -367,398 C -365,399.33333 -242.33333,400 1,400 C 243.66667,400 366,399.33333 368,398 C 370,396.66667 371.66667,395 373,393 C 374.33333,391 375,328.66667 375,206 C 375,82 374.66667,19.333333 374,18 C 370.66667,6 363,0 351,0 C 341.66667,0 334.33333,5 329,15 L 327,20 L 327,147 L 327,275 L 0,275 L -327,275 L -327,148 C -327,62.666667 -327.33333,19.333333 -328,18 C -331.33333,6 -339,0 -351,0 C -362.33333,0 -369.66667,5.3333333 -373,16 C -374.33333,18.666667 -375,82 -375,206 L -374,391 L -372,394 C -370,396 -368.33333,397.33333 -367,398 z M -242,223 C -240,224.33333 -159,225 1,225 C 160.33333,225 241,224.33333 243,223 C 245,221.66667 246.66667,220 248,218 C 249.33333,216 250,182.66667 250,118 C 250,52.666667 249.66667,19.333333 249,18 C 245.66667,6 238,0 226,0 C 220,0 214.33333,2.6666667 209,8 C 207.66667,8.6666667 206,11 204,15 C 202.66667,17.666667 202,41 202,85 L 202,150 L 0,150 L -202,150 L -202,86 C -202,42 -202.33333,19.333333 -203,18 C -206.33333,6 -214,0 -226,0 C -232.66667,0 -238.66667,2.6666667 -244,8 C -247.33333,12 -249.16667,18 -249.5,26 C -249.83333,34 -250,64.666667 -250,118 C -250,182 -249,215.66667 -247,219 C -245,221 -243.33333,222.33333 -242,223 z M -11,120 C -3.6666667,122 6.6666667,121.33333 20,118 C 32,113.33333 41.833333,105.83333 49.5,95.5 C 57.166667,85.166667 61,73.666667 61,61 C 61,32.333333 47.333333,13 20,3 C 15.333333,1.6666667 8.6666667,1 0,1 C -8.6666667,1 -15.333333,1.6666667 -20,3 C -34.666667,8.3333333 -45.666667,17.833333 -53,31.5 C -60.333333,45.166667 -62.333333,59.333333 -59,74 C -53.666667,99.333333 -37.666667,114.66667 -11,120 z " />
    </g>
  </g>
</svg>
