<?xml version="1.0" standalone="no"?>
<!DOCTYPE svg PUBLIC "-//W3C//DTD SVG 1.1//EN" "http://www.w3.org/Graphics/SVG/1.1/DTD/svg11.dtd" >
<svg viewBox="-9 -200 1000 1000">
  <g transform="matrix(1 0 0 -1 0 800)">
   <path fill="currentColor"
d="M227 499q24 2 43 0q78 -8 122 -67q26 -35 28.5 -73.5t-19.5 -60.5q-23 -23 -50 -13q-26 9 -54 53q-24 41 -24 48q0 3 5 6.5t9 3.5t11 -11q9 -17 26 -25q14 -8 25 -3q35 17 12 61q-14 28 -44 44t-67 16h-10l-4 -12q-26 -69 -28 -86q0 -8 2 -14q7 -22 49 -70q31 -37 41 -54
t10 -32q0 -7 -4 -16q-9 -17 -37 -54l-13 -19q0 -1 9 -3q59 -8 87 -30q12 -9 38 11l13 10q2 2 -1 15q-8 50 7 93q12 33 29 49q22 21 50 23.5t45 -14.5q9 -9 13 -22q13 -50 -79 -126l-4 -3l7 -12q24 -42 36 -50q8 -6 19 -1q7 3 54 41l2 2l-2 10q-7 37 3 63q8 26 28.5 51.5
t45.5 41.5l10 6q2 1 -15 23q-25 30 -48 49q-61 51 -129 66q-12 4 -13 4q-2 3 -1.5 10t4.5 9q3 2 35 -6q131 -33 221 -121q63 -65 78 -137q1 -7 1 -28q0 -20 -2 -31q-11 -51 -43 -83q-22 -21 -47 -29q-19 -4 -39 0q-18 5 -33 17q-26 20 -42 53l-4 9l-13 -12q-48 -42 -59 -51
q-22 -18 -46 -16q-14 1 -24 7q-17 13 -30 55q-6 18 -8 18t-13 -9q-54 -44 -85 -66q-11 -6 -18 -5q-12 3 -27 45q-10 29 -18 39q-7 10 -12 10l-15 -18q-37 -46 -48 -53q-24 -14 -43 -22q-18 -5 -25 -1q-9 5 -9 12q0 21 29 52q16 16 46 32.5t48 19.5l6 2l9 11q3 4 12 17
q9 17 -3 43q-12 21 -49 68q-27 33 -30 51q-2 8 6 39q18 63 46 126q0 1 -18 -2q-49 -10 -88 -37t-57 -63q-9 -21 -9 -39q-1 -17 8 -31q13 -19 30 -19q11 0 20 11q20 22 20 55q0 4 3 6q15 8 19 -4q2 -5 -3 -34q-7 -39 -25.5 -68.5t-42.5 -37.5q-18 -8 -38 3q-40 20 -43 72
q-3 71 61 137q70 69 174 75zM687 245l-7 12q-2 0 -7 -5q-17 -17 -27.5 -49t-9.5 -67t14 -62q9 -19 22 -25q6 -3 15 -3t14 2q24 13 22 70q-3 65 -36 127zM490 249q-13 6 -26 1q-29 -11 -27 -49q2 -26 13 -50l2 -6l9 8q48 40 46 71q-2 17 -17 25z" />
  </g>

</svg>
