<?xml version="1.0" encoding="UTF-8" standalone="no"?>
<svg
   xmlns:dc="http://purl.org/dc/elements/1.1/"
   xmlns:cc="http://web.resource.org/cc/"
   xmlns:rdf="http://www.w3.org/1999/02/22-rdf-syntax-ns#"
   xmlns:svg="http://www.w3.org/2000/svg"
   xmlns="http://www.w3.org/2000/svg"
   xmlns:xlink="http://www.w3.org/1999/xlink"
   xmlns:sodipodi="http://sodipodi.sourceforge.net/DTD/sodipodi-0.dtd"
   xmlns:inkscape="http://www.inkscape.org/namespaces/inkscape"
   viewBox="-336 -200 1000 1000"
   id="svg19963"
   sodipodi:version="0.32"
   inkscape:version="0.45.1"
   width="128"
   height="128"
   sodipodi:docname="fingering.svg"
   sodipodi:docbase="/home/matevz/canorus/trunk/src/ui/images/mark"
   inkscape:export-filename="/home/matevz/apps/canorus/branches/matevz/src/fonts/fermata.png"
   inkscape:export-xdpi="120.95"
   inkscape:export-ydpi="120.95"
   inkscape:output_extension="org.inkscape.output.svg.inkscape"
   version="1.0">
  <metadata
     id="metadata19972">
    <rdf:RDF>
      <cc:Work
         rdf:about="">
        <dc:format>image/svg+xml</dc:format>
        <dc:type
           rdf:resource="http://purl.org/dc/dcmitype/StillImage" />
      </cc:Work>
    </rdf:RDF>
  </metadata>
  <defs
     id="defs19970">
    <linearGradient
       id="linearGradient20853">
      <stop
         style="stop-color:#000000;stop-opacity:1;"
         offset="0"
         id="stop20855" />
      <stop
         style="stop-color:#646464;stop-opacity:1;"
         offset="1"
         id="stop20857" />
    </linearGradient>
    <linearGradient
       inkscape:collect="always"
       xlink:href="#linearGradient20853"
       id="linearGradient20859"
       x1="-335.13843"
       y1="171.86571"
       x2="335"
       y2="171.86571"
       gradientUnits="userSpaceOnUse" />
    <linearGradient
       inkscape:collect="always"
       xlink:href="#linearGradient20853"
       id="linearGradient20861"
       gradientUnits="userSpaceOnUse"
       x1="-335.13843"
       y1="171.86571"
       x2="335"
       y2="171.86571" />
    <linearGradient
       inkscape:collect="always"
       xlink:href="#linearGradient20853"
       id="linearGradient5007"
       gradientUnits="userSpaceOnUse"
       x1="-335.13843"
       y1="171.86571"
       x2="335"
       y2="171.86571" />
    <linearGradient
       inkscape:collect="always"
       xlink:href="#linearGradient20853"
       id="linearGradient3525"
       x1="-313"
       y1="187.5"
       x2="313"
       y2="187.5"
       gradientUnits="userSpaceOnUse" />
    <linearGradient
       inkscape:collect="always"
       xlink:href="#linearGradient20853"
       id="linearGradient4501"
       gradientUnits="userSpaceOnUse"
       x1="-335.13843"
       y1="171.86571"
       x2="335"
       y2="171.86571" />
    <linearGradient
       inkscape:collect="always"
       xlink:href="#linearGradient20853"
       id="linearGradient10339"
       gradientUnits="userSpaceOnUse"
       x1="-313"
       y1="187.5"
       x2="313"
       y2="187.5" />
    <linearGradient
       inkscape:collect="always"
       xlink:href="#linearGradient20853"
       id="linearGradient17529"
       x1="-425.62265"
       y1="-262.96008"
       x2="-393.37265"
       y2="-262.96008"
       gradientUnits="userSpaceOnUse"
       gradientTransform="matrix(10.282972,0,0,10.282972,4503.9435,3202.2839)" />
    <linearGradient
       inkscape:collect="always"
       xlink:href="#linearGradient20853"
       id="linearGradient17535"
       gradientUnits="userSpaceOnUse"
       gradientTransform="matrix(9.0876717,0,0,9.0876717,3796.1642,2422.5373)"
       x1="-425.62265"
       y1="-262.96008"
       x2="-393.37265"
       y2="-262.96008" />
    <linearGradient
       inkscape:collect="always"
       xlink:href="#linearGradient20853"
       id="linearGradient17545"
       gradientUnits="userSpaceOnUse"
       gradientTransform="matrix(6.2530828,0,0,6.2530828,2939.591,1657.2338)"
       x1="-425.62265"
       y1="-262.96008"
       x2="-393.37265"
       y2="-262.96008" />
    <linearGradient
       inkscape:collect="always"
       xlink:href="#linearGradient20853"
       id="linearGradient17551"
       gradientUnits="userSpaceOnUse"
       gradientTransform="matrix(3.5907017,0,0,3.5907017,1855.2467,1487.7317)"
       x1="-425.62265"
       y1="-262.96008"
       x2="-393.37265"
       y2="-262.96008" />
    <linearGradient
       inkscape:collect="always"
       xlink:href="#linearGradient20853"
       id="linearGradient18603"
       x1="-100"
       y1="-37.468254"
       x2="99"
       y2="-37.468254"
       gradientUnits="userSpaceOnUse" />
    <linearGradient
       inkscape:collect="always"
       xlink:href="#linearGradient20853"
       id="linearGradient18605"
       gradientUnits="userSpaceOnUse"
       x1="-100"
       y1="-37.468254"
       x2="99"
       y2="-37.468254" />
    <linearGradient
       inkscape:collect="always"
       xlink:href="#linearGradient20853"
       id="linearGradient19620"
       gradientUnits="userSpaceOnUse"
       gradientTransform="matrix(10.282972,0,0,10.282972,4503.9435,3202.2839)"
       x1="-425.62265"
       y1="-262.96008"
       x2="-393.37265"
       y2="-262.96008" />
    <linearGradient
       inkscape:collect="always"
       xlink:href="#linearGradient20853"
       id="linearGradient19622"
       gradientUnits="userSpaceOnUse"
       gradientTransform="matrix(9.0876717,0,0,9.0876717,3796.1642,2422.5373)"
       x1="-425.62265"
       y1="-262.96008"
       x2="-393.37265"
       y2="-262.96008" />
    <linearGradient
       inkscape:collect="always"
       xlink:href="#linearGradient20853"
       id="linearGradient19624"
       gradientUnits="userSpaceOnUse"
       gradientTransform="matrix(6.2530828,0,0,6.2530828,2939.591,1657.2338)"
       x1="-425.62265"
       y1="-262.96008"
       x2="-393.37265"
       y2="-262.96008" />
    <linearGradient
       inkscape:collect="always"
       xlink:href="#linearGradient20853"
       id="linearGradient19626"
       gradientUnits="userSpaceOnUse"
       x1="-100"
       y1="-37.468254"
       x2="99"
       y2="-37.468254" />
    <linearGradient
       inkscape:collect="always"
       xlink:href="#linearGradient20853"
       id="linearGradient19628"
       gradientUnits="userSpaceOnUse"
       x1="-100"
       y1="-37.468254"
       x2="99"
       y2="-37.468254" />
  </defs>
  <sodipodi:namedview
     inkscape:window-height="978"
     inkscape:window-width="1400"
     inkscape:pageshadow="2"
     inkscape:pageopacity="0.0"
     borderopacity="1.0"
     bordercolor="#666666"
     pagecolor="#ffffff"
     id="base"
     inkscape:zoom="2.0103948"
     inkscape:cx="151.6325"
     inkscape:cy="38.864159"
     inkscape:window-x="192"
     inkscape:window-y="140"
     inkscape:current-layer="svg19963"
     width="128px"
     height="128px" />
  <g
     id="g19602"
     transform="translate(36.634929,9.6768259)">
    <text
       id="text18607"
       y="757.47815"
       x="150.67258"
       style="font-size:964.02856445px;font-style:normal;font-weight:normal;fill:#000000;fill-opacity:0.39215686;stroke:none;stroke-width:1px;stroke-linecap:butt;stroke-linejoin:miter;stroke-opacity:1;font-family:Emmentaler"
       xml:space="preserve"><tspan
         id="tspan18609"
         style="fill:#000000;fill-opacity:0.39215686;font-family:Emmentaler"
         y="757.47815"
         x="150.67258"
         sodipodi:role="line">1</tspan></text>
    <text
       id="text18611"
       y="263.86481"
       x="-48.584015"
       style="font-size:851.96923828px;font-style:normal;font-weight:normal;fill:#000000;fill-opacity:0.39215686;stroke:none;stroke-width:1px;stroke-linecap:butt;stroke-linejoin:miter;stroke-opacity:1;font-family:Emmentaler"
       xml:space="preserve"><tspan
         id="tspan18613"
         style="fill:#000000;fill-opacity:0.39215686;font-family:Emmentaler"
         y="263.86481"
         x="-48.584015"
         sodipodi:role="line">3</tspan></text>
    <text
       id="text18615"
       y="177.1107"
       x="300.77664"
       style="font-size:586.2265625px;font-style:normal;font-weight:normal;fill:#000000;fill-opacity:0.39215686;stroke:none;stroke-width:1px;stroke-linecap:butt;stroke-linejoin:miter;stroke-opacity:1;font-family:Emmentaler"
       xml:space="preserve"><tspan
         id="tspan18617"
         style="fill:#000000;fill-opacity:0.39215686;font-family:Emmentaler"
         y="177.1107"
         x="300.77664"
         sodipodi:role="line">5</tspan></text>
    <g
       style="fill:#000000;fill-opacity:0.39215686"
       id="g18619"
       transform="matrix(1.4192062,0,0,-1.4192062,-94.286961,476.12144)">
      <path
         style="fill:#000000;fill-opacity:0.39215686"
         id="path18621"
         d="M -18,123 C 5.3333333,128.33333 27.166667,124.33333 47.5,111 C 67.833333,97.666667 82.333333,77.666667 91,51 C 96.333333,38.333333 99,21.333333 99,0 C 99,-21.333333 96.333333,-38.333333 91,-51 C 79.666667,-85 60.333333,-107.66667 33,-119 L 25,-122 L 25,-151 L 25,-180 L 22,-186 C 16.666667,-196.66667 8.3333333,-201.33333 -3,-200 C -11.666667,-199.33333 -18.333333,-194.33333 -23,-185 C -24.333333,-181.66667 -25,-170.33333 -25,-151 L -24,-122 L -33,-119 C -43.666667,-114.33333 -53.666667,-107.66667 -63,-99 C -79,-83 -90.333333,-60 -97,-30 C -101,-10 -101,10 -97,30 C -92.333333,57.333333 -81,80 -63,98 C -50.333333,110.66667 -35.333333,119 -18,123 z M 16,87 C 13.333333,88.333333 8.6666667,89.666667 2,91 C -4,91 -7.6666667,90.666667 -9,90 C -13,88.666667 -18.333333,85.666667 -25,81 C -32.333333,72.333333 -38.333333,57.666667 -43,37 C -43.666667,29 -44,16.666667 -44,0 C -44,-16.666667 -43.666667,-28.666667 -43,-36 C -39,-57.333333 -33,-72.333333 -25,-81 L -16,-87 C -12,-89 -6.6666667,-90 0,-90 C 6.6666667,-90 12,-89 16,-87 L 25,-81 C 33,-72.333333 39,-57.333333 43,-36 C 43.666667,-28.666667 44,-16.666667 44,0 C 44,16.666667 43.666667,29 43,37 C 38.333333,57.666667 32.333333,72.333333 25,81 L 16,87 z " />
    </g>
    <text
       id="text2164"
       y="740.72601"
       x="129.20587"
       style="font-size:964.02856445px;font-style:normal;font-weight:normal;fill:url(#linearGradient19620);fill-opacity:1;stroke:none;stroke-width:1px;stroke-linecap:butt;stroke-linejoin:miter;stroke-opacity:1;font-family:Emmentaler"
       xml:space="preserve"><tspan
         id="tspan2232"
         style="fill:url(#linearGradient19620);fill-opacity:1;font-family:Emmentaler"
         y="740.72601"
         x="129.20587"
         sodipodi:role="line">1</tspan></text>
    <text
       id="text17531"
       y="247.1127"
       x="-70.050766"
       style="font-size:851.96923828px;font-style:normal;font-weight:normal;fill:url(#linearGradient19622);fill-opacity:1;stroke:none;stroke-width:1px;stroke-linecap:butt;stroke-linejoin:miter;stroke-opacity:1;font-family:Emmentaler"
       xml:space="preserve"><tspan
         id="tspan17537"
         style="fill:url(#linearGradient19622);fill-opacity:1;font-family:Emmentaler"
         y="247.1127"
         x="-70.050766"
         sodipodi:role="line">3</tspan></text>
    <text
       id="text17541"
       y="160.35863"
       x="279.30991"
       style="font-size:586.2265625px;font-style:normal;font-weight:normal;fill:url(#linearGradient19624);fill-opacity:1;stroke:none;stroke-width:1px;stroke-linecap:butt;stroke-linejoin:miter;stroke-opacity:1;font-family:Emmentaler"
       xml:space="preserve"><tspan
         id="tspan17543"
         style="fill:url(#linearGradient19624);fill-opacity:1;font-family:Emmentaler"
         y="160.35863"
         x="279.30991"
         sodipodi:role="line">5</tspan></text>
    <g
       style="fill:url(#linearGradient19626);fill-opacity:1"
       id="g17617"
       transform="matrix(1.419206,0,0,-1.419206,-115.75369,459.36934)">
      <path
         style="fill:url(#linearGradient19628);fill-opacity:1"
         id="path17619"
         d="M -18,123 C 5.3333333,128.33333 27.166667,124.33333 47.5,111 C 67.833333,97.666667 82.333333,77.666667 91,51 C 96.333333,38.333333 99,21.333333 99,0 C 99,-21.333333 96.333333,-38.333333 91,-51 C 79.666667,-85 60.333333,-107.66667 33,-119 L 25,-122 L 25,-151 L 25,-180 L 22,-186 C 16.666667,-196.66667 8.3333333,-201.33333 -3,-200 C -11.666667,-199.33333 -18.333333,-194.33333 -23,-185 C -24.333333,-181.66667 -25,-170.33333 -25,-151 L -24,-122 L -33,-119 C -43.666667,-114.33333 -53.666667,-107.66667 -63,-99 C -79,-83 -90.333333,-60 -97,-30 C -101,-10 -101,10 -97,30 C -92.333333,57.333333 -81,80 -63,98 C -50.333333,110.66667 -35.333333,119 -18,123 z M 16,87 C 13.333333,88.333333 8.6666667,89.666667 2,91 C -4,91 -7.6666667,90.666667 -9,90 C -13,88.666667 -18.333333,85.666667 -25,81 C -32.333333,72.333333 -38.333333,57.666667 -43,37 C -43.666667,29 -44,16.666667 -44,0 C -44,-16.666667 -43.666667,-28.666667 -43,-36 C -39,-57.333333 -33,-72.333333 -25,-81 L -16,-87 C -12,-89 -6.6666667,-90 0,-90 C 6.6666667,-90 12,-89 16,-87 L 25,-81 C 33,-72.333333 39,-57.333333 43,-36 C 43.666667,-28.666667 44,-16.666667 44,0 C 44,16.666667 43.666667,29 43,37 C 38.333333,57.666667 32.333333,72.333333 25,81 L 16,87 z " />
    </g>
  </g>
</svg>
