<?xml version="1.0" encoding="UTF-8" standalone="no"?>
<!-- Created with Inkscape (http://www.inkscape.org/) -->
<svg
   xmlns:dc="http://purl.org/dc/elements/1.1/"
   xmlns:cc="http://web.resource.org/cc/"
   xmlns:rdf="http://www.w3.org/1999/02/22-rdf-syntax-ns#"
   xmlns:svg="http://www.w3.org/2000/svg"
   xmlns="http://www.w3.org/2000/svg"
   xmlns:xlink="http://www.w3.org/1999/xlink"
   xmlns:sodipodi="http://sodipodi.sourceforge.net/DTD/sodipodi-0.dtd"
   xmlns:inkscape="http://www.inkscape.org/namespaces/inkscape"
   id="svg2211"
   sodipodi:version="0.32"
   inkscape:version="0.45"
   width="64"
   height="64"
   version="1.0"
   sodipodi:docbase="/home/matevz/canorus/artwork/images"
   sodipodi:docname="canorusmlsource.svg"
   inkscape:output_extension="org.inkscape.output.svg.inkscape"
   sodipodi:modified="true">
  <metadata
     id="metadata2216">
    <rdf:RDF>
      <cc:Work
         rdf:about="">
        <dc:format>image/svg+xml</dc:format>
        <dc:type
           rdf:resource="http://purl.org/dc/dcmitype/StillImage" />
      </cc:Work>
    </rdf:RDF>
  </metadata>
  <defs
     id="defs2214">
    <linearGradient
       inkscape:collect="always"
       xlink:href="#linearGradient4452"
       id="linearGradient13861"
       gradientUnits="userSpaceOnUse"
       x1="280.34512"
       y1="-188.93166"
       x2="280.34512"
       y2="63.946518" />
    <linearGradient
       id="linearGradient4452">
      <stop
         style="stop-color:#ffb61d;stop-opacity:1;"
         offset="0"
         id="stop4454" />
      <stop
         style="stop-color:#ffee85;stop-opacity:1;"
         offset="1"
         id="stop4456" />
    </linearGradient>
    <linearGradient
       inkscape:collect="always"
       xlink:href="#linearGradient4452"
       id="linearGradient13859"
       gradientUnits="userSpaceOnUse"
       x1="-5.2941122"
       y1="0"
       x2="435.93254"
       y2="0" />
  </defs>
  <sodipodi:namedview
     inkscape:window-height="1126"
     inkscape:window-width="1600"
     inkscape:pageshadow="2"
     inkscape:pageopacity="0.0"
     guidetolerance="10.0"
     gridtolerance="10.0"
     objecttolerance="10.0"
     borderopacity="1.0"
     bordercolor="#666666"
     pagecolor="#ffffff"
     id="base"
     inkscape:zoom="1.4765626"
     inkscape:cx="28.595204"
     inkscape:cy="30.688731"
     inkscape:window-x="0"
     inkscape:window-y="0"
     inkscape:current-layer="svg2211" />
  <text
     xml:space="preserve"
     style="font-size:80.54240417px;font-style:normal;font-weight:normal;text-align:justify;text-anchor:start;fill:#000000;fill-opacity:1;stroke:none;stroke-width:1px;stroke-linecap:butt;stroke-linejoin:miter;stroke-opacity:1;font-family:Courier New"
     x="-3.3496354"
     y="42.863297"
     id="text2220"
     transform="scale(0.6211924,1.6098072)"><tspan
       sodipodi:role="line"
       id="tspan2222"
       x="-3.3496354"
       y="42.863297">&lt;</tspan></text>
  <text
     xml:space="preserve"
     style="font-size:80.54240417px;font-style:normal;font-weight:normal;text-align:justify;text-anchor:start;fill:#000000;fill-opacity:1;stroke:none;stroke-width:1px;stroke-linecap:butt;stroke-linejoin:miter;stroke-opacity:1;font-family:Courier New"
     x="-106.11861"
     y="42.56065"
     id="text2228"
     transform="scale(-0.6211924,1.6098072)"><tspan
       sodipodi:role="line"
       id="tspan2230"
       x="-106.11861"
       y="42.56065">&lt;</tspan></text>
  <g
     id="g13853"
     transform="matrix(1.3843263,0,0,1.3843263,-274.38075,-28.32027)">
    <g
       transform="matrix(5.9719617e-2,0,0,-5.9719617e-2,208.67761,43.978179)"
       id="g13756"
       style="fill:#000000;fill-opacity:0.44398343;stroke:#000000;stroke-width:13.78757095;stroke-miterlimit:4;stroke-dasharray:none;stroke-opacity:0.51867221"
       inkscape:export-filename="/home/matevz/apps/canorus/branches/matevz/src/fonts/timesigC|.png"
       inkscape:export-xdpi="90"
       inkscape:export-ydpi="90">
      <path
         d="M 199,348 C 202,350 204,350 215,350 C 225,350 227,350 230,348 C 236,344 236,344 236,303 L 236,265 L 253,265 C 277,264 294,260 315,252 C 366,230 406,180 419,122 C 425,97 421,76 409,58 C 392,34 364,24 336,34 C 295,48 276,87 290,129 C 299,157 322,175 352,177 L 362,177 L 360,180 C 353,190 337,205 324,213 C 301,228 275,235 248,235 L 236,235 L 236,0 L 236,-235 L 252,-235 C 270,-234 280,-232 294,-227 C 338,-211 376,-167 394,-110 C 397,-101 400,-91 401,-87 C 404,-78 406,-76 414,-75 C 420,-75 424,-77 428,-82 C 431,-86 431,-89 427,-104 C 422,-122 417,-134 408,-152 C 395,-179 382,-197 364,-215 C 330,-249 292,-265 247,-265 L 236,-265 L 236,-303 C 236,-338 236,-341 234,-344 C 231,-349 228,-350 215,-350 C 201,-350 198,-349 195,-344 C 193,-341 193,-338 193,-300 L 193,-260 L 181,-258 C 135,-247 100,-228 70,-199 C 33,-161 10,-110 2,-44 C 0,-24 0,24 2,44 C 10,110 33,161 70,199 C 102,230 137,248 191,260 L 193,260 L 193,300 C 193,344 193,344 199,348 z M 193,0 L 193,224 C 193,224 190,222 186,220 C 160,205 145,174 140,124 C 136,84 136,-84 140,-123 C 142,-139 145,-159 149,-170 C 157,-194 171,-212 188,-221 L 193,-224 L 193,0 z "
         id="path13758"
         style="fill:#000000;fill-opacity:0.44398343;stroke:#000000;stroke-width:13.78757095;stroke-miterlimit:4;stroke-dasharray:none;stroke-opacity:0.51867221" />
    </g>
    <g
       transform="matrix(5.9719617e-2,0,0,-5.9719617e-2,207.96411,43.305309)"
       id="g13752"
       style="fill:url(#linearGradient13859);fill-opacity:1;stroke:#e95d00;stroke-width:13.78757095;stroke-miterlimit:4;stroke-dasharray:none;stroke-opacity:1"
       inkscape:export-filename="/home/matevz/apps/canorus/branches/matevz/src/fonts/timesigC|.png"
       inkscape:export-xdpi="90"
       inkscape:export-ydpi="90">
      <path
         d="M 199,348 C 202,350 204,350 215,350 C 225,350 227,350 230,348 C 236,344 236,344 236,303 L 236,265 L 253,265 C 277,264 294,260 315,252 C 366,230 406,180 419,122 C 425,97 421,76 409,58 C 392,34 364,24 336,34 C 295,48 276,87 290,129 C 299,157 322,175 352,177 L 362,177 L 360,180 C 353,190 337,205 324,213 C 301,228 275,235 248,235 L 236,235 L 236,0 L 236,-235 L 252,-235 C 270,-234 280,-232 294,-227 C 338,-211 376,-167 394,-110 C 397,-101 400,-91 401,-87 C 404,-78 406,-76 414,-75 C 420,-75 424,-77 428,-82 C 431,-86 431,-89 427,-104 C 422,-122 417,-134 408,-152 C 395,-179 382,-197 364,-215 C 330,-249 292,-265 247,-265 L 236,-265 L 236,-303 C 236,-338 236,-341 234,-344 C 231,-349 228,-350 215,-350 C 201,-350 198,-349 195,-344 C 193,-341 193,-338 193,-300 L 193,-260 L 181,-258 C 135,-247 100,-228 70,-199 C 33,-161 10,-110 2,-44 C 0,-24 0,24 2,44 C 10,110 33,161 70,199 C 102,230 137,248 191,260 L 193,260 L 193,300 C 193,344 193,344 199,348 z M 193,0 L 193,224 C 193,224 190,222 186,220 C 160,205 145,174 140,124 C 136,84 136,-84 140,-123 C 142,-139 145,-159 149,-170 C 157,-194 171,-212 188,-221 L 193,-224 L 193,0 z "
         id="path13754"
         style="fill:url(#linearGradient13861);fill-opacity:1;stroke:#e95d00;stroke-width:13.78757095;stroke-miterlimit:4;stroke-dasharray:none;stroke-opacity:1" />
    </g>
  </g>
</svg>
