<?xml version="1.0" encoding="UTF-8" standalone="no"?>
<!-- Created with Inkscape (http://www.inkscape.org/) -->

<svg
   xmlns:dc="http://purl.org/dc/elements/1.1/"
   xmlns:cc="http://creativecommons.org/ns#"
   xmlns:rdf="http://www.w3.org/1999/02/22-rdf-syntax-ns#"
   xmlns:svg="http://www.w3.org/2000/svg"
   xmlns="http://www.w3.org/2000/svg"
   xmlns:xlink="http://www.w3.org/1999/xlink"
   xmlns:sodipodi="http://sodipodi.sourceforge.net/DTD/sodipodi-0.dtd"
   xmlns:inkscape="http://www.inkscape.org/namespaces/inkscape"
   width="744.09448819"
   height="1052.3622047"
   id="svg2400"
   sodipodi:version="0.32"
   inkscape:version="0.47 r22583"
   sodipodi:docname="samples.svg"
   inkscape:output_extension="org.inkscape.output.svg.inkscape"
   version="1.1">
  <defs
     id="defs2402">
    <linearGradient
       inkscape:collect="always"
       xlink:href="#linearGradient3969"
       id="linearGradient14625"
       gradientUnits="userSpaceOnUse"
       x1="-14.393877"
       y1="-124.88742"
       x2="659"
       y2="-124.88742" />
    <linearGradient
       id="linearGradient3969">
      <stop
         style="stop-color:#000000;stop-opacity:1;"
         offset="0"
         id="stop3971" />
      <stop
         style="stop-color:#646464;stop-opacity:1;"
         offset="1"
         id="stop3973" />
    </linearGradient>
    <linearGradient
       inkscape:collect="always"
       xlink:href="#linearGradient3969"
       id="linearGradient14623"
       gradientUnits="userSpaceOnUse"
       x1="-14.393877"
       y1="-124.88742"
       x2="659"
       y2="-124.88742" />
    <linearGradient
       id="linearGradient11964">
      <stop
         style="stop-color:#000000;stop-opacity:1;"
         offset="0"
         id="stop11966" />
      <stop
         style="stop-color:#646464;stop-opacity:1;"
         offset="1"
         id="stop11968" />
    </linearGradient>
    <linearGradient
       inkscape:collect="always"
       xlink:href="#linearGradient11964"
       id="linearGradient14425"
       gradientUnits="userSpaceOnUse"
       x1="0.5"
       y1="295.59705"
       x2="640.83282"
       y2="295.59705" />
    <linearGradient
       inkscape:collect="always"
       xlink:href="#linearGradient25387"
       id="linearGradient8043"
       gradientUnits="userSpaceOnUse"
       x1="1"
       y1="-0.27266693"
       x2="486"
       y2="-0.27266693" />
    <linearGradient
       id="linearGradient25387">
      <stop
         style="stop-color:#000000;stop-opacity:1;"
         offset="0"
         id="stop25389" />
      <stop
         style="stop-color:#646464;stop-opacity:1;"
         offset="1"
         id="stop25391" />
    </linearGradient>
    <linearGradient
       inkscape:collect="always"
       xlink:href="#linearGradient25387"
       id="linearGradient8041"
       gradientUnits="userSpaceOnUse"
       x1="1"
       y1="-0.27266693"
       x2="486"
       y2="-0.27266693" />
    <linearGradient
       id="linearGradient33317">
      <stop
         style="stop-color:#000000;stop-opacity:1;"
         offset="0"
         id="stop33319" />
      <stop
         style="stop-color:#646464;stop-opacity:1;"
         offset="1"
         id="stop33321" />
    </linearGradient>
    <linearGradient
       id="linearGradient36148">
      <stop
         style="stop-color:#000000;stop-opacity:1;"
         offset="0"
         id="stop36150" />
      <stop
         style="stop-color:#646464;stop-opacity:1;"
         offset="1"
         id="stop36152" />
    </linearGradient>
    <inkscape:perspective
       sodipodi:type="inkscape:persp3d"
       inkscape:vp_x="0 : 526.18109 : 1"
       inkscape:vp_y="0 : 1000 : 0"
       inkscape:vp_z="744.09448 : 526.18109 : 1"
       inkscape:persp3d-origin="372.04724 : 350.78739 : 1"
       id="perspective2408" />
  </defs>
  <sodipodi:namedview
     id="base"
     pagecolor="#ffffff"
     bordercolor="#666666"
     borderopacity="1.0"
     gridtolerance="10000"
     guidetolerance="10"
     objecttolerance="10"
     inkscape:pageopacity="0.0"
     inkscape:pageshadow="2"
     inkscape:zoom="2.8"
     inkscape:cx="114.86609"
     inkscape:cy="955.57809"
     inkscape:document-units="px"
     inkscape:current-layer="layer1"
     showgrid="false"
     inkscape:window-width="1400"
     inkscape:window-height="974"
     inkscape:window-x="0"
     inkscape:window-y="0"
     inkscape:window-maximized="0" />
  <metadata
     id="metadata2405">
    <rdf:RDF>
      <cc:Work
         rdf:about="">
        <dc:format>image/svg+xml</dc:format>
        <dc:type
           rdf:resource="http://purl.org/dc/dcmitype/StillImage" />
        <dc:title></dc:title>
      </cc:Work>
    </rdf:RDF>
  </metadata>
  <g
     inkscape:label="Layer 1"
     inkscape:groupmode="layer"
     id="layer1">
    <path
       d="M 175.86659,30.499879 C 175.14221,30.692979 174.8822,31.148919 174.56,31.481979 C 174.17814,31.876729 173.94445,32.905129 173.95451,33.454259 L 173.95451,119.56151 C 173.42487,118.37386 172.55069,117.39451 170.36326,116.68782 C 168.1988,116.08658 164.8626,115.69062 162.45764,115.93105 C 153.67955,116.893 144.64315,123.13687 140.91546,130.71254 C 139.71299,133.23767 139.25334,135.0349 139.13309,137.31958 C 139.01284,141.04728 140.45724,144.40504 143.34318,146.56955 C 144.30517,147.41123 146.4764,148.39063 147.79913,148.75137 C 157.89994,151.75753 171.8199,144.77223 176.87031,134.4309 C 178.07279,132.02594 178.56317,130.23147 178.68342,127.94669 L 178.62196,32.589559 C 178.63227,32.028509 178.40412,31.480539 178.00734,31.083759 C 177.61057,30.686999 177.09331,30.489569 176.53228,30.499879 C 176.44647,30.501139 176.04796,30.466519 175.86659,30.499879 z"
       id="path34228"
       sodipodi:nodetypes="cscccccccccccssc"
       style="fill:#000000;fill-opacity:1"
       inkscape:export-filename="/home/matevz/canorus/branches/stylus/src/ui/images/styluscodebook/n4.png"
       inkscape:export-xdpi="145.24808"
       inkscape:export-ydpi="145.24808" />
    <path
       d="M 78.085368,21.067929 C 78.030718,21.069659 77.957038,21.092289 77.902268,21.098449 C 76.854138,21.215019 75.392638,21.687539 75.411338,22.741979 L 75.411338,104.92133 C 74.459968,104.30632 74.034098,104.32165 72.531468,104.07127 C 71.641018,103.8168 67.186728,103.69991 65.787448,103.82715 C 65.533038,103.82715 64.389208,103.82197 63.498758,103.94921 C 57.774438,104.33073 52.937178,105.596 48.484928,107.88572 C 44.923128,109.53943 42.886118,111.20067 40.978008,113.74477 C 37.543418,118.19698 35.123748,126.58997 35.759788,131.16941 C 36.014208,133.33189 36.893328,135.23755 38.292608,136.50965 C 39.564678,137.78175 40.971838,138.56409 43.388768,139.07301 C 44.279218,139.20024 45.055828,139.19501 47.599968,139.19501 C 55.486808,139.19501 61.716138,137.90449 67.313248,135.10591 C 70.875048,133.45219 72.912058,131.82152 74.820158,129.27732 C 77.919348,125.25987 80.183318,118.02501 80.129928,113.28699 C 80.129588,113.25622 80.130478,113.22605 80.129928,113.19549 L 80.190958,23.173529 C 80.201478,22.585759 79.954408,22.012879 79.519608,21.617219 C 79.125588,21.258679 78.613588,21.051289 78.085368,21.067929 z M 69.571428,108.40444 C 70.542118,108.34663 71.575078,108.53373 72.256828,108.92326 C 73.401688,109.43212 74.184128,110.18921 74.820158,111.33397 C 75.201788,112.22444 75.308418,112.35579 75.308418,113.50065 C 75.308418,114.64551 75.201788,114.77685 74.820158,115.66732 C 73.675298,117.95705 69.961978,120.86255 61.057488,126.71399 C 54.569928,130.9119 51.008838,132.95398 48.210288,134.09894 C 46.938218,134.48056 46.822328,134.4956 45.677458,134.4956 C 44.405388,134.4956 44.274078,134.48046 43.510828,134.09894 C 42.365968,133.59008 41.614048,132.83299 40.978008,131.68813 C 40.596388,130.79766 40.581308,130.66641 40.581308,129.52145 C 40.581308,128.3766 40.596388,128.24536 40.978008,127.35487 C 42.122878,125.06516 45.805678,122.15965 54.710178,116.30811 C 62.088188,111.47429 66.045628,109.41698 68.716978,108.5265 C 68.985308,108.46693 69.274278,108.42221 69.571428,108.40444 z"
       id="path27173"
       sodipodi:nodetypes="csccccccccccsccsscsccccscccsccscccc"
       style="fill:#000000;fill-opacity:1"
       inkscape:export-filename="/home/matevz/canorus/branches/stylus/src/ui/images/styluscodebook/n2.png"
       inkscape:export-xdpi="129.52046"
       inkscape:export-ydpi="129.52046" />
    <path
       style="fill:#000000;fill-opacity:1"
       d="M 259.61376,31.029483 C 259.60692,31.030293 259.58764,31.060463 259.5812,31.061413 C 258.81384,31.262133 258.52268,31.737323 258.18136,32.083493 C 258.17512,32.090213 258.15497,32.108403 258.14881,32.115433 C 258.13055,32.137433 258.10124,32.186713 258.0837,32.211253 C 257.75507,32.692643 257.55334,33.619333 257.56283,34.127643 L 257.56283,123.62283 C 257.00175,122.38858 256.07121,121.35505 253.75396,120.62059 C 251.46104,119.9957 247.93515,119.60404 245.38747,119.85404 C 236.08842,120.85373 226.51572,127.34327 222.56681,135.21702 C 221.29297,137.8415 220.80604,139.70954 220.67866,142.08412 C 220.55127,145.95849 222.08139,149.44826 225.13861,151.69794 C 226.15768,152.57274 228.45778,153.59071 229.85901,153.96572 C 240.55928,157.09009 255.30536,149.83 260.6555,139.08168 C 261.92934,136.5822 262.44882,134.71712 262.57621,132.34244 L 262.54366,64.470423 L 264.59459,66.770083 C 272.34261,75.131993 276.85998,81.065223 279.83007,87.019903 C 282.15446,91.707643 283.05512,95.263543 283.31339,99.444473 C 283.57165,106.15929 281.78879,114.90322 278.56044,122.50499 C 277.91477,124.02532 277.90936,124.26694 277.90935,124.90042 C 278.03848,125.28053 278.17087,125.79801 278.3,126.17801 C 279.07481,127.57171 281.24291,128.21582 282.79251,127.4556 C 283.69646,126.94886 283.97314,126.56885 285.00621,123.65482 C 287.84716,115.92642 289.40106,107.56044 289.40106,100.33878 C 289.40106,93.750613 287.70826,87.277603 283.83426,79.929273 C 282.02638,76.255103 280.34664,73.483893 275.95608,66.642323 C 270.2742,57.646943 268.22443,54.082553 266.28742,49.394853 C 264.21724,44.881313 262.94238,40.378553 262.5111,36.044023 C 262.50354,35.967983 262.51817,35.896373 262.5111,35.820443 L 262.5111,33.233323 C 262.52202,32.650213 262.28034,32.080673 261.86001,31.668273 C 261.43968,31.255923 260.89174,31.050713 260.2974,31.061413 C 260.21219,31.062663 259.81879,31.004853 259.61376,31.029483 z"
       id="path3329"
       inkscape:export-filename="/home/matevz/canorus/branches/stylus/src/ui/images/styluscodebook/n8.png"
       inkscape:export-xdpi="83.688576"
       inkscape:export-ydpi="83.688576" />
    <g
       transform="matrix(0.1341209,0,0,-0.1341209,145.67959,213.0864)"
       id="g24500"
       style="fill:#000000;fill-opacity:1"
       inkscape:export-filename="/home/matevz/canorus/branches/stylus/src/ui/images/styluscodebook/n1.png"
       inkscape:export-xdpi="153.57738"
       inkscape:export-ydpi="153.57738">
      <path
         d="M 211,139 C 259,142 311,138 351,126 C 421,106 470,68 484,23 C 486,15 486,13 486,0 C 486,-13 486,-15 484,-23 C 472,-62 433,-96 376,-118 C 297,-148 190,-148 111,-118 C 54,-96 15,-62 3,-23 C 1,-15 1,-13 1,0 C 1,13 1,15 3,23 C 13,56 42,85 86,106 C 122,125 165,136 211,139 z M 238,107 C 226,109 208,111 199,109 C 186,107 172,98 164,87 C 151,71 144,44 145,16 C 147,-28 166,-62 200,-85 C 216,-95 231,-102 250,-107 C 259,-109 263,-109 275,-109 C 287,-109 289,-109 296,-107 C 305,-104 310,-100 317,-95 C 327,-85 335,-70 339,-51 C 342,-36 342,-8 339,7 C 336,20 333,29 327,40 C 311,73 278,97 238,107 z"
         id="path24502"
         style="fill:#000000;fill-opacity:1" />
    </g>
    <g
       transform="matrix(6.481139e-2,0,0,-6.481139e-2,18.842821,318.0591)"
       id="g10203"
       style="fill:#000000;fill-opacity:1"
       inkscape:export-filename="/home/matevz/canorus/branches/stylus/src/ui/images/styluscodebook/clefg.png"
       inkscape:export-xdpi="138.48009"
       inkscape:export-ydpi="138.48009">
      <path
         d="M 308,1246 C 318,1251 325,1248 339,1233 C 386,1183 430,1104 458,1019 C 486,933 492,867 476,792 C 459,705 417,623 330,507 C 321,495 313,485 313,484 C 312,483 317,466 326,439 C 347,377 365,321 378,275 L 380,265 L 391,265 C 429,262 463,253 495,237 C 522,224 540,211 562,190 C 601,150 626,102 636,46 C 654,-47 621,-140 549,-202 C 528,-219 501,-235 477,-244 L 468,-247 L 469,-283 C 469,-332 467,-394 463,-430 C 456,-494 429,-556 391,-597 C 348,-642 295,-662 234,-656 C 150,-648 78,-593 53,-517 C 43,-489 40,-454 46,-434 C 57,-392 92,-362 138,-354 C 169,-349 201,-360 221,-382 C 243,-406 254,-442 249,-473 C 242,-513 211,-544 171,-551 C 160,-552 144,-552 137,-550 L 131,-548 L 138,-557 C 160,-583 190,-601 225,-608 C 234,-610 239,-610 256,-610 C 274,-610 276,-610 286,-608 C 341,-594 382,-550 405,-481 C 415,-449 419,-420 422,-351 C 423,-324 423,-262 422,-260 C 422,-259 418,-260 409,-261 C 296,-277 191,-244 111,-168 C 51,-111 13,-35 2,51 C 0,68 0,113 2,132 C 10,205 35,274 81,351 C 108,397 138,439 206,526 L 235,564 L 226,590 C 185,711 170,785 165,884 C 162,958 167,1006 185,1061 C 201,1112 227,1157 262,1200 C 275,1216 302,1243 308,1246 z M 380,1083 C 376,1090 373,1096 372,1096 C 371,1097 352,1084 339,1074 C 278,1025 236,953 222,876 C 218,855 218,844 218,821 C 218,802 218,795 220,784 C 225,750 241,691 261,630 L 268,609 L 270,611 L 314,674 C 345,723 369,771 384,814 C 403,867 411,916 410,971 C 408,1019 402,1043 380,1083 z M 291,403 C 284,423 279,440 279,440 C 278,440 233,381 214,355 C 136,248 97,167 82,82 C 74,40 73,0 79,-27 C 99,-119 197,-199 310,-216 C 336,-220 379,-220 409,-215 C 416,-215 421,-214 421,-214 C 421,-213 418,-172 416,-154 C 407,-63 390,40 367,136 L 363,153 L 359,153 C 342,150 337,150 329,147 C 279,135 244,102 233,57 C 231,50 231,46 231,33 C 231,18 231,15 233,6 C 243,-32 268,-63 307,-85 C 319,-92 320,-93 323,-99 C 325,-103 325,-105 325,-109 C 324,-119 319,-126 310,-130 C 302,-132 297,-131 281,-123 C 216,-91 176,-38 164,28 C 161,44 161,77 163,92 C 171,138 190,174 220,205 C 239,223 259,237 283,247 C 296,252 314,258 326,260 C 329,261 333,262 333,262 C 335,263 313,334 291,403 z M 426,147 C 412,150 411,150 411,149 C 411,149 413,140 416,129 C 440,25 456,-78 464,-175 C 465,-189 466,-201 466,-201 C 467,-201 488,-190 495,-186 C 550,-149 579,-83 570,-17 C 560,63 504,127 426,147 z"
         id="path10205"
         style="fill:#000000;fill-opacity:1" />
    </g>
    <g
       transform="matrix(0.1417546,0,0,-0.1417546,101.89245,290.34585)"
       id="g1335"
       style="fill:#000000;fill-opacity:1"
       inkscape:export-filename="/home/matevz/canorus/branches/stylus/src/ui/images/styluscodebook/cleff.png"
       inkscape:export-xdpi="60.216713"
       inkscape:export-ydpi="60.216713">
      <path
         d="M 205,264 C 243,268 306,262 348,249 C 449,218 509,151 523,51 C 525,32 525,-12 522,-34 C 512,-112 482,-177 425,-244 C 412,-259 382,-290 366,-304 C 284,-375 174,-440 25,-504 C 17,-507 9,-511 7,-513 C 4,-515 3,-515 -1,-515 C -6,-514 -9,-512 -12,-508 C -15,-504 -15,-497 -13,-493 C -12,-492 -5,-486 4,-482 C 84,-433 153,-386 204,-344 C 313,-253 374,-159 391,-58 C 395,-36 395,-26 395,1 C 395,44 390,78 377,113 C 353,180 311,222 256,234 C 244,236 217,236 205,234 C 160,224 125,193 101,145 C 97,136 89,116 89,115 L 95,117 C 102,119 126,119 136,116 C 180,104 209,68 212,25 C 214,-12 196,-50 166,-70 C 146,-84 123,-89 98,-86 C 49,-80 10,-44 1,3 C -3,28 3,75 16,108 C 47,194 120,253 205,264 z M 598,174 C 630,180 659,156 659,124 C 659,97 636,74 609,74 C 586,74 565,90 559,113 C 554,135 565,160 586,170 C 590,171 596,173 598,174 z M 598,-75 C 630,-69 659,-93 659,-125 C 659,-152 636,-175 609,-175 C 586,-175 565,-159 559,-136 C 554,-114 565,-89 586,-79 C 590,-78 596,-76 598,-75 z"
         id="path1337"
         style="fill:#000000;fill-opacity:1" />
    </g>
  </g>
</svg>
