<?xml version="1.0" standalone="no"?>
<!DOCTYPE svg PUBLIC "-//W3C//DTD SVG 1.1//EN" "http://www.w3.org/Graphics/SVG/1.1/DTD/svg11.dtd" >
<svg viewBox="-1 -200 1000 1000">
  <g transform="matrix(1 0 0 -1 0 800)">
   <path fill="currentColor"
d="M182 498q18 5 35 -3q26 -14 24 -44q-2 -12 -18 -30q-10 -14 -12 -18q-9 -18 2 -30.5t27 -1.5q12 7 15 36q2 31 19 43q26 17 52 -2q27 -19 19 -50q-5 -19 -20 -26q-7 -4 -29 -6q-19 -3 -20 -3q-17 -5 -20 -20q-3 -10 5 -18t20 -7q10 1 29 16q23 21 42 17q22 -5 32 -26
t0 -42q-14 -26 -44 -24q-12 2 -30 18q-14 10 -18 12q-18 9 -30.5 -2t-1.5 -27q7 -12 36 -15q31 -2 43 -19q17 -26 -2 -52q-19 -27 -50 -19q-19 5 -26 20q-4 7 -6 29q-3 19 -3 20q-5 17 -20 20q-10 3 -18 -5t-7 -20q1 -10 16 -28q21 -25 17 -43q-4 -22 -25.5 -32t-42.5 0
q-26 14 -24 44q1 12 18 31q9 11 12 17q9 18 -2 30.5t-27 1.5q-12 -7 -15 -36q-2 -22 -6 -29q-7 -15 -26 -20q-31 -8 -50 19q-19 26 -2 52q12 17 43 19q19 3 20 3q17 5 20 20q3 10 -5 18t-20 7q-10 -1 -28 -16q-19 -17 -31 -18q-30 -2 -44 24q-11 21 -1 42t33 26q18 4 43 -17
q10 -9 17 -12q18 -9 30.5 2t1.5 27q-7 12 -36 15q-31 2 -43 19q-17 26 2 52q19 27 50 19q19 -5 26 -20q4 -7 6 -29q3 -19 3 -20q5 -17 20 -20q10 -3 18 5t7 20q-1 10 -16 29q-21 23 -17 42q5 28 33 35zM207 332q-13 5 -20 2q-13 -4 -19 -16q-7 -12 0 -25q5 -9 14 -14
q12 -6 25 0q9 5 14 14q2 4 2 13q0 8 -2 13q-4 8 -14 13z" />
  </g>

</svg>
