<?xml version="1.0" encoding="UTF-8" standalone="no"?>
<svg
   xmlns:dc="http://purl.org/dc/elements/1.1/"
   xmlns:cc="http://web.resource.org/cc/"
   xmlns:rdf="http://www.w3.org/1999/02/22-rdf-syntax-ns#"
   xmlns:svg="http://www.w3.org/2000/svg"
   xmlns="http://www.w3.org/2000/svg"
   xmlns:xlink="http://www.w3.org/1999/xlink"
   xmlns:sodipodi="http://sodipodi.sourceforge.net/DTD/sodipodi-0.dtd"
   xmlns:inkscape="http://www.inkscape.org/namespaces/inkscape"
   viewBox="-336 -200 1000 1000"
   id="svg19963"
   sodipodi:version="0.32"
   inkscape:version="0.45.1"
   width="128"
   height="128"
   sodipodi:docname="fermatashort.svg"
   sodipodi:docbase="/home/matevz/canorus/trunk/src/ui/images/mark/fermata"
   inkscape:export-filename="/home/matevz/apps/canorus/branches/matevz/src/fonts/fermata.png"
   inkscape:export-xdpi="120.95"
   inkscape:export-ydpi="120.95"
   inkscape:output_extension="org.inkscape.output.svg.inkscape"
   version="1.0">
  <metadata
     id="metadata19972">
    <rdf:RDF>
      <cc:Work
         rdf:about="">
        <dc:format>image/svg+xml</dc:format>
        <dc:type
           rdf:resource="http://purl.org/dc/dcmitype/StillImage" />
      </cc:Work>
    </rdf:RDF>
  </metadata>
  <defs
     id="defs19970">
    <linearGradient
       id="linearGradient20853">
      <stop
         style="stop-color:#000000;stop-opacity:1;"
         offset="0"
         id="stop20855" />
      <stop
         style="stop-color:#646464;stop-opacity:1;"
         offset="1"
         id="stop20857" />
    </linearGradient>
    <linearGradient
       inkscape:collect="always"
       xlink:href="#linearGradient20853"
       id="linearGradient20859"
       x1="-335.13843"
       y1="171.86571"
       x2="335"
       y2="171.86571"
       gradientUnits="userSpaceOnUse" />
    <linearGradient
       inkscape:collect="always"
       xlink:href="#linearGradient20853"
       id="linearGradient20861"
       gradientUnits="userSpaceOnUse"
       x1="-335.13843"
       y1="171.86571"
       x2="335"
       y2="171.86571" />
    <linearGradient
       inkscape:collect="always"
       xlink:href="#linearGradient20853"
       id="linearGradient5007"
       gradientUnits="userSpaceOnUse"
       x1="-335.13843"
       y1="171.86571"
       x2="335"
       y2="171.86571" />
    <linearGradient
       inkscape:collect="always"
       xlink:href="#linearGradient20853"
       id="linearGradient3525"
       x1="-313"
       y1="187.5"
       x2="313"
       y2="187.5"
       gradientUnits="userSpaceOnUse" />
    <linearGradient
       inkscape:collect="always"
       xlink:href="#linearGradient20853"
       id="linearGradient4501"
       gradientUnits="userSpaceOnUse"
       x1="-335.13843"
       y1="171.86571"
       x2="335"
       y2="171.86571" />
    <linearGradient
       inkscape:collect="always"
       xlink:href="#linearGradient20853"
       id="linearGradient10339"
       gradientUnits="userSpaceOnUse"
       x1="-313"
       y1="187.5"
       x2="313"
       y2="187.5" />
    <linearGradient
       inkscape:collect="always"
       xlink:href="#linearGradient20853"
       id="linearGradient11452"
       x1="-250.11765"
       y1="275"
       x2="250.22223"
       y2="275"
       gradientUnits="userSpaceOnUse" />
    <linearGradient
       inkscape:collect="always"
       xlink:href="#linearGradient20853"
       id="linearGradient11454"
       gradientUnits="userSpaceOnUse"
       x1="-250.11765"
       y1="275"
       x2="250.22223"
       y2="275" />
    <linearGradient
       inkscape:collect="always"
       xlink:href="#linearGradient20853"
       id="linearGradient13412"
       gradientUnits="userSpaceOnUse"
       x1="-250.11765"
       y1="275"
       x2="250.22223"
       y2="275" />
    <linearGradient
       inkscape:collect="always"
       xlink:href="#linearGradient20853"
       id="linearGradient13414"
       gradientUnits="userSpaceOnUse"
       x1="-250.11765"
       y1="275"
       x2="250.22223"
       y2="275" />
  </defs>
  <sodipodi:namedview
     inkscape:window-height="978"
     inkscape:window-width="1400"
     inkscape:pageshadow="2"
     inkscape:pageopacity="0.0"
     borderopacity="1.0"
     bordercolor="#666666"
     pagecolor="#ffffff"
     id="base"
     inkscape:zoom="2.8431276"
     inkscape:cx="36.029119"
     inkscape:cy="75.737193"
     inkscape:window-x="100"
     inkscape:window-y="78"
     inkscape:current-layer="svg19963"
     width="128px"
     height="128px" />
  <g
     id="g13406"
     transform="matrix(1.1956445,0,0,1.1956445,1200.6511,721.68963)">
    <g
       style="fill:#000000;fill-opacity:0.39215686"
       id="g12429"
       transform="matrix(1.2164547,0,0,-1.2164547,-852.66018,-8.5822707)">
      <path
         style="fill:#000000;fill-opacity:0.39215686"
         id="path12431"
         d="M -10,547 C -6,549 -2.6666667,550 0,550 C 7.3333333,550 13.333333,547 18,541 C 18.666667,540.33333 57.666667,454.66667 135,284 C 211,114.66667 249.33333,28.333333 250,25 C 251.33333,15.666667 246.66667,8 236,2 C 232.66667,0.66666667 221.33333,0 202,0 L 173,0 L 168,3 C 164,4.3333333 161.33333,6.3333333 160,9 C 158,11 126.66667,78.666667 66,212 C 5.3333333,348 -25,414.33333 -25,411 L -116,212 C -175.33333,78.666667 -206,11 -208,9 C -212.66667,3 -218.66667,0 -226,0 C -232.66667,0 -238.5,2.6666667 -243.5,8 C -248.5,13.333333 -250.66667,19 -250,25 C -249.33333,28.333333 -211,114.66667 -135,284 C -57.666667,454.66667 -18.666667,540.33333 -18,541 C -16.666667,543.66667 -14,545.66667 -10,547 z M -38,151 C -25.333333,152.33333 -14,152 -4,150 C 8.6666667,145.33333 18,140 24,134 C 36,124.66667 44.666667,111.33333 50,94 C 54.666667,74 51.666667,55 41,37 C 30.333333,19 15,7.3333333 -5,2 C -17.666667,-0.66666667 -30.333333,-0.66666667 -43,2 C -71.666667,9.3333333 -90,28 -98,58 C -103.33333,79.333333 -100,99 -88,117 C -76,135 -59.333333,146.33333 -38,151 z " />
    </g>
    <g
       style="fill:url(#linearGradient13412);fill-opacity:1"
       id="g10466"
       transform="matrix(1.216455,0,0,-1.216455,-881.51267,-27.743758)">
      <path
         style="fill:url(#linearGradient13414);fill-opacity:1"
         id="path10468"
         d="M -10,547 C -6,549 -2.6666667,550 0,550 C 7.3333333,550 13.333333,547 18,541 C 18.666667,540.33333 57.666667,454.66667 135,284 C 211,114.66667 249.33333,28.333333 250,25 C 251.33333,15.666667 246.66667,8 236,2 C 232.66667,0.66666667 221.33333,0 202,0 L 173,0 L 168,3 C 164,4.3333333 161.33333,6.3333333 160,9 C 158,11 126.66667,78.666667 66,212 C 5.3333333,348 -25,414.33333 -25,411 L -116,212 C -175.33333,78.666667 -206,11 -208,9 C -212.66667,3 -218.66667,0 -226,0 C -232.66667,0 -238.5,2.6666667 -243.5,8 C -248.5,13.333333 -250.66667,19 -250,25 C -249.33333,28.333333 -211,114.66667 -135,284 C -57.666667,454.66667 -18.666667,540.33333 -18,541 C -16.666667,543.66667 -14,545.66667 -10,547 z M -38,151 C -25.333333,152.33333 -14,152 -4,150 C 8.6666667,145.33333 18,140 24,134 C 36,124.66667 44.666667,111.33333 50,94 C 54.666667,74 51.666667,55 41,37 C 30.333333,19 15,7.3333333 -5,2 C -17.666667,-0.66666667 -30.333333,-0.66666667 -43,2 C -71.666667,9.3333333 -90,28 -98,58 C -103.33333,79.333333 -100,99 -88,117 C -76,135 -59.333333,146.33333 -38,151 z " />
    </g>
  </g>
</svg>
