<?xml version="1.0" encoding="UTF-8" standalone="no"?>
<svg
   xmlns:dc="http://purl.org/dc/elements/1.1/"
   xmlns:cc="http://creativecommons.org/ns#"
   xmlns:rdf="http://www.w3.org/1999/02/22-rdf-syntax-ns#"
   xmlns:svg="http://www.w3.org/2000/svg"
   xmlns="http://www.w3.org/2000/svg"
   xmlns:xlink="http://www.w3.org/1999/xlink"
   xmlns:sodipodi="http://sodipodi.sourceforge.net/DTD/sodipodi-0.dtd"
   xmlns:inkscape="http://www.inkscape.org/namespaces/inkscape"
   viewBox="-1 -200 1000 1000"
   id="svg34224"
   sodipodi:version="0.32"
   inkscape:version="0.46"
   width="128"
   height="128"
   sodipodi:docname="n128.svg"
   sodipodi:docbase="/home/matevz/canorus/artwork/images"
   inkscape:output_extension="org.inkscape.output.svg.inkscape"
   version="1.0"
   sodipodi:modified="true">
  <metadata
     id="metadata34233">
    <rdf:RDF>
      <cc:Work
         rdf:about="">
        <dc:format>image/svg+xml</dc:format>
        <dc:type
           rdf:resource="http://purl.org/dc/dcmitype/StillImage" />
      </cc:Work>
    </rdf:RDF>
  </metadata>
  <defs
     id="defs34231">
    <linearGradient
       inkscape:collect="always"
       xlink:href="#linearGradient36148"
       id="linearGradient8554"
       gradientUnits="userSpaceOnUse"
       gradientTransform="matrix(1.368336,0,0,1.363447,-10.98218,-428.139)"
       x1="54.073643"
       y1="922.1391"
       x2="108.13371"
       y2="922.1391" />
    <inkscape:perspective
       sodipodi:type="inkscape:persp3d"
       inkscape:vp_x="0 : 64 : 1"
       inkscape:vp_y="0 : 1000 : 0"
       inkscape:vp_z="128 : 64 : 1"
       inkscape:persp3d-origin="64 : 42.666667 : 1"
       id="perspective3782" />
    <linearGradient
       id="linearGradient36148">
      <stop
         style="stop-color:#000000;stop-opacity:1;"
         offset="0"
         id="stop36150" />
      <stop
         style="stop-color:#646464;stop-opacity:1;"
         offset="1"
         id="stop36152" />
    </linearGradient>
    <linearGradient
       id="linearGradient36138">
      <stop
         style="stop-color:#000000;stop-opacity:1;"
         offset="0"
         id="stop36140" />
      <stop
         style="stop-color:#000000;stop-opacity:0;"
         offset="1"
         id="stop36142" />
    </linearGradient>
    <linearGradient
       inkscape:collect="always"
       xlink:href="#linearGradient36148"
       id="linearGradient42892"
       gradientUnits="userSpaceOnUse"
       gradientTransform="matrix(1.360575,0,0,1.360575,-13.88694,-426.068)"
       x1="54.073643"
       y1="922.1391"
       x2="108.13371"
       y2="922.1391" />
    <linearGradient
       inkscape:collect="always"
       xlink:href="#linearGradient36148"
       id="linearGradient4363"
       x1="31.680418"
       y1="63.986431"
       x2="88.03125"
       y2="63.986431"
       gradientUnits="userSpaceOnUse" />
  </defs>
  <sodipodi:namedview
     inkscape:window-height="978"
     inkscape:window-width="1400"
     inkscape:pageshadow="2"
     inkscape:pageopacity="0.0"
     borderopacity="1.0"
     bordercolor="#666666"
     pagecolor="#ffffff"
     id="base"
     showguides="true"
     inkscape:guide-bbox="true"
     inkscape:zoom="5.6568542"
     inkscape:cx="71.423007"
     inkscape:cy="61.459133"
     inkscape:window-x="1464"
     inkscape:window-y="106"
     inkscape:current-layer="svg34224"
     width="128px"
     height="128px"
     showgrid="false" />
  <path
     style="fill:#000000;fill-opacity:0.39215686;stroke:none;stroke-opacity:1"
     d="M 560.5863,-173.89229 C 554.79501,-172.34835 552.66415,-168.74262 550.08825,-166.07979 C 550.04109,-166.02808 549.89065,-165.88979 549.84411,-165.83565 C 549.70626,-165.66639 549.48821,-165.29202 549.35583,-165.10323 C 546.87567,-161.40023 545.1338,-154.36483 545.20544,-150.45479 L 545.20544,538.02177 C 540.97104,528.52764 534.12919,520.72219 516.64098,515.07255 C 499.33639,510.2657 472.63585,507.04603 453.40856,508.96903 C 383.22881,516.65889 311.09177,566.56657 281.28942,627.1331 C 271.67576,647.32114 267.84651,661.84583 266.88512,680.11161 C 265.92376,709.91411 277.50373,736.78114 300.57653,754.08622 C 308.26744,760.81536 325.64602,768.5356 336.22106,771.42021 C 416.9758,795.45333 528.26555,739.59669 568.64294,656.91825 C 578.25658,637.69177 582.08576,623.427 583.04723,605.16044 L 583.04723,527.27958 C 595.03824,538.25524 605.42309,548.00425 613.80895,556.57646 C 622.91192,565.88168 632.91471,577.44703 643.83825,591.00028 C 654.76181,604.55357 663.07655,617.97435 668.74059,631.52763 C 674.40466,645.08091 677.28553,658.70396 677.28551,672.05497 C 677.28551,688.64255 675.14405,704.5745 670.69372,720.15068 C 666.24337,735.72685 661.75816,748.11521 657.51012,757.01591 C 653.26208,765.91661 651.16248,770.93888 651.16247,772.15263 C 651.16247,777.00755 652.85051,780.79521 656.28942,783.62724 C 659.72832,786.45927 663.80197,788.02177 668.25231,788.02177 C 674.32095,788.02177 678.93173,785.14091 682.16833,779.47685 C 698.75594,744.27872 707.07069,708.46677 707.07067,672.05497 C 707.07067,645.35294 698.75597,617.9395 682.16833,590.02372 C 696.32848,571.81779 703.40858,552.22383 703.40856,531.18583 C 703.40856,508.52959 697.64683,485.55949 686.31872,462.09403 C 697.64686,437.41489 703.40858,413.29382 703.40856,389.82841 C 703.40856,367.57672 697.64683,344.69032 686.31872,321.22489 C 697.64686,295.7366 703.40858,271.61554 703.40856,248.95927 C 703.40856,225.49385 697.56316,202.52374 685.83044,179.86747 C 693.51739,160.04325 697.30508,140.53293 697.30505,121.51786 C 694.18737,54.013822 670.13021,26.15672 656.04528,3.1096665 L 621.62145,-50.112991 C 610.09103,-67.914342 600.41613,-87.096795 592.32458,-107.73018 C 587.65923,-119.62681 584.53438,-131.50293 582.55895,-143.13057 L 582.55895,-145.57198 L 582.55895,-147.28097 L 582.55895,-157.29073 C 582.57952,-158.41209 582.27967,-159.61767 582.07067,-160.7087 C 582.00275,-161.06326 581.91754,-161.33624 581.82653,-161.68526 C 581.45226,-163.12141 581.04712,-164.55578 580.36169,-165.83565 C 578.70973,-168.43383 578.62848,-168.04156 577.67614,-169.25362 C 574.50394,-172.42552 570.4428,-173.97469 565.95739,-173.89229 C 563.02936,-174.19771 562.39232,-174.15124 560.5863,-173.89229 z M 582.55895,-36.441116 C 597.9297,-18.733513 610.94337,-3.0602321 620.88903,9.9456035 C 631.40801,23.701197 641.82237,41.237455 652.13903,62.679978 C 662.45572,84.122509 667.51991,103.71651 667.51989,121.51786 C 667.51989,130.01396 666.69681,137.50558 665.07848,143.9788 C 661.03271,137.91016 651.89491,124.98468 637.73473,105.16044 C 623.57456,85.336213 613.57183,70.722674 607.70544,61.215134 C 601.83908,51.707595 595.90994,38.412408 589.63903,21.420213 C 586.56286,13.084783 584.12612,5.0495175 582.55895,-2.9938493 C 582.52874,-3.1488883 582.5886,-3.3272008 582.55895,-3.4821305 L 582.55895,-36.441116 z M 582.80309,103.93974 C 598.94713,119.42203 612.61564,133.33672 623.33044,145.1995 C 634.65857,157.74136 645.89602,173.95925 657.02184,193.78349 C 668.14769,213.60771 673.62343,231.96708 673.62341,248.95927 C 673.62341,261.9057 671.48194,274.7475 667.03161,287.28935 C 662.1767,280.00698 652.71105,266.75366 638.95544,247.73857 C 625.19984,228.72349 615.1552,214.10995 608.682,203.79325 C 602.20878,193.47657 595.90994,179.76982 589.63903,162.77763 C 586.59962,154.54182 584.36935,146.5584 582.80309,138.60771 L 582.80309,103.93974 z M 582.80309,245.05302 C 599.62933,261.21974 613.4959,275.08714 623.81872,286.55693 C 634.74228,298.69421 645.89602,314.8284 657.02184,334.65263 C 668.14769,354.47686 673.62343,372.8362 673.62341,389.82841 C 673.62341,403.17943 671.48194,416.10492 667.03161,428.64677 L 638.95544,388.60771 C 625.60441,369.59263 615.60168,354.97906 608.92614,344.66239 C 602.25063,334.34571 595.90994,320.63897 589.63903,303.64677 C 586.65605,295.56387 584.36712,287.52925 582.80309,279.72099 L 582.80309,245.05302 z M 582.80309,386.41044 C 598.889,401.84125 612.64453,415.59528 623.33044,427.42607 C 634.65857,439.96795 645.89602,456.18578 657.02184,476.01005 C 668.14769,495.8343 673.62343,514.19365 673.62341,531.18583 C 673.62341,542.51398 670.74257,553.29793 665.07848,563.41239 C 661.84187,558.55747 652.70407,546.04352 637.73473,525.81474 C 622.76541,505.58596 612.67893,491.01429 607.21716,482.11357 C 601.75537,473.21288 595.90994,460.37107 589.63903,443.78349 C 586.69568,435.99785 584.60908,428.35252 583.04723,420.83427 L 582.80309,386.41044 z"
     id="path4365"
     sodipodi:nodetypes="cssscccccccccccssssssssscscscscsccccsccccsscccccssscsssscccssscssscccsssccsscccssscssscc" />
  <path
     style="fill:url(#linearGradient4363);fill-opacity:1.0;stroke:none;stroke-opacity:1"
     d="M 69.28125,2.4375 C 68.539965,2.6351243 68.267215,3.0966578 67.9375,3.4375 C 67.931464,3.4441188 67.912207,3.4618201 67.90625,3.46875 C 67.888606,3.4904154 67.860695,3.5383349 67.84375,3.5625 C 67.52629,4.036484 67.30333,4.9370149 67.3125,5.4375 L 67.3125,93.5625 C 66.770497,92.347251 65.894741,91.348154 63.65625,90.625 C 61.441262,90.009723 58.023593,89.597605 55.5625,89.84375 C 46.579492,90.828051 37.345951,97.216234 33.53125,104.96875 C 32.300701,107.55282 31.810557,109.41198 31.6875,111.75 C 31.564445,115.56472 33.046682,119.0037 36,121.21875 C 36.984436,122.08008 39.208895,123.06827 40.5625,123.4375 C 50.899106,126.51374 65.144194,119.36409 70.3125,108.78125 C 71.543047,106.32026 72.033182,104.49437 72.15625,102.15625 L 72.15625,92.1875 C 73.691099,93.592384 75.02036,94.840257 76.09375,95.9375 C 77.25893,97.128569 78.539287,98.608933 79.9375,100.34375 C 81.335716,102.07857 82.400003,103.79643 83.125,105.53125 C 83.850001,107.26607 84.218752,109.00982 84.21875,110.71875 C 84.21875,112.84196 83.944642,114.88125 83.375,116.875 C 82.805356,118.86875 82.231248,120.45446 81.6875,121.59375 C 81.14375,122.73304 80.875001,123.37589 80.875,123.53125 C 80.875,124.15268 81.09107,124.6375 81.53125,125 C 81.971429,125.3625 82.492856,125.5625 83.0625,125.5625 C 83.839286,125.5625 84.429466,125.19375 84.84375,124.46875 C 86.966965,119.96339 88.031253,115.37946 88.03125,110.71875 C 88.03125,107.30089 86.966968,103.79197 84.84375,100.21875 C 86.65625,97.888391 87.562503,95.380364 87.5625,92.6875 C 87.5625,89.787501 86.824999,86.847328 85.375,83.84375 C 86.825002,80.68482 87.562503,77.597322 87.5625,74.59375 C 87.5625,71.745534 86.824999,68.816075 85.375,65.8125 C 86.825002,62.549998 87.562503,59.462503 87.5625,56.5625 C 87.5625,53.558926 86.814288,50.618752 85.3125,47.71875 C 86.29643,45.181249 86.781254,42.683929 86.78125,40.25 C 86.382188,31.609482 83.302871,28.043773 81.5,25.09375 L 77.09375,18.28125 C 75.617856,16.002677 74.379469,13.547323 73.34375,10.90625 C 72.746586,9.3834814 72.346605,7.863338 72.09375,6.375 L 72.09375,6.0625 L 72.09375,5.84375 L 72.09375,4.5625 C 72.096383,4.4189659 72.058002,4.2646518 72.03125,4.125 C 72.022556,4.0796163 72.011649,4.0446746 72,4 C 71.952094,3.8161734 71.900235,3.6325738 71.8125,3.46875 C 71.60105,3.1361833 71.590649,3.1863942 71.46875,3.03125 C 71.062708,2.6252467 70.542882,2.4269528 69.96875,2.4375 C 69.593962,2.3984073 69.512421,2.4043544 69.28125,2.4375 z M 72.09375,20.03125 C 74.061206,22.297823 75.726955,24.304003 77,25.96875 C 78.346429,27.729466 79.679467,29.974107 81,32.71875 C 82.320536,35.463394 82.968753,37.971427 82.96875,40.25 C 82.96875,41.337501 82.863396,42.296428 82.65625,43.125 C 82.138391,42.348214 80.968753,40.693753 79.15625,38.15625 C 77.343748,35.618748 76.063398,33.748215 75.3125,32.53125 C 74.561607,31.314285 73.802676,29.612501 73,27.4375 C 72.60625,26.370565 72.294348,25.342051 72.09375,24.3125 C 72.089883,24.292655 72.097545,24.269831 72.09375,24.25 L 72.09375,20.03125 z M 72.125,38 C 74.191437,39.981734 75.941006,41.762814 77.3125,43.28125 C 78.762501,44.886608 80.200895,46.962497 81.625,49.5 C 83.049108,52.037501 83.750003,54.3875 83.75,56.5625 C 83.75,58.219643 83.475893,59.863393 82.90625,61.46875 C 82.284822,60.536607 81.073218,58.840182 79.3125,56.40625 C 77.551784,53.97232 76.26607,52.101787 75.4375,50.78125 C 74.608928,49.460714 73.802676,47.70625 73,45.53125 C 72.610956,44.477066 72.325481,43.455189 72.125,42.4375 L 72.125,38 z M 72.125,56.0625 C 74.278758,58.13184 76.053679,59.906867 77.375,61.375 C 78.773216,62.928572 80.200895,64.993749 81.625,67.53125 C 83.049108,70.068751 83.750003,72.418747 83.75,74.59375 C 83.75,76.302681 83.475893,77.957143 82.90625,79.5625 L 79.3125,74.4375 C 77.603569,72.00357 76.323219,70.133033 75.46875,68.8125 C 74.614285,67.491964 73.802676,65.737502 73,63.5625 C 72.618179,62.527889 72.325195,61.499458 72.125,60.5 L 72.125,56.0625 z M 72.125,74.15625 C 74.183996,76.131394 75.944704,77.891909 77.3125,79.40625 C 78.762501,81.011611 80.200895,83.087493 81.625,85.625 C 83.049108,88.162504 83.750003,90.512501 83.75,92.6875 C 83.75,94.137503 83.381253,95.517849 82.65625,96.8125 C 82.241964,96.19107 81.072325,94.589284 79.15625,92 C 77.240177,89.410716 75.949107,87.545543 75.25,86.40625 C 74.550892,85.266962 73.802676,83.62321 73,81.5 C 72.623251,80.503438 72.356166,79.524836 72.15625,78.5625 L 72.125,74.15625 z"
     transform="matrix(7.8125,0,0,7.8125,-1,-200)"
     id="path34228"
     sodipodi:nodetypes="cssscccccccccccssssssssscscscscsccccsccccsscccccssscsssscccssscssscccsssccsscccssscssscc" />
</svg>
