<?xml version="1.0" encoding="UTF-8" standalone="no"?>
<svg
   xmlns:dc="http://purl.org/dc/elements/1.1/"
   xmlns:cc="http://web.resource.org/cc/"
   xmlns:rdf="http://www.w3.org/1999/02/22-rdf-syntax-ns#"
   xmlns:svg="http://www.w3.org/2000/svg"
   xmlns="http://www.w3.org/2000/svg"
   xmlns:xlink="http://www.w3.org/1999/xlink"
   xmlns:sodipodi="http://sodipodi.sourceforge.net/DTD/sodipodi-0.dtd"
   xmlns:inkscape="http://www.inkscape.org/namespaces/inkscape"
   viewBox="0 -500 1000 1000"
   id="svg2278"
   sodipodi:version="0.32"
   inkscape:version="0.45"
   width="128"
   height="128"
   sodipodi:docname="clefalto.svg"
   sodipodi:docbase="/home/matevz/canorus/artwork/images"
   inkscape:export-filename="/home/matevz/apps/canorus/branches/matevz/src/fonts/clefalto.png"
   inkscape:export-xdpi="120.95"
   inkscape:export-ydpi="120.95"
   inkscape:output_extension="org.inkscape.output.svg.inkscape"
   version="1.0"
   sodipodi:modified="true">
  <metadata
     id="metadata2287">
    <rdf:RDF>
      <cc:Work
         rdf:about="">
        <dc:format>image/svg+xml</dc:format>
        <dc:type
           rdf:resource="http://purl.org/dc/dcmitype/StillImage" />
      </cc:Work>
    </rdf:RDF>
  </metadata>
  <defs
     id="defs2285">
    <linearGradient
       id="linearGradient9292">
      <stop
         style="stop-color:#000000;stop-opacity:1;"
         offset="0"
         id="stop9294" />
      <stop
         style="stop-color:#646464;stop-opacity:1;"
         offset="1"
         id="stop9296" />
    </linearGradient>
    <linearGradient
       inkscape:collect="always"
       xlink:href="#linearGradient9292"
       id="linearGradient9298"
       x1="0"
       y1="0"
       x2="684"
       y2="0"
       gradientUnits="userSpaceOnUse" />
    <linearGradient
       inkscape:collect="always"
       xlink:href="#linearGradient9292"
       id="linearGradient9300"
       gradientUnits="userSpaceOnUse"
       x1="0"
       y1="0"
       x2="684"
       y2="0" />
  </defs>
  <sodipodi:namedview
     inkscape:window-height="978"
     inkscape:window-width="1400"
     inkscape:pageshadow="2"
     inkscape:pageopacity="0.0"
     borderopacity="1.0"
     bordercolor="#666666"
     pagecolor="#ffffff"
     id="base"
     inkscape:zoom="2.0103948"
     inkscape:cx="61.606286"
     inkscape:cy="52.573776"
     inkscape:window-x="192"
     inkscape:window-y="140"
     inkscape:current-layer="svg2278"
     width="128px"
     height="128px" />
  <g
     id="g14565">
    <g
       inkscape:export-ydpi="90"
       inkscape:export-xdpi="90"
       inkscape:export-filename="/home/matevz/apps/canorus/branches/matevz/src/fonts/clefalto.png"
       style="fill:#000000;fill-opacity:0.39215686"
       id="g6669"
       transform="matrix(0.9465652,0,0,-0.9465652,211.32718,12.930034)">
      <path
         style="fill:#000000;fill-opacity:0.39215686"
         id="path6671"
         d="M 6,498 C 9,500 12,500 71,500 C 129,500 132,500 135,498 C 136,497 139,495 139,493 C 141,490 141,441 141,0 C 141,-441 141,-490 139,-493 C 139,-495 136,-497 135,-498 C 132,-500 129,-500 71,-500 C 12,-500 9,-500 6,-498 C 5,-497 2,-495 2,-493 C 0,-490 0,-441 0,0 C 0,441 0,490 2,493 C 2,495 5,497 6,498 z M 194,498 C 197,500 199,500 212,500 C 224,500 226,500 229,498 C 236,494 235,515 235,255 L 235,21 L 238,23 C 239,24 244,30 249,35 C 290,82 314,140 317,202 C 317,216 318,219 320,222 C 323,228 326,230 334,230 C 338,230 341,229 343,227 C 348,223 349,220 350,203 C 351,178 357,155 367,134 C 383,101 404,81 435,72 C 443,70 445,70 461,70 C 480,70 489,71 502,76 C 549,94 565,144 563,265 C 562,305 560,326 556,350 C 549,392 538,419 518,438 C 502,454 480,464 452,467 C 430,469 417,468 405,461 C 389,453 384,440 389,424 C 392,415 396,410 409,398 C 423,386 427,381 430,372 C 434,358 431,337 421,320 C 417,313 403,299 396,295 C 371,280 341,280 316,295 C 309,299 295,313 291,320 C 283,334 279,349 280,366 C 283,430 331,482 400,497 C 412,499 414,499 438,499 C 466,499 484,498 506,493 C 607,474 665,411 680,308 C 684,281 685,250 683,230 C 672,125 581,42 470,37 C 449,36 441,39 418,53 C 395,67 384,72 373,71 C 355,69 343,58 338,39 C 333,20 333,-20 338,-38 C 343,-58 355,-69 373,-71 C 384,-72 395,-67 418,-53 C 441,-39 449,-36 470,-37 C 512,-39 553,-52 587,-75 C 642,-112 677,-168 683,-230 C 685,-250 684,-281 680,-308 C 665,-411 607,-474 506,-493 C 484,-498 466,-499 438,-499 C 414,-499 412,-499 400,-497 C 358,-488 324,-466 302,-433 C 289,-412 281,-391 280,-366 C 279,-349 283,-334 291,-320 C 295,-313 309,-299 316,-295 C 341,-280 371,-280 396,-295 C 403,-299 417,-313 421,-320 C 431,-337 434,-358 430,-372 C 427,-381 423,-386 410,-398 C 396,-410 392,-415 389,-424 C 384,-440 389,-453 405,-461 C 417,-468 430,-469 452,-467 C 505,-461 537,-432 551,-375 C 559,-347 562,-315 563,-265 C 564,-177 556,-131 536,-102 C 525,-86 508,-76 486,-71 C 480,-70 473,-70 461,-70 C 445,-70 443,-70 435,-72 C 404,-81 383,-101 367,-134 C 357,-155 351,-178 350,-203 C 349,-220 348,-223 343,-227 C 339,-230 328,-230 324,-227 C 319,-223 318,-220 317,-202 C 314,-140 290,-82 249,-35 C 244,-30 239,-24 238,-23 L 235,-21 L 235,-255 C 235,-515 236,-494 229,-498 C 226,-500 224,-500 212,-500 C 196,-500 193,-499 190,-493 C 188,-490 188,-441 188,0 C 188,441 188,490 190,493 C 190,495 193,497 194,498 z " />
    </g>
    <g
       inkscape:export-ydpi="90"
       inkscape:export-xdpi="90"
       inkscape:export-filename="/home/matevz/apps/canorus/branches/matevz/src/fonts/clefalto.png"
       style="fill:url(#linearGradient9298);fill-opacity:1"
       id="g2280"
       transform="matrix(0.9465652,0,0,-0.9465652,179.0269,-6.8425131)">
      <path
         style="fill:url(#linearGradient9300);fill-opacity:1"
         id="path2282"
         d="M 6,498 C 9,500 12,500 71,500 C 129,500 132,500 135,498 C 136,497 139,495 139,493 C 141,490 141,441 141,0 C 141,-441 141,-490 139,-493 C 139,-495 136,-497 135,-498 C 132,-500 129,-500 71,-500 C 12,-500 9,-500 6,-498 C 5,-497 2,-495 2,-493 C 0,-490 0,-441 0,0 C 0,441 0,490 2,493 C 2,495 5,497 6,498 z M 194,498 C 197,500 199,500 212,500 C 224,500 226,500 229,498 C 236,494 235,515 235,255 L 235,21 L 238,23 C 239,24 244,30 249,35 C 290,82 314,140 317,202 C 317,216 318,219 320,222 C 323,228 326,230 334,230 C 338,230 341,229 343,227 C 348,223 349,220 350,203 C 351,178 357,155 367,134 C 383,101 404,81 435,72 C 443,70 445,70 461,70 C 480,70 489,71 502,76 C 549,94 565,144 563,265 C 562,305 560,326 556,350 C 549,392 538,419 518,438 C 502,454 480,464 452,467 C 430,469 417,468 405,461 C 389,453 384,440 389,424 C 392,415 396,410 409,398 C 423,386 427,381 430,372 C 434,358 431,337 421,320 C 417,313 403,299 396,295 C 371,280 341,280 316,295 C 309,299 295,313 291,320 C 283,334 279,349 280,366 C 283,430 331,482 400,497 C 412,499 414,499 438,499 C 466,499 484,498 506,493 C 607,474 665,411 680,308 C 684,281 685,250 683,230 C 672,125 581,42 470,37 C 449,36 441,39 418,53 C 395,67 384,72 373,71 C 355,69 343,58 338,39 C 333,20 333,-20 338,-38 C 343,-58 355,-69 373,-71 C 384,-72 395,-67 418,-53 C 441,-39 449,-36 470,-37 C 512,-39 553,-52 587,-75 C 642,-112 677,-168 683,-230 C 685,-250 684,-281 680,-308 C 665,-411 607,-474 506,-493 C 484,-498 466,-499 438,-499 C 414,-499 412,-499 400,-497 C 358,-488 324,-466 302,-433 C 289,-412 281,-391 280,-366 C 279,-349 283,-334 291,-320 C 295,-313 309,-299 316,-295 C 341,-280 371,-280 396,-295 C 403,-299 417,-313 421,-320 C 431,-337 434,-358 430,-372 C 427,-381 423,-386 410,-398 C 396,-410 392,-415 389,-424 C 384,-440 389,-453 405,-461 C 417,-468 430,-469 452,-467 C 505,-461 537,-432 551,-375 C 559,-347 562,-315 563,-265 C 564,-177 556,-131 536,-102 C 525,-86 508,-76 486,-71 C 480,-70 473,-70 461,-70 C 445,-70 443,-70 435,-72 C 404,-81 383,-101 367,-134 C 357,-155 351,-178 350,-203 C 349,-220 348,-223 343,-227 C 339,-230 328,-230 324,-227 C 319,-223 318,-220 317,-202 C 314,-140 290,-82 249,-35 C 244,-30 239,-24 238,-23 L 235,-21 L 235,-255 C 235,-515 236,-494 229,-498 C 226,-500 224,-500 212,-500 C 196,-500 193,-499 190,-493 C 188,-490 188,-441 188,0 C 188,441 188,490 190,493 C 190,495 193,497 194,498 z " />
    </g>
  </g>
</svg>
