<?xml version="1.0" encoding="UTF-8" standalone="no"?>
<!-- Created with Inkscape (http://www.inkscape.org/) -->
<svg
   xmlns:dc="http://purl.org/dc/elements/1.1/"
   xmlns:cc="http://web.resource.org/cc/"
   xmlns:rdf="http://www.w3.org/1999/02/22-rdf-syntax-ns#"
   xmlns:svg="http://www.w3.org/2000/svg"
   xmlns="http://www.w3.org/2000/svg"
   xmlns:xlink="http://www.w3.org/1999/xlink"
   xmlns:sodipodi="http://sodipodi.sourceforge.net/DTD/sodipodi-0.dtd"
   xmlns:inkscape="http://www.inkscape.org/namespaces/inkscape"
   width="128"
   height="128"
   id="svg2"
   sodipodi:version="0.32"
   inkscape:version="0.45"
   sodipodi:modified="true"
   version="1.0">
  <defs
     id="defs4">
    <linearGradient
       id="linearGradient9389">
      <stop
         style="stop-color:#000000;stop-opacity:1;"
         offset="0"
         id="stop9391" />
      <stop
         style="stop-color:#646464;stop-opacity:1;"
         offset="1"
         id="stop9393" />
    </linearGradient>
    <linearGradient
       inkscape:collect="always"
       xlink:href="#linearGradient9389"
       id="linearGradient9395"
       x1="-26.241436"
       y1="-153.48067"
       x2="300"
       y2="-153.48067"
       gradientUnits="userSpaceOnUse" />
    <linearGradient
       id="linearGradient36148">
      <stop
         style="stop-color:#000000;stop-opacity:1;"
         offset="0"
         id="stop36150" />
      <stop
         style="stop-color:#646464;stop-opacity:1;"
         offset="1"
         id="stop36152" />
    </linearGradient>
    <linearGradient
       inkscape:collect="always"
       xlink:href="#linearGradient36148"
       id="linearGradient36154"
       x1="54.073642"
       y1="922.13912"
       x2="108.13371"
       y2="922.13912"
       gradientUnits="userSpaceOnUse"
       gradientTransform="matrix(0.4366167,0,0,0.4366167,-3.2808296,-359.04494)" />
    <linearGradient
       inkscape:collect="always"
       xlink:href="#linearGradient9389"
       id="linearGradient2423"
       gradientUnits="userSpaceOnUse"
       x1="-26.241436"
       y1="-153.48067"
       x2="300"
       y2="-153.48067" />
    <linearGradient
       inkscape:collect="always"
       xlink:href="#linearGradient36148"
       id="linearGradient2435"
       gradientUnits="userSpaceOnUse"
       gradientTransform="matrix(0.4366167,0,0,0.4366167,-3.2808296,-359.04494)"
       x1="54.073642"
       y1="922.13912"
       x2="108.13371"
       y2="922.13912" />
    <linearGradient
       inkscape:collect="always"
       xlink:href="#linearGradient9389"
       id="linearGradient2437"
       gradientUnits="userSpaceOnUse"
       x1="-26.241436"
       y1="-153.48067"
       x2="300"
       y2="-153.48067" />
    <linearGradient
       inkscape:collect="always"
       xlink:href="#linearGradient9389"
       id="linearGradient2439"
       gradientUnits="userSpaceOnUse"
       x1="-26.241436"
       y1="-153.48067"
       x2="300"
       y2="-153.48067" />
  </defs>
  <sodipodi:namedview
     id="base"
     pagecolor="#ffffff"
     bordercolor="#666666"
     borderopacity="1.0"
     gridtolerance="10000"
     guidetolerance="10"
     objecttolerance="10"
     inkscape:pageopacity="0.0"
     inkscape:pageshadow="2"
     inkscape:zoom="0.49497475"
     inkscape:cx="106.98601"
     inkscape:cy="-17.653473"
     inkscape:document-units="px"
     inkscape:current-layer="layer1"
     width="128px"
     height="128px"
     inkscape:window-width="1053"
     inkscape:window-height="707"
     inkscape:window-x="153"
     inkscape:window-y="287" />
  <metadata
     id="metadata7">
    <rdf:RDF>
      <cc:Work
         rdf:about="">
        <dc:format>image/svg+xml</dc:format>
        <dc:type
           rdf:resource="http://purl.org/dc/dcmitype/StillImage" />
      </cc:Work>
    </rdf:RDF>
  </metadata>
  <g
     inkscape:label="Layer 1"
     inkscape:groupmode="layer"
     id="layer1">
    <path
       id="path4344"
       d="M 1.9087978,43.965549 L 126.66263,43.965549"
       style="fill:#cccccc;fill-opacity:0.75;fill-rule:evenodd;stroke:#707071;stroke-width:2.9000001;stroke-linecap:round;stroke-linejoin:round;stroke-miterlimit:4;stroke-dasharray:none;stroke-opacity:0.74688798" />
    <path
       style="fill:#cccccc;fill-opacity:0.75;fill-rule:evenodd;stroke:#707071;stroke-width:2.9000001;stroke-linecap:round;stroke-linejoin:round;stroke-miterlimit:4;stroke-dasharray:none;stroke-opacity:0.74688798"
       d="M 1.9087978,56.781857 L 126.66263,56.781857"
       id="path4346" />
    <path
       id="path4348"
       d="M 1.9087978,69.598171 L 126.66263,69.598171"
       style="fill:#cccccc;fill-opacity:0.75;fill-rule:evenodd;stroke:#707071;stroke-width:2.9000001;stroke-linecap:round;stroke-linejoin:round;stroke-miterlimit:4;stroke-dasharray:none;stroke-opacity:0.74688798" />
    <path
       style="fill:#cccccc;fill-opacity:0.75;fill-rule:evenodd;stroke:#707071;stroke-width:2.9000001;stroke-linecap:round;stroke-linejoin:round;stroke-miterlimit:4;stroke-dasharray:none;stroke-opacity:0.74688798"
       d="M 1.9087978,82.414479 L 126.66263,82.414479"
       id="path4350" />
    <path
       id="path4352"
       d="M 1.9087978,95.230791 L 126.66263,95.230791"
       style="fill:#cccccc;fill-opacity:0.75;fill-rule:evenodd;stroke:#707071;stroke-width:2.9000001;stroke-linecap:round;stroke-linejoin:round;stroke-miterlimit:4;stroke-dasharray:none;stroke-opacity:0.74688798" />
    <path
       style="fill:none;fill-opacity:0.75;fill-rule:evenodd;stroke:#000000;stroke-width:2.9000001;stroke-linecap:round;stroke-linejoin:round;stroke-miterlimit:4;stroke-dasharray:none;stroke-opacity:1"
       d="M 1.9087978,42.197782 L 126.66263,42.197782"
       id="path2352" />
    <path
       id="path2356"
       d="M 1.9087978,55.01409 L 126.66263,55.01409"
       style="fill:none;fill-opacity:0.75;fill-rule:evenodd;stroke:#000000;stroke-width:2.9000001;stroke-linecap:round;stroke-linejoin:round;stroke-miterlimit:4;stroke-dasharray:none;stroke-opacity:1" />
    <path
       style="fill:none;fill-opacity:0.75;fill-rule:evenodd;stroke:#000000;stroke-width:2.9000001;stroke-linecap:round;stroke-linejoin:round;stroke-miterlimit:4;stroke-dasharray:none;stroke-opacity:1"
       d="M 1.9087978,67.830404 L 126.66263,67.830404"
       id="path2358" />
    <path
       id="path2360"
       d="M 1.9087978,80.646712 L 126.66263,80.646712"
       style="fill:none;fill-opacity:0.75;fill-rule:evenodd;stroke:#000000;stroke-width:2.9000001;stroke-linecap:round;stroke-linejoin:round;stroke-miterlimit:4;stroke-dasharray:none;stroke-opacity:1" />
    <path
       style="fill:none;fill-opacity:0.75;fill-rule:evenodd;stroke:#000000;stroke-width:2.9000001;stroke-linecap:round;stroke-linejoin:round;stroke-miterlimit:4;stroke-dasharray:none;stroke-opacity:1"
       d="M 1.9087978,93.463021 L 126.66263,93.463021"
       id="path2362" />
    <g
       id="g2431"
       transform="matrix(1.0794841,0,0,1.0794841,-0.5443739,-7.0709978)">
      <path
         style="fill:#000000;fill-opacity:0.39215686"
         sodipodi:nodetypes="cscccccccccccssc"
         id="path36146"
         d="M 42.99059,8.9954788 C 42.558362,9.1107018 42.403214,9.3827578 42.210964,9.5814928 C 41.983106,9.8170388 41.843664,10.430677 41.849668,10.758336 L 41.849668,62.137879 C 41.533635,61.429215 41.012019,60.844847 39.706797,60.423172 C 38.415281,60.064417 36.424593,59.828146 34.989578,59.971614 C 29.751758,60.545599 24.3598,64.271271 22.135522,68.791616 C 21.418012,70.29834 21.143743,71.370732 21.07199,72.733967 C 21.00024,74.958267 21.8621,76.961814 23.584125,78.253361 C 24.158131,78.755601 25.453691,79.340012 26.24295,79.555264 C 32.270032,81.349013 40.575965,77.180908 43.589506,71.010331 C 44.307016,69.575312 44.599619,68.504566 44.671377,67.141252 L 44.634701,10.242378 C 44.640853,9.9076018 44.50472,9.5806318 44.267965,9.3438768 C 44.03121,9.1071348 43.72257,8.9893268 43.387802,8.9954788 C 43.336605,8.9962338 43.098815,8.9755738 42.99059,8.9954788 z " />
      <path
         style="fill:url(#linearGradient2435);fill-opacity:1"
         sodipodi:nodetypes="cscccccccccccssc"
         id="path34228"
         d="M 42.251364,8.0911328 C 41.819135,8.2063548 41.663988,8.4784118 41.471736,8.6771458 C 41.243879,8.9126918 41.104437,9.5263298 41.11044,9.8539898 L 41.11044,61.233532 C 40.794409,60.524869 40.272792,59.940501 38.967571,59.518825 C 37.676054,59.16007 35.685367,58.9238 34.250349,59.067268 C 29.01253,59.641252 23.620574,63.366924 21.396294,67.887269 C 20.678785,69.393994 20.404515,70.466385 20.332764,71.829638 C 20.261013,74.053929 21.122873,76.057475 22.844897,77.349027 C 23.418904,77.85125 24.714463,78.435648 25.503724,78.6509 C 31.530803,80.444653 39.836738,76.276579 42.850279,70.105984 C 43.567789,68.670965 43.860392,67.60022 43.93215,66.236906 L 43.895474,9.3380308 C 43.901626,9.0032548 43.765494,8.6762858 43.528738,8.4395308 C 43.291982,8.2027878 42.983342,8.0849798 42.648576,8.0911328 C 42.597378,8.0918878 42.359587,8.0712268 42.251364,8.0911328 z " />
    </g>
    <g
       id="g2425"
       transform="matrix(1.1686772,0,0,1.1686772,-6.3399709,-14.328306)">
      <g
         inkscape:export-ydpi="90"
         inkscape:export-xdpi="90"
         inkscape:export-filename="/home/matevz/apps/canorus/branches/matevz/src/fonts/r16.png"
         style="fill:#000000;fill-opacity:0.39215686;stroke:none;stroke-opacity:0.39215686"
         id="g7639"
         transform="matrix(7.8180666e-2,0,0,-7.8180666e-2,76.556536,76.676372)">
        <path
           style="fill:#000000;fill-opacity:0.39215686;stroke:none;stroke-opacity:0.39215686"
           id="path7641"
           d="M 110,203 C 125,207 140,205 154,198 C 167,191 177,181 182,167 C 183,163 185,154 187,145 C 192,121 195,116 203,111 C 210,108 215,108 220,111 C 229,116 250,140 262,159 C 269,170 270,171 275,173 C 280,175 285,175 291,173 C 295,171 300,165 300,163 C 299,162 260,13 212,-169 C 150,-405 124,-501 123,-502 C 116,-507 102,-512 93,-512 C 83,-512 69,-507 62,-502 C 60,-500 63,-490 110,-338 C 138,-249 160,-176 160,-175 C 160,-175 153,-177 146,-180 C 129,-185 110,-190 94,-193 C 75,-196 48,-196 37,-193 C 13,-187 -8,-171 -18,-151 C -25,-139 -27,-131 -26,-116 C -26,-105 -26,-103 -23,-95 C -19,-83 -15,-76 -6,-67 C 5,-56 17,-49 33,-46 C 64,-40 94,-56 104,-83 C 105,-87 107,-96 109,-105 C 114,-129 117,-134 125,-139 C 136,-143 142,-141 155,-129 C 164,-119 174,-106 183,-91 C 188,-84 190,-78 194,-66 C 203,-39 238,74 238,75 C 237,75 231,73 222,70 C 188,59 166,55 141,55 C 119,55 113,56 97,64 C 75,74 61,91 54,113 C 52,119 52,123 52,134 C 52,145 52,147 55,155 C 59,167 63,174 72,183 C 83,194 95,201 110,203 z " />
      </g>
      <g
         inkscape:export-ydpi="90"
         inkscape:export-xdpi="90"
         inkscape:export-filename="/home/matevz/apps/canorus/branches/matevz/src/fonts/r16.png"
         style="fill:url(#linearGradient2437);fill-opacity:1"
         id="g6755"
         transform="matrix(7.8180666e-2,0,0,-7.8180666e-2,75.632361,75.567408)">
        <path
           style="fill:url(#linearGradient2439);fill-opacity:1"
           id="path6757"
           d="M 110,203 C 125,207 140,205 154,198 C 167,191 177,181 182,167 C 183,163 185,154 187,145 C 192,121 195,116 203,111 C 210,108 215,108 220,111 C 229,116 250,140 262,159 C 269,170 270,171 275,173 C 280,175 285,175 291,173 C 295,171 300,165 300,163 C 299,162 260,13 212,-169 C 150,-405 124,-501 123,-502 C 116,-507 102,-512 93,-512 C 83,-512 69,-507 62,-502 C 60,-500 63,-490 110,-338 C 138,-249 160,-176 160,-175 C 160,-175 153,-177 146,-180 C 129,-185 110,-190 94,-193 C 75,-196 48,-196 37,-193 C 13,-187 -8,-171 -18,-151 C -25,-139 -27,-131 -26,-116 C -26,-105 -26,-103 -23,-95 C -19,-83 -15,-76 -6,-67 C 5,-56 17,-49 33,-46 C 64,-40 94,-56 104,-83 C 105,-87 107,-96 109,-105 C 114,-129 117,-134 125,-139 C 136,-143 142,-141 155,-129 C 164,-119 174,-106 183,-91 C 188,-84 190,-78 194,-66 C 203,-39 238,74 238,75 C 237,75 231,73 222,70 C 188,59 166,55 141,55 C 119,55 113,56 97,64 C 75,74 61,91 54,113 C 52,119 52,123 52,134 C 52,145 52,147 55,155 C 59,167 63,174 72,183 C 83,194 95,201 110,203 z " />
      </g>
    </g>
    <rect
       style="opacity:1;fill:none;fill-opacity:0.39215686;fill-rule:nonzero;stroke:none;stroke-width:1.99100006;stroke-linecap:round;stroke-linejoin:round;stroke-miterlimit:4;stroke-dasharray:none;stroke-dashoffset:0;stroke-opacity:1"
       id="rect6764"
       width="59.07143"
       height="59.07143"
       x="57.071426"
       y="58.642849"
       inkscape:export-filename="/home/matevz/apps/canorus/branches/matevz/src/fonts/r16.png"
       inkscape:export-xdpi="90"
       inkscape:export-ydpi="90" />
  </g>
</svg>
