<?xml version="1.0" encoding="UTF-8" standalone="no"?>
<svg
   xmlns:dc="http://purl.org/dc/elements/1.1/"
   xmlns:cc="http://web.resource.org/cc/"
   xmlns:rdf="http://www.w3.org/1999/02/22-rdf-syntax-ns#"
   xmlns:svg="http://www.w3.org/2000/svg"
   xmlns="http://www.w3.org/2000/svg"
   xmlns:xlink="http://www.w3.org/1999/xlink"
   xmlns:sodipodi="http://sodipodi.sourceforge.net/DTD/sodipodi-0.dtd"
   xmlns:inkscape="http://www.inkscape.org/namespaces/inkscape"
   viewBox="0 -200 1000 1000"
   id="svg27169"
   sodipodi:version="0.32"
   inkscape:version="0.45.1"
   width="128"
   height="128"
   sodipodi:docname="dalsegno.svg"
   sodipodi:docbase="/home/matevz/canorus/trunk/src/ui/images/mark/repeatmark"
   inkscape:export-filename="/home/matevz/apps/canorus/branches/matevz/src/fonts/n2.png"
   inkscape:export-xdpi="120.95"
   inkscape:export-ydpi="120.95"
   inkscape:output_extension="org.inkscape.output.svg.inkscape"
   version="1.0">
  <metadata
     id="metadata27178">
    <rdf:RDF>
      <cc:Work
         rdf:about="">
        <dc:format>image/svg+xml</dc:format>
        <dc:type
           rdf:resource="http://purl.org/dc/dcmitype/StillImage" />
      </cc:Work>
    </rdf:RDF>
  </metadata>
  <defs
     id="defs27176">
    <linearGradient
       id="linearGradient33317">
      <stop
         style="stop-color:#000000;stop-opacity:1;"
         offset="0"
         id="stop33319" />
      <stop
         style="stop-color:#646464;stop-opacity:1;"
         offset="1"
         id="stop33321" />
    </linearGradient>
    <linearGradient
       inkscape:collect="always"
       xlink:href="#linearGradient33317"
       id="linearGradient33323"
       x1="49.270287"
       y1="920.35596"
       x2="110.55885"
       y2="920.35596"
       gradientUnits="userSpaceOnUse" />
    <linearGradient
       inkscape:collect="always"
       xlink:href="#linearGradient33317"
       id="linearGradient8122"
       gradientUnits="userSpaceOnUse"
       x1="49.270287"
       y1="920.35596"
       x2="110.55885"
       y2="920.35596" />
    <linearGradient
       inkscape:collect="always"
       xlink:href="#linearGradient33317"
       id="linearGradient19732"
       gradientUnits="userSpaceOnUse"
       x1="49.270287"
       y1="920.35596"
       x2="110.55885"
       y2="920.35596"
       gradientTransform="matrix(5.6766826,0,0,5.6766826,-206.90519,-4941.8885)" />
    <linearGradient
       inkscape:collect="always"
       xlink:href="#linearGradient33317"
       id="linearGradient20714"
       x1="483.75861"
       y1="336.54208"
       x2="900.97968"
       y2="336.54208"
       gradientUnits="userSpaceOnUse"
       gradientTransform="matrix(0.7657372,0,0,0.7657372,175.82664,67.12053)" />
    <linearGradient
       inkscape:collect="always"
       xlink:href="#linearGradient33317"
       id="linearGradient21697"
       gradientUnits="userSpaceOnUse"
       gradientTransform="matrix(0.7657372,0,0,0.7657372,175.82664,67.12053)"
       x1="483.75861"
       y1="336.54208"
       x2="900.97968"
       y2="336.54208" />
    <linearGradient
       inkscape:collect="always"
       xlink:href="#linearGradient33317"
       id="linearGradient21703"
       gradientUnits="userSpaceOnUse"
       gradientTransform="matrix(5.6766826,0,0,5.6766826,-206.90519,-4941.8885)"
       x1="49.270287"
       y1="920.35596"
       x2="110.55885"
       y2="920.35596" />
    <linearGradient
       inkscape:collect="always"
       xlink:href="#linearGradient33317"
       id="linearGradient21707"
       gradientUnits="userSpaceOnUse"
       gradientTransform="matrix(0.5805313,0,0,0.5805313,-202.92606,52.853836)"
       x1="483.75861"
       y1="336.54208"
       x2="900.97968"
       y2="336.54208" />
    <linearGradient
       inkscape:collect="always"
       xlink:href="#linearGradient33317"
       id="linearGradient23661"
       gradientUnits="userSpaceOnUse"
       gradientTransform="matrix(0.5805313,0,0,0.5805313,-202.92606,52.853836)"
       x1="483.75861"
       y1="336.54208"
       x2="900.97968"
       y2="336.54208" />
    <linearGradient
       inkscape:collect="always"
       xlink:href="#linearGradient33317"
       id="linearGradient2238"
       gradientUnits="userSpaceOnUse"
       gradientTransform="matrix(0.5805313,0,0,0.5805313,-216.73483,128.73884)"
       x1="483.75861"
       y1="336.54208"
       x2="2008.1578"
       y2="336.54208" />
    <linearGradient
       inkscape:collect="always"
       xlink:href="#linearGradient33317"
       id="linearGradient2248"
       gradientUnits="userSpaceOnUse"
       gradientTransform="matrix(0.5805313,0,0,0.5805313,-216.73483,128.73884)"
       x1="483.75861"
       y1="336.54208"
       x2="2008.1578"
       y2="336.54208" />
    <linearGradient
       inkscape:collect="always"
       xlink:href="#linearGradient33317"
       id="linearGradient3229"
       x1="-8.1343279"
       y1="250"
       x2="799"
       y2="250"
       gradientUnits="userSpaceOnUse" />
    <linearGradient
       inkscape:collect="always"
       xlink:href="#linearGradient33317"
       id="linearGradient4216"
       gradientUnits="userSpaceOnUse"
       x1="-8.1343279"
       y1="250"
       x2="799"
       y2="250" />
    <linearGradient
       inkscape:collect="always"
       xlink:href="#linearGradient33317"
       id="linearGradient5390"
       x1="-273"
       y1="0.31521606"
       x2="273"
       y2="0.31521606"
       gradientUnits="userSpaceOnUse" />
    <linearGradient
       inkscape:collect="always"
       xlink:href="#linearGradient33317"
       id="linearGradient5392"
       gradientUnits="userSpaceOnUse"
       x1="-273"
       y1="0.31521606"
       x2="273"
       y2="0.31521606" />
    <linearGradient
       inkscape:collect="always"
       xlink:href="#linearGradient33317"
       id="linearGradient6377"
       gradientUnits="userSpaceOnUse"
       x1="-273"
       y1="0.31521606"
       x2="273"
       y2="0.31521606" />
    <linearGradient
       inkscape:collect="always"
       xlink:href="#linearGradient33317"
       id="linearGradient3237"
       x1="12.879316"
       y1="-18.366228"
       x2="658.89288"
       y2="-18.366228"
       gradientUnits="userSpaceOnUse" />
    <linearGradient
       inkscape:collect="always"
       xlink:href="#linearGradient33317"
       id="linearGradient3337"
       x1="-251.91379"
       y1="0"
       x2="251.91379"
       y2="0"
       gradientUnits="userSpaceOnUse" />
    <linearGradient
       inkscape:collect="always"
       xlink:href="#linearGradient33317"
       id="linearGradient3345"
       gradientUnits="userSpaceOnUse"
       x1="-251.91379"
       y1="0"
       x2="251.91379"
       y2="0" />
    <linearGradient
       inkscape:collect="always"
       xlink:href="#linearGradient33317"
       id="linearGradient3347"
       gradientUnits="userSpaceOnUse"
       x1="-251.91379"
       y1="0"
       x2="251.91379"
       y2="0" />
    <linearGradient
       inkscape:collect="always"
       xlink:href="#linearGradient33317"
       id="linearGradient3383"
       gradientUnits="userSpaceOnUse"
       x1="12.879316"
       y1="-18.366228"
       x2="658.89288"
       y2="-18.366228" />
  </defs>
  <sodipodi:namedview
     inkscape:window-height="979"
     inkscape:window-width="1400"
     inkscape:pageshadow="2"
     inkscape:pageopacity="0.0"
     borderopacity="1.0"
     bordercolor="#666666"
     pagecolor="#ffffff"
     id="base"
     inkscape:zoom="2"
     inkscape:cx="182.14773"
     inkscape:cy="63.559496"
     inkscape:window-x="24"
     inkscape:window-y="0"
     inkscape:current-layer="svg27169"
     width="128px"
     height="128px" />
  <g
     id="g3339"
     transform="matrix(0.4098865,0,0,0.4098865,1129.7522,414.95992)">
    <g
       style="fill:#000000;fill-opacity:0.39215686"
       id="g3319"
       transform="matrix(2.0633422,0,0,-2.0633422,-894.93203,131.56311)">
      <path
         style="fill:#000000;fill-opacity:0.39215686"
         id="path3321"
         d="M -124,373 C -108.66667,375.66667 -93.333333,375.66667 -78,373 C -59.333333,369 -42.333333,362 -27,352 C 10.333333,326 31.666667,290.33333 37,245 C 41.666667,205.66667 32.333333,180.66667 9,170 C -2.3333333,164 -16.333333,163 -33,167 C -46.333333,169.66667 -57.5,176.33333 -66.5,187 C -75.5,197.66667 -80.333333,210.66667 -81,226 C -82.333333,243.33333 -78.666667,259 -70,273 C -62.666667,283.66667 -55.333333,291 -48,295 C -43.333333,297 -42.333333,300.66667 -45,306 C -52.333333,321.33333 -65,332.33333 -83,339 C -99.666667,343.66667 -114.66667,342.66667 -128,336 C -152.66667,324 -165,302.66667 -165,272 C -165,238.66667 -154.66667,206 -134,174 C -110,136 -70.666667,100 -16,66 C -6.6666667,60 -1.3333333,57 0,57 L 93,216 L 185,375 L 217,375 L 239.5,375 C 239.5,375 242.16667,374.83333 247.5,374.5 C 252.83333,374.16667 253.33333,373.66667 249,373 L 213,311 L 149,200 L 49,29 L 67,18 C 149,-30.666667 203.66667,-81.666667 231,-135 C 237.66667,-151 242.33333,-165 245,-177 C 252.33333,-210.33333 250.66667,-242.33333 240,-273 C 229.33333,-303.66667 211.33333,-328.66667 186,-348 C 173.33333,-358 159,-365 143,-369 C 112.33333,-377.66667 82.333333,-376.16667 53,-364.5 C 23.666667,-352.83333 0.33333333,-333 -17,-305 C -31,-281 -38,-255.66667 -38,-229 C -38,-199 -28.333333,-179.33333 -9,-170 C 2.3333333,-164 16.666667,-163 34,-167 C 47.333333,-169.66667 58.333333,-176.33333 67,-187 C 75.666667,-197.66667 80.333333,-210.66667 81,-226 C 82.333333,-243.33333 78.666667,-259 70,-273 C 62.666667,-283.66667 55.333333,-291 48,-295 C 42.666667,-297 41.666667,-300.33333 45,-305 C 51.666667,-321 64.333333,-332.33333 83,-339 C 99,-343.66667 114.33333,-342.66667 129,-336 C 153,-324 165,-302.66667 165,-272 C 165,-238.66667 154.66667,-206 134,-174 C 110,-136 70.666667,-100 16,-66 L 1,-57 C -0.33333333,-57 -31.333333,-110 -92,-216 L -184,-375 L -217,-375 L -239.5,-375 C -239.5,-375 -242.16667,-374.83333 -247.5,-374.5 C -252.83333,-374.16667 -253.33333,-373.66667 -249,-373 L -213,-311 L -149,-200 L -49,-29 L -67,-18 C -149.66667,30.666667 -204.33333,82 -231,136 C -237.66667,150.66667 -242.33333,164.33333 -245,177 C -259,239 -245,291 -203,333 C -191.66667,344.33333 -179,353.66667 -165,361 C -150.33333,367 -136.66667,371 -124,373 z M 153,94 C 165.66667,98.666667 176.33333,97 185,89 C 186.33333,87.666667 189,84.333333 193,79 C 195,75 196,70 196,64 C 196,54 193.33333,46 188,40 C 182,34.666667 174.33333,32 165,32 C 155,32 147,35 141,41 C 131.66667,50.333333 129.33333,61.333333 134,74 C 137.33333,84 143.66667,90.666667 153,94 z M -176,-33 C -163.33333,-28.333333 -152.66667,-30 -144,-38 C -142.66667,-39.333333 -140,-42.666667 -136,-48 C -134,-52 -133,-57 -133,-63 C -133,-73 -135.66667,-81 -141,-87 C -147,-92.333333 -154.66667,-95 -164,-95 C -174,-95 -182,-92 -188,-86 C -197.33333,-76.666667 -199.66667,-65.666667 -195,-53 C -191.66667,-43 -185.33333,-36.333333 -176,-33 z " />
    </g>
    <g
       style="fill:url(#linearGradient3345);fill-opacity:1"
       id="g3294"
       transform="matrix(2.0633424,0,0,-2.0633424,-928.0777,95.939115)">
      <path
         style="fill:url(#linearGradient3347);fill-opacity:1"
         id="path3296"
         d="M -124,373 C -108.66667,375.66667 -93.333333,375.66667 -78,373 C -59.333333,369 -42.333333,362 -27,352 C 10.333333,326 31.666667,290.33333 37,245 C 41.666667,205.66667 32.333333,180.66667 9,170 C -2.3333333,164 -16.333333,163 -33,167 C -46.333333,169.66667 -57.5,176.33333 -66.5,187 C -75.5,197.66667 -80.333333,210.66667 -81,226 C -82.333333,243.33333 -78.666667,259 -70,273 C -62.666667,283.66667 -55.333333,291 -48,295 C -43.333333,297 -42.333333,300.66667 -45,306 C -52.333333,321.33333 -65,332.33333 -83,339 C -99.666667,343.66667 -114.66667,342.66667 -128,336 C -152.66667,324 -165,302.66667 -165,272 C -165,238.66667 -154.66667,206 -134,174 C -110,136 -70.666667,100 -16,66 C -6.6666667,60 -1.3333333,57 0,57 L 93,216 L 185,375 L 217,375 L 239.5,375 C 239.5,375 242.16667,374.83333 247.5,374.5 C 252.83333,374.16667 253.33333,373.66667 249,373 L 213,311 L 149,200 L 49,29 L 67,18 C 149,-30.666667 203.66667,-81.666667 231,-135 C 237.66667,-151 242.33333,-165 245,-177 C 252.33333,-210.33333 250.66667,-242.33333 240,-273 C 229.33333,-303.66667 211.33333,-328.66667 186,-348 C 173.33333,-358 159,-365 143,-369 C 112.33333,-377.66667 82.333333,-376.16667 53,-364.5 C 23.666667,-352.83333 0.33333333,-333 -17,-305 C -31,-281 -38,-255.66667 -38,-229 C -38,-199 -28.333333,-179.33333 -9,-170 C 2.3333333,-164 16.666667,-163 34,-167 C 47.333333,-169.66667 58.333333,-176.33333 67,-187 C 75.666667,-197.66667 80.333333,-210.66667 81,-226 C 82.333333,-243.33333 78.666667,-259 70,-273 C 62.666667,-283.66667 55.333333,-291 48,-295 C 42.666667,-297 41.666667,-300.33333 45,-305 C 51.666667,-321 64.333333,-332.33333 83,-339 C 99,-343.66667 114.33333,-342.66667 129,-336 C 153,-324 165,-302.66667 165,-272 C 165,-238.66667 154.66667,-206 134,-174 C 110,-136 70.666667,-100 16,-66 L 1,-57 C -0.33333333,-57 -31.333333,-110 -92,-216 L -184,-375 L -217,-375 L -239.5,-375 C -239.5,-375 -242.16667,-374.83333 -247.5,-374.5 C -252.83333,-374.16667 -253.33333,-373.66667 -249,-373 L -213,-311 L -149,-200 L -49,-29 L -67,-18 C -149.66667,30.666667 -204.33333,82 -231,136 C -237.66667,150.66667 -242.33333,164.33333 -245,177 C -259,239 -245,291 -203,333 C -191.66667,344.33333 -179,353.66667 -165,361 C -150.33333,367 -136.66667,371 -124,373 z M 153,94 C 165.66667,98.666667 176.33333,97 185,89 C 186.33333,87.666667 189,84.333333 193,79 C 195,75 196,70 196,64 C 196,54 193.33333,46 188,40 C 182,34.666667 174.33333,32 165,32 C 155,32 147,35 141,41 C 131.66667,50.333333 129.33333,61.333333 134,74 C 137.33333,84 143.66667,90.666667 153,94 z M -176,-33 C -163.33333,-28.333333 -152.66667,-30 -144,-38 C -142.66667,-39.333333 -140,-42.666667 -136,-48 C -134,-52 -133,-57 -133,-63 C -133,-73 -135.66667,-81 -141,-87 C -147,-92.333333 -154.66667,-95 -164,-95 C -174,-95 -182,-92 -188,-86 C -197.33333,-76.666667 -199.66667,-65.666667 -195,-53 C -191.66667,-43 -185.33333,-36.333333 -176,-33 z " />
    </g>
  </g>
  <g
     id="g3239"
     transform="translate(2.6188381,21.103018)">
    <text
       id="text2256"
       y="120.05885"
       x="12.877217"
       style="font-size:381.04464722px;font-style:normal;font-weight:normal;fill:#000000;fill-opacity:0.39215686;stroke:none;stroke-width:1px;stroke-linecap:butt;stroke-linejoin:miter;stroke-opacity:1;font-family:Bitstream Vera Sans"
       xml:space="preserve"><tspan
         style="font-style:italic;fill:#000000;fill-opacity:0.39215686;font-family:URW Bookman L"
         y="120.05885"
         x="12.877217"
         id="tspan2258"
         sodipodi:role="line">Dal</tspan></text>
    <text
       id="text2252"
       y="110.99843"
       x="4.877378"
       style="font-size:381.04464722px;font-style:normal;font-weight:normal;fill:url(#linearGradient3383);fill-opacity:1;stroke:none;stroke-width:1px;stroke-linecap:butt;stroke-linejoin:miter;stroke-opacity:1;font-family:Bitstream Vera Sans"
       xml:space="preserve"><tspan
         style="font-style:italic;fill:url(#linearGradient3383);fill-opacity:1;font-family:URW Bookman L"
         y="110.99843"
         x="4.877378"
         id="tspan2254"
         sodipodi:role="line">Dal</tspan></text>
  </g>
</svg>
