<?xml version="1.0" encoding="UTF-8" standalone="no"?>
<svg
   xmlns:dc="http://purl.org/dc/elements/1.1/"
   xmlns:cc="http://web.resource.org/cc/"
   xmlns:rdf="http://www.w3.org/1999/02/22-rdf-syntax-ns#"
   xmlns:svg="http://www.w3.org/2000/svg"
   xmlns="http://www.w3.org/2000/svg"
   xmlns:xlink="http://www.w3.org/1999/xlink"
   xmlns:sodipodi="http://sodipodi.sourceforge.net/DTD/sodipodi-0.dtd"
   xmlns:inkscape="http://www.inkscape.org/namespaces/inkscape"
   viewBox="-1 -200 1000 1000"
   id="svg34224"
   sodipodi:version="0.32"
   inkscape:version="0.45"
   width="128"
   height="128"
   sodipodi:docname="n16.svg"
   sodipodi:docbase="/home/matevz/canorus/artwork/images"
   inkscape:output_extension="org.inkscape.output.svg.inkscape"
   sodipodi:modified="true"
   version="1.0">
  <metadata
     id="metadata34233">
    <rdf:RDF>
      <cc:Work
         rdf:about="">
        <dc:format>image/svg+xml</dc:format>
        <dc:type
           rdf:resource="http://purl.org/dc/dcmitype/StillImage" />
      </cc:Work>
    </rdf:RDF>
  </metadata>
  <defs
     id="defs34231">
    <linearGradient
       id="linearGradient36148">
      <stop
         style="stop-color:#000000;stop-opacity:1;"
         offset="0"
         id="stop36150" />
      <stop
         style="stop-color:#646464;stop-opacity:1;"
         offset="1"
         id="stop36152" />
    </linearGradient>
    <linearGradient
       id="linearGradient36138">
      <stop
         style="stop-color:#000000;stop-opacity:1;"
         offset="0"
         id="stop36140" />
      <stop
         style="stop-color:#000000;stop-opacity:0;"
         offset="1"
         id="stop36142" />
    </linearGradient>
    <linearGradient
       inkscape:collect="always"
       xlink:href="#linearGradient36148"
       id="linearGradient36154"
       x1="54.073643"
       y1="922.1391"
       x2="108.13371"
       y2="922.1391"
       gradientUnits="userSpaceOnUse"
       gradientTransform="translate(0,-1.418067)" />
    <linearGradient
       inkscape:collect="always"
       xlink:href="#linearGradient36148"
       id="linearGradient40139"
       gradientUnits="userSpaceOnUse"
       gradientTransform="matrix(1.355023,0,0,1.355023,-9.963582,-420.2386)"
       x1="54.073643"
       y1="922.1391"
       x2="108.13371"
       y2="922.1391" />
    <linearGradient
       inkscape:collect="always"
       xlink:href="#linearGradient36148"
       id="linearGradient8392"
       gradientUnits="userSpaceOnUse"
       gradientTransform="matrix(1.355023,0,0,1.355023,-9.963582,-420.2386)"
       x1="54.073643"
       y1="922.1391"
       x2="108.13371"
       y2="922.1391" />
  </defs>
  <sodipodi:namedview
     inkscape:window-height="978"
     inkscape:window-width="1400"
     inkscape:pageshadow="2"
     inkscape:pageopacity="0.0"
     borderopacity="1.0"
     bordercolor="#666666"
     pagecolor="#ffffff"
     id="base"
     showguides="true"
     inkscape:guide-bbox="true"
     inkscape:zoom="2"
     inkscape:cx="176.40334"
     inkscape:cy="13.36115"
     inkscape:window-x="192"
     inkscape:window-y="140"
     inkscape:current-layer="svg34224"
     width="128px"
     height="128px" />
  <g
     id="g8388"
     transform="matrix(5.7310221,0,0,5.7310221,-13.959185,-4980.2004)">
    <path
       inkscape:export-ydpi="90"
       inkscape:export-xdpi="90"
       inkscape:export-filename="/home/matevz/apps/canorus/branches/matevz/src/fonts/n16.png"
       sodipodi:nodetypes="csssscccccccccccccccccsscsccccccccsccssccccccscccscc"
       id="path41014"
       d="M 99.478941,840.18505 C 99.470051,840.18614 99.307351,840.19967 99.298981,840.20093 C 98.300851,840.46703 97.922121,841.09703 97.478161,841.55596 C 97.470041,841.56487 97.443841,841.58898 97.435821,841.59831 C 97.412071,841.62748 97.373951,841.6928 97.351131,841.72534 C 96.923681,842.36355 96.661271,843.59211 96.673621,844.26601 L 96.673621,962.9151 C 95.943811,961.2788 94.733421,959.9086 91.719321,958.9349 C 88.736861,958.1064 84.150631,957.5872 80.836792,957.9186 C 68.741257,959.244 56.28978,967.8475 51.153322,978.2862 C 49.4964,981.7657 48.863038,984.2422 48.697343,987.3904 C 48.531651,992.5269 50.52192,997.1534 54.498535,1000.136 C 55.82407,1001.2957 58.815865,1002.6454 60.638482,1003.1426 C 74.556626,1007.2847 93.737271,997.6595 100.69634,983.4098 C 102.35326,980.0961 103.02896,977.6235 103.19467,974.4752 L 103.15232,904.81859 L 107.21739,908.88366 C 115.86243,917.52869 120.42349,923.3775 123.64704,929.9712 C 126.28451,935.53919 127.0084,939.9471 126.56881,945.808 C 125.98271,952.2552 124.35615,958.2431 121.57216,964.3973 C 120.54648,966.4486 120.5559,966.5864 120.5559,967.319 C 120.70243,967.7587 120.83281,968.508 120.97934,968.8011 C 122.15155,970.9989 125.54985,971.2988 127.16163,969.3939 C 127.17537,969.3779 127.1894,969.3282 127.20398,969.3092 C 128.14121,968.0306 130.69086,961.0681 131.69249,956.7752 C 133.01122,951.6469 133.42862,947.676 133.42862,942.5475 C 133.42862,938.5913 133.31436,937.1328 132.58172,933.90924 C 131.99563,931.56481 131.38264,929.81398 130.21043,927.17647 L 129.36355,924.97456 L 129.91402,923.53485 C 133.28413,916.062 133.6101,908.1316 130.97263,899.7796 C 130.09348,897.14213 129.34675,895.51156 127.88149,892.58104 C 125.83013,888.33179 123.49853,884.84551 117.93054,876.78655 C 114.41391,871.80467 111.90084,867.825 110.43557,865.48058 C 106.14969,858.38207 103.81401,852.15489 103.10998,845.8751 C 103.09794,845.76775 103.12107,845.64371 103.10998,845.53634 L 103.10998,843.08036 C 103.12419,842.30729 102.80982,841.55222 102.26309,841.00548 C 101.71635,840.4588 101.0195,840.16555 100.24643,840.17976 C 100.13559,840.18141 99.745631,840.15241 99.478941,840.18505 z M 103.10998,873.52603 L 103.70281,874.11886 C 104.14238,874.55844 105.75212,876.19103 107.21739,877.80283 C 114.5437,885.5687 119.10743,891.29315 122.03796,897.15424 C 125.55458,904.04097 126.57486,909.88246 125.25613,915.74346 C 125.1096,916.47609 124.79035,917.05612 124.79034,917.05614 C 124.67215,916.93194 124.15871,916.38567 123.77408,915.61642 C 123.18798,914.8838 120.84493,911.3645 118.35399,907.99442 C 111.61379,898.61676 109.73119,895.5109 107.38677,890.67554 C 104.99427,886.01646 103.65954,881.82369 103.15232,877.37937 C 103.14784,877.34007 103.15669,877.2917 103.15232,877.25234 L 103.10998,873.52603 z "
       style="fill:#000000;fill-opacity:0.39215686" />
    <path
       inkscape:export-ydpi="90"
       inkscape:export-xdpi="90"
       inkscape:export-filename="/home/matevz/apps/canorus/branches/matevz/src/fonts/n16.png"
       sodipodi:nodetypes="csssscccccccccccccccccsscsccccccccsccssccccccscccscc"
       id="path34228"
       d="M 96.373953,838.57779 C 96.365064,838.57888 96.202361,838.59241 96.193989,838.59367 C 95.195859,838.85977 94.817136,839.48977 94.373177,839.9487 C 94.365054,839.95761 94.338852,839.98172 94.330832,839.99105 C 94.307079,840.02022 94.268959,840.08554 94.246143,840.11808 C 93.81869,840.75629 93.556284,841.98485 93.568631,842.65875 L 93.568631,961.30787 C 92.838826,959.67154 91.628436,958.30134 88.614329,957.32762 C 85.631868,956.49916 81.045642,955.97992 77.731803,956.31136 C 65.636268,957.6367 53.184791,966.24028 48.048333,976.67897 C 46.391411,980.1584 45.758049,982.63498 45.592354,985.7831 C 45.426662,990.91959 47.416931,995.54618 51.393546,998.52872 C 52.719081,999.68848 55.710876,1001.0381 57.533493,1001.5353 C 71.451637,1005.6774 90.63228,996.05227 97.591356,981.80258 C 99.248277,978.48888 99.923971,976.01623 100.08968,972.86797 L 100.04733,903.21133 L 104.1124,907.2764 C 112.75744,915.92143 117.3185,921.77024 120.54205,928.36394 C 123.17952,933.93193 123.90341,938.33982 123.46382,944.2007 C 122.87772,950.6479 121.25116,956.63588 118.46717,962.78999 C 117.44149,964.84136 117.45091,964.97916 117.45091,965.71169 C 117.59744,966.15139 117.72782,966.90072 117.87435,967.19382 C 119.04656,969.39166 122.44486,969.69153 124.05664,967.78664 C 124.07038,967.77064 124.08441,967.72092 124.09899,967.70195 C 125.03622,966.42335 127.58587,959.46084 128.5875,955.16798 C 129.90623,950.03963 130.32363,946.06873 130.32363,940.94024 C 130.32363,936.98399 130.20937,935.52557 129.47673,932.30198 C 128.89064,929.95755 128.27765,928.20672 127.10544,925.56921 L 126.25856,923.3673 L 126.80903,921.92759 C 130.17914,914.45474 130.50511,906.52434 127.86764,898.17234 C 126.98849,895.53487 126.24176,893.9043 124.7765,890.97378 C 122.72514,886.72453 120.39354,883.23825 114.82555,875.17929 C 111.30892,870.19741 108.79585,866.21774 107.33058,863.87332 C 103.0447,856.77481 100.70902,850.54763 100.00499,844.26784 C 99.992955,844.16049 100.01608,844.03645 100.00499,843.92908 L 100.00499,841.4731 C 100.0192,840.70003 99.704832,839.94496 99.158101,839.39822 C 98.611365,838.85154 97.914514,838.55829 97.141446,838.5725 C 97.030607,838.57415 96.64064,838.54515 96.373953,838.57779 z M 100.00499,871.91877 L 100.59782,872.5116 C 101.03739,872.95118 102.64713,874.58377 104.1124,876.19557 C 111.43871,883.96144 116.00244,889.68589 118.93297,895.54698 C 122.44959,902.43371 123.46987,908.2752 122.15114,914.1362 C 122.00461,914.86883 121.68536,915.44886 121.68535,915.44888 C 121.56716,915.32468 121.05372,914.77841 120.66909,914.00916 C 120.08299,913.27654 117.73994,909.75724 115.249,906.38716 C 108.5088,897.0095 106.6262,893.90364 104.28178,889.06828 C 101.88928,884.4092 100.55455,880.21643 100.04733,875.77211 C 100.04285,875.73281 100.0517,875.68444 100.04733,875.64508 L 100.00499,871.91877 z "
       style="fill:url(#linearGradient8392);fill-opacity:1" />
  </g>
</svg>
