<?xml version="1.0" encoding="UTF-8" standalone="no"?>
<svg
   xmlns:dc="http://purl.org/dc/elements/1.1/"
   xmlns:cc="http://web.resource.org/cc/"
   xmlns:rdf="http://www.w3.org/1999/02/22-rdf-syntax-ns#"
   xmlns:svg="http://www.w3.org/2000/svg"
   xmlns="http://www.w3.org/2000/svg"
   xmlns:xlink="http://www.w3.org/1999/xlink"
   xmlns:sodipodi="http://sodipodi.sourceforge.net/DTD/sodipodi-0.dtd"
   xmlns:inkscape="http://www.inkscape.org/namespaces/inkscape"
   viewBox="0 -200 1000 1000"
   id="svg27169"
   sodipodi:version="0.32"
   inkscape:version="0.45.1"
   width="128"
   height="128"
   sodipodi:docname="0.svg"
   sodipodi:docbase="/home/matevz/canorus/trunk/src/ui/images/mark/fingering"
   inkscape:export-filename="/home/matevz/apps/canorus/branches/matevz/src/fonts/n2.png"
   inkscape:export-xdpi="120.95"
   inkscape:export-ydpi="120.95"
   inkscape:output_extension="org.inkscape.output.svg.inkscape"
   version="1.0">
  <metadata
     id="metadata27178">
    <rdf:RDF>
      <cc:Work
         rdf:about="">
        <dc:format>image/svg+xml</dc:format>
        <dc:type
           rdf:resource="http://purl.org/dc/dcmitype/StillImage" />
      </cc:Work>
    </rdf:RDF>
  </metadata>
  <defs
     id="defs27176">
    <linearGradient
       inkscape:collect="always"
       xlink:href="#linearGradient20853"
       id="linearGradient19628"
       gradientUnits="userSpaceOnUse"
       x1="-100"
       y1="-37.468254"
       x2="99"
       y2="-37.468254" />
    <linearGradient
       id="linearGradient20853">
      <stop
         style="stop-color:#000000;stop-opacity:1;"
         offset="0"
         id="stop20855" />
      <stop
         style="stop-color:#646464;stop-opacity:1;"
         offset="1"
         id="stop20857" />
    </linearGradient>
    <linearGradient
       inkscape:collect="always"
       xlink:href="#linearGradient20853"
       id="linearGradient19626"
       gradientUnits="userSpaceOnUse"
       x1="-100"
       y1="-37.468254"
       x2="99"
       y2="-37.468254" />
    <linearGradient
       id="linearGradient33317">
      <stop
         style="stop-color:#000000;stop-opacity:1;"
         offset="0"
         id="stop33319" />
      <stop
         style="stop-color:#646464;stop-opacity:1;"
         offset="1"
         id="stop33321" />
    </linearGradient>
    <linearGradient
       inkscape:collect="always"
       xlink:href="#linearGradient33317"
       id="linearGradient33323"
       x1="49.270287"
       y1="920.35596"
       x2="110.55885"
       y2="920.35596"
       gradientUnits="userSpaceOnUse" />
    <linearGradient
       inkscape:collect="always"
       xlink:href="#linearGradient33317"
       id="linearGradient8122"
       gradientUnits="userSpaceOnUse"
       x1="49.270287"
       y1="920.35596"
       x2="110.55885"
       y2="920.35596" />
    <linearGradient
       inkscape:collect="always"
       xlink:href="#linearGradient33317"
       id="linearGradient19732"
       gradientUnits="userSpaceOnUse"
       x1="49.270287"
       y1="920.35596"
       x2="110.55885"
       y2="920.35596"
       gradientTransform="matrix(5.6766826,0,0,5.6766826,-206.90519,-4941.8885)" />
    <linearGradient
       inkscape:collect="always"
       xlink:href="#linearGradient33317"
       id="linearGradient20714"
       x1="483.75861"
       y1="336.54208"
       x2="900.97968"
       y2="336.54208"
       gradientUnits="userSpaceOnUse"
       gradientTransform="matrix(0.7657372,0,0,0.7657372,175.82664,67.12053)" />
    <linearGradient
       inkscape:collect="always"
       xlink:href="#linearGradient33317"
       id="linearGradient21697"
       gradientUnits="userSpaceOnUse"
       gradientTransform="matrix(0.7657372,0,0,0.7657372,175.82664,67.12053)"
       x1="483.75861"
       y1="336.54208"
       x2="900.97968"
       y2="336.54208" />
    <linearGradient
       inkscape:collect="always"
       xlink:href="#linearGradient33317"
       id="linearGradient21703"
       gradientUnits="userSpaceOnUse"
       gradientTransform="matrix(5.6766826,0,0,5.6766826,-206.90519,-4941.8885)"
       x1="49.270287"
       y1="920.35596"
       x2="110.55885"
       y2="920.35596" />
    <linearGradient
       inkscape:collect="always"
       xlink:href="#linearGradient33317"
       id="linearGradient21707"
       gradientUnits="userSpaceOnUse"
       gradientTransform="matrix(0.5805313,0,0,0.5805313,-202.92606,52.853836)"
       x1="483.75861"
       y1="336.54208"
       x2="900.97968"
       y2="336.54208" />
    <linearGradient
       inkscape:collect="always"
       xlink:href="#linearGradient33317"
       id="linearGradient23661"
       gradientUnits="userSpaceOnUse"
       gradientTransform="matrix(0.5805313,0,0,0.5805313,-202.92606,52.853836)"
       x1="483.75861"
       y1="336.54208"
       x2="900.97968"
       y2="336.54208" />
    <linearGradient
       inkscape:collect="always"
       xlink:href="#linearGradient33317"
       id="linearGradient2238"
       gradientUnits="userSpaceOnUse"
       gradientTransform="matrix(0.5805313,0,0,0.5805313,-216.73483,128.73884)"
       x1="483.75861"
       y1="336.54208"
       x2="2008.1578"
       y2="336.54208" />
    <linearGradient
       inkscape:collect="always"
       xlink:href="#linearGradient33317"
       id="linearGradient2248"
       gradientUnits="userSpaceOnUse"
       gradientTransform="matrix(0.5805313,0,0,0.5805313,-216.73483,128.73884)"
       x1="483.75861"
       y1="336.54208"
       x2="2008.1578"
       y2="336.54208" />
    <linearGradient
       inkscape:collect="always"
       xlink:href="#linearGradient33317"
       id="linearGradient3229"
       x1="-8.1343279"
       y1="250"
       x2="799"
       y2="250"
       gradientUnits="userSpaceOnUse" />
    <linearGradient
       inkscape:collect="always"
       xlink:href="#linearGradient33317"
       id="linearGradient4216"
       gradientUnits="userSpaceOnUse"
       x1="-8.1343279"
       y1="250"
       x2="799"
       y2="250" />
    <linearGradient
       inkscape:collect="always"
       xlink:href="#linearGradient33317"
       id="linearGradient5390"
       x1="-273"
       y1="0.31521606"
       x2="273"
       y2="0.31521606"
       gradientUnits="userSpaceOnUse" />
    <linearGradient
       inkscape:collect="always"
       xlink:href="#linearGradient33317"
       id="linearGradient5392"
       gradientUnits="userSpaceOnUse"
       x1="-273"
       y1="0.31521606"
       x2="273"
       y2="0.31521606" />
    <linearGradient
       inkscape:collect="always"
       xlink:href="#linearGradient33317"
       id="linearGradient6377"
       gradientUnits="userSpaceOnUse"
       x1="-273"
       y1="0.31521606"
       x2="273"
       y2="0.31521606" />
    <linearGradient
       inkscape:collect="always"
       xlink:href="#linearGradient33317"
       id="linearGradient6379"
       gradientUnits="userSpaceOnUse"
       x1="-273"
       y1="0.31521606"
       x2="273"
       y2="0.31521606" />
    <linearGradient
       inkscape:collect="always"
       xlink:href="#linearGradient33317"
       id="linearGradient3171"
       x1="230.81244"
       y1="304.29382"
       x2="776.26208"
       y2="304.29382"
       gradientUnits="userSpaceOnUse" />
    <linearGradient
       inkscape:collect="always"
       xlink:href="#linearGradient33317"
       id="linearGradient3179"
       gradientUnits="userSpaceOnUse"
       x1="230.81244"
       y1="304.29382"
       x2="776.26208"
       y2="304.29382" />
    <linearGradient
       inkscape:collect="always"
       xlink:href="#linearGradient20853"
       id="linearGradient3360"
       gradientUnits="userSpaceOnUse"
       x1="-100"
       y1="-37.468254"
       x2="99"
       y2="-37.468254" />
    <linearGradient
       inkscape:collect="always"
       xlink:href="#linearGradient20853"
       id="linearGradient3362"
       gradientUnits="userSpaceOnUse"
       x1="-100"
       y1="-37.468254"
       x2="99"
       y2="-37.468254" />
  </defs>
  <sodipodi:namedview
     inkscape:window-height="979"
     inkscape:window-width="1400"
     inkscape:pageshadow="2"
     inkscape:pageopacity="0.0"
     borderopacity="1.0"
     bordercolor="#666666"
     pagecolor="#ffffff"
     id="base"
     inkscape:zoom="2.8284271"
     inkscape:cx="122.21348"
     inkscape:cy="23.597861"
     inkscape:window-x="120"
     inkscape:window-y="96"
     inkscape:current-layer="svg27169"
     width="128px"
     height="128px" />
  <g
     id="g3354"
     transform="matrix(0.7035823,0,0,0.7035823,31.991159,-102.53616)">
    <g
       style="fill:#000000;fill-opacity:0.39215686"
       id="g3346"
       transform="matrix(3.5745531,0,0,-3.5745531,684.03484,453.38328)">
      <path
         style="fill:#000000;fill-opacity:0.39215686"
         id="path3348"
         d="M -18,123 C 5.3333333,128.33333 27.166667,124.33333 47.5,111 C 67.833333,97.666667 82.333333,77.666667 91,51 C 96.333333,38.333333 99,21.333333 99,0 C 99,-21.333333 96.333333,-38.333333 91,-51 C 79.666667,-85 60.333333,-107.66667 33,-119 L 25,-122 L 25,-151 L 25,-180 L 22,-186 C 16.666667,-196.66667 8.3333333,-201.33333 -3,-200 C -11.666667,-199.33333 -18.333333,-194.33333 -23,-185 C -24.333333,-181.66667 -25,-170.33333 -25,-151 L -24,-122 L -33,-119 C -43.666667,-114.33333 -53.666667,-107.66667 -63,-99 C -79,-83 -90.333333,-60 -97,-30 C -101,-10 -101,10 -97,30 C -92.333333,57.333333 -81,80 -63,98 C -50.333333,110.66667 -35.333333,119 -18,123 z M 16,87 C 13.333333,88.333333 8.6666667,89.666667 2,91 C -4,91 -7.6666667,90.666667 -9,90 C -13,88.666667 -18.333333,85.666667 -25,81 C -32.333333,72.333333 -38.333333,57.666667 -43,37 C -43.666667,29 -44,16.666667 -44,0 C -44,-16.666667 -43.666667,-28.666667 -43,-36 C -39,-57.333333 -33,-72.333333 -25,-81 L -16,-87 C -12,-89 -6.6666667,-90 0,-90 C 6.6666667,-90 12,-89 16,-87 L 25,-81 C 33,-72.333333 39,-57.333333 43,-36 C 43.666667,-28.666667 44,-16.666667 44,0 C 44,16.666667 43.666667,29 43,37 C 38.333333,57.666667 32.333333,72.333333 25,81 L 16,87 z " />
    </g>
    <g
       style="fill:url(#linearGradient3360);fill-opacity:1"
       id="g17617"
       transform="matrix(3.5745531,0,0,-3.5745531,649.89961,422.99978)">
      <path
         style="fill:url(#linearGradient3362);fill-opacity:1"
         id="path17619"
         d="M -18,123 C 5.3333333,128.33333 27.166667,124.33333 47.5,111 C 67.833333,97.666667 82.333333,77.666667 91,51 C 96.333333,38.333333 99,21.333333 99,0 C 99,-21.333333 96.333333,-38.333333 91,-51 C 79.666667,-85 60.333333,-107.66667 33,-119 L 25,-122 L 25,-151 L 25,-180 L 22,-186 C 16.666667,-196.66667 8.3333333,-201.33333 -3,-200 C -11.666667,-199.33333 -18.333333,-194.33333 -23,-185 C -24.333333,-181.66667 -25,-170.33333 -25,-151 L -24,-122 L -33,-119 C -43.666667,-114.33333 -53.666667,-107.66667 -63,-99 C -79,-83 -90.333333,-60 -97,-30 C -101,-10 -101,10 -97,30 C -92.333333,57.333333 -81,80 -63,98 C -50.333333,110.66667 -35.333333,119 -18,123 z M 16,87 C 13.333333,88.333333 8.6666667,89.666667 2,91 C -4,91 -7.6666667,90.666667 -9,90 C -13,88.666667 -18.333333,85.666667 -25,81 C -32.333333,72.333333 -38.333333,57.666667 -43,37 C -43.666667,29 -44,16.666667 -44,0 C -44,-16.666667 -43.666667,-28.666667 -43,-36 C -39,-57.333333 -33,-72.333333 -25,-81 L -16,-87 C -12,-89 -6.6666667,-90 0,-90 C 6.6666667,-90 12,-89 16,-87 L 25,-81 C 33,-72.333333 39,-57.333333 43,-36 C 43.666667,-28.666667 44,-16.666667 44,0 C 44,16.666667 43.666667,29 43,37 C 38.333333,57.666667 32.333333,72.333333 25,81 L 16,87 z " />
    </g>
  </g>
</svg>
