<?xml version="1.0" standalone="no"?>
<!DOCTYPE svg PUBLIC "-//W3C//DTD SVG 1.1//EN" "http://www.w3.org/Graphics/SVG/1.1/DTD/svg11.dtd" >
<svg viewBox="-251 -375 1000 1000">
  <g transform="matrix(1 0 0 -1 0 800)">
   <path fill="currentColor"
d="M-124 373q23 4 46 0q28 -6 51 -21q56 -39 64 -107q7 -59 -28 -75q-17 -9 -42 -3q-20 4 -33.5 20t-14.5 39q-2 26 11 47q11 16 22 22q7 3 3 11q-11 23 -38 33q-25 7 -45 -3q-37 -18 -37 -64q0 -50 31 -98q36 -57 118 -108q14 -9 16 -9l93 159l92 159h32h22.5t8 -0.5
t1.5 -1.5l-36 -62l-64 -111l-100 -171l18 -11q123 -73 164 -153q10 -24 14 -42q11 -50 -5 -96t-54 -75q-19 -15 -43 -21q-46 -13 -90 4.5t-70 59.5q-21 36 -21 76q0 45 29 59q17 9 43 3q20 -4 33 -20t14 -39q2 -26 -11 -47q-11 -16 -22 -22q-8 -3 -3 -10q10 -24 38 -34
q24 -7 46 3q36 18 36 64q0 50 -31 98q-36 57 -118 108l-15 9q-2 0 -93 -159l-92 -159h-33h-22.5t-8 0.5t-1.5 1.5l36 62l64 111l100 171l-18 11q-124 73 -164 154q-10 22 -14 41q-21 93 42 156q17 17 38 28q22 9 41 12zM153 94q19 7 32 -5q2 -2 8 -10q3 -6 3 -15
q0 -15 -8 -24q-9 -8 -23 -8q-15 0 -24 9q-14 14 -7 33q5 15 19 20zM-176 -33q19 7 32 -5q2 -2 8 -10q3 -6 3 -15q0 -15 -8 -24q-9 -8 -23 -8q-15 0 -24 9q-14 14 -7 33q5 15 19 20z" />
  </g>

</svg>
