<?xml version="1.0" standalone="no"?>
<!DOCTYPE svg PUBLIC "-//W3C//DTD SVG 1.1//EN" "http://www.w3.org/Graphics/SVG/1.1/DTD/svg11.dtd" >
<svg viewBox="-174 -200 1000 1000">
  <g transform="matrix(1 0 0 -1 0 800)">
   <path fill="currentColor"
d="M99 583q26 4 42 -1q27 -7 31 -19v-8q-6 -26 -38.5 -70.5t-49.5 -49.5q-4 -1 -9 3q-7 7 -25 13q-29 7 -73 -10q-24 -8 -49 -23l-7 -4l1 -6q3 -39 36 -72q19 -19 65 -42q31 -14 49 -31q25 -22 34 -54q20 -60 -21 -133q-25 -46 -58.5 -85t-60.5 -53q-12 -7 -12 4q0 6 3 16
q15 38 55 83q7 8 5 24q-6 38 -33 65q-17 16 -51 32q-45 22 -67 44q-28 28 -38 68q-4 25 1 50q7 36 36 83.5t67 85.5q37 36 92 64q47 22 75 26zM-139 46q14 5 29.5 -0.5t23.5 -18.5q11 -18 6 -39t-23 -30q-25 -13 -47.5 1t-22.5 41q0 35 34 46zM112 46q17 6 36 -4
q18 -9 23 -30t-6 -39q-13 -21 -39 -21t-40 21q-17 27 0 54q9 13 26 19z" />
  </g>

</svg>
