<?xml version="1.0" encoding="UTF-8" standalone="no"?>
<!-- Created with Inkscape (http://www.inkscape.org/) -->
<svg
   xmlns:dc="http://purl.org/dc/elements/1.1/"
   xmlns:cc="http://web.resource.org/cc/"
   xmlns:rdf="http://www.w3.org/1999/02/22-rdf-syntax-ns#"
   xmlns:svg="http://www.w3.org/2000/svg"
   xmlns="http://www.w3.org/2000/svg"
   xmlns:xlink="http://www.w3.org/1999/xlink"
   xmlns:sodipodi="http://sodipodi.sourceforge.net/DTD/sodipodi-0.dtd"
   xmlns:inkscape="http://www.inkscape.org/namespaces/inkscape"
   width="128"
   height="128"
   id="svg2228"
   sodipodi:version="0.32"
   inkscape:version="0.45"
   version="1.0"
   sodipodi:docname="flats1.svg"
   sodipodi:docbase="/home/matevz/canorus/trunk/src/ui/images"
   inkscape:output_extension="org.inkscape.output.svg.inkscape"
   sodipodi:modified="true">
  <defs
     id="defs2230">
    <linearGradient
       id="linearGradient22652">
      <stop
         style="stop-color:#000000;stop-opacity:1;"
         offset="0"
         id="stop22654" />
      <stop
         style="stop-color:#646464;stop-opacity:1;"
         offset="1"
         id="stop22656" />
    </linearGradient>
    <linearGradient
       inkscape:collect="always"
       xlink:href="#linearGradient22652"
       id="linearGradient5329"
       gradientUnits="userSpaceOnUse"
       x1="-30"
       y1="145"
       x2="200.09399"
       y2="145" />
    <linearGradient
       id="linearGradient52713">
      <stop
         style="stop-color:#000000;stop-opacity:1;"
         offset="0"
         id="stop52715" />
      <stop
         style="stop-color:#646464;stop-opacity:1;"
         offset="1"
         id="stop52717" />
    </linearGradient>
    <linearGradient
       inkscape:collect="always"
       xlink:href="#linearGradient52713"
       id="linearGradient52719"
       x1="0"
       y1="0.069219382"
       x2="275"
       y2="0.069219382"
       gradientUnits="userSpaceOnUse" />
    <linearGradient
       inkscape:collect="always"
       xlink:href="#linearGradient52713"
       id="linearGradient2411"
       gradientUnits="userSpaceOnUse"
       x1="0"
       y1="0.069219382"
       x2="275"
       y2="0.069219382" />
    <linearGradient
       inkscape:collect="always"
       xlink:href="#linearGradient52713"
       id="linearGradient2441"
       gradientUnits="userSpaceOnUse"
       x1="0"
       y1="0.069219382"
       x2="275"
       y2="0.069219382" />
    <linearGradient
       inkscape:collect="always"
       xlink:href="#linearGradient52713"
       id="linearGradient2455"
       gradientUnits="userSpaceOnUse"
       x1="0"
       y1="0.069219382"
       x2="275"
       y2="0.069219382" />
    <linearGradient
       inkscape:collect="always"
       xlink:href="#linearGradient52713"
       id="linearGradient2457"
       gradientUnits="userSpaceOnUse"
       x1="0"
       y1="0.069219382"
       x2="275"
       y2="0.069219382" />
    <linearGradient
       inkscape:collect="always"
       xlink:href="#linearGradient52713"
       id="linearGradient2461"
       gradientUnits="userSpaceOnUse"
       x1="0"
       y1="0.069219382"
       x2="275"
       y2="0.069219382" />
    <linearGradient
       inkscape:collect="always"
       xlink:href="#linearGradient52713"
       id="linearGradient2473"
       gradientUnits="userSpaceOnUse"
       x1="0"
       y1="0.069219382"
       x2="275"
       y2="0.069219382" />
    <linearGradient
       inkscape:collect="always"
       xlink:href="#linearGradient52713"
       id="linearGradient2477"
       gradientUnits="userSpaceOnUse"
       x1="0"
       y1="0.069219382"
       x2="275"
       y2="0.069219382" />
    <linearGradient
       inkscape:collect="always"
       xlink:href="#linearGradient52713"
       id="linearGradient2489"
       gradientUnits="userSpaceOnUse"
       x1="0"
       y1="0.069219382"
       x2="275"
       y2="0.069219382" />
    <linearGradient
       inkscape:collect="always"
       xlink:href="#linearGradient52713"
       id="linearGradient4449"
       x1="-198.31824"
       y1="-5.3166218"
       x2="285.95016"
       y2="-5.3166218"
       gradientUnits="userSpaceOnUse" />
    <linearGradient
       inkscape:collect="always"
       xlink:href="#linearGradient52713"
       id="linearGradient4537"
       gradientUnits="userSpaceOnUse"
       x1="0"
       y1="0.069219382"
       x2="275"
       y2="0.069219382" />
    <linearGradient
       inkscape:collect="always"
       xlink:href="#linearGradient52713"
       id="linearGradient4549"
       gradientUnits="userSpaceOnUse"
       x1="0"
       y1="0.069219382"
       x2="275"
       y2="0.069219382" />
    <linearGradient
       inkscape:collect="always"
       xlink:href="#linearGradient22652"
       id="linearGradient4551"
       gradientUnits="userSpaceOnUse"
       x1="-30"
       y1="145"
       x2="200.09399"
       y2="145" />
    <linearGradient
       inkscape:collect="always"
       xlink:href="#linearGradient52713"
       id="linearGradient4565"
       gradientUnits="userSpaceOnUse"
       x1="0"
       y1="0.069219382"
       x2="275"
       y2="0.069219382" />
    <linearGradient
       inkscape:collect="always"
       xlink:href="#linearGradient22652"
       id="linearGradient4567"
       gradientUnits="userSpaceOnUse"
       x1="-30"
       y1="145"
       x2="200.09399"
       y2="145" />
    <linearGradient
       inkscape:collect="always"
       xlink:href="#linearGradient52713"
       id="linearGradient4581"
       gradientUnits="userSpaceOnUse"
       x1="0"
       y1="0.069219382"
       x2="275"
       y2="0.069219382" />
    <linearGradient
       inkscape:collect="always"
       xlink:href="#linearGradient22652"
       id="linearGradient4583"
       gradientUnits="userSpaceOnUse"
       x1="-30"
       y1="145"
       x2="200.09399"
       y2="145" />
    <linearGradient
       inkscape:collect="always"
       xlink:href="#linearGradient52713"
       id="linearGradient5566"
       x1="-89.948082"
       y1="34.554489"
       x2="516.79303"
       y2="34.554489"
       gradientUnits="userSpaceOnUse"
       gradientTransform="matrix(1.4228448,0,0,1.4228448,-135.62415,-23.484674)" />
    <linearGradient
       y2="0.069219382"
       x2="275"
       y1="0.069219382"
       x1="0"
       gradientUnits="userSpaceOnUse"
       id="linearGradient2277"
       xlink:href="#linearGradient52713"
       inkscape:collect="always" />
    <linearGradient
       gradientTransform="matrix(0.8887233,0,0,0.8887233,297.32286,0.9052165)"
       y2="0.069219382"
       x2="275"
       y1="0.069219382"
       x1="0"
       gradientUnits="userSpaceOnUse"
       id="linearGradient4458"
       xlink:href="#linearGradient52713"
       inkscape:collect="always" />
    <linearGradient
       gradientUnits="userSpaceOnUse"
       y2="-5.3166218"
       x2="285.95016"
       y1="-5.3166218"
       x1="-198.31824"
       id="linearGradient2274"
       xlink:href="#linearGradient52713"
       inkscape:collect="always" />
    <linearGradient
       y2="0.069219382"
       x2="275"
       y1="0.069219382"
       x1="0"
       gradientUnits="userSpaceOnUse"
       id="linearGradient2272"
       xlink:href="#linearGradient52713"
       inkscape:collect="always" />
    <linearGradient
       y2="0.069219382"
       x2="275"
       y1="0.069219382"
       x1="0"
       gradientUnits="userSpaceOnUse"
       id="linearGradient2270"
       xlink:href="#linearGradient52713"
       inkscape:collect="always" />
    <linearGradient
       y2="0.069219382"
       x2="275"
       y1="0.069219382"
       x1="0"
       gradientUnits="userSpaceOnUse"
       id="linearGradient2268"
       xlink:href="#linearGradient52713"
       inkscape:collect="always" />
    <linearGradient
       y2="0.069219382"
       x2="275"
       y1="0.069219382"
       x1="0"
       gradientUnits="userSpaceOnUse"
       id="linearGradient2266"
       xlink:href="#linearGradient52713"
       inkscape:collect="always" />
    <linearGradient
       y2="0.069219382"
       x2="275"
       y1="0.069219382"
       x1="0"
       gradientUnits="userSpaceOnUse"
       id="linearGradient2264"
       xlink:href="#linearGradient52713"
       inkscape:collect="always" />
    <linearGradient
       y2="0.069219382"
       x2="275"
       y1="0.069219382"
       x1="0"
       gradientUnits="userSpaceOnUse"
       id="linearGradient2262"
       xlink:href="#linearGradient52713"
       inkscape:collect="always" />
    <linearGradient
       y2="0.069219382"
       x2="275"
       y1="0.069219382"
       x1="0"
       gradientUnits="userSpaceOnUse"
       id="linearGradient2260"
       xlink:href="#linearGradient52713"
       inkscape:collect="always" />
    <linearGradient
       y2="0.069219382"
       x2="275"
       y1="0.069219382"
       x1="0"
       gradientUnits="userSpaceOnUse"
       id="linearGradient2258"
       xlink:href="#linearGradient52713"
       inkscape:collect="always" />
    <linearGradient
       gradientUnits="userSpaceOnUse"
       y2="0.069219382"
       x2="275"
       y1="0.069219382"
       x1="0"
       id="linearGradient2256"
       xlink:href="#linearGradient52713"
       inkscape:collect="always" />
    <linearGradient
       id="linearGradient2250">
      <stop
         id="stop2252"
         offset="0"
         style="stop-color:#000000;stop-opacity:1;" />
      <stop
         id="stop2254"
         offset="1"
         style="stop-color:#646464;stop-opacity:1;" />
    </linearGradient>
    <linearGradient
       y2="145"
       x2="200.09399"
       y1="145"
       x1="-30"
       gradientUnits="userSpaceOnUse"
       id="linearGradient2248"
       xlink:href="#linearGradient22652"
       inkscape:collect="always" />
    <linearGradient
       id="linearGradient2242">
      <stop
         id="stop2244"
         offset="0"
         style="stop-color:#000000;stop-opacity:1;" />
      <stop
         id="stop2246"
         offset="1"
         style="stop-color:#646464;stop-opacity:1;" />
    </linearGradient>
    <linearGradient
       y2="145"
       x2="200.09399"
       y1="145"
       x1="-30"
       gradientUnits="userSpaceOnUse"
       id="linearGradient5331"
       xlink:href="#linearGradient22652"
       inkscape:collect="always" />
    <linearGradient
       inkscape:collect="always"
       xlink:href="#linearGradient52713"
       id="linearGradient2294"
       gradientUnits="userSpaceOnUse"
       x1="0"
       y1="0.069219382"
       x2="275"
       y2="0.069219382" />
    <linearGradient
       inkscape:collect="always"
       xlink:href="#linearGradient52713"
       id="linearGradient2296"
       gradientUnits="userSpaceOnUse"
       x1="0"
       y1="0.069219382"
       x2="275"
       y2="0.069219382" />
    <linearGradient
       y2="0.069219382"
       x2="275"
       y1="0.069219382"
       x1="0"
       gradientUnits="userSpaceOnUse"
       id="linearGradient2372"
       xlink:href="#linearGradient52713"
       inkscape:collect="always" />
    <linearGradient
       gradientTransform="matrix(0.8887233,0,0,0.8887233,297.32286,0.9052165)"
       y2="0.069219382"
       x2="275"
       y1="0.069219382"
       x1="0"
       gradientUnits="userSpaceOnUse"
       id="linearGradient2370"
       xlink:href="#linearGradient52713"
       inkscape:collect="always" />
    <linearGradient
       gradientUnits="userSpaceOnUse"
       y2="-5.3166218"
       x2="285.95016"
       y1="-5.3166218"
       x1="-198.31824"
       id="linearGradient2368"
       xlink:href="#linearGradient52713"
       inkscape:collect="always" />
    <linearGradient
       y2="0.069219382"
       x2="275"
       y1="0.069219382"
       x1="0"
       gradientUnits="userSpaceOnUse"
       id="linearGradient2366"
       xlink:href="#linearGradient52713"
       inkscape:collect="always" />
    <linearGradient
       y2="0.069219382"
       x2="275"
       y1="0.069219382"
       x1="0"
       gradientUnits="userSpaceOnUse"
       id="linearGradient2364"
       xlink:href="#linearGradient52713"
       inkscape:collect="always" />
    <linearGradient
       y2="0.069219382"
       x2="275"
       y1="0.069219382"
       x1="0"
       gradientUnits="userSpaceOnUse"
       id="linearGradient2362"
       xlink:href="#linearGradient52713"
       inkscape:collect="always" />
    <linearGradient
       y2="0.069219382"
       x2="275"
       y1="0.069219382"
       x1="0"
       gradientUnits="userSpaceOnUse"
       id="linearGradient2360"
       xlink:href="#linearGradient52713"
       inkscape:collect="always" />
    <linearGradient
       y2="0.069219382"
       x2="275"
       y1="0.069219382"
       x1="0"
       gradientUnits="userSpaceOnUse"
       id="linearGradient2358"
       xlink:href="#linearGradient52713"
       inkscape:collect="always" />
    <linearGradient
       y2="0.069219382"
       x2="275"
       y1="0.069219382"
       x1="0"
       gradientUnits="userSpaceOnUse"
       id="linearGradient2356"
       xlink:href="#linearGradient52713"
       inkscape:collect="always" />
    <linearGradient
       y2="0.069219382"
       x2="275"
       y1="0.069219382"
       x1="0"
       gradientUnits="userSpaceOnUse"
       id="linearGradient2354"
       xlink:href="#linearGradient52713"
       inkscape:collect="always" />
    <linearGradient
       y2="0.069219382"
       x2="275"
       y1="0.069219382"
       x1="0"
       gradientUnits="userSpaceOnUse"
       id="linearGradient2352"
       xlink:href="#linearGradient52713"
       inkscape:collect="always" />
    <linearGradient
       gradientUnits="userSpaceOnUse"
       y2="0.069219382"
       x2="275"
       y1="0.069219382"
       x1="0"
       id="linearGradient2350"
       xlink:href="#linearGradient52713"
       inkscape:collect="always" />
    <linearGradient
       id="linearGradient2344">
      <stop
         id="stop2346"
         offset="0"
         style="stop-color:#000000;stop-opacity:1;" />
      <stop
         id="stop2348"
         offset="1"
         style="stop-color:#646464;stop-opacity:1;" />
    </linearGradient>
    <linearGradient
       y2="145"
       x2="200.09399"
       y1="145"
       x1="-30"
       gradientUnits="userSpaceOnUse"
       id="linearGradient2342"
       xlink:href="#linearGradient22652"
       inkscape:collect="always" />
    <linearGradient
       id="linearGradient2336">
      <stop
         id="stop2338"
         offset="0"
         style="stop-color:#000000;stop-opacity:1;" />
      <stop
         id="stop2340"
         offset="1"
         style="stop-color:#646464;stop-opacity:1;" />
    </linearGradient>
    <linearGradient
       y2="145"
       x2="200.09399"
       y1="145"
       x1="-30"
       gradientUnits="userSpaceOnUse"
       id="linearGradient2334"
       xlink:href="#linearGradient22652"
       inkscape:collect="always" />
    <linearGradient
       inkscape:collect="always"
       xlink:href="#linearGradient52713"
       id="linearGradient2389"
       gradientUnits="userSpaceOnUse"
       x1="0"
       y1="0.069219382"
       x2="275"
       y2="0.069219382" />
    <linearGradient
       inkscape:collect="always"
       xlink:href="#linearGradient52713"
       id="linearGradient2391"
       gradientUnits="userSpaceOnUse"
       x1="0"
       y1="0.069219382"
       x2="275"
       y2="0.069219382" />
    <linearGradient
       inkscape:collect="always"
       xlink:href="#linearGradient52713"
       id="linearGradient2393"
       gradientUnits="userSpaceOnUse"
       x1="-198.31824"
       y1="-5.3166218"
       x2="285.95016"
       y2="-5.3166218" />
    <linearGradient
       inkscape:collect="always"
       xlink:href="#linearGradient52713"
       id="linearGradient2395"
       gradientUnits="userSpaceOnUse"
       x1="0"
       y1="0.069219382"
       x2="275"
       y2="0.069219382" />
    <linearGradient
       inkscape:collect="always"
       xlink:href="#linearGradient22652"
       id="linearGradient2397"
       gradientUnits="userSpaceOnUse"
       x1="-30"
       y1="145"
       x2="200.09399"
       y2="145" />
    <linearGradient
       inkscape:collect="always"
       xlink:href="#linearGradient22652"
       id="linearGradient2399"
       gradientUnits="userSpaceOnUse"
       x1="-30"
       y1="145"
       x2="200.09399"
       y2="145" />
    <linearGradient
       y2="0.069219382"
       x2="275"
       y1="0.069219382"
       x1="0"
       gradientUnits="userSpaceOnUse"
       id="linearGradient2476"
       xlink:href="#linearGradient52713"
       inkscape:collect="always" />
    <linearGradient
       gradientTransform="matrix(0.8887233,0,0,0.8887233,297.32286,0.9052165)"
       y2="0.069219382"
       x2="275"
       y1="0.069219382"
       x1="0"
       gradientUnits="userSpaceOnUse"
       id="linearGradient2474"
       xlink:href="#linearGradient52713"
       inkscape:collect="always" />
    <linearGradient
       gradientUnits="userSpaceOnUse"
       y2="-5.3166218"
       x2="285.95016"
       y1="-5.3166218"
       x1="-198.31824"
       id="linearGradient2472"
       xlink:href="#linearGradient52713"
       inkscape:collect="always" />
    <linearGradient
       y2="0.069219382"
       x2="275"
       y1="0.069219382"
       x1="0"
       gradientUnits="userSpaceOnUse"
       id="linearGradient2470"
       xlink:href="#linearGradient52713"
       inkscape:collect="always" />
    <linearGradient
       y2="0.069219382"
       x2="275"
       y1="0.069219382"
       x1="0"
       gradientUnits="userSpaceOnUse"
       id="linearGradient2468"
       xlink:href="#linearGradient52713"
       inkscape:collect="always" />
    <linearGradient
       y2="0.069219382"
       x2="275"
       y1="0.069219382"
       x1="0"
       gradientUnits="userSpaceOnUse"
       id="linearGradient2466"
       xlink:href="#linearGradient52713"
       inkscape:collect="always" />
    <linearGradient
       y2="0.069219382"
       x2="275"
       y1="0.069219382"
       x1="0"
       gradientUnits="userSpaceOnUse"
       id="linearGradient2464"
       xlink:href="#linearGradient52713"
       inkscape:collect="always" />
    <linearGradient
       y2="0.069219382"
       x2="275"
       y1="0.069219382"
       x1="0"
       gradientUnits="userSpaceOnUse"
       id="linearGradient2462"
       xlink:href="#linearGradient52713"
       inkscape:collect="always" />
    <linearGradient
       y2="0.069219382"
       x2="275"
       y1="0.069219382"
       x1="0"
       gradientUnits="userSpaceOnUse"
       id="linearGradient2460"
       xlink:href="#linearGradient52713"
       inkscape:collect="always" />
    <linearGradient
       y2="0.069219382"
       x2="275"
       y1="0.069219382"
       x1="0"
       gradientUnits="userSpaceOnUse"
       id="linearGradient2458"
       xlink:href="#linearGradient52713"
       inkscape:collect="always" />
    <linearGradient
       y2="0.069219382"
       x2="275"
       y1="0.069219382"
       x1="0"
       gradientUnits="userSpaceOnUse"
       id="linearGradient2456"
       xlink:href="#linearGradient52713"
       inkscape:collect="always" />
    <linearGradient
       gradientUnits="userSpaceOnUse"
       y2="0.069219382"
       x2="275"
       y1="0.069219382"
       x1="0"
       id="linearGradient2453"
       xlink:href="#linearGradient52713"
       inkscape:collect="always" />
    <linearGradient
       id="linearGradient2447">
      <stop
         id="stop2449"
         offset="0"
         style="stop-color:#000000;stop-opacity:1;" />
      <stop
         id="stop2451"
         offset="1"
         style="stop-color:#646464;stop-opacity:1;" />
    </linearGradient>
    <linearGradient
       y2="145"
       x2="200.09399"
       y1="145"
       x1="-30"
       gradientUnits="userSpaceOnUse"
       id="linearGradient2445"
       xlink:href="#linearGradient22652"
       inkscape:collect="always" />
    <linearGradient
       id="linearGradient2439">
      <stop
         id="stop2441"
         offset="0"
         style="stop-color:#000000;stop-opacity:1;" />
      <stop
         id="stop2443"
         offset="1"
         style="stop-color:#646464;stop-opacity:1;" />
    </linearGradient>
    <linearGradient
       y2="145"
       x2="200.09399"
       y1="145"
       x1="-30"
       gradientUnits="userSpaceOnUse"
       id="linearGradient2437"
       xlink:href="#linearGradient22652"
       inkscape:collect="always" />
    <linearGradient
       inkscape:collect="always"
       xlink:href="#linearGradient52713"
       id="linearGradient2493"
       gradientUnits="userSpaceOnUse"
       x1="0"
       y1="0.069219382"
       x2="275"
       y2="0.069219382" />
    <linearGradient
       inkscape:collect="always"
       xlink:href="#linearGradient52713"
       id="linearGradient2495"
       gradientUnits="userSpaceOnUse"
       x1="0"
       y1="0.069219382"
       x2="275"
       y2="0.069219382" />
    <linearGradient
       inkscape:collect="always"
       xlink:href="#linearGradient52713"
       id="linearGradient2497"
       gradientUnits="userSpaceOnUse"
       x1="-198.31824"
       y1="-5.3166218"
       x2="285.95016"
       y2="-5.3166218" />
    <linearGradient
       inkscape:collect="always"
       xlink:href="#linearGradient52713"
       id="linearGradient2499"
       gradientUnits="userSpaceOnUse"
       x1="0"
       y1="0.069219382"
       x2="275"
       y2="0.069219382" />
    <linearGradient
       inkscape:collect="always"
       xlink:href="#linearGradient22652"
       id="linearGradient2501"
       gradientUnits="userSpaceOnUse"
       x1="-30"
       y1="145"
       x2="200.09399"
       y2="145" />
    <linearGradient
       inkscape:collect="always"
       xlink:href="#linearGradient22652"
       id="linearGradient2503"
       gradientUnits="userSpaceOnUse"
       x1="-30"
       y1="145"
       x2="200.09399"
       y2="145" />
    <linearGradient
       inkscape:collect="always"
       xlink:href="#linearGradient52713"
       id="linearGradient2526"
       gradientUnits="userSpaceOnUse"
       x1="0"
       y1="0.069219382"
       x2="275"
       y2="0.069219382" />
    <linearGradient
       inkscape:collect="always"
       xlink:href="#linearGradient52713"
       id="linearGradient2528"
       gradientUnits="userSpaceOnUse"
       x1="-198.31824"
       y1="-5.3166218"
       x2="285.95016"
       y2="-5.3166218" />
    <linearGradient
       inkscape:collect="always"
       xlink:href="#linearGradient52713"
       id="linearGradient2530"
       gradientUnits="userSpaceOnUse"
       x1="0"
       y1="0.069219382"
       x2="275"
       y2="0.069219382" />
    <linearGradient
       inkscape:collect="always"
       xlink:href="#linearGradient22652"
       id="linearGradient2532"
       gradientUnits="userSpaceOnUse"
       x1="-30"
       y1="145"
       x2="200.09399"
       y2="145" />
    <linearGradient
       inkscape:collect="always"
       xlink:href="#linearGradient22652"
       id="linearGradient2534"
       gradientUnits="userSpaceOnUse"
       x1="-30"
       y1="145"
       x2="200.09399"
       y2="145" />
    <linearGradient
       inkscape:collect="always"
       xlink:href="#linearGradient52713"
       id="linearGradient2543"
       gradientUnits="userSpaceOnUse"
       x1="-198.31824"
       y1="-5.3166218"
       x2="285.95016"
       y2="-5.3166218"
       gradientTransform="matrix(0.1604136,0,0,0.1604136,176.9302,104.25833)" />
    <linearGradient
       inkscape:collect="always"
       xlink:href="#linearGradient52713"
       id="linearGradient2547"
       gradientUnits="userSpaceOnUse"
       x1="0"
       y1="0.069219382"
       x2="275"
       y2="0.069219382" />
    <linearGradient
       inkscape:collect="always"
       xlink:href="#linearGradient22652"
       id="linearGradient2549"
       gradientUnits="userSpaceOnUse"
       x1="-30"
       y1="145"
       x2="200.09399"
       y2="145" />
    <linearGradient
       inkscape:collect="always"
       xlink:href="#linearGradient22652"
       id="linearGradient2551"
       gradientUnits="userSpaceOnUse"
       x1="-30"
       y1="145"
       x2="200.09399"
       y2="145" />
  </defs>
  <sodipodi:namedview
     id="base"
     pagecolor="#ffffff"
     bordercolor="#666666"
     borderopacity="1.0"
     gridtolerance="10000"
     guidetolerance="10"
     objecttolerance="10"
     inkscape:pageopacity="0.0"
     inkscape:pageshadow="2"
     inkscape:zoom="2.8"
     inkscape:cx="99.419313"
     inkscape:cy="24.122249"
     inkscape:document-units="px"
     inkscape:current-layer="g50079"
     width="128px"
     height="128px"
     inkscape:window-width="1400"
     inkscape:window-height="982"
     inkscape:window-x="0"
     inkscape:window-y="0" />
  <metadata
     id="metadata2233">
    <rdf:RDF>
      <cc:Work
         rdf:about="">
        <dc:format>image/svg+xml</dc:format>
        <dc:type
           rdf:resource="http://purl.org/dc/dcmitype/StillImage" />
      </cc:Work>
    </rdf:RDF>
  </metadata>
  <g
     inkscape:label="Layer 1"
     inkscape:groupmode="layer"
     id="layer1">
    <g
       transform="matrix(0.1604136,0,0,-0.1604136,35.089847,63.762703)"
       id="g50079"
       style="fill:url(#linearGradient52719);fill-opacity:1"
       inkscape:export-filename="/home/matevz/apps/canorus/branches/matevz/src/fonts/sharp.png"
       inkscape:export-xdpi="90"
       inkscape:export-ydpi="90">
      <g
         style="fill:url(#linearGradient2547);fill-opacity:1"
         transform="matrix(4.6094943,0,0,-4.6094943,-65.154304,4245.4199)"
         id="g5323">
        <g
           transform="matrix(0.261038,0,0,-0.261038,42.72413,960.4302)"
           id="g20902"
           style="fill:#000000;fill-opacity:0.39215686"
           inkscape:export-filename="/home/matevz/apps/canorus/branches/matevz/src/fonts/flat.png"
           inkscape:export-xdpi="90"
           inkscape:export-ydpi="90">
          <path
             d="M -15,456 C -11,457 -4,458 0,458 C 12,458 30,452 30,448 C 30,447 28,377 27,291 C 25,205 23,130 23,123 L 23,111 L 30,117 C 40,125 45,128 56,133 C 73,142 91,147 111,148 C 128,148 140,145 155,137 C 162,133 174,120 180,112 C 194,92 201,64 200,39 C 198,9 186,-16 159,-44 C 144,-58 134,-66 100,-93 C 65,-120 56,-127 45,-142 C 33,-158 29,-162 23,-166 C 18,-168 16,-168 10,-168 C 3,-168 2,-168 -3,-165 C -9,-162 -14,-155 -15,-149 C -17,-144 -18,-95 -23,132 C -26,283 -29,416 -30,428 L -30,450 L -26,452 C -24,453 -19,455 -15,456 z M 96,99 C 85,104 69,102 58,95 C 48,88 39,73 35,57 C 31,41 29,-53 32,-81 C 33,-90 35,-97 35,-98 C 36,-100 76,-61 90,-44 C 113,-15 124,13 123,43 C 121,70 111,91 96,99 z "
             id="path20904"
             style="fill:#000000;fill-opacity:0.39215686" />
        </g>
        <g
           transform="matrix(0.261038,0,0,-0.261038,39.33159,957.5699)"
           id="g20891"
           style="fill:url(#linearGradient2549);fill-opacity:1"
           inkscape:export-filename="/home/matevz/apps/canorus/branches/matevz/src/fonts/flat.png"
           inkscape:export-xdpi="90"
           inkscape:export-ydpi="90">
          <path
             d="M -15,456 C -11,457 -4,458 0,458 C 12,458 30,452 30,448 C 30,447 28,377 27,291 C 25,205 23,130 23,123 L 23,111 L 30,117 C 40,125 45,128 56,133 C 73,142 91,147 111,148 C 128,148 140,145 155,137 C 162,133 174,120 180,112 C 194,92 201,64 200,39 C 198,9 186,-16 159,-44 C 144,-58 134,-66 100,-93 C 65,-120 56,-127 45,-142 C 33,-158 29,-162 23,-166 C 18,-168 16,-168 10,-168 C 3,-168 2,-168 -3,-165 C -9,-162 -14,-155 -15,-149 C -17,-144 -18,-95 -23,132 C -26,283 -29,416 -30,428 L -30,450 L -26,452 C -24,453 -19,455 -15,456 z M 96,99 C 85,104 69,102 58,95 C 48,88 39,73 35,57 C 31,41 29,-53 32,-81 C 33,-90 35,-97 35,-98 C 36,-100 76,-61 90,-44 C 113,-15 124,13 123,43 C 121,70 111,91 96,99 z "
             id="path20893"
             style="fill:url(#linearGradient2551);fill-opacity:1" />
        </g>
      </g>
    </g>
  </g>
</svg>
