<?xml version="1.0" encoding="UTF-8" standalone="no"?>
<!-- Created with Inkscape (http://www.inkscape.org/) -->
<svg
   xmlns:dc="http://purl.org/dc/elements/1.1/"
   xmlns:cc="http://web.resource.org/cc/"
   xmlns:rdf="http://www.w3.org/1999/02/22-rdf-syntax-ns#"
   xmlns:svg="http://www.w3.org/2000/svg"
   xmlns="http://www.w3.org/2000/svg"
   xmlns:xlink="http://www.w3.org/1999/xlink"
   xmlns:sodipodi="http://sodipodi.sourceforge.net/DTD/sodipodi-0.dtd"
   xmlns:inkscape="http://www.inkscape.org/namespaces/inkscape"
   width="128"
   height="128"
   id="svg2228"
   sodipodi:version="0.32"
   inkscape:version="0.45"
   version="1.0"
   sodipodi:docname="sharps6.svg"
   sodipodi:docbase="/home/matevz/canorus/trunk/src/ui/images"
   inkscape:output_extension="org.inkscape.output.svg.inkscape"
   sodipodi:modified="true">
  <defs
     id="defs2230">
    <linearGradient
       id="linearGradient52713">
      <stop
         style="stop-color:#000000;stop-opacity:1;"
         offset="0"
         id="stop52715" />
      <stop
         style="stop-color:#646464;stop-opacity:1;"
         offset="1"
         id="stop52717" />
    </linearGradient>
    <linearGradient
       inkscape:collect="always"
       xlink:href="#linearGradient52713"
       id="linearGradient52719"
       x1="0"
       y1="0.069219382"
       x2="275"
       y2="0.069219382"
       gradientUnits="userSpaceOnUse" />
    <linearGradient
       inkscape:collect="always"
       xlink:href="#linearGradient52713"
       id="linearGradient2411"
       gradientUnits="userSpaceOnUse"
       x1="0"
       y1="0.069219382"
       x2="275"
       y2="0.069219382" />
    <linearGradient
       inkscape:collect="always"
       xlink:href="#linearGradient52713"
       id="linearGradient2441"
       gradientUnits="userSpaceOnUse"
       x1="0"
       y1="0.069219382"
       x2="275"
       y2="0.069219382" />
    <linearGradient
       inkscape:collect="always"
       xlink:href="#linearGradient52713"
       id="linearGradient2455"
       gradientUnits="userSpaceOnUse"
       x1="0"
       y1="0.069219382"
       x2="275"
       y2="0.069219382" />
    <linearGradient
       inkscape:collect="always"
       xlink:href="#linearGradient52713"
       id="linearGradient2457"
       gradientUnits="userSpaceOnUse"
       x1="0"
       y1="0.069219382"
       x2="275"
       y2="0.069219382" />
    <linearGradient
       inkscape:collect="always"
       xlink:href="#linearGradient52713"
       id="linearGradient2461"
       gradientUnits="userSpaceOnUse"
       x1="0"
       y1="0.069219382"
       x2="275"
       y2="0.069219382" />
    <linearGradient
       inkscape:collect="always"
       xlink:href="#linearGradient52713"
       id="linearGradient2473"
       gradientUnits="userSpaceOnUse"
       x1="0"
       y1="0.069219382"
       x2="275"
       y2="0.069219382" />
    <linearGradient
       inkscape:collect="always"
       xlink:href="#linearGradient52713"
       id="linearGradient2475"
       gradientUnits="userSpaceOnUse"
       x1="0"
       y1="0.069219382"
       x2="275"
       y2="0.069219382" />
    <linearGradient
       inkscape:collect="always"
       xlink:href="#linearGradient52713"
       id="linearGradient2477"
       gradientUnits="userSpaceOnUse"
       x1="0"
       y1="0.069219382"
       x2="275"
       y2="0.069219382" />
    <linearGradient
       inkscape:collect="always"
       xlink:href="#linearGradient52713"
       id="linearGradient2489"
       gradientUnits="userSpaceOnUse"
       x1="0"
       y1="0.069219382"
       x2="275"
       y2="0.069219382" />
    <linearGradient
       inkscape:collect="always"
       xlink:href="#linearGradient52713"
       id="linearGradient4449"
       x1="-198.31824"
       y1="-5.3166218"
       x2="285.95016"
       y2="-5.3166218"
       gradientUnits="userSpaceOnUse" />
    <linearGradient
       inkscape:collect="always"
       xlink:href="#linearGradient52713"
       id="linearGradient4458"
       gradientUnits="userSpaceOnUse"
       x1="0"
       y1="0.069219382"
       x2="275"
       y2="0.069219382"
       gradientTransform="matrix(0.8887233,0,0,0.8887233,297.32286,0.9052165)" />
  </defs>
  <sodipodi:namedview
     id="base"
     pagecolor="#ffffff"
     bordercolor="#666666"
     borderopacity="1.0"
     gridtolerance="10000"
     guidetolerance="10"
     objecttolerance="10"
     inkscape:pageopacity="0.0"
     inkscape:pageshadow="2"
     inkscape:zoom="2.8"
     inkscape:cx="166.53992"
     inkscape:cy="41.721124"
     inkscape:document-units="px"
     inkscape:current-layer="g50079"
     width="128px"
     height="128px"
     inkscape:window-width="1400"
     inkscape:window-height="982"
     inkscape:window-x="0"
     inkscape:window-y="0" />
  <metadata
     id="metadata2233">
    <rdf:RDF>
      <cc:Work
         rdf:about="">
        <dc:format>image/svg+xml</dc:format>
        <dc:type
           rdf:resource="http://purl.org/dc/dcmitype/StillImage" />
      </cc:Work>
    </rdf:RDF>
  </metadata>
  <g
     inkscape:label="Layer 1"
     inkscape:groupmode="layer"
     id="layer1">
    <rect
       style="opacity:1;fill:none;fill-opacity:0.39215686;fill-rule:nonzero;stroke:none;stroke-width:4;stroke-linecap:round;stroke-linejoin:round;stroke-miterlimit:4;stroke-dasharray:none;stroke-dashoffset:0;stroke-opacity:1"
       id="rect50088"
       width="118.11588"
       height="118.11588"
       x="-11.041333"
       y="9.6484718"
       inkscape:export-filename="/home/matevz/apps/canorus/branches/matevz/src/fonts/sharp.png"
       inkscape:export-xdpi="90"
       inkscape:export-ydpi="90" />
    <g
       transform="matrix(0.1604136,0,0,-0.1604136,35.089847,63.762703)"
       id="g50079"
       style="fill:url(#linearGradient52719);fill-opacity:1"
       inkscape:export-filename="/home/matevz/apps/canorus/branches/matevz/src/fonts/sharp.png"
       inkscape:export-xdpi="90"
       inkscape:export-ydpi="90">
      <text
         xml:space="preserve"
         style="font-size:842.20593262px;font-style:normal;font-variant:normal;font-weight:300;font-stretch:normal;text-align:start;line-height:125%;writing-mode:lr-tb;text-anchor:start;fill:#000000;fill-opacity:0.39166667;stroke:none;stroke-width:1px;stroke-linecap:butt;stroke-linejoin:miter;stroke-opacity:1;font-family:URW Bookman L"
         x="-208.08977"
         y="290.92206"
         id="text4451"
         transform="scale(1,-1)"
         sodipodi:linespacing="125%"><tspan
           sodipodi:role="line"
           id="tspan4453"
           x="-208.08977"
           y="290.92206"
           style="fill:#000000;fill-opacity:0.39166667">7</tspan></text>
      <text
         xml:space="preserve"
         style="font-size:842.20593262px;font-style:normal;font-variant:normal;font-weight:300;font-stretch:normal;text-align:start;line-height:125%;writing-mode:lr-tb;text-anchor:start;fill:url(#linearGradient4449);fill-opacity:1;stroke:none;stroke-width:1px;stroke-linecap:butt;stroke-linejoin:miter;stroke-opacity:1;font-family:URW Bookman L"
         x="-219.37338"
         y="281.4545"
         id="text3466"
         transform="scale(1,-1)"
         sodipodi:linespacing="125%"><tspan
           sodipodi:role="line"
           id="tspan3468"
           x="-219.37338"
           y="281.4545"
           style="fill:url(#linearGradient4449);fill-opacity:1">7</tspan></text>
      <g
         transform="matrix(0.8887233,0,0,0.8887233,310.34968,-6.8825307)"
         id="g50963"
         style="fill:#000000;fill-opacity:0.39215686"
         inkscape:export-filename="/home/matevz/apps/canorus/branches/matevz/src/fonts/sharp.png"
         inkscape:export-xdpi="90"
         inkscape:export-ydpi="90">
        <path
           d="M 188,372 C 194,376 200,376 206,373 C 212,370 214,368 217,363 L 219,358 L 219,291 L 219,225 L 231,231 C 242,236 243,236 250,236 C 256,236 258,236 262,234 C 268,230 273,224 274,219 C 275,216 275,203 275,182 L 275,150 L 272,145 C 270,143 268,139 267,138 C 265,137 254,131 242,126 L 220,115 L 219,39 L 219,-38 L 231,-32 C 242,-27 243,-27 250,-27 C 256,-27 258,-27 262,-29 C 268,-33 273,-39 274,-44 C 275,-47 275,-60 275,-81 L 275,-113 L 272,-118 C 270,-120 268,-124 267,-125 C 265,-126 254,-132 242,-137 L 220,-148 L 219,-231 L 219,-315 L 215,-319 C 212,-324 204,-329 198,-329 C 193,-329 184,-325 182,-322 C 181,-321 179,-318 178,-316 C 176,-312 176,-310 176,-240 L 176,-168 L 138,-186 L 100,-204 L 99,-282 L 99,-361 L 95,-365 C 92,-370 84,-375 78,-375 C 73,-375 66,-372 63,-369 C 62,-368 60,-365 58,-362 L 56,-357 L 56,-291 L 56,-224 L 44,-230 C 33,-235 32,-235 25,-235 C 19,-235 17,-235 13,-233 C 7,-229 2,-223 1,-218 C 0,-215 0,-202 0,-181 L 1,-148 L 3,-144 C 5,-142 7,-138 8,-137 C 10,-136 21,-130 33,-125 L 56,-114 L 56,-38 L 56,39 L 44,33 C 33,28 32,28 25,28 C 19,28 17,28 13,30 C 7,34 2,40 1,45 C 0,48 0,61 0,82 L 1,115 L 3,119 C 5,121 7,125 8,126 C 10,127 21,133 33,138 L 56,149 L 56,232 L 57,315 L 60,319 C 63,324 71,329 77,329 C 82,329 89,326 92,323 C 93,322 95,319 97,317 L 99,312 L 99,240 L 99,169 L 137,187 L 176,205 L 176,283 L 177,361 L 180,365 C 181,368 184,370 188,372 z M 175,-58 C 176,-58 176,-42 176,19 L 176,95 L 138,77 L 100,59 L 99,-17 L 99,-94 L 136,-76 C 157,-67 174,-59 175,-58 z "
           id="path50965"
           style="fill:#000000;fill-opacity:0.39215686" />
      </g>
      <path
         d="M 464.40284,331.51028 C 469.73518,335.06518 475.06752,335.06518 480.39986,332.39901 C 485.7322,329.73284 487.50965,327.95539 490.17582,323.51177 L 491.95326,319.06816 L 491.95326,259.5237 L 491.95326,200.86796 L 502.61794,206.2003 C 512.3939,210.64392 513.28262,210.64392 519.50369,210.64392 C 524.83602,210.64392 526.61347,210.64392 530.16836,208.86647 C 535.5007,205.31158 539.94432,199.97924 540.83304,195.53562 C 541.72177,192.86945 541.72177,181.31605 541.72177,162.65286 L 541.72177,134.21371 L 539.0556,129.77009 C 537.27815,127.99265 535.5007,124.43776 534.61198,123.54903 C 532.83453,122.66031 523.05858,117.32797 512.3939,112.88435 L 492.84199,103.1084 L 491.95326,35.565425 L 491.95326,-32.866269 L 502.61794,-27.533929 C 512.3939,-23.090313 513.28262,-23.090313 519.50369,-23.090313 C 524.83602,-23.090313 526.61347,-23.090313 530.16836,-24.867759 C 535.5007,-28.422652 539.94432,-33.754992 540.83304,-38.198609 C 541.72177,-40.864779 541.72177,-52.418182 541.72177,-71.081371 L 541.72177,-99.520516 L 539.0556,-103.96413 C 537.27815,-105.74158 535.5007,-109.29647 534.61198,-110.1852 C 532.83453,-111.07392 523.05858,-116.40626 512.3939,-120.84988 L 492.84199,-130.62583 L 491.95326,-204.38987 L 491.95326,-279.04262 L 488.39837,-282.59752 C 485.7322,-287.04113 478.62241,-291.48475 473.29007,-291.48475 C 468.84646,-291.48475 460.84795,-287.92986 459.0705,-285.26369 C 458.18178,-284.37496 456.40433,-281.70879 455.51561,-279.93135 C 453.73816,-276.37645 453.73816,-274.59901 453.73816,-212.38838 L 453.73816,-148.4003 L 419.96668,-164.39732 L 386.19519,-180.39434 L 385.30647,-249.71475 L 385.30647,-319.92389 L 381.75157,-323.47879 C 379.0854,-327.9224 371.97562,-332.36602 366.64328,-332.36602 C 362.19966,-332.36602 355.9786,-329.69985 353.31243,-327.03368 C 352.4237,-326.14496 350.64626,-323.47879 348.86881,-320.81262 L 347.09136,-316.369 L 347.09136,-257.71326 L 347.09136,-198.1688 L 336.42669,-203.50114 C 326.65073,-207.94476 325.76201,-207.94476 319.54094,-207.94476 C 314.2086,-207.94476 312.43116,-207.94476 308.87626,-206.16731 C 303.54392,-202.61242 299.10031,-197.28008 298.21158,-192.83646 C 297.32286,-190.17029 297.32286,-178.61689 297.32286,-159.9537 L 298.21158,-130.62583 L 299.98903,-127.07094 C 301.76648,-125.29349 303.54392,-121.7386 304.43265,-120.84988 C 306.21009,-119.96115 315.98605,-114.62881 326.65073,-110.1852 L 347.09136,-100.40924 L 347.09136,-32.866269 L 347.09136,35.565425 L 336.42669,30.233085 C 326.65073,25.789469 325.76201,25.789469 319.54094,25.789469 C 314.2086,25.789469 312.43116,25.789469 308.87626,27.566916 C 303.54392,31.121809 299.10031,36.454149 298.21158,40.897765 C 297.32286,43.563935 297.32286,55.117338 297.32286,73.780527 L 298.21158,103.1084 L 299.98903,106.66329 C 301.76648,108.44074 303.54392,111.99563 304.43265,112.88435 C 306.21009,113.77308 315.98605,119.10542 326.65073,123.54903 L 347.09136,133.32499 L 347.09136,207.08902 L 347.98009,280.85306 L 350.64626,284.40795 C 353.31243,288.85157 360.42221,293.29518 365.75455,293.29518 C 370.19817,293.29518 376.41923,290.62901 379.0854,287.96284 C 379.97413,287.07412 381.75157,284.40795 383.52902,282.6305 L 385.30647,278.18689 L 385.30647,214.19881 L 385.30647,151.09945 L 419.07795,167.09647 L 453.73816,183.09349 L 453.73816,252.41391 L 454.62688,321.73433 L 457.29305,325.28922 C 458.18178,327.95539 460.84795,329.73284 464.40284,331.51028 z M 452.84944,-50.640735 C 453.73816,-50.640735 453.73816,-36.421162 453.73816,17.790959 L 453.73816,85.33393 L 419.96668,69.336911 L 386.19519,53.339891 L 385.30647,-14.20308 L 385.30647,-82.634774 L 418.18923,-66.637754 C 436.85242,-58.639245 451.96071,-51.529458 452.84944,-50.640735 z "
         id="path50081"
         style="fill:url(#linearGradient4458);fill-opacity:1" />
    </g>
  </g>
</svg>
