<?xml version="1.0" encoding="UTF-8" standalone="no"?>
<!-- Created with Inkscape (http://www.inkscape.org/) -->
<svg
   xmlns:dc="http://purl.org/dc/elements/1.1/"
   xmlns:cc="http://web.resource.org/cc/"
   xmlns:rdf="http://www.w3.org/1999/02/22-rdf-syntax-ns#"
   xmlns:svg="http://www.w3.org/2000/svg"
   xmlns="http://www.w3.org/2000/svg"
   xmlns:xlink="http://www.w3.org/1999/xlink"
   xmlns:sodipodi="http://sodipodi.sourceforge.net/DTD/sodipodi-0.dtd"
   xmlns:inkscape="http://www.inkscape.org/namespaces/inkscape"
   width="128"
   height="128"
   id="svg2"
   sodipodi:version="0.32"
   inkscape:version="0.45.1"
   sodipodi:docname="bookmark.svg"
   sodipodi:docbase="/home/matevz/canorus/trunk/src/ui/images/mark"
   inkscape:output_extension="org.inkscape.output.svg.inkscape"
   version="1.0">
  <defs
     id="defs4">
    <linearGradient
       id="linearGradient5502">
      <stop
         style="stop-color:#ffff00;stop-opacity:1;"
         offset="0"
         id="stop5504" />
      <stop
         style="stop-color:#ff9300;stop-opacity:1;"
         offset="1"
         id="stop5506" />
    </linearGradient>
    <linearGradient
       inkscape:collect="always"
       xlink:href="#linearGradient5502"
       id="linearGradient5508"
       x1="16.820236"
       y1="42.482235"
       x2="119.55035"
       y2="42.482235"
       gradientUnits="userSpaceOnUse" />
    <linearGradient
       inkscape:collect="always"
       xlink:href="#linearGradient5502"
       id="linearGradient6487"
       gradientUnits="userSpaceOnUse"
       x1="16.820236"
       y1="42.482235"
       x2="119.55035"
       y2="42.482235" />
  </defs>
  <sodipodi:namedview
     id="base"
     pagecolor="#ffffff"
     bordercolor="#666666"
     borderopacity="1.0"
     gridtolerance="10000"
     guidetolerance="10"
     objecttolerance="10"
     inkscape:pageopacity="0.0"
     inkscape:pageshadow="2"
     inkscape:zoom="3.959798"
     inkscape:cx="60.745269"
     inkscape:cy="33.833163"
     inkscape:document-units="px"
     inkscape:current-layer="layer1"
     inkscape:window-width="1400"
     inkscape:window-height="974"
     inkscape:window-x="56"
     inkscape:window-y="147"
     width="128px"
     height="128px" />
  <metadata
     id="metadata7">
    <rdf:RDF>
      <cc:Work
         rdf:about="">
        <dc:format>image/svg+xml</dc:format>
        <dc:type
           rdf:resource="http://purl.org/dc/dcmitype/StillImage" />
      </cc:Work>
    </rdf:RDF>
  </metadata>
  <g
     inkscape:label="Layer 1"
     inkscape:groupmode="layer"
     id="layer1">
    <g
       id="g6483"
       transform="translate(-0.2709548,3.5076193)">
      <path
         transform="translate(-1.7677662,18.847696)"
         d="M 68.185297,-6.6028252 C 76.278617,-6.6028252 80.323505,16.711805 86.871139,21.46894 C 93.418773,26.226075 116.84224,22.868377 119.34322,30.565582 C 121.84419,38.262788 100.9206,49.314322 98.419626,57.011527 C 95.918652,64.708733 106.35026,85.948192 99.802629,90.705326 C 93.254995,95.462461 76.278616,78.978054 68.185295,78.978054 C 60.091974,78.978054 43.115593,95.462459 36.567959,90.705325 C 30.020325,85.94819 40.451938,64.708733 37.950965,57.011527 C 35.449991,49.314321 14.5264,38.262785 17.027373,30.56558 C 19.528347,22.868374 42.951817,26.226074 49.499451,21.46894 C 56.047085,16.711805 60.091976,-6.6028251 68.185297,-6.6028252 z "
         inkscape:randomized="0"
         inkscape:rounded="0.24"
         inkscape:flatsided="false"
         sodipodi:arg2="-0.9424778"
         sodipodi:arg1="-1.5707963"
         sodipodi:r2="31.790257"
         sodipodi:r1="53.790623"
         sodipodi:cy="47.187798"
         sodipodi:cx="68.185295"
         sodipodi:sides="5"
         id="path5510"
         style="fill:#000000;fill-opacity:0.39215686;stroke:none;stroke-width:5;stroke-linecap:round;stroke-linejoin:round;stroke-miterlimit:4;stroke-dasharray:none;stroke-opacity:1"
         sodipodi:type="star" />
      <path
         transform="translate(-6.0609152,17.172593)"
         d="M 68.185297,-6.6028252 C 76.278617,-6.6028252 80.323505,16.711805 86.871139,21.46894 C 93.418773,26.226075 116.84224,22.868377 119.34322,30.565582 C 121.84419,38.262788 100.9206,49.314322 98.419626,57.011527 C 95.918652,64.708733 106.35026,85.948192 99.802629,90.705326 C 93.254995,95.462461 76.278616,78.978054 68.185295,78.978054 C 60.091974,78.978054 43.115593,95.462459 36.567959,90.705325 C 30.020325,85.94819 40.451938,64.708733 37.950965,57.011527 C 35.449991,49.314321 14.5264,38.262785 17.027373,30.56558 C 19.528347,22.868374 42.951817,26.226074 49.499451,21.46894 C 56.047085,16.711805 60.091976,-6.6028251 68.185297,-6.6028252 z "
         inkscape:randomized="0"
         inkscape:rounded="0.24"
         inkscape:flatsided="false"
         sodipodi:arg2="-0.9424778"
         sodipodi:arg1="-1.5707963"
         sodipodi:r2="31.790257"
         sodipodi:r1="53.790623"
         sodipodi:cy="47.187798"
         sodipodi:cx="68.185295"
         sodipodi:sides="5"
         id="path4531"
         style="fill:url(#linearGradient6487);fill-opacity:1;stroke:none;stroke-width:5;stroke-linecap:round;stroke-linejoin:round;stroke-miterlimit:4;stroke-dasharray:none;stroke-opacity:1"
         sodipodi:type="star" />
    </g>
  </g>
</svg>
