<?xml version="1.0" encoding="UTF-8" standalone="no"?>
<!-- Created with Inkscape (http://www.inkscape.org/) -->
<svg
   xmlns:dc="http://purl.org/dc/elements/1.1/"
   xmlns:cc="http://creativecommons.org/ns#"
   xmlns:rdf="http://www.w3.org/1999/02/22-rdf-syntax-ns#"
   xmlns:svg="http://www.w3.org/2000/svg"
   xmlns="http://www.w3.org/2000/svg"
   xmlns:xlink="http://www.w3.org/1999/xlink"
   xmlns:sodipodi="http://sodipodi.sourceforge.net/DTD/sodipodi-0.dtd"
   xmlns:inkscape="http://www.inkscape.org/namespaces/inkscape"
   width="128"
   height="128"
   id="svg2545"
   sodipodi:version="0.32"
   inkscape:version="0.46"
   version="1.0"
   sodipodi:docbase="/home/matevz/canorus/artwork/icons/scalable"
   sodipodi:docname="triplet.svg"
   inkscape:output_extension="org.inkscape.output.svg.inkscape"
   sodipodi:modified="true">
  <defs
     id="defs2547">
    <inkscape:perspective
       sodipodi:type="inkscape:persp3d"
       inkscape:vp_x="0 : 64 : 1"
       inkscape:vp_y="0 : 1000 : 0"
       inkscape:vp_z="128 : 64 : 1"
       inkscape:persp3d-origin="64 : 42.666667 : 1"
       id="perspective2568" />
    <linearGradient
       id="linearGradient36148">
      <stop
         style="stop-color:#000000;stop-opacity:1;"
         offset="0"
         id="stop36150" />
      <stop
         style="stop-color:#646464;stop-opacity:1;"
         offset="1"
         id="stop36152" />
    </linearGradient>
    <linearGradient
       inkscape:collect="always"
       xlink:href="#linearGradient36148"
       id="linearGradient5087"
       gradientUnits="userSpaceOnUse"
       gradientTransform="matrix(0.3500214,0,0,0.3500214,-1.2839383,-261.93483)"
       x1="54.073642"
       y1="922.13912"
       x2="108.13371"
       y2="922.13912" />
    <linearGradient
       inkscape:collect="always"
       xlink:href="#linearGradient36148"
       id="linearGradient8032"
       gradientUnits="userSpaceOnUse"
       x1="18.440359"
       y1="112.94498"
       x2="86.473923"
       y2="112.94498" />
    <linearGradient
       inkscape:collect="always"
       xlink:href="#linearGradient36148"
       id="linearGradient8034"
       gradientUnits="userSpaceOnUse"
       x1="18.440359"
       y1="112.94498"
       x2="86.473923"
       y2="112.94498" />
    <linearGradient
       inkscape:collect="always"
       xlink:href="#linearGradient36148"
       id="linearGradient8066"
       gradientUnits="userSpaceOnUse"
       gradientTransform="matrix(0.3500214,0,0,0.3500214,-1.2839383,-261.93483)"
       x1="54.073642"
       y1="922.13912"
       x2="108.13371"
       y2="922.13912" />
    <linearGradient
       inkscape:collect="always"
       xlink:href="#linearGradient36148"
       id="linearGradient4656"
       gradientUnits="userSpaceOnUse"
       gradientTransform="matrix(0.4711794,0,0,0.4711794,64.406445,-352.53482)"
       x1="54.073642"
       y1="922.13912"
       x2="108.13371"
       y2="922.13912" />
    <linearGradient
       inkscape:collect="always"
       xlink:href="#linearGradient36148"
       id="linearGradient4669"
       x1="54.184288"
       y1="19.195999"
       x2="73.672287"
       y2="19.195999"
       gradientUnits="userSpaceOnUse"
       gradientTransform="translate(2.0203051,0)" />
    <linearGradient
       inkscape:collect="always"
       xlink:href="#linearGradient36148"
       id="linearGradient4677"
       gradientUnits="userSpaceOnUse"
       gradientTransform="translate(2.0203051,0)"
       x1="54.184288"
       y1="19.195999"
       x2="73.672287"
       y2="19.195999" />
  </defs>
  <sodipodi:namedview
     id="base"
     pagecolor="#ffffff"
     bordercolor="#666666"
     borderopacity="1.0"
     gridtolerance="10000"
     guidetolerance="10"
     objecttolerance="10"
     inkscape:pageopacity="0.0"
     inkscape:pageshadow="2"
     inkscape:zoom="2.8"
     inkscape:cx="28.332624"
     inkscape:cy="30.596032"
     inkscape:document-units="px"
     inkscape:current-layer="layer1"
     width="128px"
     height="128px"
     showguides="true"
     inkscape:guide-bbox="true"
     inkscape:window-width="1600"
     inkscape:window-height="1140"
     inkscape:window-x="0"
     inkscape:window-y="0"
     showgrid="false" />
  <metadata
     id="metadata2550">
    <rdf:RDF>
      <cc:Work
         rdf:about="">
        <dc:format>image/svg+xml</dc:format>
        <dc:type
           rdf:resource="http://purl.org/dc/dcmitype/StillImage" />
      </cc:Work>
    </rdf:RDF>
  </metadata>
  <g
     inkscape:label="Layer 1"
     inkscape:groupmode="layer"
     id="layer1">
    <g
       id="g5083"
       transform="matrix(1.0925055,0,0,1.0925055,-13.06391,22.967192)">
      <path
         style="fill:#000000;fill-opacity:0.39215686"
         sodipodi:nodetypes="cscccccccccccssc"
         id="path36146"
         d="M 35.810353,33.111186 C 35.46385,33.203557 35.339473,33.421655 35.185351,33.580974 C 35.002686,33.769804 34.8909,34.261738 34.895713,34.524412 L 34.895713,75.713715 C 34.64236,75.145605 34.224196,74.677135 33.177843,74.339095 C 32.142477,74.051495 30.546606,73.862075 29.396202,73.977095 C 25.197213,74.437245 20.874655,77.423985 19.091523,81.047805 C 18.516319,82.255695 18.296446,83.115395 18.238924,84.208255 C 18.181405,85.991405 18.872329,87.597585 20.252821,88.632975 C 20.712983,89.035605 21.751591,89.504115 22.384315,89.676675 C 27.216031,91.114665 33.874627,87.773225 36.290484,82.826475 C 36.865688,81.676065 37.100259,80.817685 37.157785,79.724765 L 37.128383,34.110784 C 37.133315,33.842405 37.024182,33.580285 36.834383,33.390486 C 36.644583,33.200697 36.397157,33.106254 36.128785,33.111186 C 36.087742,33.111792 35.897113,33.095229 35.810353,33.111186 z" />
      <path
         style="fill:url(#linearGradient5087);fill-opacity:1"
         sodipodi:nodetypes="cscccccccccccssc"
         id="path34228"
         d="M 35.217739,32.386201 C 34.871235,32.478572 34.746859,32.69667 34.592738,32.855989 C 34.410072,33.044819 34.298286,33.536753 34.303098,33.799426 L 34.303098,74.988735 C 34.049746,74.420625 33.631583,73.952155 32.58523,73.614105 C 31.549863,73.326505 29.953993,73.137095 28.803586,73.252105 C 24.604597,73.712255 20.282041,76.699005 18.498908,80.322815 C 17.923705,81.530705 17.703831,82.390415 17.64631,83.483285 C 17.58879,85.266425 18.279716,86.872605 19.660206,87.907995 C 20.120369,88.310615 21.158976,88.779105 21.791701,88.951665 C 26.623415,90.389665 33.282012,87.048255 35.697871,82.101495 C 36.273075,80.951075 36.507645,80.092695 36.565171,78.999775 L 36.535769,33.385799 C 36.540701,33.11742 36.431568,32.8553 36.241769,32.665501 C 36.05197,32.475712 35.804543,32.381269 35.536171,32.386201 C 35.495128,32.386807 35.304499,32.370243 35.217739,32.386201 z" />
    </g>
    <g
       id="g4659"
       transform="matrix(0.8115811,0,0,0.8115811,26.801057,22.856479)">
      <path
         style="fill:#000000;fill-opacity:0.39215686"
         sodipodi:nodetypes="cscccccccccccssc"
         id="path5091"
         d="M 114.34072,44.639747 C 113.87428,44.764092 113.70685,45.057683 113.49938,45.272149 C 113.25348,45.526342 113.103,46.188556 113.10948,46.542153 L 113.10948,101.98891 C 112.76843,101.22415 112.20552,100.59352 110.79698,100.13847 C 109.40323,99.751319 107.25496,99.496332 105.70635,99.651166 C 100.0539,100.27059 94.235113,104.29118 91.83476,109.16936 C 91.060452,110.79536 90.764471,111.95264 90.687038,113.42379 C 90.609609,115.82416 91.539693,117.98631 93.398035,119.3801 C 94.017479,119.9221 95.415596,120.55278 96.267334,120.78507 C 102.77152,122.72081 111.73495,118.22275 114.98705,111.56371 C 115.76135,110.01509 116.07712,108.85959 116.15456,107.38836 L 116.11498,45.98535 C 116.12162,45.624073 115.97471,45.271222 115.71921,45.015725 C 115.46371,44.760242 115.13064,44.633108 114.76938,44.639747 C 114.71413,44.640563 114.45751,44.618266 114.34072,44.639747 z" />
      <path
         style="fill:url(#linearGradient4656);fill-opacity:1"
         sodipodi:nodetypes="cscccccccccccssc"
         id="path5093"
         d="M 113.54298,43.663812 C 113.07653,43.788157 112.9091,44.081748 112.70163,44.296215 C 112.45574,44.550407 112.30526,45.212622 112.31174,45.566217 L 112.31174,101.01298 C 111.97069,100.24822 111.40778,99.617593 109.99924,99.162529 C 108.60549,98.775377 106.45721,98.520404 104.9086,98.675224 C 99.256154,99.294653 93.437369,103.31525 91.037014,108.19342 C 90.262708,109.81942 89.966726,110.97671 89.889294,112.44787 C 89.811864,114.84824 90.74195,117.01039 92.600289,118.40417 C 93.219735,118.94615 94.61785,119.57681 95.469589,119.8091 C 101.97377,121.74486 110.93721,117.24684 114.1893,110.58778 C 114.96361,109.03915 115.27938,107.88365 115.35681,106.41242 L 115.31724,45.009416 C 115.32387,44.648139 115.17697,44.295287 114.92147,44.039791 C 114.66597,43.784307 114.3329,43.657173 113.97163,43.663812 C 113.91638,43.664628 113.65977,43.642331 113.54298,43.663812 z" />
    </g>
    <g
       id="g8060"
       transform="matrix(1.0925055,0,0,1.0925055,33.705452,22.841957)">
      <path
         style="fill:#000000;fill-opacity:0.39215686"
         sodipodi:nodetypes="cscccccccccccssc"
         id="path8062"
         d="M 35.810353,33.111186 C 35.46385,33.203557 35.339473,33.421655 35.185351,33.580974 C 35.002686,33.769804 34.8909,34.261738 34.895713,34.524412 L 34.895713,75.713715 C 34.64236,75.145605 34.224196,74.677135 33.177843,74.339095 C 32.142477,74.051495 30.546606,73.862075 29.396202,73.977095 C 25.197213,74.437245 20.874655,77.423985 19.091523,81.047805 C 18.516319,82.255695 18.296446,83.115395 18.238924,84.208255 C 18.181405,85.991405 18.872329,87.597585 20.252821,88.632975 C 20.712983,89.035605 21.751591,89.504115 22.384315,89.676675 C 27.216031,91.114665 33.874627,87.773225 36.290484,82.826475 C 36.865688,81.676065 37.100259,80.817685 37.157785,79.724765 L 37.128383,34.110784 C 37.133315,33.842405 37.024182,33.580285 36.834383,33.390486 C 36.644583,33.200697 36.397157,33.106254 36.128785,33.111186 C 36.087742,33.111792 35.897113,33.095229 35.810353,33.111186 z" />
      <path
         style="fill:url(#linearGradient8066);fill-opacity:1"
         sodipodi:nodetypes="cscccccccccccssc"
         id="path8064"
         d="M 35.217739,32.386201 C 34.871235,32.478572 34.746859,32.69667 34.592738,32.855989 C 34.410072,33.044819 34.298286,33.536753 34.303098,33.799426 L 34.303098,74.988735 C 34.049746,74.420625 33.631583,73.952155 32.58523,73.614105 C 31.549863,73.326505 29.953993,73.137095 28.803586,73.252105 C 24.604597,73.712255 20.282041,76.699005 18.498908,80.322815 C 17.923705,81.530705 17.703831,82.390415 17.64631,83.483285 C 17.58879,85.266425 18.279716,86.872605 19.660206,87.907995 C 20.120369,88.310615 21.158976,88.779105 21.791701,88.951665 C 26.623415,90.389665 33.282012,87.048255 35.697871,82.101495 C 36.273075,80.951075 36.507645,80.092695 36.565171,78.999775 L 36.535769,33.385799 C 36.540701,33.11742 36.431568,32.8553 36.241769,32.665501 C 36.05197,32.475712 35.804543,32.381269 35.536171,32.386201 C 35.495128,32.386807 35.304499,32.370243 35.217739,32.386201 z" />
    </g>
    <g
       id="g4671"
       transform="matrix(1.9134575,0,0,1.9134575,-62.990729,-7.7737484)">
      <text
         id="text3873"
         y="33.946857"
         x="57.321716"
         style="font-size:12px;font-style:normal;font-weight:normal;fill:#000000;fill-opacity:0.39215686;stroke:none;stroke-width:1px;stroke-linecap:butt;stroke-linejoin:miter;stroke-opacity:1;font-family:Bitstream Vera Sans"
         xml:space="preserve"><tspan
           style="font-size:56px;font-style:normal;font-variant:normal;font-weight:normal;font-stretch:normal;fill:#000000;fill-opacity:0.39215686;font-family:Emmentaler;-inkscape-font-specification:Emmentaler"
           y="33.946857"
           x="57.321716"
           id="tspan3875"
           sodipodi:role="line">3</tspan></text>
      <text
         id="text3869"
         y="33"
         x="56.484592"
         style="font-size:12px;font-style:normal;font-weight:normal;fill:url(#linearGradient4677);fill-opacity:1;stroke:none;stroke-width:1px;stroke-linecap:butt;stroke-linejoin:miter;stroke-opacity:1;font-family:Bitstream Vera Sans"
         xml:space="preserve"><tspan
           style="font-size:56px;font-style:normal;font-variant:normal;font-weight:normal;font-stretch:normal;fill:url(#linearGradient4677);fill-opacity:1;font-family:Emmentaler;-inkscape-font-specification:Emmentaler"
           y="33"
           x="56.484592"
           id="tspan3871"
           sodipodi:role="line">3</tspan></text>
    </g>
  </g>
</svg>
