<?xml version="1.0" standalone="no"?>
<!DOCTYPE svg PUBLIC "-//W3C//DTD SVG 1.1//EN" "http://www.w3.org/Graphics/SVG/1.1/DTD/svg11.dtd" >
<svg viewBox="-273 -357 1000 1000">
  <g transform="matrix(1 0 0 -1 0 800)">
   <path fill="currentColor"
d="M-7 355q17 7 24 -9q2 -4 2 -51v-46h2q43 -10 72 -37q30 -28 49.5 -76.5t23.5 -104.5l1 -11l46 -1q24 0 35.5 -0.5t14 -1.5t5.5 -4q5 -5 5 -13t-5 -13q-4 -4 -9 -4.5t-46 -1.5h-46l-1 -11q-4 -56 -23.5 -105t-49.5 -77q-29 -27 -72 -37h-2v-46q0 -47 -2 -50q-3 -7 -10 -10
t-14 0t-10 10q-2 3 -2 50v46h-2q-43 10 -72 37q-30 28 -49.5 77t-23.5 105v11h-47q-24 0 -35.5 0.5t-14 1.5t-5.5 4q-5 5 -5 13t5 13q4 4 9 4.5t46 1.5l47 1v11q4 56 23.5 104.5t49.5 76.5q29 27 72 37h2v46q0 47 2 50q3 7 10 10zM-19 115q0 95 -1 95l-6 -2
q-55 -20 -64 -137q0 -11 -2 -33v-19h36h37v96zM25 208l-6 2v-95v-96h37h36v19q-2 22 -2 33q-9 118 -65 137zM-19 -114v95h-37h-36v-19q2 -22 2 -33q9 -118 65 -137l6 -2v96zM92 -38v19h-36h-37v-95v-96l6 2q56 19 65 137q0 11 2 33z" />
  </g>

</svg>
