<?xml version="1.0" standalone="no"?>
<!DOCTYPE svg PUBLIC "-//W3C//DTD SVG 1.1//EN" "http://www.w3.org/Graphics/SVG/1.1/DTD/svg11.dtd" >
<svg viewBox="-396 -200 1000 1000">
  <g transform="matrix(1 0 0 -1 0 800)">
   <path fill="currentColor"
d="M-345 235q10 5 20 1q6 -4 10 -11q2 -4 2 -10q-1 -7 -11 -23q-46 -79 -17 -164q4 -12 6 -16l2 -4l37 56q38 56 43 58q9 5 19 1q6 -5 55 -62l49 -60l40 59q40 60 45 62q9 5 19 1q6 -5 55 -62l49 -60l2 3q2 2 2 74q0 71 2 75q4 8 12 12t17 0t11 -10q3 -6 3 -42l1 -38l15 22
q15 23 20 25q9 5 19 1q6 -5 55 -62l49 -60l10 15q22 35 29 38q10 6 19 1q7 -4 11 -10q4 -10 0 -19l-50 -75l-46 -70l-6 -3q-9 -5 -19 -1q-6 5 -54 62l-42.5 49.5t-9.5 8.5t-1 -73q0 -73 -2 -77q-4 -8 -11 -12q-10 -4 -18 0t-12 12q-2 4 -2 42v38l-16 -23q-16 -24 -21 -26
q-9 -5 -19 -1q-6 5 -55 62l-49 60l-40 -59q-40 -60 -45 -62q-9 -5 -19 -1q-6 5 -55 62l-49 60l-10 -15q-22 -35 -29 -38q-10 -6 -19 -1q-6 3 -15 17q-55 91 -27 196q14 43 30 66q7 9 11 11z" />
  </g>

</svg>
