<?xml version="1.0" standalone="no"?>
<!DOCTYPE svg PUBLIC "-//W3C//DTD SVG 1.1//EN" "http://www.w3.org/Graphics/SVG/1.1/DTD/svg11.dtd" >
<svg viewBox="-253 -200 1000 1000">
  <g transform="matrix(1 0 0 -1 0 800)">
   <path fill="currentColor"
d="M-8 165q8 4 17 0t11 -10q3 -6 3 -42l1 -38l15 22q15 23 20 25q9 5 19 1q6 -5 55 -62l49 -60l10 15q22 35 29 38q10 6 19 1q7 -4 11 -10q4 -10 0 -19l-50 -75l-46 -70l-6 -3q-9 -5 -19 -1q-6 5 -54 62l-42.5 49.5t-9.5 8.5t-1 -73v-72l-2 -5q-4 -6 -5 -8q-8 -6 -15 -6
q-8 0 -16 6q-1 2 -5 8q-2 4 -2 42v38l-16 -23q-16 -24 -21 -26q-9 -5 -19 -1q-6 5 -55 62l-49 60l-10 -15q-22 -35 -29 -38q-10 -6 -19 -1q-7 4 -11 11q-4 9 0 19l50 75l47 70l5 2q9 5 19 1q6 -5 55 -62l49 -60l2 3q2 2 2 74q0 71 2 75q4 8 12 12z" />
  </g>

</svg>
