<?xml version="1.0" standalone="no"?>
<!DOCTYPE svg PUBLIC "-//W3C//DTD SVG 1.1//EN" "http://www.w3.org/Graphics/SVG/1.1/DTD/svg11.dtd" >
<svg viewBox="-357 -308 1000 1000">
  <g transform="matrix(1 0 0 -1 0 800)">
   <path fill="currentColor"
d="M-182 123q10 4 19 -1q5 -2 45 -62l40 -59l49 60q49 57 55 62q10 4 19 -1q5 -2 45 -62l40 -59l49 60q49 57 55 62q10 4 19 -1l6 -2l51 -78q48 -71 59 -91q16 -31 23 -71q2 -14 2 -39q0 -26 -1 -35q-6 -34 -13 -51q-9 -28 -24 -48q-7 -9 -11 -11q-10 -6 -19 -1q-7 4 -11 11
q-5 10 6 29q28 45 30 97.5t-22 98.5q-3 9 -19 32l-12 17.5t-8 12.5l-4 6l-49 -60q-49 -57 -55 -62q-10 -4 -19 1q-5 2 -45 62l-40 59l-49 -60q-49 -57 -55 -62q-10 -4 -19 1q-5 2 -45 62l-40 59l-49 -60q-49 -57 -55 -62q-10 -4 -19 1l-5 3l-47 70l-50 75q-4 9 0 19
q4 6 11 10q9 5 19 -1q7 -3 29 -38l10 -15l49 60q49 57 55 62z" />
  </g>

</svg>
