<?xml version="1.0" standalone="no"?>
<!DOCTYPE svg PUBLIC "-//W3C//DTD SVG 1.1//EN" "http://www.w3.org/Graphics/SVG/1.1/DTD/svg11.dtd" >
<svg viewBox="-273 -200 1000 1000">
  <g transform="matrix(1 0 0 -1 0 800)">
   <path fill="currentColor"
d="M-178 130q45 8 74 -19q19 -20 14 -47q-6 -27 -31.5 -38.5t-50.5 0.5q-16 8 -21 21q-3 5 -7 5q-14 -4 -25 -15q-16 -15 -16 -35t14 -34q11 -11 28 -15q7 -2 20 -2q36 3 73 27q19 13 65 54q70 64 108 82q20 11 42 15q25 5 54 1q42 -9 71 -38q28 -28 37 -67q2 -9 1.5 -27
t-2.5 -28q-14 -67 -66 -92q-26 -13 -54 -9.5t-45 20.5q-20 20 -15 47q6 27 31.5 38.5t50.5 -0.5q16 -8 21 -21q3 -5 7 -5q14 4 25 15q16 15 16 35t-14 34q-11 11 -28 15q-7 2 -20 2q-37 -3 -72 -27q-20 -13 -66 -54q-69 -64 -107 -82q-21 -11 -43 -15q-25 -5 -54 -1
q-42 9 -71 38q-28 28 -37 67q-2 9 -1.5 27t2.5 28q8 40 32.5 67t59.5 33z" />
  </g>

</svg>
