<?xml version="1.0" encoding="UTF-8" standalone="no"?>
<svg
   xmlns:dc="http://purl.org/dc/elements/1.1/"
   xmlns:cc="http://web.resource.org/cc/"
   xmlns:rdf="http://www.w3.org/1999/02/22-rdf-syntax-ns#"
   xmlns:svg="http://www.w3.org/2000/svg"
   xmlns="http://www.w3.org/2000/svg"
   xmlns:xlink="http://www.w3.org/1999/xlink"
   xmlns:sodipodi="http://sodipodi.sourceforge.net/DTD/sodipodi-0.dtd"
   xmlns:inkscape="http://www.inkscape.org/namespaces/inkscape"
   viewBox="0 -200 1000 1000"
   id="svg27169"
   sodipodi:version="0.32"
   inkscape:version="0.45.1"
   width="128"
   height="128"
   sodipodi:docname="pedal.svg"
   sodipodi:docbase="/home/matevz/canorus/trunk/src/ui/images/mark/pedal"
   inkscape:export-filename="/home/matevz/apps/canorus/branches/matevz/src/fonts/n2.png"
   inkscape:export-xdpi="120.95"
   inkscape:export-ydpi="120.95"
   inkscape:output_extension="org.inkscape.output.svg.inkscape"
   version="1.0">
  <metadata
     id="metadata27178">
    <rdf:RDF>
      <cc:Work
         rdf:about="">
        <dc:format>image/svg+xml</dc:format>
        <dc:type
           rdf:resource="http://purl.org/dc/dcmitype/StillImage" />
      </cc:Work>
    </rdf:RDF>
  </metadata>
  <defs
     id="defs27176">
    <linearGradient
       id="linearGradient33317">
      <stop
         style="stop-color:#000000;stop-opacity:1;"
         offset="0"
         id="stop33319" />
      <stop
         style="stop-color:#646464;stop-opacity:1;"
         offset="1"
         id="stop33321" />
    </linearGradient>
    <linearGradient
       inkscape:collect="always"
       xlink:href="#linearGradient33317"
       id="linearGradient33323"
       x1="49.270287"
       y1="920.35596"
       x2="110.55885"
       y2="920.35596"
       gradientUnits="userSpaceOnUse" />
    <linearGradient
       inkscape:collect="always"
       xlink:href="#linearGradient33317"
       id="linearGradient8122"
       gradientUnits="userSpaceOnUse"
       x1="49.270287"
       y1="920.35596"
       x2="110.55885"
       y2="920.35596" />
    <linearGradient
       inkscape:collect="always"
       xlink:href="#linearGradient33317"
       id="linearGradient19732"
       gradientUnits="userSpaceOnUse"
       x1="49.270287"
       y1="920.35596"
       x2="110.55885"
       y2="920.35596"
       gradientTransform="matrix(5.6766826,0,0,5.6766826,-206.90519,-4941.8885)" />
    <linearGradient
       inkscape:collect="always"
       xlink:href="#linearGradient33317"
       id="linearGradient20714"
       x1="483.75861"
       y1="336.54208"
       x2="900.97968"
       y2="336.54208"
       gradientUnits="userSpaceOnUse"
       gradientTransform="matrix(0.7657372,0,0,0.7657372,175.82664,67.12053)" />
    <linearGradient
       inkscape:collect="always"
       xlink:href="#linearGradient33317"
       id="linearGradient21697"
       gradientUnits="userSpaceOnUse"
       gradientTransform="matrix(0.7657372,0,0,0.7657372,175.82664,67.12053)"
       x1="483.75861"
       y1="336.54208"
       x2="900.97968"
       y2="336.54208" />
    <linearGradient
       inkscape:collect="always"
       xlink:href="#linearGradient33317"
       id="linearGradient21703"
       gradientUnits="userSpaceOnUse"
       gradientTransform="matrix(5.6766826,0,0,5.6766826,-206.90519,-4941.8885)"
       x1="49.270287"
       y1="920.35596"
       x2="110.55885"
       y2="920.35596" />
    <linearGradient
       inkscape:collect="always"
       xlink:href="#linearGradient33317"
       id="linearGradient21707"
       gradientUnits="userSpaceOnUse"
       gradientTransform="matrix(0.5805313,0,0,0.5805313,-202.92606,52.853836)"
       x1="483.75861"
       y1="336.54208"
       x2="900.97968"
       y2="336.54208" />
    <linearGradient
       inkscape:collect="always"
       xlink:href="#linearGradient33317"
       id="linearGradient23661"
       gradientUnits="userSpaceOnUse"
       gradientTransform="matrix(0.5805313,0,0,0.5805313,-202.92606,52.853836)"
       x1="483.75861"
       y1="336.54208"
       x2="900.97968"
       y2="336.54208" />
    <linearGradient
       inkscape:collect="always"
       xlink:href="#linearGradient33317"
       id="linearGradient2238"
       gradientUnits="userSpaceOnUse"
       gradientTransform="matrix(0.5805313,0,0,0.5805313,-216.73483,128.73884)"
       x1="483.75861"
       y1="336.54208"
       x2="2008.1578"
       y2="336.54208" />
    <linearGradient
       inkscape:collect="always"
       xlink:href="#linearGradient33317"
       id="linearGradient2248"
       gradientUnits="userSpaceOnUse"
       gradientTransform="matrix(0.5805313,0,0,0.5805313,-216.73483,128.73884)"
       x1="483.75861"
       y1="336.54208"
       x2="2008.1578"
       y2="336.54208" />
    <linearGradient
       inkscape:collect="always"
       xlink:href="#linearGradient33317"
       id="linearGradient3229"
       x1="-8.1343279"
       y1="250"
       x2="799"
       y2="250"
       gradientUnits="userSpaceOnUse" />
    <linearGradient
       inkscape:collect="always"
       xlink:href="#linearGradient33317"
       id="linearGradient3231"
       gradientUnits="userSpaceOnUse"
       x1="-8.1343279"
       y1="250"
       x2="799"
       y2="250" />
    <linearGradient
       inkscape:collect="always"
       xlink:href="#linearGradient33317"
       id="linearGradient4216"
       gradientUnits="userSpaceOnUse"
       x1="-8.1343279"
       y1="250"
       x2="799"
       y2="250" />
    <linearGradient
       inkscape:collect="always"
       xlink:href="#linearGradient33317"
       id="linearGradient4218"
       gradientUnits="userSpaceOnUse"
       x1="-8.1343279"
       y1="250"
       x2="799"
       y2="250" />
  </defs>
  <sodipodi:namedview
     inkscape:window-height="979"
     inkscape:window-width="1400"
     inkscape:pageshadow="2"
     inkscape:pageopacity="0.0"
     borderopacity="1.0"
     bordercolor="#666666"
     pagecolor="#ffffff"
     id="base"
     inkscape:zoom="1.4142136"
     inkscape:cx="159.55023"
     inkscape:cy="48.277456"
     inkscape:window-x="0"
     inkscape:window-y="0"
     inkscape:current-layer="svg27169"
     width="128px"
     height="128px" />
  <g
     id="g4210"
     transform="matrix(0.8194465,0,0,0.8194465,-524.36701,407.78206)">
    <g
       style="fill:#000000;fill-opacity:0.39215686"
       id="g3233"
       transform="matrix(1.3275297,0,0,-1.3275297,740.10941,209.32905)">
      <path
         style="fill:#000000;fill-opacity:0.39215686"
         id="path3235"
         d="M 227,499 C 243,500.33333 257.33333,500.33333 270,499 C 322,493.66667 362.66667,471.33333 392,432 C 409.33333,408.66667 418.83333,384.16667 420.5,358.5 C 422.16667,332.83333 415.66667,312.66667 401,298 C 385.66667,282.66667 369,278.33333 351,285 C 333.66667,291 315.66667,308.66667 297,338 C 281,365.33333 273,381.33333 273,386 C 273,388 274.66667,390.16667 278,392.5 C 281.33333,394.83333 284.33333,396 287,396 C 289.66667,396 293.33333,392.33333 298,385 C 304,373.66667 312.66667,365.33333 324,360 C 333.33333,354.66667 341.66667,353.66667 349,357 C 372.33333,368.33333 376.33333,388.66667 361,418 C 351.66667,436.66667 337,451.33333 317,462 C 297,472.66667 274.66667,478 250,478 L 240,478 L 236,466 C 218.66667,420 209.33333,391.33333 208,380 C 208,374.66667 208.66667,370 210,366 C 214.66667,351.33333 231,328 259,296 C 279.66667,271.33333 293.33333,253.33333 300,242 C 306.66667,230.66667 310,220 310,210 C 310,205.33333 308.66667,200 306,194 C 300,182.66667 287.66667,164.66667 269,140 L 256,121 C 256,120.33333 259,119.33333 265,118 C 304.33333,112.66667 333.33333,102.66667 352,88 C 360,82 372.66667,85.666667 390,99 L 403,109 C 404.33333,110.33333 404,115.33333 402,124 C 396.66667,157.33333 399,188.33333 409,217 C 417,239 426.66667,255.33333 438,266 C 452.66667,280 469.33333,287.83333 488,289.5 C 506.66667,291.16667 521.66667,286.33333 533,275 C 539,269 543.33333,261.66667 546,253 C 554.66667,219.66667 528.33333,177.66667 467,127 L 463,124 L 470,112 C 486,84 498,67.333333 506,62 C 511.33333,58 517.66667,57.666667 525,61 C 529.66667,63 547.66667,76.666667 579,102 L 581,104 L 579,114 C 574.33333,138.66667 575.33333,159.66667 582,177 C 587.33333,194.33333 596.83333,211.5 610.5,228.5 C 624.16667,245.5 639.33333,259.33333 656,270 L 666,276 C 667.33333,276.66667 662.33333,284.33333 651,299 C 634.33333,319 618.33333,335.33333 603,348 C 562.33333,382 519.33333,404 474,414 C 466,416.66667 461.66667,418 461,418 C 459.66667,420 459.16667,423.33333 459.5,428 C 459.83333,432.66667 461.33333,435.66667 464,437 C 466,438.33333 477.66667,436.33333 499,431 C 586.33333,409 660,368.66667 720,310 C 762,266.66667 788,221 798,173 C 798.66667,168.33333 799,159 799,145 C 799,131.66667 798.33333,121.33333 797,114 C 789.66667,80 775.33333,52.333333 754,31 C 739.33333,17 723.66667,7.3333333 707,2 C 694.33333,-0.66666667 681.33333,-0.66666667 668,2 C 656,5.3333333 645,11 635,19 C 617.66667,32.333333 603.66667,50 593,72 L 589,81 L 576,69 C 544,41 524.33333,24 517,18 C 502.33333,6 487,0.66666667 471,2 C 461.66667,2.6666667 453.66667,5 447,9 C 435.66667,17.666667 425.66667,36 417,64 C 413,76 410.33333,82 409,82 C 407.66667,82 403.33333,79 396,73 C 360,43.666667 331.66667,21.666667 311,7 C 303.66667,3 297.66667,1.3333333 293,2 C 285,4 276,19 266,47 C 259.33333,66.333333 253.33333,79.333333 248,86 C 243.33333,92.666667 239.33333,96 236,96 L 221,78 C 196.33333,47.333333 180.33333,29.666667 173,25 C 157,15.666667 142.66667,8.3333333 130,3 C 118,-0.33333333 109.66667,-0.66666667 105,2 C 99,5.3333333 96,9.3333333 96,14 C 96,28 105.66667,45.333333 125,66 C 135.66667,76.666667 151,87.5 171,98.5 C 191,109.5 207,116 219,118 L 225,120 L 234,131 C 236,133.66667 240,139.33333 246,148 C 252,159.33333 251,173.66667 243,191 C 235,205 218.66667,227.66667 194,259 C 176,281 166,298 164,310 C 162.66667,315.33333 164.66667,328.33333 170,349 C 182,391 197.33333,433 216,475 C 216,475.66667 210,475 198,473 C 165.33333,466.33333 136,454 110,436 C 84,418 65,397 53,373 C 47,359 44,346 44,334 C 43.333333,322.66667 46,312.33333 52,303 C 60.666667,290.33333 70.666667,284 82,284 C 89.333333,284 96,287.66667 102,295 C 115.33333,309.66667 122,328 122,350 C 122,352.66667 123,354.66667 125,356 C 135,361.33333 141.33333,360 144,352 C 145.33333,348.66667 144.33333,337.33333 141,318 C 136.33333,292 127.83333,269.16667 115.5,249.5 C 103.16667,229.83333 89,217.33333 73,212 C 61,206.66667 48.333333,207.66667 35,215 C 8.3333333,228.33333 -6,252.33333 -8,287 C -10,334.33333 10.333333,380 53,424 C 99.666667,470 157.66667,495 227,499 z M 687,245 L 680,257 C 678.66667,257 676.33333,255.33333 673,252 C 661.66667,240.66667 652.5,224.33333 645.5,203 C 638.5,181.66667 635.33333,159.33333 636,136 C 636.66667,112.66667 641.33333,92 650,74 C 656,61.333333 663.33333,53 672,49 C 676,47 681,46 687,46 C 693,46 697.66667,46.666667 701,48 C 717,56.666667 724.33333,80 723,118 C 721,161.33333 709,203.66667 687,245 z M 490,249 C 481.33333,253 472.66667,253.33333 464,250 C 444.66667,242.66667 435.66667,226.33333 437,201 C 438.33333,183.66667 442.66667,167 450,151 L 452,145 L 461,153 C 493,179.66667 508.33333,203.33333 507,224 C 505.66667,235.33333 500,243.66667 490,249 z " />
    </g>
    <g
       style="fill:url(#linearGradient4216);fill-opacity:1"
       id="g2220"
       transform="matrix(1.3275296,0,0,-1.3275296,710.13668,191.37512)">
      <path
         style="fill:url(#linearGradient4218);fill-opacity:1"
         id="path2222"
         d="M 227,499 C 243,500.33333 257.33333,500.33333 270,499 C 322,493.66667 362.66667,471.33333 392,432 C 409.33333,408.66667 418.83333,384.16667 420.5,358.5 C 422.16667,332.83333 415.66667,312.66667 401,298 C 385.66667,282.66667 369,278.33333 351,285 C 333.66667,291 315.66667,308.66667 297,338 C 281,365.33333 273,381.33333 273,386 C 273,388 274.66667,390.16667 278,392.5 C 281.33333,394.83333 284.33333,396 287,396 C 289.66667,396 293.33333,392.33333 298,385 C 304,373.66667 312.66667,365.33333 324,360 C 333.33333,354.66667 341.66667,353.66667 349,357 C 372.33333,368.33333 376.33333,388.66667 361,418 C 351.66667,436.66667 337,451.33333 317,462 C 297,472.66667 274.66667,478 250,478 L 240,478 L 236,466 C 218.66667,420 209.33333,391.33333 208,380 C 208,374.66667 208.66667,370 210,366 C 214.66667,351.33333 231,328 259,296 C 279.66667,271.33333 293.33333,253.33333 300,242 C 306.66667,230.66667 310,220 310,210 C 310,205.33333 308.66667,200 306,194 C 300,182.66667 287.66667,164.66667 269,140 L 256,121 C 256,120.33333 259,119.33333 265,118 C 304.33333,112.66667 333.33333,102.66667 352,88 C 360,82 372.66667,85.666667 390,99 L 403,109 C 404.33333,110.33333 404,115.33333 402,124 C 396.66667,157.33333 399,188.33333 409,217 C 417,239 426.66667,255.33333 438,266 C 452.66667,280 469.33333,287.83333 488,289.5 C 506.66667,291.16667 521.66667,286.33333 533,275 C 539,269 543.33333,261.66667 546,253 C 554.66667,219.66667 528.33333,177.66667 467,127 L 463,124 L 470,112 C 486,84 498,67.333333 506,62 C 511.33333,58 517.66667,57.666667 525,61 C 529.66667,63 547.66667,76.666667 579,102 L 581,104 L 579,114 C 574.33333,138.66667 575.33333,159.66667 582,177 C 587.33333,194.33333 596.83333,211.5 610.5,228.5 C 624.16667,245.5 639.33333,259.33333 656,270 L 666,276 C 667.33333,276.66667 662.33333,284.33333 651,299 C 634.33333,319 618.33333,335.33333 603,348 C 562.33333,382 519.33333,404 474,414 C 466,416.66667 461.66667,418 461,418 C 459.66667,420 459.16667,423.33333 459.5,428 C 459.83333,432.66667 461.33333,435.66667 464,437 C 466,438.33333 477.66667,436.33333 499,431 C 586.33333,409 660,368.66667 720,310 C 762,266.66667 788,221 798,173 C 798.66667,168.33333 799,159 799,145 C 799,131.66667 798.33333,121.33333 797,114 C 789.66667,80 775.33333,52.333333 754,31 C 739.33333,17 723.66667,7.3333333 707,2 C 694.33333,-0.66666667 681.33333,-0.66666667 668,2 C 656,5.3333333 645,11 635,19 C 617.66667,32.333333 603.66667,50 593,72 L 589,81 L 576,69 C 544,41 524.33333,24 517,18 C 502.33333,6 487,0.66666667 471,2 C 461.66667,2.6666667 453.66667,5 447,9 C 435.66667,17.666667 425.66667,36 417,64 C 413,76 410.33333,82 409,82 C 407.66667,82 403.33333,79 396,73 C 360,43.666667 331.66667,21.666667 311,7 C 303.66667,3 297.66667,1.3333333 293,2 C 285,4 276,19 266,47 C 259.33333,66.333333 253.33333,79.333333 248,86 C 243.33333,92.666667 239.33333,96 236,96 L 221,78 C 196.33333,47.333333 180.33333,29.666667 173,25 C 157,15.666667 142.66667,8.3333333 130,3 C 118,-0.33333333 109.66667,-0.66666667 105,2 C 99,5.3333333 96,9.3333333 96,14 C 96,28 105.66667,45.333333 125,66 C 135.66667,76.666667 151,87.5 171,98.5 C 191,109.5 207,116 219,118 L 225,120 L 234,131 C 236,133.66667 240,139.33333 246,148 C 252,159.33333 251,173.66667 243,191 C 235,205 218.66667,227.66667 194,259 C 176,281 166,298 164,310 C 162.66667,315.33333 164.66667,328.33333 170,349 C 182,391 197.33333,433 216,475 C 216,475.66667 210,475 198,473 C 165.33333,466.33333 136,454 110,436 C 84,418 65,397 53,373 C 47,359 44,346 44,334 C 43.333333,322.66667 46,312.33333 52,303 C 60.666667,290.33333 70.666667,284 82,284 C 89.333333,284 96,287.66667 102,295 C 115.33333,309.66667 122,328 122,350 C 122,352.66667 123,354.66667 125,356 C 135,361.33333 141.33333,360 144,352 C 145.33333,348.66667 144.33333,337.33333 141,318 C 136.33333,292 127.83333,269.16667 115.5,249.5 C 103.16667,229.83333 89,217.33333 73,212 C 61,206.66667 48.333333,207.66667 35,215 C 8.3333333,228.33333 -6,252.33333 -8,287 C -10,334.33333 10.333333,380 53,424 C 99.666667,470 157.66667,495 227,499 z M 687,245 L 680,257 C 678.66667,257 676.33333,255.33333 673,252 C 661.66667,240.66667 652.5,224.33333 645.5,203 C 638.5,181.66667 635.33333,159.33333 636,136 C 636.66667,112.66667 641.33333,92 650,74 C 656,61.333333 663.33333,53 672,49 C 676,47 681,46 687,46 C 693,46 697.66667,46.666667 701,48 C 717,56.666667 724.33333,80 723,118 C 721,161.33333 709,203.66667 687,245 z M 490,249 C 481.33333,253 472.66667,253.33333 464,250 C 444.66667,242.66667 435.66667,226.33333 437,201 C 438.33333,183.66667 442.66667,167 450,151 L 452,145 L 461,153 C 493,179.66667 508.33333,203.33333 507,224 C 505.66667,235.33333 500,243.66667 490,249 z " />
    </g>
  </g>
</svg>
