<?xml version="1.0" encoding="UTF-8" standalone="no"?>
<svg
   xmlns:dc="http://purl.org/dc/elements/1.1/"
   xmlns:cc="http://web.resource.org/cc/"
   xmlns:rdf="http://www.w3.org/1999/02/22-rdf-syntax-ns#"
   xmlns:svg="http://www.w3.org/2000/svg"
   xmlns="http://www.w3.org/2000/svg"
   xmlns:xlink="http://www.w3.org/1999/xlink"
   xmlns:sodipodi="http://sodipodi.sourceforge.net/DTD/sodipodi-0.dtd"
   xmlns:inkscape="http://www.inkscape.org/namespaces/inkscape"
   viewBox="0 -200 1000 1000"
   id="svg27169"
   sodipodi:version="0.32"
   inkscape:version="0.45.1"
   width="128"
   height="128"
   sodipodi:docname="downprall.svg"
   sodipodi:docbase="/home/matevz/canorus/trunk/src/ui/images/mark/articulation"
   inkscape:export-filename="/home/matevz/apps/canorus/branches/matevz/src/fonts/n2.png"
   inkscape:export-xdpi="120.95"
   inkscape:export-ydpi="120.95"
   inkscape:output_extension="org.inkscape.output.svg.inkscape"
   version="1.0">
  <metadata
     id="metadata27178">
    <rdf:RDF>
      <cc:Work
         rdf:about="">
        <dc:format>image/svg+xml</dc:format>
        <dc:type
           rdf:resource="http://purl.org/dc/dcmitype/StillImage" />
      </cc:Work>
    </rdf:RDF>
  </metadata>
  <defs
     id="defs27176">
    <linearGradient
       id="linearGradient3320">
      <stop
         style="stop-color:#000000;stop-opacity:1;"
         offset="0"
         id="stop3322" />
      <stop
         style="stop-color:#000000;stop-opacity:0;"
         offset="1"
         id="stop3324" />
    </linearGradient>
    <linearGradient
       id="linearGradient33317">
      <stop
         style="stop-color:#000000;stop-opacity:1;"
         offset="0"
         id="stop33319" />
      <stop
         style="stop-color:#646464;stop-opacity:1;"
         offset="1"
         id="stop33321" />
    </linearGradient>
    <linearGradient
       inkscape:collect="always"
       xlink:href="#linearGradient33317"
       id="linearGradient33323"
       x1="49.270287"
       y1="920.35596"
       x2="110.55885"
       y2="920.35596"
       gradientUnits="userSpaceOnUse" />
    <linearGradient
       inkscape:collect="always"
       xlink:href="#linearGradient33317"
       id="linearGradient8122"
       gradientUnits="userSpaceOnUse"
       x1="49.270287"
       y1="920.35596"
       x2="110.55885"
       y2="920.35596" />
    <linearGradient
       inkscape:collect="always"
       xlink:href="#linearGradient33317"
       id="linearGradient19732"
       gradientUnits="userSpaceOnUse"
       x1="49.270287"
       y1="920.35596"
       x2="110.55885"
       y2="920.35596"
       gradientTransform="matrix(5.6766826,0,0,5.6766826,-206.90519,-4941.8885)" />
    <linearGradient
       inkscape:collect="always"
       xlink:href="#linearGradient33317"
       id="linearGradient20714"
       x1="483.75861"
       y1="336.54208"
       x2="900.97968"
       y2="336.54208"
       gradientUnits="userSpaceOnUse"
       gradientTransform="matrix(0.7657372,0,0,0.7657372,175.82664,67.12053)" />
    <linearGradient
       inkscape:collect="always"
       xlink:href="#linearGradient33317"
       id="linearGradient21697"
       gradientUnits="userSpaceOnUse"
       gradientTransform="matrix(0.7657372,0,0,0.7657372,175.82664,67.12053)"
       x1="483.75861"
       y1="336.54208"
       x2="900.97968"
       y2="336.54208" />
    <linearGradient
       inkscape:collect="always"
       xlink:href="#linearGradient33317"
       id="linearGradient21703"
       gradientUnits="userSpaceOnUse"
       gradientTransform="matrix(5.6766826,0,0,5.6766826,-206.90519,-4941.8885)"
       x1="49.270287"
       y1="920.35596"
       x2="110.55885"
       y2="920.35596" />
    <linearGradient
       inkscape:collect="always"
       xlink:href="#linearGradient33317"
       id="linearGradient24702"
       x1="-299.90805"
       y1="-319.14771"
       x2="824.71387"
       y2="-319.14771"
       gradientUnits="userSpaceOnUse"
       gradientTransform="matrix(0.8641358,0,0,0.8641358,300.10828,568.92103)" />
    <linearGradient
       inkscape:collect="always"
       xlink:href="#linearGradient33317"
       id="linearGradient25685"
       gradientUnits="userSpaceOnUse"
       gradientTransform="matrix(0.8641358,0,0,0.8641358,300.10828,568.92103)"
       x1="-299.90805"
       y1="-319.14771"
       x2="824.71387"
       y2="-319.14771" />
    <linearGradient
       inkscape:collect="always"
       xlink:href="#linearGradient33317"
       id="linearGradient25689"
       gradientUnits="userSpaceOnUse"
       gradientTransform="matrix(1.0938864,0,0,1.0938864,350.85227,633.25763)"
       x1="-299.90805"
       y1="-319.14771"
       x2="824.71387"
       y2="-319.14771" />
    <linearGradient
       inkscape:collect="always"
       xlink:href="#linearGradient33317"
       id="linearGradient25699"
       gradientUnits="userSpaceOnUse"
       gradientTransform="matrix(1.0938864,0,0,1.0938864,350.85227,633.25763)"
       x1="-299.90805"
       y1="-319.14771"
       x2="824.71387"
       y2="-319.14771" />
    <linearGradient
       inkscape:collect="always"
       xlink:href="#linearGradient33317"
       id="linearGradient25703"
       gradientUnits="userSpaceOnUse"
       gradientTransform="matrix(1.0938864,0,0,1.0938864,464.09984,633.25763)"
       x1="-299.90805"
       y1="-319.14771"
       x2="824.71387"
       y2="-319.14771" />
    <linearGradient
       inkscape:collect="always"
       xlink:href="#linearGradient33317"
       id="linearGradient25713"
       gradientUnits="userSpaceOnUse"
       gradientTransform="matrix(1.0938864,0,0,1.0938864,464.09984,633.25763)"
       x1="-299.90805"
       y1="-319.14771"
       x2="824.71387"
       y2="-319.14771" />
    <linearGradient
       inkscape:collect="always"
       xlink:href="#linearGradient33317"
       id="linearGradient25717"
       gradientUnits="userSpaceOnUse"
       gradientTransform="matrix(1.0938864,0,0,1.0938864,464.09984,633.25763)"
       x1="-299.90805"
       y1="-319.14771"
       x2="824.71387"
       y2="-319.14771" />
    <linearGradient
       inkscape:collect="always"
       xlink:href="#linearGradient33317"
       id="linearGradient25727"
       gradientUnits="userSpaceOnUse"
       gradientTransform="matrix(1.0938864,0,0,1.0938864,464.09984,633.25763)"
       x1="-299.90805"
       y1="-319.14771"
       x2="824.71387"
       y2="-319.14771" />
    <linearGradient
       inkscape:collect="always"
       xlink:href="#linearGradient33317"
       id="linearGradient26809"
       x1="-562.63727"
       y1="-144.65044"
       x2="639.97705"
       y2="-144.65044"
       gradientUnits="userSpaceOnUse"
       gradientTransform="matrix(0.7871571,-0.1118568,0.1118568,0.7871571,461.62628,419.97486)" />
    <linearGradient
       inkscape:collect="always"
       xlink:href="#linearGradient33317"
       id="linearGradient3326"
       x1="-475"
       y1="0"
       x2="475"
       y2="0"
       gradientUnits="userSpaceOnUse" />
    <linearGradient
       inkscape:collect="always"
       xlink:href="#linearGradient33317"
       id="linearGradient3344"
       gradientUnits="userSpaceOnUse"
       x1="-475"
       y1="0"
       x2="475"
       y2="0" />
    <linearGradient
       inkscape:collect="always"
       xlink:href="#linearGradient33317"
       id="linearGradient3346"
       gradientUnits="userSpaceOnUse"
       x1="-475"
       y1="0"
       x2="475"
       y2="0" />
    <linearGradient
       inkscape:collect="always"
       xlink:href="#linearGradient33317"
       id="linearGradient3476"
       x1="-395.44577"
       y1="56.5"
       x2="357"
       y2="56.5"
       gradientUnits="userSpaceOnUse" />
    <linearGradient
       inkscape:collect="always"
       xlink:href="#linearGradient33317"
       id="linearGradient3478"
       gradientUnits="userSpaceOnUse"
       x1="-395.44577"
       y1="56.5"
       x2="357"
       y2="56.5" />
    <linearGradient
       inkscape:collect="always"
       xlink:href="#linearGradient33317"
       id="linearGradient3494"
       gradientUnits="userSpaceOnUse"
       x1="-395.44577"
       y1="56.5"
       x2="357"
       y2="56.5" />
    <linearGradient
       inkscape:collect="always"
       xlink:href="#linearGradient33317"
       id="linearGradient3496"
       gradientUnits="userSpaceOnUse"
       x1="-395.44577"
       y1="56.5"
       x2="357"
       y2="56.5" />
  </defs>
  <sodipodi:namedview
     inkscape:window-height="979"
     inkscape:window-width="1400"
     inkscape:pageshadow="2"
     inkscape:pageopacity="0.0"
     borderopacity="1.0"
     bordercolor="#666666"
     pagecolor="#ffffff"
     id="base"
     inkscape:zoom="2.8284272"
     inkscape:cx="169.95016"
     inkscape:cy="-5.9230665"
     inkscape:window-x="0"
     inkscape:window-y="0"
     inkscape:current-layer="svg27169"
     width="128px"
     height="128px" />
  <g
     id="g3488"
     transform="matrix(1.0609441,0,0,1.0609441,-4.9221063,-302.51524)">
    <g
       style="fill:#000000;fill-opacity:0.39215686"
       id="g3480"
       transform="matrix(1.0607148,0,0,-1.0607148,505.14483,637.57845)">
      <path
         style="fill:#000000;fill-opacity:0.39215686"
         id="path3482"
         d="M -345,235 C -338.33333,238.33333 -331.66667,238.66667 -325,236 C -321,233.33333 -317.66667,229.66667 -315,225 C -313.66667,222.33333 -313,219 -313,215 C -313.66667,210.33333 -317.33333,202.66667 -324,192 C -354.66667,139.33333 -360.33333,84.666667 -341,28 C -338.33333,20 -336.33333,14.666667 -335,12 L -333,8 L -296,64 C -270.66667,101.33333 -256.33333,120.66667 -253,122 C -247,125.33333 -240.66667,125.66667 -234,123 C -230,119.66667 -211.66667,99 -179,61 L -130,1 L -90,60 C -63.333333,100 -48.333333,120.66667 -45,122 C -39,125.33333 -32.666667,125.66667 -26,123 C -22,119.66667 -3.6666667,99 29,61 L 78,1 L 118,60 C 144.66667,100 159.66667,120.66667 163,122 C 169,125.33333 175.33333,125.66667 182,123 C 186,119.66667 204.33333,99 237,61 L 286,1 L 296,16 C 310.66667,39.333333 320.33333,52 325,54 C 331.66667,58 338,58.333333 344,55 C 348.66667,52.333333 352.33333,49 355,45 C 357.66667,38.333333 357.66667,32 355,26 L 305,-49 L 259,-119 L 253,-122 C 247,-125.33333 240.66667,-125.66667 234,-123 C 230,-119.66667 211.66667,-99 179,-61 L 130,-1 L 90,-60 C 63.333333,-100 48.333333,-120.66667 45,-122 C 39,-125.33333 32.666667,-125.66667 26,-123 C 22,-119.66667 3.6666667,-99 -29,-61 L -78,-1 L -118,-60 C -144.66667,-100 -159.66667,-120.66667 -163,-122 C -169,-125.33333 -175.33333,-125.66667 -182,-123 C -186,-119.66667 -204.33333,-99 -237,-61 L -286,-1 L -296,-16 C -310.66667,-39.333333 -320.33333,-52 -325,-54 C -331.66667,-58 -338,-58.333333 -344,-55 C -348,-53 -353,-47.333333 -359,-38 C -395.66667,22.666667 -404.66667,88 -386,158 C -376.66667,186.66667 -366.66667,208.66667 -356,224 C -351.33333,230 -347.66667,233.66667 -345,235 z " />
    </g>
    <g
       style="fill:url(#linearGradient3494);fill-opacity:1"
       id="g3459"
       transform="matrix(1.0607148,0,0,-1.0607148,487.47065,618.09195)">
      <path
         style="fill:url(#linearGradient3496);fill-opacity:1"
         id="path3461"
         d="M -345,235 C -338.33333,238.33333 -331.66667,238.66667 -325,236 C -321,233.33333 -317.66667,229.66667 -315,225 C -313.66667,222.33333 -313,219 -313,215 C -313.66667,210.33333 -317.33333,202.66667 -324,192 C -354.66667,139.33333 -360.33333,84.666667 -341,28 C -338.33333,20 -336.33333,14.666667 -335,12 L -333,8 L -296,64 C -270.66667,101.33333 -256.33333,120.66667 -253,122 C -247,125.33333 -240.66667,125.66667 -234,123 C -230,119.66667 -211.66667,99 -179,61 L -130,1 L -90,60 C -63.333333,100 -48.333333,120.66667 -45,122 C -39,125.33333 -32.666667,125.66667 -26,123 C -22,119.66667 -3.6666667,99 29,61 L 78,1 L 118,60 C 144.66667,100 159.66667,120.66667 163,122 C 169,125.33333 175.33333,125.66667 182,123 C 186,119.66667 204.33333,99 237,61 L 286,1 L 296,16 C 310.66667,39.333333 320.33333,52 325,54 C 331.66667,58 338,58.333333 344,55 C 348.66667,52.333333 352.33333,49 355,45 C 357.66667,38.333333 357.66667,32 355,26 L 305,-49 L 259,-119 L 253,-122 C 247,-125.33333 240.66667,-125.66667 234,-123 C 230,-119.66667 211.66667,-99 179,-61 L 130,-1 L 90,-60 C 63.333333,-100 48.333333,-120.66667 45,-122 C 39,-125.33333 32.666667,-125.66667 26,-123 C 22,-119.66667 3.6666667,-99 -29,-61 L -78,-1 L -118,-60 C -144.66667,-100 -159.66667,-120.66667 -163,-122 C -169,-125.33333 -175.33333,-125.66667 -182,-123 C -186,-119.66667 -204.33333,-99 -237,-61 L -286,-1 L -296,-16 C -310.66667,-39.333333 -320.33333,-52 -325,-54 C -331.66667,-58 -338,-58.333333 -344,-55 C -348,-53 -353,-47.333333 -359,-38 C -395.66667,22.666667 -404.66667,88 -386,158 C -376.66667,186.66667 -366.66667,208.66667 -356,224 C -351.33333,230 -347.66667,233.66667 -345,235 z " />
    </g>
  </g>
</svg>
