<?xml version="1.0" standalone="no"?>
<!DOCTYPE svg PUBLIC "-//W3C//DTD SVG 1.1//EN" "http://www.w3.org/Graphics/SVG/1.1/DTD/svg11.dtd" >
<svg viewBox="-475 -200 1000 1000">
  <g transform="matrix(1 0 0 -1 0 800)">
   <path fill="currentColor"
d="M-253 74q197 51 201 51q8 0 15 -7t7 -16q0 -10 -9 -17q-10 -5 -125 -34l-121 -31l-69 -10l-69 -10l69 -10l69 -10l121 -31q115 -29 125 -34q5 -5 6 -8q7 -12 -2 -23q-7 -9 -17 -9q-3 0 -200 51l-131.5 33.5t-72.5 18.5q-14 3 -18 12q-2 10 0 20q4 9 18 12q1 0 71 18z
M43 123q6 2 9 2t200 -51l131.5 -33.5t72.5 -18.5q14 -3 18 -12q2 -10 0 -20q-4 -9 -18 -12q-1 0 -72.5 -18.5l-131.5 -33.5q-197 -51 -200 -51q-10 0 -17 9q-9 11 -2 23q1 4 7 8q7 4 125 34l121 31l68 10l69 10l-69 10l-68 10l-121 31q-118 30 -125 34q-10 6 -10 17
q0 14 13 21z" />
  </g>

</svg>
