<?xml version="1.0" standalone="no"?>
<!DOCTYPE svg PUBLIC "-//W3C//DTD SVG 1.1//EN" "http://www.w3.org/Graphics/SVG/1.1/DTD/svg11.dtd" >
<svg viewBox="-357 -200 1000 1000">
  <g transform="matrix(1 0 0 -1 0 800)">
   <path fill="currentColor"
d="M326 236q9 5 19 -1q4 -2 11 -11q16 -23 30 -66q28 -105 -27 -196q-9 -14 -14 -17q-10 -4 -20 1q-7 3 -29 38l-10 15l-49 -60q-49 -57 -55 -62q-10 -4 -19 1q-5 2 -45 62l-40 59l-49 -60q-49 -57 -55 -62q-10 -4 -19 1q-5 2 -45 62l-40 59l-49 -60q-49 -57 -55 -62
q-10 -4 -19 1l-5 3l-47 70l-50 75q-4 9 0 19q4 6 11 10q9 5 19 -1q7 -3 29 -38l10 -15l49 60q49 57 55 62q10 4 19 -1q5 -2 45 -62l40 -59l49 60q49 57 55 62q10 4 19 -1q5 -2 45 -62l40 -59l49 60q49 57 55 62q10 4 19 -1q5 -2 43 -58l37 -56l2 4q2 4 6 16q29 85 -17 164
q-10 16 -11 23q0 6 2 10q4 7 11 11z" />
  </g>

</svg>
