<?xml version="1.0" standalone="no"?>
<!DOCTYPE svg PUBLIC "-//W3C//DTD SVG 1.1//EN" "http://www.w3.org/Graphics/SVG/1.1/DTD/svg11.dtd" >
<svg viewBox="-273 -200 1000 1000">
  <g transform="matrix(1 0 0 -1 0 800)">
   <path fill="currentColor"
d="M-155 131h22q30 0 67 -17q38 -18 107 -82q46 -41 66 -54q35 -24 72 -27q13 0 20 2q17 4 28 15q14 14 14 34t-16 35q-11 11 -25 15q-4 0 -7 -5q-5 -13 -21 -21q-25 -12 -50.5 -0.5t-31.5 38.5q-5 27 15 47q17 17 45 20.5t54 -9.5q52 -25 66 -92q2 -10 2.5 -28t-1.5 -27
q-9 -39 -37 -67q-29 -29 -71 -38q-29 -4 -54 1q-22 4 -42 15q-38 18 -108 82q-46 41 -65 54q-37 24 -73 27q-13 0 -20 -2q-17 -4 -28 -15q-14 -14 -14 -34t16 -35q11 -11 25 -15q4 0 7 5q5 13 21 21q25 12 50.5 0.5t31.5 -38.5q5 -27 -14 -47q-18 -17 -45.5 -20.5t-53.5 9.5
q-53 25 -67 92q-2 10 -2.5 28t1.5 27q9 39 37 67q33 33 79 39z" />
  </g>

</svg>
