<?xml version="1.0" standalone="no"?>
<!DOCTYPE svg PUBLIC "-//W3C//DTD SVG 1.1//EN" "http://www.w3.org/Graphics/SVG/1.1/DTD/svg11.dtd" >
<svg viewBox="-323 -200 1000 1000">
  <g transform="matrix(1 0 0 -1 0 800)">
   <path fill="currentColor"
d="M-14 536l4 4l-26 -130l-26 -131q0 -1 29 15q42 24 62 31q25 8 45 7q18 0 25 -2q19 -5 31 -17q7 -7 9 -5q3 5 19 13q31 16 62.5 9.5t45.5 -31.5q12 -20 10 -47q-3 -43 -28 -68q-28 -28 -57 -14q-15 7 -21 31q-4 16 2 35q10 39 53 44l7 1l-3 4q-12 16 -34 16t-38 -16
q-8 -8 -12.5 -25t-26.5 -131q-28 -131 -28 -138l-6 2q-28 15 -66 2l-10 -4l28 138q27 135 27 140q0 9 -7 16q-2 2 -8 4q-11 6 -29 0q-7 -3 -47.5 -26t-41.5 -24l-2 -12l-3 -10l10 -12q40 -55 39 -105q-1 -27 -14 -52q-14 -26 -37 -42t-47 -16q-25 0 -40 22t-16 61
q-1 21 10 78l8 41q0 2 -13 -4q-99 -36 -133 -2q-16 16 -14 40q1 15 8 31q18 33 54 43q55 18 111 -14l5 -3q1 0 23 112t23 113q0 1 7 -1q16 -5 34 2q24 8 43 27zM-212 273q-29 3 -48 -4q-21 -9 -27 -26t0 -27q5 -10 20 -14q33 -7 96 20q3 1 8.5 3t6.5 3q2 0 3 7q0 1 0.5 4.5
t1.5 4.5q0 2 -7 7q-27 18 -54 22zM-71 150q-4 8 -8 14l-5 7l-1 -6l-3 -13l-5 -22q-9 -44 -9 -63q-1 -27 11 -28q11 0 17 8q8 9 12.5 29t2.5 37q-1 16 -12 37z" />
  </g>

</svg>
