<?xml version="1.0" standalone="no"?>
<!DOCTYPE svg PUBLIC "-//W3C//DTD SVG 1.1//EN" "http://www.w3.org/Graphics/SVG/1.1/DTD/svg11.dtd" >
<svg viewBox="-394 -308 1000 1000">
  <g transform="matrix(1 0 0 -1 0 800)">
   <path fill="currentColor"
d="M-253 122q9 5 19 1q6 -5 55 -62l49 -60l40 59q40 60 45 62q9 5 19 1q6 -5 55 -62l49 -60l40 59q40 60 45 62q9 5 19 1q6 -5 55 -62l49 -60l10 15q22 35 29 38q10 6 19 1q7 -4 11 -10q4 -10 0 -19l-50 -75l-46 -70l-6 -3q-9 -5 -19 -1q-6 5 -55 62l-49 60l-40 -59
q-40 -60 -45 -62q-9 -5 -19 -1q-6 5 -55 62l-49 60l-40 -59q-40 -60 -45 -62q-9 -5 -19 -1q-6 5 -55 62l-49 60l-4 -6q-1 -2 -8 -12.5l-12 -17.5q-16 -23 -19 -32q-24 -46 -22 -98.5t30 -97.5q11 -19 6 -29q-4 -7 -11 -11q-9 -5 -19 1q-4 2 -11 11q-15 20 -24 48
q-7 17 -13 51q-1 9 -1 35q0 25 2 39q7 40 23 71q11 20 59 91l52 78z" />
  </g>

</svg>
