<?xml version="1.0" encoding="UTF-8" standalone="no"?>
<!-- Created with Inkscape (http://www.inkscape.org/) -->

<svg
   xmlns:dc="http://purl.org/dc/elements/1.1/"
   xmlns:cc="http://creativecommons.org/ns#"
   xmlns:rdf="http://www.w3.org/1999/02/22-rdf-syntax-ns#"
   xmlns:svg="http://www.w3.org/2000/svg"
   xmlns="http://www.w3.org/2000/svg"
   xmlns:xlink="http://www.w3.org/1999/xlink"
   xmlns:sodipodi="http://sodipodi.sourceforge.net/DTD/sodipodi-0.dtd"
   xmlns:inkscape="http://www.inkscape.org/namespaces/inkscape"
   width="128"
   height="128"
   id="svg2"
   sodipodi:version="0.32"
   inkscape:version="0.91 r13725"
   sodipodi:modified="true"
   version="1.0"
   sodipodi:docname="insertplayable.svg">
  <defs
     id="defs4">
    <linearGradient
       id="linearGradient9389">
      <stop
         style="stop-color:#000000;stop-opacity:1;"
         offset="0"
         id="stop9391" />
      <stop
         style="stop-color:#646464;stop-opacity:1;"
         offset="1"
         id="stop9393" />
    </linearGradient>
    <linearGradient
       inkscape:collect="always"
       xlink:href="#linearGradient9389"
       id="linearGradient9395"
       x1="-26.241436"
       y1="-153.48067"
       x2="300"
       y2="-153.48067"
       gradientUnits="userSpaceOnUse" />
    <linearGradient
       id="linearGradient36148">
      <stop
         style="stop-color:#000000;stop-opacity:1;"
         offset="0"
         id="stop36150" />
      <stop
         style="stop-color:#646464;stop-opacity:1;"
         offset="1"
         id="stop36152" />
    </linearGradient>
    <linearGradient
       inkscape:collect="always"
       xlink:href="#linearGradient36148"
       id="linearGradient36154"
       x1="54.073642"
       y1="922.13912"
       x2="108.13371"
       y2="922.13912"
       gradientUnits="userSpaceOnUse"
       gradientTransform="matrix(0.4366167,0,0,0.4366167,-3.2808296,-359.04494)" />
    <linearGradient
       inkscape:collect="always"
       xlink:href="#linearGradient9389"
       id="linearGradient2423"
       gradientUnits="userSpaceOnUse"
       x1="-26.241436"
       y1="-153.48067"
       x2="300"
       y2="-153.48067" />
    <linearGradient
       inkscape:collect="always"
       xlink:href="#linearGradient36148"
       id="linearGradient2435"
       gradientUnits="userSpaceOnUse"
       gradientTransform="matrix(0.4366167,0,0,0.4366167,-3.2808296,-359.04494)"
       x1="54.073642"
       y1="922.13912"
       x2="108.13371"
       y2="922.13912" />
    <linearGradient
       inkscape:collect="always"
       xlink:href="#linearGradient9389"
       id="linearGradient2437"
       gradientUnits="userSpaceOnUse"
       x1="-26.241436"
       y1="-153.48067"
       x2="300"
       y2="-153.48067" />
    <linearGradient
       inkscape:collect="always"
       xlink:href="#linearGradient9389"
       id="linearGradient2439"
       gradientUnits="userSpaceOnUse"
       x1="-26.241436"
       y1="-153.48067"
       x2="300"
       y2="-153.48067" />
  </defs>
  <sodipodi:namedview
     id="base"
     pagecolor="#ffffff"
     bordercolor="#666666"
     borderopacity="1.0"
     gridtolerance="10000"
     guidetolerance="10"
     objecttolerance="10"
     inkscape:pageopacity="0.0"
     inkscape:pageshadow="2"
     inkscape:zoom="2.8"
     inkscape:cx="28.663506"
     inkscape:cy="39.722902"
     inkscape:document-units="px"
     inkscape:current-layer="layer1"
     width="128px"
     height="128px"
     inkscape:window-width="1642"
     inkscape:window-height="1021"
     inkscape:window-x="0"
     inkscape:window-y="0"
     showgrid="false"
     inkscape:window-maximized="1" />
  <metadata
     id="metadata7">
    <rdf:RDF>
      <cc:Work
         rdf:about="">
        <dc:format>image/svg+xml</dc:format>
        <dc:type
           rdf:resource="http://purl.org/dc/dcmitype/StillImage" />
      </cc:Work>
    </rdf:RDF>
  </metadata>
  <g
     inkscape:label="Layer 1"
     inkscape:groupmode="layer"
     id="layer1">
    <g
       id="g2431"
       transform="matrix(-1.7371143,0,0,-1.7371143,107.89799,141.29326)">
      <path
         style="fill:#000000;fill-opacity:0.39215686"
         sodipodi:nodetypes="cscccccccccccssc"
         id="path36146"
         d="m 42.99059,8.9954788 c -0.432228,0.115223 -0.587376,0.387279 -0.779626,0.586014 -0.227858,0.235546 -0.3673,0.8491842 -0.361296,1.1768432 l 0,51.379543 c -0.316033,-0.708664 -0.837649,-1.293032 -2.142871,-1.714707 -1.291516,-0.358755 -3.282204,-0.595026 -4.717219,-0.451558 -5.23782,0.573985 -10.629778,4.299657 -12.854056,8.820002 -0.71751,1.506724 -0.991779,2.579116 -1.063532,3.942351 -0.07175,2.2243 0.79011,4.227847 2.512135,5.519394 0.574006,0.50224 1.869566,1.086651 2.658825,1.301903 6.027082,1.793749 14.333015,-2.374356 17.346556,-8.544933 0.71751,-1.435019 1.010113,-2.505765 1.081871,-3.869079 l -0.03668,-56.898874 c 0.0062,-0.3347762 -0.129981,-0.6617462 -0.366736,-0.8985012 -0.236755,-0.236742 -0.545395,-0.35455 -0.880163,-0.348398 -0.0512,7.55e-4 -0.288987,-0.019905 -0.397212,0 z"
         inkscape:connector-curvature="0" />
      <path
         style="fill:url(#linearGradient2435);fill-opacity:1"
         sodipodi:nodetypes="cscccccccccccssc"
         id="path34228"
         d="m 42.251364,8.0911328 c -0.432229,0.115222 -0.587376,0.387279 -0.779628,0.586013 -0.227857,0.235546 -0.367299,0.849184 -0.361296,1.176844 l 0,51.3795422 C 40.794409,60.524869 40.272792,59.940501 38.967571,59.518825 37.676054,59.16007 35.685367,58.9238 34.250349,59.067268 c -5.237819,0.573984 -10.629775,4.299656 -12.854055,8.820001 -0.717509,1.506725 -0.991779,2.579116 -1.06353,3.942369 -0.07175,2.224291 0.790109,4.227837 2.512133,5.519389 0.574007,0.502223 1.869566,1.086621 2.658827,1.301873 6.027079,1.793753 14.333014,-2.374321 17.346555,-8.544916 0.71751,-1.435019 1.010113,-2.505764 1.081871,-3.869078 L 43.895474,9.3380308 c 0.0062,-0.334776 -0.12998,-0.661745 -0.366736,-0.8985 -0.236756,-0.236743 -0.545396,-0.354551 -0.880162,-0.348398 -0.0512,7.55e-4 -0.288989,-0.019906 -0.397212,0 z"
         inkscape:connector-curvature="0" />
    </g>
    <g
       id="g2425"
       transform="matrix(1.7935719,0,0,1.7935719,-56.505117,-82.613709)">
      <g
         inkscape:export-ydpi="90"
         inkscape:export-xdpi="90"
         inkscape:export-filename="/home/matevz/apps/canorus/branches/matevz/src/fonts/r16.png"
         style="fill:#000000;fill-opacity:0.39215686;stroke:none;stroke-opacity:0.39215686"
         id="g7639"
         transform="matrix(0.07818067,0,0,-0.07818067,76.556536,76.676372)">
        <path
           style="fill:#000000;fill-opacity:0.39215686;stroke:none;stroke-opacity:0.39215686"
           id="path7641"
           d="m 110,203 c 15,4 30,2 44,-5 13,-7 23,-17 28,-31 1,-4 3,-13 5,-22 5,-24 8,-29 16,-34 7,-3 12,-3 17,0 9,5 30,29 42,48 7,11 8,12 13,14 5,2 10,2 16,0 4,-2 9,-8 9,-10 -1,-1 -40,-150 -88,-332 -62,-236 -88,-332 -89,-333 -7,-5 -21,-10 -30,-10 -10,0 -24,5 -31,10 -2,2 1,12 48,164 28,89 50,162 50,163 0,0 -7,-2 -14,-5 -17,-5 -36,-10 -52,-13 -19,-3 -46,-3 -57,0 -24,6 -45,22 -55,42 -7,12 -9,20 -8,35 0,11 0,13 3,21 4,12 8,19 17,28 11,11 23,18 39,21 31,6 61,-10 71,-37 1,-4 3,-13 5,-22 5,-24 8,-29 16,-34 11,-4 17,-2 30,10 9,10 19,23 28,38 5,7 7,13 11,25 9,27 44,140 44,141 -1,0 -7,-2 -16,-5 -34,-11 -56,-15 -81,-15 -22,0 -28,1 -44,9 -22,10 -36,27 -43,49 -2,6 -2,10 -2,21 0,11 0,13 3,21 4,12 8,19 17,28 11,11 23,18 38,20 z"
           inkscape:connector-curvature="0" />
      </g>
      <g
         inkscape:export-ydpi="90"
         inkscape:export-xdpi="90"
         inkscape:export-filename="/home/matevz/apps/canorus/branches/matevz/src/fonts/r16.png"
         style="fill:url(#linearGradient2437);fill-opacity:1"
         id="g6755"
         transform="matrix(0.07818067,0,0,-0.07818067,75.632361,75.567408)">
        <path
           style="fill:url(#linearGradient2439);fill-opacity:1"
           id="path6757"
           d="m 110,203 c 15,4 30,2 44,-5 13,-7 23,-17 28,-31 1,-4 3,-13 5,-22 5,-24 8,-29 16,-34 7,-3 12,-3 17,0 9,5 30,29 42,48 7,11 8,12 13,14 5,2 10,2 16,0 4,-2 9,-8 9,-10 -1,-1 -40,-150 -88,-332 -62,-236 -88,-332 -89,-333 -7,-5 -21,-10 -30,-10 -10,0 -24,5 -31,10 -2,2 1,12 48,164 28,89 50,162 50,163 0,0 -7,-2 -14,-5 -17,-5 -36,-10 -52,-13 -19,-3 -46,-3 -57,0 -24,6 -45,22 -55,42 -7,12 -9,20 -8,35 0,11 0,13 3,21 4,12 8,19 17,28 11,11 23,18 39,21 31,6 61,-10 71,-37 1,-4 3,-13 5,-22 5,-24 8,-29 16,-34 11,-4 17,-2 30,10 9,10 19,23 28,38 5,7 7,13 11,25 9,27 44,140 44,141 -1,0 -7,-2 -16,-5 -34,-11 -56,-15 -81,-15 -22,0 -28,1 -44,9 -22,10 -36,27 -43,49 -2,6 -2,10 -2,21 0,11 0,13 3,21 4,12 8,19 17,28 11,11 23,18 38,20 z"
           inkscape:connector-curvature="0" />
      </g>
    </g>
    <rect
       style="opacity:1;fill:none;fill-opacity:0.39215686;fill-rule:nonzero;stroke:none;stroke-width:1.99100006;stroke-linecap:round;stroke-linejoin:round;stroke-miterlimit:4;stroke-dasharray:none;stroke-dashoffset:0;stroke-opacity:1"
       id="rect6764"
       width="59.07143"
       height="59.07143"
       x="57.071426"
       y="58.642849"
       inkscape:export-filename="/home/matevz/apps/canorus/branches/matevz/src/fonts/r16.png"
       inkscape:export-xdpi="90"
       inkscape:export-ydpi="90" />
  </g>
</svg>
