<?xml version="1.0" encoding="UTF-8" standalone="no"?>
<!-- Created with Inkscape (http://www.inkscape.org/) -->
<svg
   xmlns:dc="http://purl.org/dc/elements/1.1/"
   xmlns:cc="http://web.resource.org/cc/"
   xmlns:rdf="http://www.w3.org/1999/02/22-rdf-syntax-ns#"
   xmlns:svg="http://www.w3.org/2000/svg"
   xmlns="http://www.w3.org/2000/svg"
   xmlns:sodipodi="http://sodipodi.sourceforge.net/DTD/sodipodi-0.dtd"
   xmlns:inkscape="http://www.inkscape.org/namespaces/inkscape"
   width="128"
   height="128"
   id="svg3166"
   sodipodi:version="0.32"
   inkscape:version="0.45"
   sodipodi:modified="true"
   version="1.0">
  <defs
     id="defs3168" />
  <sodipodi:namedview
     id="base"
     pagecolor="#ffffff"
     bordercolor="#666666"
     borderopacity="1.0"
     gridtolerance="10000"
     guidetolerance="10"
     objecttolerance="10"
     inkscape:pageopacity="0.0"
     inkscape:pageshadow="2"
     inkscape:zoom="2.8"
     inkscape:cx="115.82349"
     inkscape:cy="40.160777"
     inkscape:document-units="px"
     inkscape:current-layer="layer1"
     width="128px"
     height="128px"
     inkscape:window-width="1600"
     inkscape:window-height="1171"
     inkscape:window-x="0"
     inkscape:window-y="0" />
  <metadata
     id="metadata3171">
    <rdf:RDF>
      <cc:Work
         rdf:about="">
        <dc:format>image/svg+xml</dc:format>
        <dc:type
           rdf:resource="http://purl.org/dc/dcmitype/StillImage" />
      </cc:Work>
    </rdf:RDF>
  </metadata>
  <g
     inkscape:label="Layer 1"
     inkscape:groupmode="layer"
     id="layer1">
    <g
       id="g7144"
       style="fill:none;fill-opacity:1;stroke:#454143;stroke-opacity:1"
       transform="matrix(0.9355806,0,0,0.9863416,8.1219071,3.4784518)">
      <path
         style="fill:none;fill-opacity:1;fill-rule:evenodd;stroke:#454143;stroke-width:7.69044638;stroke-linecap:butt;stroke-linejoin:miter;stroke-miterlimit:4;stroke-dasharray:none;stroke-opacity:1"
         d="M 3.5130493,83.626387 C 5.400158,82.629093 81.284831,-2.344223 103.22539,12.866171 C 125.16596,28.07656 80.239618,40.414275 80.239618,40.414275"
         id="path7146" />
      <path
         id="path7148"
         d="M 9.954145,87.275427 C 11.841253,86.278133 87.725928,1.3048167 109.66648,16.515212 C 131.60705,31.7256 86.680716,44.063314 86.680716,44.063314"
         style="fill:none;fill-opacity:1;fill-rule:evenodd;stroke:#454143;stroke-width:7.69044638;stroke-linecap:butt;stroke-linejoin:miter;stroke-miterlimit:4;stroke-dasharray:none;stroke-opacity:1" />
      <path
         style="fill:none;fill-opacity:1;fill-rule:evenodd;stroke:#454143;stroke-width:7.69044638;stroke-linecap:butt;stroke-linejoin:miter;stroke-miterlimit:4;stroke-dasharray:none;stroke-opacity:1"
         d="M 16.678957,90.862671 C 18.566066,89.865378 94.450737,4.892062 116.39129,20.102456 C 138.33185,35.312848 93.405528,47.650558 93.405528,47.650558"
         id="path7150" />
    </g>
    <path
       sodipodi:nodetypes="cccccc"
       id="path7137"
       d="M 85.455358,5.1531807 L 79.827298,27.519925 L 99.889121,109.6468 L 120.78838,104.05791 L 100.72656,21.93103 L 85.455358,5.1531807 z "
       style="fill:#403e3d;fill-opacity:1;fill-rule:evenodd;stroke:none;stroke-width:1px;stroke-linecap:butt;stroke-linejoin:miter;stroke-opacity:1" />
    <path
       style="fill:#403e3d;fill-opacity:1;fill-rule:evenodd;stroke:none;stroke-width:1px;stroke-linecap:butt;stroke-linejoin:miter;stroke-opacity:1"
       d="M 53.086396,13.373112 L 47.458336,35.739857 L 67.520161,117.86673 L 88.419422,112.27784 L 68.357599,30.150962 L 53.086396,13.373112 z "
       id="path7135"
       sodipodi:nodetypes="cccccc" />
    <path
       sodipodi:nodetypes="cccccc"
       id="path6156"
       d="M 20.953705,21.593045 L 15.325644,43.95979 L 35.387468,126.08667 L 56.28673,120.49777 L 36.224907,38.370894 L 20.953705,21.593045 z "
       style="fill:#403e3d;fill-opacity:1;fill-rule:evenodd;stroke:none;stroke-width:1px;stroke-linecap:butt;stroke-linejoin:miter;stroke-opacity:1" />
    <g
       id="g7139"
       transform="matrix(0.9355806,0,0,0.9863416,1.506353,0.7384746)">
      <path
         id="path4182"
         d="M 3.5130493,83.626387 C 5.400158,82.629093 81.284831,-2.344223 103.22539,12.866171 C 125.16596,28.07656 80.239618,40.414275 80.239618,40.414275"
         style="fill:none;fill-opacity:0.75;fill-rule:evenodd;stroke:#ff0000;stroke-width:7.69044638;stroke-linecap:butt;stroke-linejoin:miter;stroke-miterlimit:4;stroke-dasharray:none;stroke-opacity:1" />
      <path
         style="fill:none;fill-opacity:0.75;fill-rule:evenodd;stroke:#00ff00;stroke-width:7.69044638;stroke-linecap:butt;stroke-linejoin:miter;stroke-miterlimit:4;stroke-dasharray:none;stroke-opacity:1"
         d="M 9.954145,87.275427 C 11.841253,86.278133 87.725928,1.3048167 109.66648,16.515212 C 131.60705,31.7256 86.680716,44.063314 86.680716,44.063314"
         id="path5177" />
      <path
         id="path5179"
         d="M 16.678957,90.862671 C 18.566066,89.865378 94.450737,4.892062 116.39129,20.102456 C 138.33185,35.312848 93.405528,47.650558 93.405528,47.650558"
         style="fill:none;fill-opacity:0.75;fill-rule:evenodd;stroke:#0000ff;stroke-width:7.69044638;stroke-linecap:butt;stroke-linejoin:miter;stroke-miterlimit:4;stroke-dasharray:none;stroke-opacity:1" />
    </g>
    <g
       id="g6158"
       transform="matrix(0.9355806,0,0,0.9863416,1.506353,0.7384746)">
      <path
         sodipodi:nodetypes="cccccc"
         id="path7023"
         d="M 14.97802,19.375589 L 8.9624384,42.052059 L 30.405616,125.31619 L 52.743901,119.6499 L 31.300722,36.385771 L 14.97802,19.375589 z "
         style="fill:#ff0000;fill-opacity:1;fill-rule:evenodd;stroke:none;stroke-width:1px;stroke-linecap:butt;stroke-linejoin:miter;stroke-opacity:1" />
      <path
         sodipodi:nodetypes="ccccccccc"
         id="path7997"
         d="M 8.8743222,42.015148 L 13.277995,44.858446 L 15.998326,40.486442 L 20.975904,42.876866 L 23.863272,38.810626 L 28.521104,40.974367 L 31.285995,36.374547 L 14.955133,19.29602 L 8.8743222,42.015148 z "
         style="fill:#ffea0f;fill-opacity:1;fill-rule:evenodd;stroke:none;stroke-width:1px;stroke-linecap:butt;stroke-linejoin:miter;stroke-opacity:1" />
      <path
         sodipodi:nodetypes="cccc"
         id="path8970"
         d="M 14.936251,19.270759 L 12.928738,26.784826 L 20.343857,24.875195 L 14.936251,19.270759 z "
         style="fill:#ff0000;fill-opacity:1;fill-rule:evenodd;stroke:none;stroke-width:1px;stroke-linecap:butt;stroke-linejoin:miter;stroke-opacity:1" />
      <path
         sodipodi:nodetypes="cc"
         id="path9941"
         d="M 13.086395,44.62454 L 33.568186,124.15558"
         style="fill:none;fill-opacity:0.75;fill-rule:evenodd;stroke:#ffe589;stroke-width:1.072667;stroke-linecap:round;stroke-linejoin:miter;stroke-miterlimit:4;stroke-dasharray:none;stroke-opacity:1" />
      <path
         style="fill:none;fill-opacity:0.75;fill-rule:evenodd;stroke:#ffe589;stroke-width:1.072667;stroke-linecap:round;stroke-linejoin:miter;stroke-miterlimit:4;stroke-dasharray:none;stroke-opacity:1"
         d="M 20.775936,42.644236 L 41.257729,122.17527"
         id="path10914"
         sodipodi:nodetypes="cc" />
      <path
         sodipodi:nodetypes="cc"
         id="path10916"
         d="M 28.121169,40.752604 L 48.60296,120.28364"
         style="fill:none;fill-opacity:0.75;fill-rule:evenodd;stroke:#ffe589;stroke-width:1.072667;stroke-linecap:round;stroke-linejoin:miter;stroke-miterlimit:4;stroke-dasharray:none;stroke-opacity:1" />
    </g>
    <g
       id="g5161"
       transform="matrix(0.9059145,-0.246412,0.2337307,0.9550658,-12.042462,11.144598)">
      <path
         style="fill:#00ff00;fill-opacity:1;fill-rule:evenodd;stroke:none;stroke-width:1px;stroke-linecap:butt;stroke-linejoin:miter;stroke-opacity:1"
         d="M 61.499389,15.905279 L 50.009423,36.359868 L 49.971268,122.34082 L 73.016809,122.43485 L 73.054963,36.453895 L 61.499389,15.905279 z "
         id="path4156"
         sodipodi:nodetypes="cccccc" />
      <path
         style="fill:#ffea0f;fill-opacity:1;fill-rule:evenodd;stroke:none;stroke-width:1px;stroke-linecap:butt;stroke-linejoin:miter;stroke-opacity:1"
         d="M 49.933322,36.302114 L 53.487035,40.155399 L 57.21334,36.60163 L 61.435899,40.159776 L 65.247558,36.943806 L 69.217141,40.202577 L 73.043507,36.439348 L 61.497106,15.822516 L 49.933322,36.302114 z "
         id="path4158"
         sodipodi:nodetypes="ccccccccc" />
      <path
         style="fill:#00ff00;fill-opacity:1;fill-rule:evenodd;stroke:none;stroke-width:1px;stroke-linecap:butt;stroke-linejoin:miter;stroke-opacity:1"
         d="M 61.485133,15.793338 L 57.66408,22.567618 L 65.321147,22.571015 L 61.485133,15.793338 z "
         id="path4160"
         sodipodi:nodetypes="cccc" />
      <path
         style="fill:none;fill-opacity:0.75;fill-rule:evenodd;stroke:#ffe589;stroke-width:1.072667;stroke-linecap:round;stroke-linejoin:miter;stroke-miterlimit:4;stroke-dasharray:none;stroke-opacity:1"
         d="M 53.359946,39.881043 L 53.323505,122.0071"
         id="path4162"
         sodipodi:nodetypes="cc" />
      <path
         sodipodi:nodetypes="cc"
         id="path4164"
         d="M 61.300389,39.884566 L 61.263951,122.01062"
         style="fill:none;fill-opacity:0.75;fill-rule:evenodd;stroke:#ffe589;stroke-width:1.072667;stroke-linecap:round;stroke-linejoin:miter;stroke-miterlimit:4;stroke-dasharray:none;stroke-opacity:1" />
      <path
         style="fill:none;fill-opacity:0.75;fill-rule:evenodd;stroke:#ffe589;stroke-width:1.072667;stroke-linecap:round;stroke-linejoin:miter;stroke-miterlimit:4;stroke-dasharray:none;stroke-opacity:1"
         d="M 68.885289,39.887932 L 68.84885,122.01398"
         id="path4166"
         sodipodi:nodetypes="cc" />
    </g>
    <g
       id="g5169"
       transform="matrix(0.9059145,-0.246412,0.2337307,0.9550658,-12.042462,11.144598)">
      <path
         sodipodi:nodetypes="cccccc"
         id="path4168"
         d="M 96.499389,15.905279 L 85.009423,36.359868 L 84.971268,122.34082 L 108.01681,122.43485 L 108.05496,36.453895 L 96.499389,15.905279 z "
         style="fill:#0000ff;fill-opacity:1;fill-rule:evenodd;stroke:none;stroke-width:1px;stroke-linecap:butt;stroke-linejoin:miter;stroke-opacity:1" />
      <path
         sodipodi:nodetypes="ccccccccc"
         id="path4170"
         d="M 84.933322,36.302114 L 88.487035,40.155399 L 92.21334,36.60163 L 96.435899,40.159776 L 100.24756,36.943806 L 104.21714,40.202577 L 108.04351,36.439348 L 96.497106,15.822516 L 84.933322,36.302114 z "
         style="fill:#ffea0f;fill-opacity:1;fill-rule:evenodd;stroke:none;stroke-width:1px;stroke-linecap:butt;stroke-linejoin:miter;stroke-opacity:1" />
      <path
         sodipodi:nodetypes="cccc"
         id="path4172"
         d="M 96.485133,15.793338 L 92.66408,22.567618 L 100.32115,22.571015 L 96.485133,15.793338 z "
         style="fill:#0000ff;fill-opacity:1;fill-rule:evenodd;stroke:none;stroke-width:1px;stroke-linecap:butt;stroke-linejoin:miter;stroke-opacity:1" />
      <path
         sodipodi:nodetypes="cc"
         id="path4174"
         d="M 88.359946,39.881043 L 88.323505,122.0071"
         style="fill:none;fill-opacity:0.75;fill-rule:evenodd;stroke:#ffe589;stroke-width:1.072667;stroke-linecap:round;stroke-linejoin:miter;stroke-miterlimit:4;stroke-dasharray:none;stroke-opacity:1" />
      <path
         style="fill:none;fill-opacity:0.75;fill-rule:evenodd;stroke:#ffe589;stroke-width:1.072667;stroke-linecap:round;stroke-linejoin:miter;stroke-miterlimit:4;stroke-dasharray:none;stroke-opacity:1"
         d="M 96.300389,39.884566 L 96.263951,122.01062"
         id="path4176"
         sodipodi:nodetypes="cc" />
      <path
         sodipodi:nodetypes="cc"
         id="path4178"
         d="M 103.88529,39.887932 L 103.84885,122.01398"
         style="fill:none;fill-opacity:0.75;fill-rule:evenodd;stroke:#ffe589;stroke-width:1.072667;stroke-linecap:round;stroke-linejoin:miter;stroke-miterlimit:4;stroke-dasharray:none;stroke-opacity:1" />
    </g>
  </g>
</svg>
