<?xml version="1.0" standalone="no"?>
<!DOCTYPE svg PUBLIC "-//W3C//DTD SVG 1.1//EN" "http://www.w3.org/Graphics/SVG/1.1/DTD/svg11.dtd" >
<svg viewBox="-19 -876 1000 1000">
  <g transform="matrix(1 0 0 -1 0 800)">
   <path fill="currentColor"
d="M-19 -250v250h9h10v-12c3 -47 19 -93 51 -146c10 -16 27 -43 51 -77c38 -55 54 -79 68 -108c10 -20 15 -31 21 -49c18 -57 16 -111 -7 -162l-4 -10l6 -15c8 -18 12 -30 16 -46c5 -22 6 -32 6 -59c0 -35 -3 -62 -12 -97c-7 -30 -25 -79 -31 -86c-11 -13 -34 -11 -42 4
c-1 2 -2 7 -3 10c0 5 0 6 7 20c19 42 30 83 34 127c3 40 -2 70 -20 108c-22 45 -53 85 -112 144l-28 28l-1 -37v-37h-10h-9v250zM29 -242c-10 11 -21 22 -24 25l-5 5v-12c2 -36 11 -69 30 -106c16 -33 29 -54 75 -118c17 -23 33 -47 37 -52c3 -6 7 -10 7 -10s2 4 3 9
c9 40 2 80 -22 127c-20 40 -51 79 -101 132z" />
  </g>

</svg>
