<?xml version="1.0" standalone="no"?>
<!DOCTYPE svg PUBLIC "-//W3C//DTD SVG 1.1//EN" "http://www.w3.org/Graphics/SVG/1.1/DTD/svg11.dtd" >
<svg viewBox="-19 -750 1000 1000">
  <g transform="matrix(1 0 0 -1 0 800)">
   <path fill="currentColor"
d="M-19 -125v125h9h10v-13c2 -38 12 -78 30 -118c15 -37 31 -65 75 -136c34 -54 47 -76 61 -105c30 -58 43 -109 43 -161c0 -57 -12 -123 -34 -184c-8 -23 -10 -26 -17 -30c-12 -6 -29 -1 -35 10c-1 3 -2 7 -3 10c0 5 0 7 5 19c25 60 39 129 37 182c-2 33 -9 61 -27 98
c-23 47 -58 94 -118 160l-16 18h-10h-10v125z" />
  </g>

</svg>
