<?xml version="1.0" encoding="UTF-8" standalone="no"?>
<svg
   xmlns:dc="http://purl.org/dc/elements/1.1/"
   xmlns:cc="http://web.resource.org/cc/"
   xmlns:rdf="http://www.w3.org/1999/02/22-rdf-syntax-ns#"
   xmlns:svg="http://www.w3.org/2000/svg"
   xmlns="http://www.w3.org/2000/svg"
   xmlns:xlink="http://www.w3.org/1999/xlink"
   xmlns:sodipodi="http://inkscape.sourceforge.net/DTD/sodipodi-0.dtd"
   xmlns:inkscape="http://www.inkscape.org/namespaces/inkscape"
   viewBox="-24 -321 1000 1000"
   id="svg74155"
   sodipodi:version="0.32"
   inkscape:version="0.43"
   width="210mm"
   height="297mm"
   sodipodi:docname="r4.svg"
   sodipodi:docbase="/home/matevz/apps/canorus/branches/matevz/src/fonts">
  <metadata
     id="metadata74164">
    <rdf:RDF>
      <cc:Work
         rdf:about="">
        <dc:format>image/svg+xml</dc:format>
        <dc:type
           rdf:resource="http://purl.org/dc/dcmitype/StillImage" />
      </cc:Work>
    </rdf:RDF>
  </metadata>
  <defs
     id="defs74162">
    <linearGradient
       id="linearGradient2301">
      <stop
         style="stop-color:#000000;stop-opacity:1;"
         offset="0"
         id="stop2303" />
      <stop
         style="stop-color:#646464;stop-opacity:1;"
         offset="1"
         id="stop2305" />
    </linearGradient>
    <linearGradient
       inkscape:collect="always"
       xlink:href="#linearGradient2301"
       id="linearGradient2307"
       x1="-23.393877"
       y1="38.446701"
       x2="245.68112"
       y2="38.446701"
       gradientUnits="userSpaceOnUse" />
  </defs>
  <sodipodi:namedview
     inkscape:window-height="978"
     inkscape:window-width="1400"
     inkscape:pageshadow="2"
     inkscape:pageopacity="0.0"
     borderopacity="1.0"
     bordercolor="#666666"
     pagecolor="#ffffff"
     id="base"
     inkscape:zoom="4.0207896"
     inkscape:cx="84.496641"
     inkscape:cy="52.14394"
     inkscape:window-x="0"
     inkscape:window-y="0"
     inkscape:current-layer="svg74155" />
  <g
     transform="matrix(0.223013,0,0,-0.223013,42.46152,811.825)"
     id="g75041"
     style="fill:#000000;fill-opacity:0.39215686"
     inkscape:export-filename="/home/matevz/apps/canorus/branches/matevz/src/fonts/r4.png"
     inkscape:export-xdpi="90"
     inkscape:export-ydpi="90">
    <path
       d="M 66,396 C 71,399 75,398 80,396 C 83,395 102,372 160,304 C 201,254 237,211 239,208 C 247,197 248,184 241,170 C 234,154 222,142 186,112 C 175,102 163,92 159,88 C 122,53 112,-2 134,-45 C 141,-58 139,-56 201,-129 C 216,-146 229,-162 230,-164 C 232,-169 232,-173 230,-178 C 228,-183 225,-186 220,-188 C 212,-192 206,-190 199,-183 C 182,-165 147,-152 115,-150 C 94,-149 78,-154 69,-163 C 54,-180 51,-220 61,-259 C 66,-278 73,-293 82,-305 C 86,-310 86,-314 82,-318 C 78,-322 74,-322 70,-318 C 62,-311 36,-274 23,-251 C 16,-238 2,-211 -4,-197 C -10,-183 -18,-157 -21,-143 C -24,-129 -24,-108 -22,-100 C -18,-89 -11,-81 -1,-78 C 8,-76 27,-76 44,-77 C 67,-80 88,-85 116,-94 L 129,-99 L 124,-93 L 25,24 C -5,60 -8,64 -9,76 C -10,95 4,114 50,154 C 78,177 85,184 92,193 C 120,231 122,282 97,321 C 95,324 85,336 75,348 C 57,369 54,374 54,379 C 54,386 59,393 66,396 z "
       id="path75043"
       style="fill:#000000;fill-opacity:0.39215686" />
  </g>
  <g
     transform="matrix(0.223014,0,0,-0.223014,37.63829,807.2348)"
     id="g74157"
     style="fill-opacity:1.0;fill:url(#linearGradient2307)"
     inkscape:export-filename="/home/matevz/apps/canorus/branches/matevz/src/fonts/r4.png"
     inkscape:export-xdpi="90"
     inkscape:export-ydpi="90">
    <path
       d="M 66,396 C 71,399 75,398 80,396 C 83,395 102,372 160,304 C 201,254 237,211 239,208 C 247,197 248,184 241,170 C 234,154 222,142 186,112 C 175,102 163,92 159,88 C 122,53 112,-2 134,-45 C 141,-58 139,-56 201,-129 C 216,-146 229,-162 230,-164 C 232,-169 232,-173 230,-178 C 228,-183 225,-186 220,-188 C 212,-192 206,-190 199,-183 C 182,-165 147,-152 115,-150 C 94,-149 78,-154 69,-163 C 54,-180 51,-220 61,-259 C 66,-278 73,-293 82,-305 C 86,-310 86,-314 82,-318 C 78,-322 74,-322 70,-318 C 62,-311 36,-274 23,-251 C 16,-238 2,-211 -4,-197 C -10,-183 -18,-157 -21,-143 C -24,-129 -24,-108 -22,-100 C -18,-89 -11,-81 -1,-78 C 8,-76 27,-76 44,-77 C 67,-80 88,-85 116,-94 L 129,-99 L 124,-93 L 25,24 C -5,60 -8,64 -9,76 C -10,95 4,114 50,154 C 78,177 85,184 92,193 C 120,231 122,282 97,321 C 95,324 85,336 75,348 C 57,369 54,374 54,379 C 54,386 59,393 66,396 z "
       id="path74159"
       style="fill:url(#linearGradient2307);fill-opacity:1.0" />
  </g>
  <rect
     style="opacity:1;fill:none;fill-opacity:0.39215686;fill-rule:nonzero;stroke:none;stroke-width:4;stroke-linecap:round;stroke-linejoin:round;stroke-miterlimit:4;stroke-dasharray:none;stroke-dashoffset:0;stroke-opacity:1"
     id="rect74166"
     width="172.02116"
     height="172.02116"
     x="-24"
     y="714.1217"
     inkscape:export-filename="/home/matevz/apps/canorus/branches/matevz/src/fonts/r4.png"
     inkscape:export-xdpi="90"
     inkscape:export-ydpi="90" />
</svg>
