<?xml version="1.0" encoding="UTF-8" standalone="no"?>
<svg
   xmlns:dc="http://purl.org/dc/elements/1.1/"
   xmlns:cc="http://web.resource.org/cc/"
   xmlns:rdf="http://www.w3.org/1999/02/22-rdf-syntax-ns#"
   xmlns:svg="http://www.w3.org/2000/svg"
   xmlns="http://www.w3.org/2000/svg"
   xmlns:xlink="http://www.w3.org/1999/xlink"
   xmlns:sodipodi="http://sodipodi.sourceforge.net/DTD/sodipodi-0.dtd"
   xmlns:inkscape="http://www.inkscape.org/namespaces/inkscape"
   viewBox="0 -265 1000 1000"
   id="svg59883"
   sodipodi:version="0.32"
   inkscape:version="0.45"
   width="128"
   height="128"
   sodipodi:docname="timesigC.svg"
   sodipodi:docbase="/home/matevz/canorus/artwork/images"
   inkscape:output_extension="org.inkscape.output.svg.inkscape"
   sodipodi:modified="true"
   version="1.0">
  <metadata
     id="metadata59892">
    <rdf:RDF>
      <cc:Work
         rdf:about="">
        <dc:format>image/svg+xml</dc:format>
        <dc:type
           rdf:resource="http://purl.org/dc/dcmitype/StillImage" />
      </cc:Work>
    </rdf:RDF>
  </metadata>
  <defs
     id="defs59890">
    <linearGradient
       id="linearGradient62519">
      <stop
         style="stop-color:#000000;stop-opacity:1;"
         offset="0"
         id="stop62521" />
      <stop
         style="stop-color:#646464;stop-opacity:1;"
         offset="1"
         id="stop62523" />
    </linearGradient>
    <linearGradient
       inkscape:collect="always"
       xlink:href="#linearGradient62519"
       id="linearGradient62525"
       x1="0.5"
       y1="-0.15848605"
       x2="430"
       y2="-0.15848605"
       gradientUnits="userSpaceOnUse" />
    <linearGradient
       inkscape:collect="always"
       xlink:href="#linearGradient62519"
       id="linearGradient62527"
       gradientUnits="userSpaceOnUse"
       x1="0.5"
       y1="-0.15848605"
       x2="430"
       y2="-0.15848605" />
    <linearGradient
       inkscape:collect="always"
       xlink:href="#linearGradient62519"
       id="linearGradient4372"
       gradientUnits="userSpaceOnUse"
       x1="0.5"
       y1="-0.15848605"
       x2="430"
       y2="-0.15848605" />
    <linearGradient
       inkscape:collect="always"
       xlink:href="#linearGradient62519"
       id="linearGradient4374"
       gradientUnits="userSpaceOnUse"
       x1="0.5"
       y1="-0.15848605"
       x2="430"
       y2="-0.15848605" />
  </defs>
  <sodipodi:namedview
     inkscape:window-height="978"
     inkscape:window-width="1400"
     inkscape:pageshadow="2"
     inkscape:pageopacity="0.0"
     borderopacity="1.0"
     bordercolor="#666666"
     pagecolor="#ffffff"
     id="base"
     inkscape:zoom="2.0103948"
     inkscape:cx="96.71926"
     inkscape:cy="23.995738"
     inkscape:window-x="0"
     inkscape:window-y="140"
     inkscape:current-layer="svg59883"
     width="128px"
     height="128px" />
  <g
     id="g4366"
     transform="matrix(5.9840801,0,0,5.9840801,-1874.5889,162.38736)">
    <g
       inkscape:export-ydpi="90"
       inkscape:export-xdpi="90"
       inkscape:export-filename="/home/matevz/apps/canorus/branches/matevz/src/fonts/timesigC.png"
       style="fill:#000000;fill-opacity:0.39215686"
       id="g60769"
       transform="matrix(0.293883,0,0,-0.293883,334.77268,13.830127)">
      <path
         style="fill:#000000;fill-opacity:0.39215686"
         id="path60771"
         d="M 222,264 C 237,265 268,265 278,263 C 341,251 392,205 413,142 C 426,105 424,80 409,58 C 392,34 364,24 336,34 C 295,48 276,87 290,129 C 299,157 322,175 352,177 L 362,177 L 360,180 C 353,190 337,205 324,213 C 291,234 250,240 211,230 C 168,219 146,187 140,124 C 136,84 136,-84 140,-123 C 145,-168 157,-198 178,-215 C 196,-229 224,-236 256,-235 C 270,-234 281,-232 294,-227 C 338,-211 376,-167 394,-110 C 397,-101 400,-91 401,-87 C 404,-78 406,-76 414,-75 C 422,-75 430,-81 430,-88 C 430,-93 424,-114 420,-127 C 411,-149 397,-175 382,-195 C 373,-207 353,-226 342,-234 C 306,-260 273,-268 224,-264 C 161,-259 109,-237 70,-199 C 33,-161 10,-110 2,-44 C 0,-24 0,24 2,44 C 7,83 16,115 31,144 C 67,215 133,256 222,264 z " />
    </g>
    <g
       inkscape:export-ydpi="90"
       inkscape:export-xdpi="90"
       inkscape:export-filename="/home/matevz/apps/canorus/branches/matevz/src/fonts/timesigC.png"
       style="fill:url(#linearGradient4372);fill-opacity:1"
       id="g59885"
       transform="matrix(0.293883,0,0,-0.293883,332.34607,10.345327)">
      <path
         style="fill:url(#linearGradient4374);fill-opacity:1"
         id="path59887"
         d="M 222,264 C 237,265 268,265 278,263 C 341,251 392,205 413,142 C 426,105 424,80 409,58 C 392,34 364,24 336,34 C 295,48 276,87 290,129 C 299,157 322,175 352,177 L 362,177 L 360,180 C 353,190 337,205 324,213 C 291,234 250,240 211,230 C 168,219 146,187 140,124 C 136,84 136,-84 140,-123 C 145,-168 157,-198 178,-215 C 196,-229 224,-236 256,-235 C 270,-234 281,-232 294,-227 C 338,-211 376,-167 394,-110 C 397,-101 400,-91 401,-87 C 404,-78 406,-76 414,-75 C 422,-75 430,-81 430,-88 C 430,-93 424,-114 420,-127 C 411,-149 397,-175 382,-195 C 373,-207 353,-226 342,-234 C 306,-260 273,-268 224,-264 C 161,-259 109,-237 70,-199 C 33,-161 10,-110 2,-44 C 0,-24 0,24 2,44 C 7,83 16,115 31,144 C 67,215 133,256 222,264 z " />
    </g>
  </g>
</svg>
