<?xml version="1.0" encoding="UTF-8" standalone="no"?>
<!-- Created with Inkscape (http://www.inkscape.org/) -->
<svg
   xmlns:dc="http://purl.org/dc/elements/1.1/"
   xmlns:cc="http://web.resource.org/cc/"
   xmlns:rdf="http://www.w3.org/1999/02/22-rdf-syntax-ns#"
   xmlns:svg="http://www.w3.org/2000/svg"
   xmlns="http://www.w3.org/2000/svg"
   xmlns:sodipodi="http://sodipodi.sourceforge.net/DTD/sodipodi-0.dtd"
   xmlns:inkscape="http://www.inkscape.org/namespaces/inkscape"
   id="svg2310"
   sodipodi:version="0.32"
   inkscape:version="0.45"
   width="128"
   height="128"
   version="1.0"
   sodipodi:docbase="/home/matevz/canorus/artwork/icons"
   sodipodi:docname="lilypondsource.svg"
   inkscape:output_extension="org.inkscape.output.svg.inkscape"
   sodipodi:modified="true">
  <metadata
     id="metadata2315">
    <rdf:RDF>
      <cc:Work
         rdf:about="">
        <dc:format>image/svg+xml</dc:format>
        <dc:type
           rdf:resource="http://purl.org/dc/dcmitype/StillImage" />
      </cc:Work>
    </rdf:RDF>
  </metadata>
  <defs
     id="defs2313" />
  <sodipodi:namedview
     inkscape:window-height="1126"
     inkscape:window-width="1600"
     inkscape:pageshadow="2"
     inkscape:pageopacity="0.0"
     guidetolerance="10.0"
     gridtolerance="10.0"
     objecttolerance="10.0"
     borderopacity="1.0"
     bordercolor="#666666"
     pagecolor="#ffffff"
     id="base"
     inkscape:zoom="0.26102184"
     inkscape:cx="306.41158"
     inkscape:cy="-584.29615"
     inkscape:window-x="0"
     inkscape:window-y="0"
     inkscape:current-layer="svg2310"
     width="128px"
     height="128px" />
  <rect
     style="opacity:1;fill:#00b1ff;fill-opacity:1;fill-rule:evenodd;stroke:none;stroke-width:6;stroke-linecap:round;stroke-linejoin:round;stroke-miterlimit:4;stroke-dasharray:none;stroke-dashoffset:8;stroke-opacity:1"
     id="rect8443"
     width="128.38196"
     height="128.04233"
     x="-4.1199683e-17"
     y="0.042328067" />
  <path
     style="fill:#79c169;fill-opacity:1;fill-rule:evenodd;stroke:#004f00;stroke-width:7.56685257px;stroke-linecap:butt;stroke-linejoin:miter;stroke-opacity:1"
     d="M 60.093387,55.565589 C 60.093387,55.565589 24.220899,57.487329 13.971621,69.017771 C 3.7223341,80.548212 4.3629136,87.594589 5.6440725,100.40619 C 6.9252386,113.2178 34.470178,124.74824 44.719464,121.54534 C 54.968744,118.34243 89.560057,106.812 81.873098,97.203297 C 74.18615,87.594589 60.733966,55.565589 60.093387,55.565589 z "
     id="path8371" />
  <path
     style="fill:#79c169;fill-opacity:1;fill-rule:evenodd;stroke:#004f00;stroke-width:7.56685257px;stroke-linecap:butt;stroke-linejoin:miter;stroke-opacity:1"
     d="M 106.80758,38.14568 C 106.80758,38.14568 78.622061,43.910902 68.372782,55.441343 C 58.123503,66.971784 77.340909,71.455843 78.622068,84.267447 C 79.903226,97.079048 88.230765,106.04716 98.480043,102.84426 C 108.72932,99.64136 118.9786,100.28195 122.82208,86.829771 C 126.20257,74.998078 125.3844,43.270321 106.80758,38.14568 z "
     id="path8375"
     sodipodi:nodetypes="cssssc" />
  <path
     style="fill:#ffffff;fill-opacity:1;fill-rule:evenodd;stroke:none;stroke-width:1px;stroke-linecap:butt;stroke-linejoin:miter;stroke-opacity:1"
     d="M 72.448682,9.6612329 L 52.010048,33.941334 L 24.390258,18.69569 C 24.390258,18.69569 28.257026,71.208462 52.562436,77.984307 C 76.867857,84.760151 73.001079,81.372225 73.001079,81.372225 C 73.001079,81.372225 93.439717,81.936877 105.59243,65.561927 C 117.74515,49.186974 113.87837,11.355195 113.87837,11.355195 L 86.810978,36.199948 L 72.448682,9.6612329 z "
     id="path7394" />
  <path
     sodipodi:type="arc"
     style="opacity:1;fill:#ffab00;fill-opacity:1;fill-rule:evenodd;stroke:none;stroke-width:6;stroke-linecap:round;stroke-linejoin:round;stroke-miterlimit:4;stroke-dasharray:none;stroke-dashoffset:8;stroke-opacity:0.82572614"
     id="path8365"
     sodipodi:cx="6.7942114"
     sodipodi:cy="11.899529"
     sodipodi:rx="1.5863136"
     sodipodi:ry="1.1074265"
     d="M 8.380525 11.899529 A 1.5863136 1.1074265 0 1 1  5.2078978,11.899529 A 1.5863136 1.1074265 0 1 1  8.380525 11.899529 z"
     transform="matrix(9.9218327,0,0,8.8164495,7.0936721,-44.480067)" />
  <text
     xml:space="preserve"
     style="font-size:150.09822083px;font-style:normal;font-weight:bold;text-align:justify;text-anchor:start;fill:#000000;fill-opacity:1;stroke:none;stroke-width:1px;stroke-linecap:butt;stroke-linejoin:miter;stroke-opacity:1;font-family:Courier New"
     x="-10.345903"
     y="108.80305"
     id="text2319"><tspan
       sodipodi:role="line"
       id="tspan2321"
       x="-10.345903"
       y="108.80305">\</tspan></text>
  <path
     sodipodi:type="arc"
     style="opacity:1;fill:#ff0000;fill-opacity:1;fill-rule:evenodd;stroke:none;stroke-width:6;stroke-linecap:round;stroke-linejoin:round;stroke-miterlimit:4;stroke-dasharray:none;stroke-dashoffset:8;stroke-opacity:0.82572614"
     id="path8367"
     sodipodi:cx="6.9438634"
     sodipodi:cy="11.360781"
     sodipodi:rx="0.53874803"
     sodipodi:ry="0.86798292"
     d="M 7.4826114 11.360781 A 0.53874803 0.86798292 0 1 1  6.4051154,11.360781 A 0.53874803 0.86798292 0 1 1  7.4826114 11.360781 z"
     transform="matrix(9.9218327,0,0,8.8164495,5.9058099,-47.118863)" />
</svg>
